<svg xmlns="http://www.w3.org/2000/svg" width="80" height="80" fill="none" viewBox="0 0 80 80">
	<symbol id="0" viewBox="0 0 80 80"><g clip-path="url(#a)"><mask id="b" width="82" height="83" x="-1" y="-2" maskUnits="userSpaceOnUse" style="mask-type:alpha"><circle cx="40" cy="39.9" r="40.5" fill="#D9D9D9" stroke="#058FD6"/></mask><g mask="url(#b)"><path fill="#F9F9F9" d="M-40-40.1h160v160H-40z"/><path fill="#734BF9" d="M31.1 62.6S12 81 22 107.3h23.6S45.9 93 48.9 85s0-22.8 0-22.8l-17.8.4Z"/><path fill="#734BF9" d="M11 86.9s12.1 1 5.5-9.7C10.7 67.9-2 75-.1 87.8c1.7 11.4 8.5 17.8 24.9 18.3l-1-4.4S8 103.3 4.8 89.1c-.6-2.4-.6-5 .1-7.2.9-2.7 4.2-6.2 7.9-2.6 3.3 3.3 2 7.2-1.7 7.6Zm20.1-4.5s5 26.2 7.2 28.3c2.2 2.2 5.4 3.6 4.3-1.4-1-4-3.7-16.6-4-22a6 6 0 0 0-2.5-4.8c-2.3-1.6-5.2-3.1-5-.1Zm10.5 1.7v2.8a151 151 0 0 0 5 24c1.8 2 4.2 3.3 3.3-1.4-.7-3.9-2.7-15.8-3-21-.1-4.7 1-6.5-.2-7.5-1.6-1.4-4.4-.6-5 3.1Z"/><path fill="#AD95FB" d="M50.8 63.4c-4.8 1.4-11 2.5-11 2.5s-6.1-1.1-11-2.5c0 0-5.7 4 .7 10.2a18 18 0 0 0 5.4 3.5c1.4.6 5 2.5 5 4.8 0-2.3 3.5-4.2 4.9-4.8 2-1 3.8-2 5.4-3.5 6.3-6.3.6-10.2.6-10.2ZM11.6 19.6S6.9 34 14.5 43.7L27.8 31s-6.4-7.5-16.2-11.3Z"/><path fill="#734BF9" d="m19.6 38.8 8.2-7.9s-6.4-7.5-16.2-11.3c0 0 7.7 10.3 8 19.2Z"/><path fill="#AD95FB" d="M68.1 19.6s4.7 14.5-2.9 24.1L52 31s6.4-7.5 16.2-11.3Z"/><path fill="#734BF9" d="M60.1 38.8 52 31s6.4-7.5 16.2-11.3c0 0-7.7 10.3-8 19.2Z"/><path fill="#734BF9" d="M39.8 28.6s-21.1-.8-30.2 17c0 0 7.5 18.9 30.2 20.7C62.6 64.5 70 45.7 70 45.7c-9-18-30.2-17.1-30.2-17.1Z"/><path fill="#AD95FB" d="M32 48.4c3.8 0 7-3 7-6.7s-3.2-6.6-7-6.6c-4 0-7 3-7 6.6 0 3.7 3 6.7 7 6.7Z"/><path fill="#25222C" d="M33.1 45.7a2 2 0 1 0 0-4 2 2 0 0 0 0 4Z"/><path fill="#AD95FB" d="M48.2 48.4c3.8 0 7-3 7-6.7s-3.2-6.6-7-6.6c-3.9 0-7 3-7 6.6 0 3.7 3.1 6.7 7 6.7Z"/><path fill="#25222C" d="M47 45.7a2 2 0 1 0 0-4 2 2 0 0 0 0 4ZM39.8 47c-11.1 0 0 6.1 0 6.1S51 47 39.8 47Z"/><path fill="#25222C" d="M33.4 57.4a4 4 0 0 1-1.2-.2c-3-1-4-5.4-4-5.6l1-.1s.7 4 3.3 4.8c1.8.6 4.2-.6 7-3.5l.6.6c-2.5 2.6-4.8 4-6.7 4Z"/><path fill="#25222C" d="M46.3 57.4c-2 0-4.3-1.4-6.8-4l.6-.6c2.9 2.9 5.2 4 7 3.5 2.6-.7 3.4-4.8 3.4-4.9l1 .2c-.1.2-1 4.7-4 5.6a4 4 0 0 1-1.2.2Z"/><path fill="#FF52AB" d="M35.2 57c.5 1.3 2.3 2.4 4.5 2.4s4-1.1 4.5-2.5c-1.4-.6-2.8-1.6-4.4-3.2a13.6 13.6 0 0 1-4.6 3.3Z"/></g></g><rect width="79" height="79" x=".5" y=".5" stroke="#AD95FB" fill="none" rx="39.5"/></symbol>
	<symbol id="1" viewBox="0 0 80 80"><g clip-path="url(#a)"><mask id="b" width="82" height="83" x="-1" y="-2" maskUnits="userSpaceOnUse" style="mask-type:alpha"><circle cx="40" cy="39.9" r="40.5" fill="#D9D9D9" stroke="#058FD6"/></mask><g mask="url(#b)"><path fill="#F9F9F9" d="M-40-40.1h160v160H-40z"/><path fill="#F9F9F9" d="M40 113.7a28.4 28.4 0 0 1-24.6-42.5l.6-1 .4 1.2C19 80.9 28.7 87.6 40 87.6c11.2 0 21-6.7 23.6-16.2l.3-1.3.7 1.1A28.4 28.4 0 0 1 40 113.6Z"/><path fill="#4F27D6" d="M39 94c16.5 0 30.3-10 34-23.5A37.4 37.4 0 0 0 39 49 38.4 38.4 0 0 0 5 70.5C8.7 83.9 22.5 94 39 94Zm10.2-69.2s4.1-11.6 16.1-4.9c12 6.8-1.1 18-1.1 18l-15-13.1Zm-18.5 0s-4.1-11.6-16.2-4.9c-12 6.8 1.2 18 1.2 18l15-13.1Z"/><path fill="#F9F9F9" stroke="#734BF9" d="M40 22.8a31 31 0 0 1 18.7 5.8c4.8 3.6 7.7 8.6 7.7 14s-2.9 10.3-7.7 14A31.4 31.4 0 0 1 40 62.3c-7.4 0-14-2.3-18.8-5.9a17.6 17.6 0 0 1-7.7-14 18 18 0 0 1 7.7-13.9A31.4 31.4 0 0 1 40 22.8Z"/><path fill="#AD95FB" d="M42.2 42.6s-2.7-16.3 7.2-13c9.9 3.1 19.3 18-7.2 13Z"/><path fill="#fff" d="M32 40.4a2.4 2.4 0 1 0 0-4.9 2.4 2.4 0 0 0 0 4.9Z"/><path fill="#AD95FB" d="M37.7 42.6s2.8-16.3-7.1-13c-10 3.1-19.4 18 7.1 13Z"/><path fill="#25222C" d="M48 40a2 2 0 1 0 0-4 2 2 0 0 0 0 4Zm-16 0a2 2 0 1 0 0-4 2 2 0 0 0 0 4Zm8.5.6c-18 1.6 0 9.6 0 9.6s17.8-8 0-9.6Z"/><path fill="#E11A81" d="m40.4 50.2-.5.7h.9l-.4-.7Zm.4.8h-.9a8.3 8.3 0 0 1-2.6 3 4 4 0 0 0 6.1 0 8.3 8.3 0 0 1-2.6-3Z"/><path fill="#25222C" d="M35.6 55c-3 0-5.2-4-5.3-4.2l.8-.4s2 3.7 4.5 3.7c1.5 0 3-1.4 4.4-4.1l.8.4c-1.6 3-3.3 4.6-5.2 4.6Z"/><path fill="#25222C" d="M45.2 55c-2 0-3.7-1.6-5.2-4.6l.8-.4c1.3 2.7 2.8 4 4.3 4 2.5 0 4.5-3.6 4.5-3.6l.8.4c0 .2-2.2 4.2-5.2 4.2Z"/></g></g><rect fill="none" width="79" height="79" x=".5" y=".5" stroke="#AD95FB" rx="39.5"/></symbol>
	<symbol id="2" viewBox="0 0 80 80"><g clip-path="url(#a)"><mask id="b" width="82" height="83" x="-1" y="-2" maskUnits="userSpaceOnUse" style="mask-type:alpha"><circle cx="40" cy="39.9" r="40.5" fill="#D9D9D9" stroke="#058FD6"/></mask><g mask="url(#b)"><path fill="#F9F9F9" d="M-40-40.1h160v160H-40z"/><path fill="#4F27D6" d="M60.8 57.5s-14 15.3 6 36.4c0 0 17.4-30.4-6-36.4Zm-38.9.2s12.9 16.2-8.3 36c0 0-15.5-31.4 8.3-36Z"/><path fill="#734BF9" d="m58.9 55.2-18 5.6L23 55.2s-25.2 35.2 18 49c43-13.8 17.9-49 17.9-49Z"/><path fill="#AD95FB" d="M61.5 59.3C60.1 56.5 59 55 59 55l-18.1 2.9-18.1-3s-1.2 1.7-2.7 4.5C16 70.8 35.4 78 40.8 88.2 46 78 65.7 70.8 61.5 59.3Z"/><path fill="#E11A81" d="M51 28.9s5.2-10.5 14.7-9.4c0 0-1.8 5-1 8 1 3 1.7 10.7-1.2 13.4L51 29Z"/><path fill="#4F27D6" d="M65.7 19.5C56.2 18.5 51 29 51 29l7 6.6c.4-8.8 7.8-16 7.8-16Z"/><path fill="#E11A81" d="M31 28.9s-5.5-10.5-15-9.4c0 0 2 5 1 8-.9 3-1.7 10.7 1.2 13.4L31 29Z"/><path fill="#4F27D6" d="M16.1 19.5C25.6 18.5 31 29 31 29l-7 6.6c-.4-8.8-7.8-16-7.8-16Z"/><path fill="#734BF9" d="M41 60.2c13.7 0 24.7-7.6 24.7-17 0-9.2-11-16.8-24.7-16.8S16.3 34 16.3 43.3c0 9.3 11 16.9 24.7 16.9Z"/><path fill="#25222C" d="M29.1 44.6a7 7 0 1 0 0-14 7 7 0 0 0 0 14Z"/><path fill="#F9F9F9" d="M29.1 42.4a4.8 4.8 0 1 0 0-9.6 4.8 4.8 0 0 0 0 9.6Z"/><path fill="#25222C" d="M29.1 39.3a1.7 1.7 0 1 0 0-3.4 1.7 1.7 0 0 0 0 3.4Zm23.3 5.3a7 7 0 1 0 0-14 7 7 0 0 0 0 14Z"/><path fill="#F9F9F9" d="M52.4 42.4a4.8 4.8 0 1 0 0-9.6 4.8 4.8 0 0 0 0 9.6Z"/><path fill="#25222C" d="M52.4 39.3a1.7 1.7 0 1 0 0-3.4 1.7 1.7 0 0 0 0 3.4Zm-11.9 2.4-5.6 3.6 5.6 7.3 5.5-7.3-5.5-3.6Zm1.5-9.1s4.8-6.4 9.6-5.7c5.2.8 7.4-.9 7.5-2.5 0 0 2.3 6.2-8 5-3.9-.5-7.5 3.3-7.5 3.3s-1 1.4-1.5-.1Zm-2.4 0s-4.8-6.4-9.5-5.7c-5.2.8-7.4-.9-7.5-2.5 0 0-2.3 6.2 8 5 3.9-.5 7.5 3.3 7.5 3.3s1 1.4 1.5-.1Z"/></g></g><rect fill="none" width="79" height="79" x=".5" y=".5" stroke="#AD95FB" rx="39.5"/></symbol>
	<symbol id="3" viewBox="0 0 80 80"><g clip-path="url(#a)"><mask id="b" width="82" height="83" x="-1" y="-2" maskUnits="userSpaceOnUse" style="mask-type:alpha"><circle cx="40" cy="39.9" r="40.5" fill="#D9D9D9" stroke="#058FD6"/></mask><g mask="url(#b)"><path fill="#F9F9F9" d="M-40-40.1h160v160H-40z"/><path fill="#4F27D6" d="M40.5 63.5s-36.2 6.2-16 36.8c0 0 1.5 2.7 16 2.7s16-2.7 16-2.7c20.2-30.6-16-36.8-16-36.8Z"/><path fill="#734BF9" d="M54.4 63.7c-1.1 4-10.6 3.4-13 3.2H41c-2.5.2-12.8.8-14-3.2 0 0-8.2 8.5-5 17 1 2.7 3 4.8 5.5 6.2 2.3 1.2 5.6 3.4 5.4 5.2-.4 2.7-1.9 9.6 4.6 9 6.4-.8 1.4-9.3.6-12.3-.9-3-2-7 3.1-7.2 4.3.1 2.7 4.2 2.3 7.2-.3 3-5.8 11.5.6 12.2 6.5.7 5-6.2 4.6-9-.2-1.7 3.1-3.9 5.4-5.1a12 12 0 0 0 5.5-6.1c3.2-8.6-5-17.1-5-17.1Z"/><path fill="#AD95FB" d="M54.4 57.2a13.4 13.4 0 0 0-5.4-3.8 17.9 17.9 0 0 1-8.5 3.7 16.5 16.5 0 0 1-8.5-3.7c-2.2.9-4 2.1-5.4 3.8-3.7 4.4-3.6 9.6 2.7 13.2A44.6 44.6 0 0 1 40.5 78c.3-.3 2.5-2.8 11.2-7.6 6.3-3.6 6.4-8.8 2.7-13.2Z"/><path fill="#E11A81" d="M42 28.8s0-12.6 25-14.9c0 0-2.4 10.1-22 17l-3-2.1Z"/><path fill="#734BF9" d="M42 28.8s0-12.6 25-14.9c0 0-13.8 3-22 17l-3-2.1Z"/><path fill="#E11A81" d="M39 28.8s0-12.6-25-14.9c0 0 2.4 10.1 22 17l3-2.1Z"/><path fill="#734BF9" d="M39 28.8s0-12.6-25-14.9c0 0 13.8 3 22 17l3-2.1Z"/><path fill="#734BF9" d="M57.8 46.3c-2.3-3.3-3.3-8.4-3.3-8.4-2.2-15.3-14.2-13.4-14.2-13.4s-12-2-14.2 13.4c0 0-1 5.1-3.3 8.4-2.4 3.2 4.5 12.4 17.5 12.4S60 49.5 57.8 46.3Z"/><path fill="#25222C" d="M33.4 42a1.8 1.8 0 1 0 0-3.5 1.8 1.8 0 0 0 0 3.6Zm12.9 0a1.8 1.8 0 1 0 0-3.5 1.8 1.8 0 0 0 0 3.6Z"/><path fill="#AD95FB" d="M40.3 24.5H40s-8.4-1.3-12.4 7h3c8.9 1.2 7 13 7 13l2.5-.1 2.5.2s-2-11.9 6.9-13c1-.2 3 0 3 0-4-8.4-12.3-7-12.3-7Z"/><path fill="#AD95FB" d="M49.2 51.9c0-4.4-4-8-9-8-4.9 0-8.9 3.6-8.9 8 0 2.4 1.3 4.6 3.2 6A25.1 25.1 0 0 0 46 58c2-1.4 3.2-3.6 3.2-6Z"/><path fill="#25222C" d="M38 52.8c-1.4 0-2.8-.8-2.8-.8l.3-.6s2.1 1.2 3.4.5c.7-.4 1-1.3 1-2.7h.7c0 1.6-.5 2.7-1.4 3.3-.4.2-.8.3-1.3.3Z"/><path fill="#25222C" d="M42.6 52.8c-.4 0-.9 0-1.3-.3-.9-.6-1.4-1.7-1.4-3.3h.7c0 1.4.4 2.3 1 2.7 1.3.7 3.4-.5 3.5-.5l.3.6s-1.4.8-2.8.8Z"/><path fill="#25222C" d="M40.3 43.6c-14.2.3 0 6.2 0 6.2s14.1-5.9 0-6.2Z"/></g></g><rect fill="none" width="79" height="79" x=".5" y=".5" stroke="#AD95FB" rx="39.5"/></symbol>
	<symbol id="4" viewBox="0 0 80 80"><g clip-path="url(#a)"><mask id="b" width="82" height="83" x="-1" y="-2" maskUnits="userSpaceOnUse" style="mask-type:alpha"><circle cx="40" cy="39.9" r="40.5" fill="#D9D9D9" stroke="#058FD6"/></mask><g mask="url(#b)"><path fill="#F9F9F9" d="M-40-40.1h160v160H-40z"/><path fill="#AD95FB" d="M100 62.3c4.4-1.7 3.7-5 3.7-5-.6-10.3-6.4-5-6.4-5 1.9-7.1-3.7-6.7-3.7-6.7-3 11-14.9 14.6-28.5 12.9-9.1-.4-11.3-.4-20.7 3.2-8.9 3.4-12.6 5-15.4 14.7 1.1 9.1 9.2 28.9 36.9 23.1 30.3-6.2 26.7-19.9 26.7-19.9 2.6-.7 3.3-.7 6-3.6 2.9-3-1.2-5.1-1.2-5.1 3.4-.3 4.7-2.2 4.7-2.2 5.2-7.6-2-6.4-2-6.4Z"/><path fill="#734BF9" d="M63 55.6c-5.1-2.5-7.7-7.5-9.4-12.7l-2 1.9A23.6 23.6 0 0 1 27 49.3h-1a51 51 0 0 1-1.3 25.3c-.6 2.5 1.8 4.9 4.4 5 2.6.3 4.9-1.6 5-4.2v-.5h.6a4.7 4.7 0 0 0 9-2.4l.6-.2a4.7 4.7 0 0 0 8.4-4.3 4.7 4.7 0 0 0 8.5-2.4c.1-1-.2-2-.7-2.9a3.8 3.8 0 0 0 6-2.9c.1-2.1-1.7-3.2-3.6-4.2Z"/><path fill="#AD95FB" d="M52.7 32.7C52.4 15.7 38 20.4 38 20.4s-14.3-4.7-14.6 12.3c0 0-.4 6.3-3.4 11.8 0 0 4.4 10.6 18 10.6 13.7 0 18.1-10.6 18.1-10.6-3-5.5-3.4-11.8-3.4-11.8Z"/><path fill="#734BF9" d="M52.5 32.7C52.2 16.6 39.2 20 37.9 20.3c-1.2-.3-14.2-3.7-14.5 12.4 0 0-.3 5.7-3 11 1-.7 9.4-3.5 17.5-3.7 8.1.2 16.6 3 17.5 3.6-2.6-5.2-3-10.9-3-10.9Z"/><path fill="#E11A81" d="M41.8 22.1c-2.3-2.8-2.1-7.8-2.1-9.4 0-2.6-1.7-1.1-1.7-1.1s-1.5-1.5-1.6 1.1c0 1.6.2 6.6-2 9.4-4 5 .6 9.5 3.6 12.4 3-3 7.7-7.4 3.8-12.4Z"/><path fill="#25222C" d="M47.3 34.5a1.8 1.8 0 1 0 0-3.5 1.8 1.8 0 0 0 0 3.5Zm-18.5 0a1.8 1.8 0 1 0 0-3.5 1.8 1.8 0 0 0 0 3.5Z"/><path fill="#FDC02F" d="M42.3 36s1.4-6-4.3-3.3c-5.6-2.6-4.3 3.3-4.3 3.3-3 .6-5 3.5-5 3.5 4.7.7 9.3 5.7 9.3 5.7s4.7-5 9.3-5.7c0 0-1.9-3-5-3.5Z"/><path fill="#FDC02F" d="M42.3 36s1.4-6-4.3-3.3c-5.6-2.6-4.3 3.3-4.3 3.3-1.7.3-4 2.6-5 3.5 4.6.1 8.3 1.9 9 5.4l.3.3.3-.3c.8-3.5 4.5-5.3 9-5.4-.9-.9-3.3-3.2-5-3.5Z"/><path fill="#E11A81" d="M29.8 40.7s-6.6 7.1-1.7 7.2c5 .1 2.8 1.6 5.2 2.1 2.4.6 1.3-7 .4-8.4-.8-1.4-3.2-1.7-4-1Zm15.8 0s6.6 7.1 1.6 7.2c-5 .1-2.7 1.6-5.2 2.1-2.4.6-1.2-7-.4-8.4.8-1.4 3.3-1.7 4-1Z"/></g></g><rect fill="none" width="79" height="79" x=".5" y=".5" stroke="#AD95FB" rx="39.5"/></symbol>
	<symbol id="5" viewBox="0 0 80 80"><g clip-path="url(#a)"><mask id="b" width="82" height="83" x="-1" y="-2" maskUnits="userSpaceOnUse" style="mask-type:alpha"><circle cx="40" cy="39.9" r="40.5" fill="#D9D9D9" stroke="#058FD6"/></mask><g mask="url(#b)"><path fill="#F9F9F9" d="M-40-40.1h160v160H-40z"/><path fill="#734BF9" d="M36.2 65c1.7-2.7.2-7-2.8-7.9-3-1-6.6 1.6-6.8 4.8 1-2.4-.8-5.4-3.3-5.7-2.4-.4-4.9 2.2-4.6 4.7.7-2.5-1.3-5.5-3.9-5.6-2.5-.1-4.8 2.6-4.4 5.2 1.1-2.7-1.3-6.2-4.1-6-2.8.2-4.7 4-3.3 6.6.2-3.4-3.2-6.3-6.3-5.7-3.2.6-5.2 4.7-3.8 7.7-.2-3.8-4.1-6.9-7.7-6.1-3.6.8-6 5.2-4.8 8.8-.7-4.2-5.7-6.9-9.4-5-3.6 2-4.6 7.8-1.8 10.9-2.7-2.4-7.7-.5-8.2 3.2-.5 3.6 3.8 6.9 7 5.3-3.5-1.1-7.6 2.7-6.8 6.5.7 3.8 5.9 5.6 8.7 3.1-3.7-.5-7 4.2-5.3 7.7 1.6 3.4 7.2 3.6 9 .3-3 2.4-2.7 8.2.7 10.2 3.3 2 8.3-.7 8.7-4.7-1.7 3.1.7 7.7 4.2 7.9 3.4.2 6.3-4 5-7.4-.9 3.8 2.2 8 6 8 3.8.1 7-4 6.2-7.8-1.6 3.5 1.4 8.2 5.1 8.1 3.7-.1 6.4-5 4.7-8.4-1.4 3.6 2 8 5.6 7.6 3.7-.6 5.8-5.8 3.5-8.9-.5 4.4 4 8.7 8.1 7.6 4.2-1 6.3-7 3.8-10.6 0 4.3 5.8 7.2 9.1 4.5s2-9.2-2-10.3c2.5 2.3 7.2.9 8.2-2.5 1-3.4-2.1-7.3-5.5-7 2.6 2.2 7.1 0 7.3-3.4.2-3.4-4.1-6-7-4.2 3.2.3 6-3.6 4.8-6.6-1.2-3-5.7-3.8-7.8-1.3 2.3-.8 3.2-4.4 1.5-6.2-1.8-1.9-5.2-1-6 1.4L36.2 65Z"/><path fill="#E11A81" d="M26 28.8s-.2-9.7-15.6-7.9c0 0-4.2 10.3 13.1 11.8l2.5-3.9Z"/><path fill="#4F27D6" d="m25.2 30.1.8-1.3s-.2-9.7-15.6-7.9l-.2.6c5.6.5 12 4.3 15 8.6Z"/><path fill="#E11A81" d="M54.6 28.8s.3-9.7 15.7-7.9c0 0 4.1 10.3-13.2 11.8l-2.5-3.9Z"/><path fill="#4F27D6" d="m55.4 30.1-.8-1.3s.3-9.7 15.7-7.9l.2.6c-5.7.5-12 4.3-15 8.6Z"/><path fill="#AD95FB" d="M61.5 45.6a3 3 0 0 0 1.2-5.6 3.2 3.2 0 0 0-2.5-6 3.7 3.7 0 0 0-2.8-6.2h-.3v-.1a4 4 0 0 0-5.6-5 3.7 3.7 0 0 0-7.2-.7 2.5 2.5 0 0 0-4.5 0 2.5 2.5 0 0 0-4.4 0 3.7 3.7 0 0 0-7.1.6 4 4 0 0 0-5.9 3.5c0 .6.1 1 .3 1.6h-.4a3.7 3.7 0 0 0-2.7 6.3l-1-.2A3.3 3.3 0 0 0 17 40a3 3 0 0 0 1.6 5.6v.3a2 2 0 1 0 .9 4h-.2A2.4 2.4 0 1 0 21 54l.4.7a2.3 2.3 0 0 0 .3 4.7c.8 0 1.5-.4 2-1a2.7 2.7 0 0 0 3 4.5l-.2 1.2a2.8 2.8 0 0 0 4.7 2l-.1.8a2.8 2.8 0 0 0 4.7 2 2.8 2.8 0 0 0 4 1.6 2.7 2.7 0 0 0 3.9-1.7c.5.6 1.2.9 2 .9a2.8 2.8 0 0 0 2.6-3.5 2.8 2.8 0 0 0 4.5-3.3 2.7 2.7 0 0 0 4-2.3c0-.9-.4-1.6-1-2.1v-.2a2.3 2.3 0 1 0 2.3-3.6l.4-.7a2.4 2.4 0 1 0 1.7-4H60v-.1h.5a2 2 0 0 0 .4-4v-.3h.5Z"/><path fill="#F9F9F9" d="M54.5 34.7c-3.7-4.1-7.6-3.3-10.3-1.8a7.3 7.3 0 0 1-7.2 0c-2.7-1.5-6.5-2.3-10.3 1.8-5.4 5.8-3.3 11 1.5 16.3a23 23 0 0 1 5 8.7c1 2.7 3 5.6 7.4 5.6s6.4-2.9 7.3-5.6A25 25 0 0 1 53 51c4.9-5.4 6.9-10.5 1.5-16.3Z"/><path fill="#25222C" d="M33.1 43.5a2 2 0 1 0 0-3.8 2 2 0 0 0 0 3.8Zm15 0a2 2 0 1 0 0-3.8 2 2 0 0 0 0 3.8Zm-9.5 14.6a1.3 1.3 0 1 0 0-2.6 1.3 1.3 0 0 0 0 2.6Zm4.2 0a1.3 1.3 0 1 0 0-2.6 1.3 1.3 0 0 0 0 2.6Zm-.5 5.4c-.5 0-1-.2-1.7-.6-.8.5-1.6.7-2.3.5-1-.3-1.4-1.3-1.4-1.4l.8-.3s.3.6.9.8c.4.1 1 0 1.6-.4v-4h.9v4c.6.4 1.1.5 1.6.4.6-.2.8-.8.8-.8l.9.3s-.5 1-1.5 1.4h-.6Z"/></g></g><rect fill="none" width="79" height="79" x=".5" y=".5" stroke="#AD95FB" rx="39.5"/></symbol>
	<symbol id="6" viewBox="0 0 80 80"><g clip-path="url(#a)"><mask id="b" width="82" height="83" x="-1" y="-2" maskUnits="userSpaceOnUse" style="mask-type:alpha"><circle cx="40" cy="39.9" r="40.5" fill="#D9D9D9" stroke="#058FD6"/></mask><g mask="url(#b)"><path fill="#F9F9F9" d="M-40-40.1h160v160H-40z"/><path fill="#4F27D6" d="M70.1 49.7a27 27 0 0 0-8.7-2.6c-1 .3-24-1.1-24.8-.5-5 3.7-2 17.5-2 22.9 0 2.2 1.6 4 4 5 3.4 1.7 8.9.5 11.6-1l3.8-4.3c-2 2.1-2.6 12.7-2 14.6.3.8 6.1.4 9.5.1a2.6 2.6 0 0 0 2.3-2.5c0-3 .5-8.5 2.8-12.2 3.4-5.2 5.8-12.6 4.5-17.4-.2-.6-.5-1.3-1-2Z"/><path fill="#734BF9" d="M72.5 48.8s6.7 1.3 6.3 11.7l-1 1.6s.4-11.3-6-11.3c-6.3.1.7-2 .7-2Z"/><path fill="#4F27D6" d="M79.9 67.5s-6.4-1.6-2-8.1c0 0 5.3 1 2 8.1Z"/><path fill="#4F27D6" d="M63.2 35.4s17.4 19.5 19.3 27.3a46 46 0 0 1-6 28.2 45.6 45.6 0 0 0-3.9 19.6c0 2.1-1.4 3.9-3.2 4-4.6.5-12.5 1.2-12.9-.1-.8-3 0-20.1 2.7-23.5h-3s-3 12.2-3.6 21.6c0 2.6-2 3-3.6 3.3-4 .6-9.6 1.1-11.3-1.4-2.5-3.6 2.6-22.9.7-25-2-2-5.3-2.5-3.7 7.2 1.6 9.8 1 18.8 0 19.6-1.1.7-14.9 2.4-14.8-3.2 0-3.3-.2-7.8-.5-12.2-.5-9.2-2.7-20.2-.3-29A169.7 169.7 0 0 1 34 35.4c2.1-1.6 25.3-4.5 29.2 0Z"/><path fill="#E11A81" d="M30.5 27.3S21.3 14 14.2 23.1c0 0-3 11.3-9.5 20.5 0 0 3.7 6.8 25.8 5.7 0 0 5.4-14 0-22Z"/><path fill="#734BF9" d="M19 26.4C25.1 22 32.4 37 32.8 37.7c.1-3.6-.4-7.4-2.4-10.4 0 0-9.2-13.3-16.3-4.2 0 0-3.4 11.6-9.5 20.5 9.5-4 12-15.6 14.2-17.2Z"/><path fill="#E11A81" d="M49.4 27.3s9.1-13.3 16.2-4.2c0 0 3 11.3 9.6 20.5 0 0-3.7 5.9-25.8 5.7 0 0-5.5-14 0-22Z"/><path fill="#734BF9" d="M61 26.4C54.6 22 47.4 37 47 37.7c-.1-3.6.4-7.4 2.4-10.4 0 0 9.1-13.3 16.2-4.2 0 0 3.5 11.6 9.6 20.5-9.6-4-12-15.6-14.2-17.2Z"/><path fill="#734BF9" d="M49.3 24a14 14 0 0 0-7.8-.8 17 17 0 0 1-5.5 0c-2-.3-5-.4-7.7.7-5 2.1-10.8 15.4-3.7 24.8 4.2 5.6 14.2 5.2 14.2 5.2s10 .4 14.2-5.2c7-9.4 1.2-22.7-3.7-24.8Z"/><path fill="#25222C" d="M43.3 36.4a1.7 1.7 0 1 0 0-3.5 1.7 1.7 0 0 0 0 3.5Zm-10.4 0a1.7 1.7 0 1 0 0-3.5 1.7 1.7 0 0 0 0 3.5Z"/><path fill="#F9F9F9" stroke="#734BF9" d="m29.1 45 3.7 4 .4.5-.6.3C28 52.4 25 52.4 23 51.6a5.7 5.7 0 0 1-2.7-2.3l.4-.3-.4.2-.4-.7h.9c3 .2 4.8-.6 6-1.6a6.5 6.5 0 0 0 1.6-1.8l.3-.7.5.6Z"/><path fill="#734BF9" d="M32.4 44s-2.2 5.4-6.5 12.9a9.6 9.6 0 0 1-7.6 4.8c-.8 0-1.6 0-2.1-.3-2.4-1-3.7-5.3-3.7-5.3s-1.5 4.5-5.3-.2c0 0 1.6 8.1 9 10.7 7.2 2.5 12.5.2 15-2.6 5.6-6.4 9-13 9-13s1.7-10.5-7.8-7Z"/><path fill="#F9F9F9" stroke="#734BF9" d="m43.7 45 3.6 4 .5.5-.6.3c-4.6 2.6-7.7 2.6-9.7 1.8a5.7 5.7 0 0 1-2.7-2.3l.4-.3-.4.2-.4-.7h.8c3 .2 5-.6 6-1.6a6.5 6.5 0 0 0 1.7-1.8l.3-.7.5.6Z"/></g></g><rect fill="none" width="79" height="79" x=".5" y=".5" stroke="#AD95FB" rx="39.5"/></symbol>
	<symbol id="7" viewBox="0 0 80 80"><g clip-path="url(#a)"><mask id="b" width="82" height="83" x="-1" y="-2" maskUnits="userSpaceOnUse" style="mask-type:alpha"><circle cx="40" cy="39.9" r="40.5" fill="#D9D9D9" stroke="#058FD6"/></mask><g mask="url(#b)"><path fill="#F9F9F9" d="M-40-40.1h160v160H-40z"/><path fill="#734BF9" d="M38.8 79.2s4.4 18.5 4.5 20.8c.1 2.2-.4 3.1.7 6.1a48 48 0 0 1 1.8 14h2.7s-1.3-13.3-1.1-17.3c.1-4-.8-3.4-1-4.9 0-1.5.8-14.6 1.8-15.5 0 0-4-4.2-9.4-3.2Z"/><path fill="#AD95FB" d="m50.8 70 1 17.9s15.8-4 22.7.7c0 0 4.6-13.4 3-15.7-1.6-2.4-27-8.5-26.7-2.9Z"/><path fill="#734BF9" d="M45.7 46.1s-3 19.4 41.4 10c0 0 13.7 7.6-2.6 32 0 0-3 5.2-2 11.4 0 0 1 1.3-.5 6a42 42 0 0 0 .6 14.5h-3s.5-11-.5-13.7c-1-2.7-.4-5.6-.5-6.6-.2-1-8.3-11.1-7.5-13.5.7-2.4 4.5-8.7 3.9-11 0 0-23.2-4.2-21.5-.6 1.6 3.5 3.1 5 1.8 7.4a29 29 0 0 0-1 15c.8 5.4-.7 4.2-.5 8.4.2 4.2-.5 10.4.4 14.6h-2s-.5-11.6-1.7-15.7c-1.2-4 0-3-.2-4.4-.3-1.4-3.1-13-3.9-14-.8-1-14-4.4-13-20.2 1-15.9-1.7-17.7-2.3-19.3 0 0 8.2-13.6 14.6-.3Z"/><path fill="#AD95FB" d="M38.8 60.7s-5-.4-2.3 4.3c0 0 .7-.8 1 1 .4 2-.5 1.9 1.3 3.6 1.7-1.7.9-1.7 1.2-3.5.3-2 1-1 1-1 2.8-4.8-2.2-4.4-2.2-4.4Z"/><path fill="#E11A81" d="M49.2 30.6s12.6 4 21.5-2c0 0 3.2 1.4-2 7-4.5 4.5-8.7 1.7-19.5 9.3 0 0 3.6-9.4 0-14.3Z"/><path fill="#734BF9" d="M49.6 43.6c1.7-3 3.6-5.8 6.5-7.2 5.2-2.4 10.1-4.5 15-7.6l-.4-.2c-8.9 6-21.5 2-21.5 2 2.8 3.8 1.3 10.2.4 13Z"/><path fill="#E11A81" d="M28.4 30.6s-12.7 4-21.6-2c0 0-3.2 1.4 2.1 7 4.4 4.5 8.7 1.7 19.5 9.3 0 0-3.7-9.4 0-14.3Z"/><path fill="#734BF9" d="M28 43.6c-1.7-3-3.6-5.8-6.6-7.2-5.2-2.4-10.1-4.5-15-7.6l.4-.2c9 6 21.6 2 21.6 2-2.8 3.8-1.3 10.2-.5 13Z"/><path fill="#25222C" d="M25.9 32.3s-7.1-10.5 3-20c0 0 2.4-.8 0 5.6-2.4 6.5 0 10.4 3.7 11 0 0-2.7 3.3-6.7 3.4Zm25.4 0s7.1-10.5-3-20c0 0-2.4-.8 0 5.6 2.4 6.5 0 10.4-3.7 11 0 0 2.7 3.3 6.7 3.4Z"/><path fill="#AD95FB" d="M50.6 29.6c-.7.1-2.5-.3-4.5-1a23.6 23.6 0 0 0-14.6 0 14 14 0 0 1-4.6 1c-1.7-.5-5.2 11.5 3.4 18.3a10.8 10.8 0 0 1 4.3 8.6c0 4.4 3.2 6 4.2 6s4.1-1.6 4.1-6a11.2 11.2 0 0 1 4.3-8.6c8.6-6.8 5.1-18.8 3.4-18.3Z"/><path fill="#0C0B0F" d="M41.6 56c0 1.5-1.3 3.2-2.8 3.2-1.6 0-2.9-1.7-2.9-3.2 0-1.5 1.3-2.7 2.9-2.7 1.5 0 2.8 1.2 2.8 2.7Zm4.9-13.4a1.7 1.7 0 1 0 0-3.4 1.7 1.7 0 0 0 0 3.4Zm-15.5 0a1.7 1.7 0 1 0 0-3.4 1.7 1.7 0 0 0 0 3.4Z"/><path fill="#734BF9" d="m33.8 27.8-2.8.8c1.4 1.7 4.5 6 6.3 8.6.7 1 2.2 1 3 0 1.8-2.6 4.8-6.9 6.2-8.6l-2.8-.8a19 19 0 0 0-9.9 0Z"/></g></g><rect fill="none" width="79" height="79" x=".5" y=".5" stroke="#AD95FB" rx="39.5"/></symbol>
	<defs><clipPath id="a"><rect width="80" height="80" fill="#fff" rx="40"/></clipPath></defs>
</svg>