<svg xmlns="http://www.w3.org/2000/svg" fill="none" viewBox="0 0 135 70" width="135" height="70"><path fill="url(#a)" stroke="#fff" stroke-width="2.5" d="M100.43 2.59A32.1 32.1 0 0 1 132.5 34.7a32.1 32.1 0 0 1-32.07 32.12A32.1 32.1 0 0 1 68.35 34.7a32.1 32.1 0 0 1 32.08-32.1Z"/><path fill="#fff" d="M81.48 45.85c-.2 0-.32-.1-.36-.3l-3.45-20.81c-.07-.28.02-.43.26-.43h3.42c.22 0 .35.1.4.3l1.24 8.61c.13.92.23 1.82.3 2.7.09.88.15 1.76.2 2.66l.1 2.9h.06l.3-2.27c.1-.77.24-1.53.4-2.27L85.78 29l-.73-3.74c-.06-.33.03-.5.27-.5h3.29c.21 0 .34.11.36.33l1.74 11.67a97.29 97.29 0 0 1 .56 4.7h.06a100.05 100.05 0 0 1 .27-5.55c.09-.9.2-1.85.33-2.86l1.21-8.42c.05-.22.17-.33.36-.33h3.4c.23 0 .33.15.29.43l-3.52 20.78c-.05.22-.15.33-.33.33h-3.81c-.22 0-.35-.1-.4-.3l-1.02-6.97-.33-2.1-.26-2.1h-.07l-.32 2.1-.33 2.1-1.22 6.97a.3.3 0 0 1-.16.23.35.35 0 0 1-.2.07h-3.75Zm17.6 0c-.22 0-.33-.13-.33-.4V24.71c0-.27.11-.4.33-.4h9.4c.22 0 .33.13.33.4v2.86c0 .26-.1.4-.32.4h-5.66v5.25h5.13c.22 0 .33.13.33.4v2.7c0 .23-.11.36-.33.36h-5.13v5.52h5.66c.22 0 .33.13.33.4v2.85c0 .27-.11.4-.33.4h-9.4Zm12.43 0c-.26 0-.4-.13-.4-.4V24.71c0-.27.14-.4.4-.4h4.67c2.02 0 3.52.45 4.5 1.35.99.9 1.48 2.25 1.48 4.04 0 1.14-.2 2.1-.62 2.87a4.45 4.45 0 0 1-2 1.84v.13c1.09.33 1.91.93 2.46 1.8a6 6 0 0 1 .82 3.3c0 2.1-.52 3.67-1.58 4.7-1.03 1-2.64 1.5-4.83 1.5h-4.9Zm3.68-3.42h1.22c.79 0 1.38-.25 1.78-.76.41-.52.62-1.3.62-2.33 0-.97-.2-1.7-.63-2.2-.39-.5-.98-.76-1.77-.76h-1.22v6.05Zm0-9.14h.99c.66 0 1.15-.24 1.48-.72.35-.5.53-1.24.53-2.2 0-.93-.17-1.6-.5-2.01-.33-.42-.85-.63-1.58-.63h-.92v5.56Z"/><path fill="#25222C" fill-rule="evenodd" d="M65.52 30.03H61.6c-.26 0-.37-.18-.34-.53.1-.89 0-1.62-.27-2.2-.25-.61-.7-.91-1.33-.91-.53 0-.95.17-1.25.53-.28.33-.43.86-.45 1.59 0 .73.15 1.35.45 1.86.3.48.7.92 1.21 1.33l3.2 2.43a10.3 10.3 0 0 1 2.04 1.93c.5.63.86 1.35 1.06 2.16.23.79.34 1.73.34 2.85-.02 2.1-.56 3.72-1.63 4.85-1.06 1.12-2.74 1.67-5.04 1.67a7.68 7.68 0 0 1-3.91-.87 4.96 4.96 0 0 1-2.05-2.58c-.38-1.14-.5-2.47-.38-3.98.03-.33.15-.5.38-.5h3.87c.23 0 .33.16.3.46-.1 1.06 0 1.9.3 2.5.34.58.85.87 1.56.87.66 0 1.14-.19 1.44-.56.3-.38.46-1 .46-1.86a4.4 4.4 0 0 0-.38-1.9A3.35 3.35 0 0 0 60 37.73l-3.22-2.5a9.79 9.79 0 0 1-2.66-2.93 7.56 7.56 0 0 1-.83-3.87c.02-1.97.56-3.49 1.6-4.55 1.03-1.06 2.57-1.6 4.62-1.6 2.3 0 4 .64 5.08 1.9 1.1 1.24 1.53 3.01 1.33 5.32-.02.35-.16.53-.41.53Zm-15 17.34h-3.94c-.25 0-.38-.16-.38-.46V22.97c0-.3.13-.45.38-.45h3.94c.26 0 .38.15.38.45v23.94c0 .3-.12.46-.38.46Zm-6.59 0h-4.28c-.23 0-.38-.1-.46-.3l-3.26-9.5h-1.29v9.34c0 .3-.13.45-.38.45h-3.95c-.25 0-.38-.15-.38-.45V22.97c0-.3.13-.45.38-.45h5.62c2.55 0 4.41.59 5.58 1.78 1.19 1.16 1.78 3.02 1.78 5.58 0 1.82-.25 3.28-.76 4.4a4.55 4.55 0 0 1-2.2 2.35l-.04.07 3.95 10.13c.1.36 0 .54-.3.54Zm-5.99-19.85c-.43-.53-1.1-.8-2.01-.8h-1.3v6.91h1.34c.93 0 1.6-.29 2-.87.41-.58.61-1.47.61-2.66 0-1.19-.21-2.05-.64-2.58Zm-9.78 19.85h-4.72l-1.1-5.44 3.82.26-7.18-10.04-2.39 12.14 3.23-1.8 1 4.88h-8.25c-.25 0-.36-.17-.3-.5l5.12-24.01c.05-.23.19-.34.41-.34h5.09c.25 0 .4.11.45.34l5.09 24.01c.07.33-.01.5-.27.5Zm-22.5-8.58H4.7v8.12c0 .3-.12.45-.38.45H.38c-.25 0-.38-.15-.38-.45V22.97c0-.3.13-.45.38-.45h5.16c2.48 0 4.3.67 5.46 2 1.2 1.32 1.79 3.37 1.79 6.15 0 2.63-.61 4.64-1.83 6.03-1.21 1.4-2.98 2.1-5.3 2.1ZM7.5 27.68c-.4-.64-1.05-.95-1.93-.95H4.7v7.85h.84c.88 0 1.53-.32 1.93-.95.43-.63.65-1.6.65-2.92 0-1.42-.2-2.43-.6-3.03Z" clip-rule="evenodd"/><defs><radialGradient id="a" cx="0" cy="0" r="1" gradientTransform="matrix(88 0 0 53 100.43 61.01)" gradientUnits="userSpaceOnUse"><stop stop-color="#FF3D91"/><stop offset=".16" stop-color="#EF3E90"/><stop offset=".31" stop-color="#C2418C"/><stop offset=".51" stop-color="#7D55A3"/><stop offset=".62" stop-color="#6F7EBD"/><stop offset=".71" stop-color="#6A8EC8"/><stop offset="1" stop-color="#1CC6FF"/></radialGradient></defs></svg>