<svg xmlns="http://www.w3.org/2000/svg" fill="none" viewBox="0 0 137 136">
  <path fill="#25222C" d="M18.101 13.95c0-1.425-.427-2.572-1.283-3.444-.858-.87-1.999-1.306-3.42-1.306H8.431v17.47h4.967c1.307 0 2.417-.464 3.332-1.394a4.618 4.618 0 0 0 1.371-3.353v-7.974ZM13.178.79c4.01 0 7.204 1.264 9.587 3.79 2.207 2.412 3.31 5.49 3.31 9.236v7.93c0 3.603-1.257 6.68-3.77 9.236-2.512 2.558-5.553 3.833-9.127 3.833H8.43V55.38H.197V.79h12.98ZM81.77 13.948c0-3.165-1.568-4.748-4.706-4.748H72.1v17.47h4.964c1.308 0 2.42-.465 3.332-1.394a4.617 4.617 0 0 0 1.374-3.354v-7.974ZM76.848.79c4.586 0 7.956 1.265 10.107 3.79 1.887 2.209 2.831 5.288 2.831 9.236v7.93c0 3.863-1.465 7.132-4.4 9.801l6.098 23.832h-8.905l-4.99-20.563h-5.49v20.563h-8.236V.79h12.985Zm19.331.001h8.233v54.59h-8.233V.79Zm40.314 41.322c.057 3.804-.933 7.057-2.963 9.759-1.337 1.828-3.226 3.12-5.664 3.876-1.308.407-2.831.61-4.574.61-3.225 0-5.897-.798-8.016-2.397-1.772-1.305-3.175-3.083-4.205-5.334-1.033-2.253-.627-6.554-.627-6.554l6.662-1.747c.349 3.183 1.189 5.489 2.527 6.917.985 1.081 2.119 1.592 3.398 1.535 1.801-.057 3.237-.944 4.314-2.66.55-.844.825-2.05.825-3.62 0-2.266-1.029-4.52-3.091-6.76l-7.32-6.932c-2.73-2.643-4.663-5.014-5.796-7.107-1.218-2.355-1.829-4.913-1.829-7.675 0-4.97 1.671-8.735 5.01-11.293 2.062-1.54 4.617-2.313 7.669-2.313 2.934 0 5.447.655 7.536 1.962 1.627 1.016 2.943 2.439 3.944 4.27 1.002 1.83.629 5.136.629 5.136l-6.709 2.617c-.232-2.237-.868-3.978-1.915-5.228-.755-.9-1.844-1.35-3.267-1.35-1.511 0-2.66.668-3.442 2.004-.639 1.075-.958 2.41-.958 4.009 0 2.497 1.072 5.04 3.223 7.625.812.985 2.031 2.148 3.66 3.484 1.916 1.597 3.18 2.715 3.791 3.354 2.031 2.034 3.601 4.038 4.705 6.01.521.931.942 1.787 1.264 2.573.783 1.946 1.189 3.688 1.219 5.229ZM41.77 41.35l-6.252 3.061 4.53-21.24 11.803 18.235-6.928-.638 4.623 14.937h9.318L49.716 1.117H36.031l-9.282 54.588h15.94l-.92-14.355Z"/>
  <path fill="#25222C" fill-rule="evenodd" d="M132.838 127.062c1.714-3.166 2.569-7.023 2.569-11.554 0-1.837-.135-3.493-.396-4.982-.54-2.902-1.356-5.261-2.464-7.094-1.68-2.707-3.721-4.52-6.116-5.435a10.847 10.847 0 0 0 3.772-2.803c2.551-2.896 3.839-6.75 3.839-11.557 0-2.938-.348-5.47-1.036-7.607-1.26-4.004-3.358-6.963-6.293-8.868-3.433-2.251-7.286-3.373-11.554-3.373H98.96v71.738h20.035c2.707 0 5.432-.84 8.177-2.514a15.473 15.473 0 0 0 5.666-5.951ZM91.533 74.655v-10.87H60.748v71.739h30.785v-10.872H71.564v-19.564h14.59V94.222h-14.59v-19.56h19.969v-.007Zm-46.444 60.869L56.304 63.84H44.96l-5.252 38.358-5.657-38.358H22.723l-5.207 38.394-5.663-38.388H.527l12.004 71.684h10.342l5.756-39.436 6.167 39.436h10.293v-.006Zm70.073-32.092c2.665 0 4.691.837 6.062 2.515 1.528 1.83 2.29 4.747 2.29 8.757 0 1.677-.249 3.163-.75 4.459-1.407 3.775-3.94 5.663-7.605 5.663h-4.516v-21.391h4.516l.003-.003Zm6.747-15.275c-1.141 3.277-3.391 4.918-6.75 4.918h-4.519V74.77h4.519c2.134 0 3.869.706 5.207 2.116 1.45 1.524 2.17 3.775 2.17 6.752 0 1.789-.207 3.301-.627 4.52Z" clip-rule="evenodd"/>
</svg>
