<?xml version="1.0" encoding="UTF-8"?>
<svg id="Calque_1" data-name="Calque 1" xmlns="http://www.w3.org/2000/svg" viewBox="0 0 193.76 172.04">
  <defs>
    <style>
      .cls-1 {
        fill: #ee7d00;
      }

      .cls-2 {
        fill: #1d1d1b;
      }
    </style>
  </defs>
  <g>
    <g>
      <path class="cls-2" d="M0,141.91c0-.21,.11-.32,.32-.32h3.86c3.05,0,6.05,2.62,6.05,5.99s-2.63,5.88-5.99,5.99H.32c-.21,0-.32-.11-.32-.32v-11.33Zm3.97,1.86h-1.6v7.62h1.6c2.21,0,3.89-1.7,3.89-3.81s-1.68-3.81-3.89-3.81Z"/>
      <path class="cls-2" d="M12.02,141.93c0-.21,.11-.34,.32-.34h1.74c.21,0,.31,.13,.31,.34v11.32c0,.21-.1,.32-.31,.32h-1.74c-.23,0-.32-.11-.32-.32v-11.32Z"/>
      <path class="cls-2" d="M24.45,151v-2.47c0-.21,.1-.32,.32-.32h1.44c.15,0,.31,.07,.31,.32v3.67c0,.15-.05,.26-.16,.35-.97,.66-2.29,1.18-3.75,1.18-3.42,0-6.2-2.76-6.2-6.18s2.74-6.13,6.17-6.13c1.45,0,2.6,.44,3.62,1.21,.18,.13,.18,.29,.08,.42l-.95,1.37c-.1,.11-.26,.18-.45,.05-.63-.47-1.37-.79-2.26-.79-2.24,0-3.92,1.69-3.92,3.87s1.73,4.04,3.92,4c.61,0,1.32-.16,1.84-.55Z"/>
      <path class="cls-2" d="M28.72,141.93c0-.21,.11-.34,.32-.34h1.74c.21,0,.31,.13,.31,.34v11.32c0,.21-.1,.32-.31,.32h-1.74c-.23,0-.32-.11-.32-.32v-11.32Z"/>
      <path class="cls-2" d="M32.74,141.9c0-.21,.1-.31,.31-.31h8.48c.21,0,.32,.1,.32,.31v1.53c0,.21-.11,.32-.32,.32h-3.1v9.49c0,.21-.1,.32-.31,.32h-1.74c-.21,0-.31-.11-.31-.32v-9.49h-3.02c-.21,0-.31-.11-.31-.32v-1.53Z"/>
      <path class="cls-2" d="M47.06,141.9c.1-.21,.24-.31,.4-.31h1.36c.18,0,.32,.1,.4,.31l4.55,11.33c.1,.21-.02,.34-.23,.34h-1.76c-.19,0-.32-.08-.4-.29l-.77-1.94h-4.96l-.76,1.94c-.08,.21-.23,.29-.4,.29h-1.78c-.21,0-.31-.11-.21-.34l4.55-11.33Zm-.65,7.36h3.42l-1.69-4.57-1.73,4.57Z"/>
      <path class="cls-2" d="M55.12,141.93c0-.19,.15-.35,.37-.35h1.65c.21,0,.34,.11,.36,.35v9.44h4.71c.19,0,.36,.15,.36,.37v1.47c0,.21-.11,.34-.36,.35h-6.73c-.23,0-.35-.11-.35-.35v-11.28Z"/>
      <path class="cls-2" d="M69.1,151.13l1.08-1.07c.19-.18,.37-.08,.56,.08,.66,.66,1.57,1.39,2.79,1.39s2.03-.76,2.03-1.57c0-1.03-1.4-1.39-2.26-1.61-2.62-.77-4-1.81-4-3.65,0-1.99,1.76-3.34,4.36-3.34,1.4,0,2.79,.76,3.75,1.73,.19,.21,.19,.4-.02,.63l-.89,.95c-.21,.19-.4,.06-.61-.1-.52-.44-1.36-1.11-2.31-1.11-.82,0-1.86,.19-1.86,1.29,0,.82,.97,1.15,2.34,1.53,2.18,.65,4,1.5,4,3.75s-2.15,3.7-4.49,3.7c-1.66,0-3.33-.81-4.41-1.99-.18-.19-.31-.39-.08-.61Z"/>
      <path class="cls-2" d="M88.16,150.78l.81,1.37c.16,.19,.11,.32-.08,.47-.92,.69-2.05,1.13-3.5,1.13-3.42,0-6.2-2.76-6.2-6.18s2.78-6.15,6.2-6.15c1.45,0,2.58,.44,3.52,1.11,.16,.15,.15,.32,.1,.4l-.86,1.45c-.1,.13-.26,.13-.45,.02-.76-.47-1.44-.74-2.31-.74-2.18,0-3.81,1.71-3.81,3.91s1.63,3.97,3.81,3.97c.87,0,1.69-.32,2.26-.76,.19-.14,.37-.18,.52,0Z"/>
      <path class="cls-2" d="M98.89,148.4h-5.38v4.84c0,.21-.1,.32-.35,.32h-1.7c-.21,0-.31-.11-.31-.32v-11.32c0-.19,.1-.34,.31-.34h1.74c.13,0,.31,.06,.31,.32v4.21h5.38v-4.2c0-.19,.1-.34,.31-.34h1.74c.13,0,.29,.06,.29,.32v11.33c0,.21-.1,.32-.34,.32h-1.7c-.21,0-.31-.11-.31-.32v-4.84Z"/>
      <path class="cls-2" d="M109.16,153.73c-3.41,0-6.13-2.74-6.13-6.15s2.73-6.17,6.13-6.17,6.18,2.74,6.18,6.17-2.78,6.15-6.18,6.15Zm0-10.06c-2.16,0-3.78,1.73-3.78,3.91s1.61,3.89,3.78,3.89,3.81-1.73,3.81-3.89-1.63-3.91-3.81-3.91Z"/>
      <path class="cls-2" d="M122.93,153.73c-3.41,0-6.13-2.74-6.13-6.15s2.73-6.17,6.13-6.17,6.18,2.74,6.18,6.17-2.78,6.15-6.18,6.15Zm0-10.06c-2.16,0-3.78,1.73-3.78,3.91s1.61,3.89,3.78,3.89,3.81-1.73,3.81-3.89-1.63-3.91-3.81-3.91Z"/>
      <path class="cls-2" d="M131.16,141.93c0-.19,.15-.35,.37-.35h1.65c.21,0,.34,.11,.35,.35v9.44h4.71c.19,0,.35,.15,.35,.37v1.47c0,.21-.11,.34-.35,.35h-6.73c-.23,0-.35-.11-.35-.35v-11.28Z"/>
      <path class="cls-2" d="M0,160.2c0-.21,.11-.32,.32-.32h3.86c3.05,0,6.05,2.62,6.05,5.99s-2.63,5.88-5.99,5.99H.32c-.21,0-.32-.11-.32-.32v-11.33Zm3.97,1.86h-1.6v7.62h1.6c2.21,0,3.89-1.7,3.89-3.81s-1.68-3.81-3.89-3.81Z"/>
      <path class="cls-2" d="M12.02,160.2c0-.21,.1-.32,.31-.32h7.89c.21,0,.32,.11,.32,.32v1.57c0,.21-.11,.32-.32,.32h-5.84v2.44h4.46c.21,0,.36,.1,.36,.32v1.53c0,.21-.13,.32-.36,.32h-4.46v2.95h5.99c.21,0,.34,.11,.34,.32v1.55c0,.21-.13,.32-.34,.32H12.33c-.21,0-.31-.11-.31-.32v-11.33Z"/>
      <path class="cls-2" d="M33.02,171.57c-.08,.21-.23,.31-.4,.31h-1.36c-.19,0-.34-.1-.42-.31l-4.46-11.35c-.1-.23,.02-.34,.21-.34h1.84c.19,0,.32,.08,.4,.31l3.08,8.36,3.08-8.36c.06-.21,.21-.31,.39-.31h1.87c.19,0,.31,.13,.21,.35l-4.46,11.33Z"/>
      <path class="cls-2" d="M39.02,160.22c0-.21,.11-.34,.32-.34h1.74c.21,0,.31,.13,.31,.34v11.32c0,.21-.1,.32-.31,.32h-1.74c-.23,0-.32-.11-.32-.32v-11.32Z"/>
      <path class="cls-2" d="M44,160.23c0-.19,.11-.35,.36-.35h1.89c.16,0,.39,.08,.47,.24l5.31,7.64v-7.64c.06-.19,.23-.24,.36-.24h1.63c.16,0,.39,.15,.39,.35v11.27c0,.24-.13,.36-.39,.36h-1.6c-.26,0-.34-.11-.47-.26l-5.6-8.07v7.98c.02,.24-.1,.36-.35,.36h-1.63c-.24,0-.36-.11-.36-.36v-11.27Z"/>
      <path class="cls-2" d="M65.18,169.07l.81,1.37c.16,.19,.11,.32-.08,.47-.92,.69-2.05,1.13-3.5,1.13-3.42,0-6.2-2.76-6.2-6.18s2.78-6.15,6.2-6.15c1.45,0,2.58,.44,3.52,1.11,.16,.15,.15,.32,.1,.4l-.86,1.45c-.1,.13-.26,.13-.45,.02-.76-.47-1.44-.74-2.31-.74-2.18,0-3.81,1.71-3.81,3.91s1.63,3.97,3.81,3.97c.87,0,1.69-.32,2.26-.76,.19-.14,.37-.18,.52,0Z"/>
      <path class="cls-2" d="M68.18,160.22c0-.21,.11-.34,.32-.34h1.74c.21,0,.31,.13,.31,.34v11.32c0,.21-.1,.32-.31,.32h-1.74c-.23,0-.32-.11-.32-.32v-11.32Z"/>
      <path class="cls-2" d="M82.84,161.04c0-.24,.12-.36,.35-.36h3.73c1.97,0,3.48,1.6,3.48,3.49s-1.49,3.46-3.43,3.46h-2.83v3.89c0,.23-.11,.33-.33,.33h-.63c-.23,0-.33-.11-.33-.33v-10.48Zm4.08,.92h-2.79v4.4h2.79c1.19,0,2.18-1.02,2.18-2.2s-.96-2.2-2.18-2.2Z"/>
      <path class="cls-2" d="M92.84,171.56c-.09,.21-.21,.3-.42,.3h-.65c-.21,0-.32-.08-.32-.24,0-.1,.03-.2,.03-.2q4.35-10.45,4.37-10.47c.04-.11,.11-.27,.38-.27h.44c.26,0,.33,.17,.38,.27l4.34,10.48s.05,.12,.05,.18c0,.17-.14,.24-.33,.24h-.65c-.2,0-.35-.12-.41-.29l-.87-2.15h-5.48l-.84,2.14Zm1.39-3.42h4.41l-2.2-5.51-2.21,5.51Z"/>
      <path class="cls-2" d="M103.1,161.04c0-.24,.12-.36,.33-.36h4.35c1.97,0,3.54,1.6,3.54,3.55,0,1.42-.84,2.65-2.06,3.21l1.99,4.08c.02,.06,.03,.11,.03,.14,0,.12-.09,.2-.27,.2h-.83c-.2,0-.3-.11-.39-.29l-1.82-3.83c-.11,.01-.74,.01-.93,.01h-2.64v3.77c0,.23-.11,.33-.33,.33h-.63c-.21,0-.33-.11-.33-.33v-10.48Zm4.68,.92h-3.39v4.52h3.4c1.26,0,2.23-1.04,2.23-2.26s-.98-2.26-2.24-2.26Z"/>
      <path class="cls-2" d="M114.5,171.53c0,.23-.12,.33-.33,.33h-.63c-.23,0-.33-.11-.33-.33v-10.51c0-.21,.12-.33,.33-.33h.63c.2,0,.33,.14,.33,.33v10.51Z"/>
      <path class="cls-2" d="M120.54,161.78c-1.7,0-2.42,.93-2.42,1.81,0,1.02,1.39,1.45,2.68,1.79,1.79,.5,3.98,1.02,3.98,3.13s-1.87,3.49-4.22,3.49c-1.55,0-3.06-.65-4.02-1.9-.08-.11-.12-.2-.12-.27,0-.09,.04-.17,.14-.24l.48-.41c.06-.05,.17-.08,.23-.08,.14,0,.29,.18,.33,.23,.89,.92,2.29,1.4,3.01,1.4,1.25,0,2.88-.68,2.88-2.14,0-1.23-1.48-1.6-3.04-2-2.47-.63-3.7-1.45-3.7-2.97,0-1.84,1.52-3.12,3.87-3.12,1.2,0,2.56,.6,3.42,1.43,.12,.14,.29,.3,.29,.42,0,.09-.05,.17-.12,.24l-.45,.44c-.06,.06-.14,.11-.2,.11-.09,0-.18-.06-.27-.15-.48-.44-1.46-1.22-2.73-1.22Z"/>
    </g>
    <g>
      <path class="cls-2" d="M.4,77.6c0-.97,.45-1.42,1.36-1.42H11.43c.9,0,1.42,.45,1.42,1.42v45.05c0,.97-.52,1.42-1.42,1.42H1.75c-.9,0-1.36-.45-1.36-1.42v-45.05Z"/>
      <path class="cls-2" d="M23.25,77.6c0-.97,.45-1.42,1.36-1.42h9.68c.9,0,1.42,.45,1.42,1.42v45.05c0,.97-.52,1.42-1.42,1.42h-9.68c-.9,0-1.36-.45-1.36-1.42v-45.05Z"/>
      <path class="cls-2" d="M58.81,96.7l-2.71,25.95c-.06,.97-.45,1.42-1.42,1.42h-9.16c-.9,0-1.48-.45-1.42-1.42l4.84-45.05c.06-.97,.45-1.42,1.42-1.42h11.3c.9,0,1.1,.45,1.42,1.42l8.78,28.98,8.78-28.98c.32-.97,.52-1.42,1.42-1.42h11.3c.97,0,1.36,.45,1.42,1.42l4.84,45.05c.06,.97-.52,1.42-1.42,1.42h-9.17c-.97,0-1.36-.45-1.42-1.42l-2.65-25.3-7.55,25.24c-.32,1.23-.58,1.48-1.55,1.48h-8c-.97,0-1.29-.26-1.55-1.48l-7.49-25.88Z"/>
    </g>
    <g>
      <path class="cls-1" d="M66.18,8.26l-10.38,20.2s-9.9-15.46-4.87-24.3c4.25-6.6,10.46-3.56,11.36-2.84,.9,.71,3.63,2.21,3.89,6.94Z"/>
      <path class="cls-1" d="M43.54,36.35L26.38,3.1H14.93l26.96,52.24h0c3.69-2.72,5.31-11.89,1.65-18.99Z"/>
    </g>
  </g>
  <g>
    <path class="cls-2" d="M142.34,171.63c-.1,0-.2-.04-.28-.13l-6.68-8.77v8.58c0,.22-.1,.32-.34,.32h-.6c-.22,0-.32-.1-.32-.32v-10.21c0-.19,.13-.34,.32-.34h.81c.12,0,.2,.04,.28,.15l6.58,8.55v-8.42c.03-.17,.15-.28,.32-.28h.6c.17,0,.35,.13,.35,.32v10.22c0,.21-.12,.32-.35,.32h-.69Z"/>
    <path class="cls-2" d="M147.57,168.01h4.29l-2.14-5.36-2.15,5.36Zm-1.35,3.32c-.09,.2-.21,.29-.41,.29h-.63c-.21,0-.31-.07-.31-.23,0-.1,.03-.19,.03-.19q4.23-10.16,4.25-10.18c.04-.1,.1-.26,.37-.26h.43c.25,0,.32,.16,.36,.26l4.22,10.19s.04,.12,.04,.18c0,.16-.13,.23-.32,.23h-.63c-.19,0-.34-.12-.39-.28l-.85-2.09h-5.33l-.82,2.08Z"/>
    <path class="cls-2" d="M164.42,171.63c-.1,0-.2-.04-.28-.13l-6.68-8.77v8.58c0,.22-.1,.32-.34,.32h-.6c-.22,0-.32-.1-.32-.32v-10.21c0-.19,.13-.34,.32-.34h.81c.12,0,.2,.04,.28,.15l6.58,8.55v-8.42c.03-.17,.15-.28,.32-.28h.6c.17,0,.35,.13,.35,.32v10.22c0,.21-.12,.32-.35,.32h-.69Z"/>
    <path class="cls-2" d="M174.78,160.76c.18,0,.34,.1,.35,.32v.6c0,.19-.12,.35-.35,.35h-3.12v9.27c0,.17-.12,.32-.34,.32h-.6c-.19,0-.34-.13-.34-.32v-9.27h-3.13c-.2,0-.34-.12-.34-.35v-.6c0-.19,.13-.32,.34-.32h7.53Z"/>
    <path class="cls-2" d="M184.11,160.76c.2,0,.32,.1,.32,.34v.6c0,.18-.12,.34-.34,.34h-6.09v3.24h4.85c.17,0,.32,.1,.32,.34v.6c0,.17-.12,.34-.32,.34h-4.85v3.81h6.15c.22,0,.34,.12,.34,.35v.6c0,.2-.12,.32-.32,.32h-7.1c-.2,0-.32-.09-.32-.31v-10.22c0-.22,.12-.34,.32-.34h7.04Z"/>
    <path class="cls-2" d="M189.65,161.83c-1.66,0-2.36,.91-2.36,1.76,0,1,1.35,1.41,2.61,1.74,1.74,.48,3.87,1,3.87,3.05s-1.82,3.4-4.1,3.4c-1.51,0-2.97-.63-3.91-1.85-.07-.1-.12-.19-.12-.26,0-.09,.04-.16,.13-.23l.47-.4c.06-.04,.16-.07,.22-.07,.13,0,.28,.17,.32,.22,.86,.89,2.23,1.36,2.93,1.36,1.22,0,2.8-.66,2.8-2.08,0-1.2-1.44-1.55-2.96-1.95-2.4-.61-3.6-1.41-3.6-2.89,0-1.79,1.48-3.03,3.76-3.03,1.17,0,2.49,.58,3.32,1.39,.12,.13,.28,.29,.28,.41,0,.09-.04,.16-.12,.23l-.44,.42c-.06,.06-.13,.1-.19,.1-.09,0-.18-.06-.26-.15-.47-.42-1.42-1.19-2.65-1.19"/>
  </g>
</svg>