<svg xmlns="http://www.w3.org/2000/svg" viewBox="0 0 960 194"><path fill="#96cd32" d="M553.26 158.65V194H441.39c-41.33 0-75.12-30.8-75.12-68.93v-6.09h-22.06V83.77h131.02c9.5 0 17.22-7.05 17.22-15.71V51.07c0-8.67-7.73-15.72-17.22-15.72h-52.99c-9.5 0-17.22 7.06-17.22 15.72V61.8c0 3.8-2.78 6.9-6.21 6.9h-26.23c-3.42 0-6.2-3.1-6.2-6.9V45.18c0-20.99 15.26-39.44 37.24-44.32C407.35.04 411.15 0 414.9 0h67.59c26.8 0 48.61 20.27 48.61 45.18v28.63c0 24.91-21.8 45.18-48.61 45.18h-77.46l-.08 6.09c0 18.62 16.29 33.58 36.32 33.58h112Z"/><path fill="#1423dc" d="M221.85 35.36V187.1c0 3.8-2.79 6.9-6.22 6.9h-26.24c-3.43 0-6.21-3.09-6.21-6.9V6.92c0-3.81 2.79-6.92 6.21-6.92h79.87c41.32 0 74.94 31.02 74.94 69.16v118.63c0 3.43-3.09 6.2-6.9 6.2h-24.83c-3.8 0-6.89-2.78-6.89-6.2V69.16c0-18.63-16.29-33.78-36.32-33.78l-47.41-.02Zm-169.38 0h101.79c3.73 0 6.76-2.73 6.76-6.08V6.11c0-3.36-2.89-6.11-6.76-6.11H51.76C23.22 0 0 21.37 0 47.68v98.63c0 26.31 23.22 47.68 51.76 47.68h102.5c3.73 0 6.76-2.74 6.76-6.09v-23.16c0-3.36-3.04-6.09-6.76-6.09H52.47c-7.49 0-13.82-5.93-13.82-12.95v-27.07h60.88c3.73 0 6.76-2.74 6.76-6.09V89.87c0-3.36-3.03-6.1-6.76-6.1H38.65V48.31c0-7.03 6.33-12.96 13.82-12.96ZM960 127.15c0-1.75-.01-3.55-.19-5.5-1.91-21.55-24.11-37.87-47.52-37.87h-59.55c-9.3 0-16.86-8.25-16.86-18.37l.06-13.18c0-9.3 8.24-16.86 18.36-16.86h81.05c2.96 0 5.58-1.72 6.53-4.29.25-.68.37-1.31.37-1.92V6.21c0-3.43-3.09-6.2-6.9-6.2h-90.34c-26.18.01-47.79 19.77-47.79 44.04v27.47c0 26.18 19.76 47.47 44.05 47.47h63.3c9.3 0 16.78 8.24 16.78 18.37v4.4c0 9.3-8.15 16.85-18.27 16.85h-98.95c-2.97 0-5.59 1.72-6.52 4.27-.26.7-.38 1.33-.38 1.93v22.96c0 3.43 3.1 6.21 6.9 6.21H912.6c26.17-.01 47.41-19.77 47.41-44.06v-22.78ZM643.65 0h-84.18c-3.43 0-6.21 3.11-6.21 6.92V121c0 3.81 2.78 6.9 6.2 6.9h26.2c3.43 0 6.21-3.09 6.21-6.9l.04-85.66 47.42.02c20.03 0 36.33 15.16 36.33 33.79v62.3c0 18.63-16.3 27.12-36.33 27.12l-86.07.09V194l86.07-.06c41.33 0 74.95-24.37 74.95-62.5v-62.7c0-36.59-30.7-68.74-70.62-68.74Zm131.41 122.2L775 57.35c0-3.8-2.78-6.9-6.21-6.9h-26.15c-3.42 0-6.21 3.09-6.21 6.9v64.85l.06 64.85c0 3.8 2.78 6.9 6.21 6.9h26.15c3.42 0 6.21-3.09 6.21-6.9V122.2Zm0-107.46L775 6.9c0-3.8-2.78-6.9-6.21-6.9h-26.15c-3.42 0-6.21 3.09-6.21 6.9v7.84l.06 13.73c0 3.8 2.78 6.89 6.21 6.89h26.15c3.42 0 6.21-3.09 6.21-6.89V14.74Z"/></svg>