<svg xmlns="http://www.w3.org/2000/svg" xml:space="preserve" fill-rule="evenodd" stroke-linejoin="round" stroke-miterlimit="2" clip-rule="evenodd" viewBox="0 0 527 361">
  <path fill="#1e1c1a" d="m218.3 290.1-217 2.4V285s41.8-1.4 43.3-12.7c1.6-16.6 2.5-93.8 2.5-158.5 0-43-.4-80.6-1.1-91C45 13 7.4 10.6 7.4 10.6v-8l118-.4v7c-14.1 1-32 3.8-33.4 13.6-1 83.7-1.4 106.1-1.4 132.3 0 21.1.3 44.7.5 105 0 11.3 4.2 20.7 16.4 20.7 40.9 0 59.2.4 59.2.4 7.8 0 15.1-3.7 21.4-10a53 53 0 0 0 1.8-2.3c6.2-8.6 10.4-22.3 18.5-43.7 14.2-38.9 30.8-85.4 80.7-90.1-42.2-1.4-76.4-32.4-76.4-63 0-46.4 44.7-72.3 78.3-72.3 16.2 0 40.9.4 68.4.4a2783.3 2783.3 0 0 0 64.4-.8c32.8.5 82.3 29.5 82.3 74.5v.7c-.4 28.8-20.8 64-62.6 65.4 48.7 4.6 83 26.9 83 77.9 0 30.4-26.6 74.6-100.3 74.6-11.8 0-47.2-1-118-1l-.6-9.8c0-.2 3.6-.7 17.5-1 8.3-2.2 16.7-6 17.9-11.4l.1-126.6-29.4.4c-31.8.5-47.9 47-56.4 78.3-5.3 19.7-12.5 48.2-12.5 64 0 1.4-.2 3.3 0 4.4l-26.5.3Zm96-280.8c-7.6.2-15 1-21 2.4-21.5 5.3-34 31.9-34 59.4 0 30.5 15.9 61.1 53.2 61.1l30.6-.4a38100.7 38100.7 0 0 0-.1-109.1c-.7-3.7-6.6-8.7-13.2-11a49.1 49.1 0 0 0-15.6-2.4Zm111.1 272.8c39-3.5 55.7-21.4 55.7-60.1 0-59.3-37-71.6-61.7-74.1l-30-.5.3 98.1.4 10c0 11 1.4 14.3 2 16.2 1.3 8.6 21.4 10.2 33.3 10.4ZM390.2 19.8v115.5l29.7-1.8c41.7-2.8 45-37.6 45.4-58.9 0-22.7-12-49.6-34.7-60.7A38.9 38.9 0 0 0 414 11c-2 0-3.9 0-5.9.2-2 .2-4 .6-5.7 1.2-6 2-11 4.5-12.2 7.4Z"/>
  <path fill-rule="nonzero" d="M-.5 360.5V336h4v21.2H14v3.4H-.5Z"/>
  <path d="M34.7 335.9h4v24.6h-4z"/>
  <path fill-rule="nonzero" d="M75.8 336H80l-8.7 24.5h-4.2L58.5 336h4.2l5.1 15.3a32 32 0 0 1 1.4 5.4 32.4 32.4 0 0 1 1.5-5.5l5-15.2Zm28 11.4h2.8c1.8 0 3.2-.4 4-1 .9-.8 1.3-1.8 1.3-3.2 0-1.4-.5-2.4-1.4-3-.9-.6-2.2-.9-4-.9h-2.7v8Zm0 3.3v9.8h-4V336h6.9c3.2 0 5.5.6 7 1.8 1.6 1.2 2.3 3 2.3 5.4 0 3-1.6 5.2-4.7 6.5l6.9 11h-4.6l-5.9-10h-4Zm48.4 9.8h-13.9V336h14v3.4h-10v6.7h9.3v3.4h-9.3v7.7h10v3.4Zm51.4-13.1h2.8c1.8 0 3.2-.4 4-1 .9-.8 1.3-1.8 1.3-3.2 0-1.4-.5-2.4-1.4-3-.9-.6-2.2-.9-4-.9h-2.7v8Zm0 3.3v9.8h-4V336h6.9c3.2 0 5.5.6 7 1.8 1.6 1.2 2.3 3 2.3 5.4 0 3-1.6 5.2-4.7 6.5l7 11h-4.7l-5.9-10h-4Zm46.2-.5-2.3-6.7a41.2 41.2 0 0 1-1.3-4.2c-.3 1.4-.7 2.9-1.3 4.5l-2.2 6.4h7.2Zm3.6 10.3-2.5-6.8h-9.4l-2.4 6.8h-4.2l9.2-24.7h4.3l9.2 24.7h-4.2Zm28-13.1h2.8c2 0 3.3-.4 4.1-1 .8-.8 1.3-1.8 1.3-3.2 0-1.4-.5-2.4-1.4-3-.9-.6-2.3-.9-4.1-.9h-2.7v8Zm0 3.3v9.8h-4V336h7c3.1 0 5.5.6 7 1.8 1.5 1.2 2.3 3 2.3 5.4 0 3-1.6 5.2-4.8 6.5l7 11h-4.6l-5.9-10h-4Zm48.5 9.8h-14V336h14v3.4H320v6.7h9.3v3.4H320v7.7h9.9v3.4Zm51.3-11.2v7.8h4.3c1.7 0 3-.3 3.8-1 .9-.6 1.3-1.6 1.3-3 0-1.3-.4-2.2-1.3-2.8a7 7 0 0 0-4-1h-4Zm0-3.2h4c1.6 0 2.8-.3 3.6-.8.8-.6 1.2-1.5 1.2-2.7 0-1.2-.5-2-1.3-2.5-.8-.6-2.2-.8-4-.8h-3.5v6.8Zm-4-10.2h7.3c3.4 0 5.9.5 7.4 1.5s2.2 2.5 2.2 4.7a6 6 0 0 1-1 3.6 5 5 0 0 1-3.3 1.8v.1c1.8.4 3 1 3.8 2 .8 1 1.3 2.2 1.3 3.8a6 6 0 0 1-2.4 5.2 10 10 0 0 1-6.4 2h-8.9v-24.7Zm42.4 12.3c0 3 .6 5.3 1.8 6.9 1.2 1.5 3 2.3 5.4 2.3 2.4 0 4.2-.8 5.4-2.3 1.3-1.6 1.9-3.9 1.9-7 0-3-.6-5.2-1.8-6.8-1.2-1.5-3-2.3-5.4-2.3-2.4 0-4.3.8-5.5 2.3a11 11 0 0 0-1.8 6.9m18.7 0c0 4-1 7.1-3 9.3-2 2.2-4.8 3.4-8.5 3.4s-6.5-1.2-8.5-3.4-3-5.3-3-9.4c0-4 1-7.1 3-9.3 2-2.2 4.9-3.3 8.6-3.3 3.6 0 6.5 1.1 8.4 3.3 2 2.3 3 5.4 3 9.4m24.9 0c0 3 .6 5.3 1.9 6.9 1.2 1.5 3 2.3 5.4 2.3 2.4 0 4.2-.8 5.4-2.3 1.2-1.6 1.8-3.9 1.8-7 0-3-.6-5.2-1.8-6.8-1.2-1.5-3-2.3-5.4-2.3-2.4 0-4.2.8-5.4 2.3a11 11 0 0 0-1.9 6.9m18.8 0c0 4-1 7.1-3 9.3-2 2.2-4.8 3.4-8.5 3.4s-6.6-1.2-8.6-3.4-3-5.3-3-9.4c0-4 1-7.1 3-9.3 2-2.2 5-3.3 8.6-3.3 3.7 0 6.5 1.1 8.5 3.3 2 2.3 3 5.4 3 9.4m40.6 12.3h-4.7l-7.7-11.1-2.4 2v9.1h-4V336h4v11.8l3.3-4 6.7-7.8h4.5l-9.2 10.8 9.5 13.8Z"/>
</svg>
