<svg xmlns="http://www.w3.org/2000/svg" xml:space="preserve" fill-rule="evenodd" stroke-linejoin="round" stroke-miterlimit="2" clip-rule="evenodd" viewBox="0 0 2126 2126">
  <path fill="none" d="M0 0h2126v2125.4H0z"/>
  <path fill="#dd1076" d="M26.5 24.5h2066.3v2066.9H26.5z"/>
  <path fill="#fff" d="M26.2 1351H2093v397H26.1z"/>
  <path fill="#fff" fill-rule="nonzero" d="M176.6 1346.5c101.5 97 243.9 160.5 448.3 160.5 271.1 0 421-134.8 421-337.7 0-228.7-230.1-277.2-396.7-312C537 836.1 475 818 475 765c0-43.9 33.3-78.7 119.6-78.7 89.4 0 200 34.8 284.8 104.5l142.3-186.3C914.2 512 773.3 463.6 611.3 463.6c-259 0-402.9 146.9-402.9 316.5 0 239.3 233.3 281.7 399.9 315 107.5 22.7 172.6 45.4 172.6 103 0 48.4-54.5 86.3-143.9 86.3a456.4 456.4 0 0 1-322.5-133.3l-137.9 195.4ZM1511 1507c251.4 0 399.8-178.7 399.8-384.7S1762.3 739.2 1511 739.2c-248.4 0-398.3 177.2-398.3 383.1s150 384.7 398.3 384.7Zm0-206c-101.5 0-157.5-80.2-157.5-178.7 0-96.9 56-177.1 157.5-177.1 103 0 160.5 80.2 160.5 177.1 0 98.5-57.5 178.8-160.5 178.8Z"/>
  <path fill="#000333" fill-rule="nonzero" d="M298.6 1640.8h56.6v-108.3c0-53.8-40-69.2-82.8-69.2-27.2 0-57.7 7.9-80.5 26.9L212 1525a80.5 80.5 0 0 1 50.4-18.3c22.8 0 36 10 36 25v22c-10.6-13-31.6-20.1-55.1-20.1-27.2 0-61.1 12.5-61.1 54.5 0 39 33.9 57 61 57 22.9 0 44.2-8.6 55.3-21.5v17.2Zm0-44.5c-6 8.2-19.2 12.5-31.7 12.5-15 0-28.3-6.4-28.3-20s13.2-20.1 28.3-20.1c12.5 0 25.8 4.3 31.7 12.2v15.4Zm86-42.3c0 54.5 41.6 91 97.2 91 38.3 0 62.2-16.8 72.8-31.9l-36.7-33.6a40.3 40.3 0 0 1-33.5 16.8c-23.6 0-41.6-16.1-41.6-42.3 0-26.2 18-42 41.6-42 15 0 26.5 6.5 33.5 16.6l36.7-33.4c-10.6-15.4-34.5-31.9-72.8-31.9-55.6 0-97.1 36.6-97.1 90.7Zm184 0c0 54.5 41.6 91 97.2 91 38.2 0 62.1-16.8 72.8-31.9l-36.8-33.6a40.3 40.3 0 0 1-33.5 16.8c-23.5 0-41.5-16.1-41.5-42.3 0-26.2 18-42 41.5-42 15.1 0 26.5 6.5 33.5 16.6l36.8-33.4c-10.7-15.4-34.6-31.9-72.8-31.9-55.6 0-97.2 36.6-97.2 90.7Zm184 0c0 56.3 42.3 91 97.1 91 27.2 0 56.7-7.5 74.3-22.9l-23.9-34.4a71.5 71.5 0 0 1-43.4 14.7c-26.5 0-42-14.7-45.2-30.8H938v-11.9c0-58.8-38.2-96.4-90.9-96.4-55.5 0-94.5 40.5-94.5 90.7Zm94.5-48c26.2 0 35.4 17.5 36.8 29.7h-73.2a34.8 34.8 0 0 1 36.4-29.7ZM951 1618.5c18.8 16.2 51.5 26.6 83.1 26.6 51.2 0 81-24.4 81-57.4 0-45.9-44.9-53-75-58-18.8-3.3-28.4-6.2-28.4-14 0-7.6 9.2-11.9 22.4-11.9a81 81 0 0 1 52.3 19l21.7-36.5a127.3 127.3 0 0 0-74.3-23c-49.3 0-76.2 26.5-76.2 57 0 44.1 42.7 50.2 72.9 55.2 18.4 2.9 30.5 6.1 30.5 15 0 7.6-7 13-24 13-20.9 0-49.2-11.5-62.5-23l-23.5 38Zm178 0c18.8 16.2 51.6 26.6 83.2 26.6 51.2 0 81-24.4 81-57.4 0-45.9-45-53-75-58-18.8-3.3-28.4-6.2-28.4-14 0-7.6 9.2-11.9 22.4-11.9a81 81 0 0 1 52.3 19l21.7-36.5a127.4 127.4 0 0 0-74.3-23c-49.3 0-76.2 26.5-76.2 57 0 44.1 42.7 50.2 72.8 55.2 18.4 2.9 30.6 6.1 30.6 15 0 7.6-7 13-24 13-21 0-49.2-11.5-62.5-23l-23.5 38Zm221.6-172.8c18 0 32.3-14 32.3-31.5 0-17.6-14.3-31.5-32.3-31.5s-32.4 14-32.4 31.5a31.8 31.8 0 0 0 32.4 31.6Zm-28.4 195h56.7v-173H1322v173Zm97.9 0h56.7v-20a68.6 68.6 0 0 0 52.6 24.4c43.8 0 78.3-32.3 78.3-91 0-56.7-34.2-90.8-78.3-90.8a66.2 66.2 0 0 0-52.6 24.8v-86.4H1420v239Zm56.7-59.8v-53c7-9.4 21.7-15.8 33.8-15.8 22.4 0 39.4 16.1 39.4 42 0 26-17 42.2-39.4 42.2a45.4 45.4 0 0 1-33.8-15.4Zm160.7-179.2h56.7v239h-56.7zm86.1 152.3c0 56.3 42.3 91 97.2 91 27.2 0 56.6-7.5 74.3-22.9l-24-34.4a71.5 71.5 0 0 1-43.3 14.7c-26.5 0-42-14.7-45.3-30.8H1909v-11.9c0-58.8-38.3-96.4-91-96.4-55.5 0-94.5 40.5-94.5 90.7Zm94.6-48c26.1 0 35.3 17.5 36.8 29.7h-73.2a34.8 34.8 0 0 1 36.4-29.7Z"/>
</svg>
