<svg xmlns="http://www.w3.org/2000/svg" fill="none" viewBox="0 0 275 183">
  <path fill="url(#a)" fill-rule="evenodd" d="m56.6 7 4.6-2v-.1l-3.5.3-2.6.2a68.5 68.5 0 0 1 2-2L60.7.2h.1a1.1 1.1 0 0 1 0-.2c-.3 0-.6.2-.8.3l-4.4 2c-.6.3-1 .4-1.7.2-.9-.2-1.7-.4-2.6-.4-2.8 0-5 1.4-7 3.3l-2.8 3c-1 1.1-4.7 5.5-9.7 9.1l-.3-.3-1.2-1.3L17.6 2.2l-.8-.7-.1.8V7c0 1 .3 1.7 1 2.3l10.5 10.4c-.9.5-1.7 1-2.7 1.3-1.6.6-3 .9-3.5 1 2.2 1.5 4.7 3 7.2 3.9 2.5.9 5 .8 7.7.9 0 0-.9.6-4.5.6l-2.7-.3c-.4 0-1 0-1.2.3-.4.4 0 1 .3 1.3.3.5 1 1.2 2 2l5.6 11 1.1-.6-4.6-9.3a12.5 12.5 0 0 0 6 1.4l10.6 7.5.3-.5.4-.5-9.4-6.6 1.5-.2C55.2 29.2 56.2 19.2 56 17.3c0-2.3-1-8.5-.8-9.2.2-.6.7-.8 1.3-1.1Z" clip-rule="evenodd"/>
  <path fill="#4265FF" d="M64.4 108.3 35.5 86.5a8.9 8.9 0 0 1-3.4-7 9 9 0 1 1 16 5.4l9.4 7a20.5 20.5 0 0 0 4.1-12.4 20.6 20.6 0 0 0-41.2 0v20.8A29.2 29.2 0 0 1 41 50.2a29.4 29.4 0 0 1 29.4 29.3 29.2 29.2 0 0 1-6 17.7l9.4 7A40.8 40.8 0 0 0 82 79.5a41 41 0 1 0-68 31l.6.5 3.4 2.5 2.3 1.7V142a20.6 20.6 0 1 0 33.3-16.3L32 109.4V98.6l28 21.1A29.3 29.3 0 1 1 11.8 142v-22.2H0V142a41 41 0 1 0 64.4-33.7Zm-18 26.5h-.1A8.9 8.9 0 0 1 50 142a9 9 0 0 1-17.9 0v-18l14.2 10.8Z"/>
  <path fill="url(#b)" d="M53.6 100.1 35.5 86.5a8.9 8.9 0 0 1-3.4-7v19l21.5 16.3V100Z"/>
  <path fill="url(#c)" d="m53.6 125.6-21.5-16.2v14.7l21.5 16.2v-14.7Z"/>
  <path fill="#4265FF" d="M100.6 129c0-2.6.3-4.8 1-6.7.8-2 1.8-3.6 3.1-5a12.8 12.8 0 0 1 4.5-3 15.4 15.4 0 0 1 10.8 0c1.4.9 2.7 1.7 3.7 2.7l-3.7 4.2a9.4 9.4 0 0 0-2.3-1.6c-.8-.4-1.8-.6-2.9-.6-1 0-2 .3-2.9.7a6.9 6.9 0 0 0-2.3 2 9 9 0 0 0-1.6 3c-.3 1.1-.5 2.5-.5 4 0 3 .7 5.5 2.1 7.2a6.8 6.8 0 0 0 5.5 2.5c1 0 2-.2 3-.7a9.8 9.8 0 0 0 2.3-2l3.8 4.1a12 12 0 0 1-9.5 4.4c-2 0-3.7-.3-5.5-1a12.7 12.7 0 0 1-4.5-2.9 13.8 13.8 0 0 1-3-4.8 18 18 0 0 1-1.1-6.6Zm36.1 15.2a10.8 10.8 0 0 1-8.7-4.2c-1-1.3-1.9-3-2.5-4.9a26.5 26.5 0 0 1 0-13.1 14 14 0 0 1 2.5-4.8 10.6 10.6 0 0 1 3.8-3 13 13 0 0 1 4.9-1c1.8 0 3.4.4 4.9 1a10.5 10.5 0 0 1 3.8 3c1 1.4 1.9 3 2.5 4.9a25.1 25.1 0 0 1 0 13c-.6 2-1.5 3.6-2.5 5a10.8 10.8 0 0 1-8.7 4.1Zm0-5.8c1.6 0 2.8-.9 3.7-2.6 1-1.8 1.4-4.2 1.4-7.2s-.5-5.4-1.4-7c-.9-1.7-2.1-2.6-3.7-2.6s-2.8.9-3.7 2.6c-1 1.6-1.4 4-1.4 7s.5 5.4 1.4 7.2c.9 1.7 2.1 2.6 3.7 2.6Zm15.8-24.6h6.9l6.3 14.9 2.6 6.5h.1a193 193 0 0 0-.6-5.3 45 45 0 0 1-.3-5.5v-10.6h6.4v29.9h-6.8l-6.4-15-2.5-6.4h-.2l.6 5.3a43 43 0 0 1 .3 5.5v10.6h-6.4v-30Zm28.4 21.5a16 16 0 0 0 3.7 2.2c1.3.6 2.6 1 4 1a6 6 0 0 0 3.4-.9c.7-.5 1-1.2 1-2 0-.5 0-1-.3-1.3a3 3 0 0 0-.9-.9 8.3 8.3 0 0 0-1.4-.7 72 72 0 0 0-2-.8l-3.8-1.6a13 13 0 0 1-2.5-1.2 9.2 9.2 0 0 1-2-1.7 7.9 7.9 0 0 1-1.4-2.3c-.4-.9-.5-1.9-.5-3 0-1.2.2-2.4.8-3.4a8.7 8.7 0 0 1 2.2-2.9 12.3 12.3 0 0 1 7.9-2.6 14.5 14.5 0 0 1 10 4l-3.4 4.2c-1-.7-2.1-1.3-3.1-1.7a9 9 0 0 0-3.5-.7c-1.3 0-2.3.3-3 .8-.7.4-1 1-1 2a2 2 0 0 0 1.3 2c1 .5 2 1 3.5 1.5l3.7 1.5c2 .8 3.5 1.8 4.7 3a8.5 8.5 0 0 1 .9 8.7 8.7 8.7 0 0 1-2.2 3c-1 .8-2.2 1.5-3.7 2a17.4 17.4 0 0 1-11-.3 16.7 16.7 0 0 1-5.3-3.3l3.9-4.6Zm22.3-21.5h19.7v5.7h-13v6h11v5.6h-11v6.9h13.5v5.7h-20.2v-30Zm34.6 0h6.7V138h13.3v5.7h-20v-30Zm-4.2 0h-6.8v29.9h6.8v-30Z"/>
  <path fill="#1E1E1E" d="M104.2 98.2a16 16 0 0 0 3.7 2.2c1.4.6 2.7.9 4 .9 1.6 0 2.7-.3 3.4-.8s1.1-1.2 1.1-2.1c0-.5-.1-.9-.3-1.2a3 3 0 0 0-1-.9 8.5 8.5 0 0 0-1.4-.7 79 79 0 0 0-2-.8l-3.8-1.6a13 13 0 0 1-2.4-1.2 9.2 9.2 0 0 1-2-1.7A7.9 7.9 0 0 1 102 88a7.7 7.7 0 0 1 .3-6.4 8.8 8.8 0 0 1 2.2-3 12.2 12.2 0 0 1 7.9-2.5 14.6 14.6 0 0 1 10 4l-3.5 4.2c-1-.8-2-1.3-3-1.8a9 9 0 0 0-3.5-.6 6 6 0 0 0-3 .7c-.8.5-1.1 1.2-1.1 2 0 1 .4 1.6 1.3 2.1 1 .5 2.1 1 3.6 1.5l3.6 1.5c2 .8 3.6 1.8 4.7 3 1.2 1.3 1.7 3 1.7 5.2 0 1.2-.2 2.4-.7 3.5a8.7 8.7 0 0 1-2.3 3c-1 .8-2.2 1.5-3.6 2a17.4 17.4 0 0 1-11-.3 16.7 16.7 0 0 1-5.4-3.3l4-4.6Zm29.1-1.7-9.6-19.9h7.2l3 7.3a85.7 85.7 0 0 0 1.4 3.3l1.4 3.5h.2a1235.8 1235.8 0 0 1 2.8-6.8l3-7.3h7l-9.6 19.9v10h-6.8v-10Zm19-19.8h6.8v24.2h13.3v5.7h-20v-30Zm23.2 0h8.2c2.1 0 4.1.2 5.9.8 1.8.6 3.3 1.5 4.5 2.7 1.3 1.2 2.2 2.8 3 4.6a22 22 0 0 1 0 13.4 14 14 0 0 1-3 4.7 11.8 11.8 0 0 1-4.4 2.8 17 17 0 0 1-5.7.9h-8.5v-30Zm7.8 24.4c1.2 0 2.2-.2 3.2-.5A6 6 0 0 0 189 99c.6-.8 1.2-1.8 1.6-3 .3-1.2.5-2.7.5-4.5a15 15 0 0 0-.5-4.5c-.4-1.2-1-2.2-1.6-2.9a5.8 5.8 0 0 0-2.5-1.5c-1-.3-2-.5-3.2-.5h-1v19h1Zm18.5-24.4h6.7v19c0 1.8.3 3.2 1 4.2s1.8 1.4 3.2 1.4c1.4 0 2.5-.5 3.2-1.4a7 7 0 0 0 1-4.2v-19h6.5V95a14 14 0 0 1-2.6 9c-1.8 2-4.5 3-8.1 3-3.7 0-6.4-1-8.2-3a13.4 13.4 0 0 1-2.7-9V76.7Zm25.2 15c0-2.4.4-4.6 1.1-6.5a14 14 0 0 1 3-5 12.9 12.9 0 0 1 4.6-3c1.7-.7 3.6-1.1 5.6-1.1 1.9 0 3.6.4 5 1.2a16 16 0 0 1 3.8 2.6l-3.7 4.2a9.5 9.5 0 0 0-2.3-1.6c-.8-.4-1.8-.6-2.8-.6a6.5 6.5 0 0 0-5.3 2.6 9 9 0 0 0-1.5 3c-.4 1.2-.6 2.6-.6 4 0 3.2.7 5.5 2.1 7.2a6.8 6.8 0 0 0 5.6 2.6c1 0 2-.3 2.9-.7a9.8 9.8 0 0 0 2.4-2l3.7 4.1a12 12 0 0 1-9.5 4.4 14 14 0 0 1-5.4-1 12.7 12.7 0 0 1-4.5-2.9 13.8 13.8 0 0 1-3-4.8 18 18 0 0 1-1.2-6.6Zm26.3-15h6.8v11.5h8.2V76.7h6.7v29.9h-6.7V94H260v12.5h-6.8v-30Z"/>
  <defs>
    <linearGradient id="a" x1="38.6" x2="51.3" y1="4.3" y2="35.5" gradientUnits="userSpaceOnUse">
      <stop stop-color="#4265FF"/>
      <stop offset=".3" stop-color="#4164FD"/>
      <stop offset=".4" stop-color="#3D5FF4"/>
      <stop offset=".6" stop-color="#3758E6"/>
      <stop offset=".7" stop-color="#2F4ED3"/>
      <stop offset=".8" stop-color="#2440B9"/>
      <stop offset=".8" stop-color="#1D38AA"/>
      <stop offset="1" stop-color="#18329E"/>
    </linearGradient>
    <linearGradient id="b" x1="53.6" x2="32.1" y1="97.1" y2="97.1" gradientUnits="userSpaceOnUse">
      <stop stop-color="#4265FF"/>
      <stop offset=".3" stop-color="#4164FD"/>
      <stop offset=".5" stop-color="#3D5FF4"/>
      <stop offset=".7" stop-color="#3758E6"/>
      <stop offset=".8" stop-color="#2F4ED3"/>
      <stop offset=".9" stop-color="#2441B9"/>
      <stop offset="1" stop-color="#18329E"/>
    </linearGradient>
    <linearGradient id="c" x1="53.6" x2="32.1" y1="124.8" y2="124.8" gradientUnits="userSpaceOnUse">
      <stop stop-color="#4265FF"/>
      <stop offset=".3" stop-color="#4164FD"/>
      <stop offset=".5" stop-color="#3D5FF4"/>
      <stop offset=".7" stop-color="#3758E6"/>
      <stop offset=".8" stop-color="#2F4ED3"/>
      <stop offset=".9" stop-color="#2441B9"/>
      <stop offset="1" stop-color="#18329E"/>
    </linearGradient>
  </defs>
</svg>
