<svg xmlns="http://www.w3.org/2000/svg" viewBox="0 0 72 48">
  <path fill="#fff" fill-rule="evenodd" d="M0 0h72v48H0z" clip-rule="evenodd" image-rendering="optimizeQuality" shape-rendering="geometricPrecision" text-rendering="geometricPrecision"/>
  <path fill="#005a9c" d="m2 8 9.6 32.2h.4l6-20 5.9 20h.4L31.4 16c1.4-4.6.7-4.1 4.8-4.1h3.3L33 23.5h2.7c1.7 0 3.5.6 4.4 1.9l.4.5v.2l.4.6c.3.9.5 2 .5 3.1a8 8 0 0 1-1.2 4.5 5.3 5.3 0 0 1-1.1 1.3 3 3 0 0 1-1 .5 2.7 2.7 0 0 1-.7.1h-.8l-.2-.1-.5-.2a3.9 3.9 0 0 1-1.3-.7l-1-1.5h-4c.2.8.5 1.5 1 2.2v.3a9.8 9.8 0 0 0 2.5 2.6l.5.4.4.2h.2l.6.3.6.2.6.2h2.5a7.4 7.4 0 0 0 5-2.9c1.5-2 2.2-4.4 2.2-7.4a12 12 0 0 0-1.5-6.1 8 8 0 0 0-3.3-3l-.2-.1a9.2 9.2 0 0 0-1.2-.5l7-12H33.7c-3.6 0-4.3.5-5.6 4.8l-4.3 14.7L18 8h-4l1 3.2c.8 2.7.7 4 0 6.5l-3 9.9L6.3 8Z"/>
  <path d="M67 8a3.1 3.1 0 0 0-3 3c-.1.8.2 1.6.8 2.2a3 3 0 0 0 2.1.9c.8 0 1.6-.3 2.2-1A3 3 0 0 0 66.9 8zm2.6 3c0 .8-.3 1.4-.8 1.9s-1.2.8-1.9.8-1.3-.3-1.8-.8-.8-1.2-.8-1.9c0-.6.3-1.3.8-1.8s1.1-.8 1.8-.8a3 3 0 0 1 2 .8c.4.5.7 1.1.7 1.9zM67 9.4h-1.3v3.4h.7v-1.5h.6l.7 1.5h.7l-.7-1.6c.5 0 .7-.4.7-.9 0-.6-.4-1-1.4-1zm-.1.4c.6 0 .9.2.9.6 0 .4-.3.5-.9.5h-.5V9.7Zm-5.1-2 .3 2c.4 2 0 2.8-.8 4.4L60 16.5s-1-2-2.5-3c-1.2-1-2-1.1-3.4-.8-1.7.3-3.6 2.3-4.4 4.8-1 3-1 4.4-1 5.7-.1 2.1.2 3.4.2 3.4s-1.4-2.7-1.4-6.6c0-2.9.4-5.4 1.7-8 1.2-2.1 2.9-3.4 4.4-3.6 1.6-.2 2.8.6 3.7 1.4 1 .9 2 2.7 2 2.7Zm.3 23.2s-1 2-1.7 2.7c-.7.7-1.9 2-3.3 2.6-1.5.7-2.2.8-3.7.7-1.4-.2-2.7-1-3.2-1.4a8.3 8.3 0 0 1-2.3-2.3L46 30.5l1 2.7c.2.4.8 1.9 1.8 3.1.8 1.2 2.5 3.2 5 3.6 2.6.5 4.4-.7 4.8-1 .4-.2 1.4-.9 2-1.5a7 7 0 0 0 1.3-2c.3-.5.6-1.9.4-2.8z"/>
</svg>
