<svg xmlns="http://www.w3.org/2000/svg" width="1920" height="1080" viewBox="0 0 1920 1080" preserveAspectRatio="xMidYMid slice">
	<defs>
		<style>
			@import url('https://fonts.googleapis.com/css2?family=Atkinson+Hyperlegible+Next:ital,wght@0,200..800;1,200..800');
			@import url('https://fonts.googleapis.com/css2?family=Zilla+Slab:wght@400;700');
			:root { background-color: #767676; }
			.portrait {
				clip-path: circle();
				translate: calc(var(--longueur) * -2ch);
			}
		</style>
		<linearGradient id="fond" gradientUnits="userSpaceOnUse" gradientTransform="rotate(179.5deg)">
			<stop offset="10%" stop-color="#cfe0ee" />
			<stop offset="60%" stop-color="#a7cae3" />
			<stop offset="75%" stop-color="#a7cae3" />
			<stop offset="75%" stop-color="#dbe6eb" />
		</linearGradient>
	</defs>
	<!-- Décor -->
	<g>
		<rect fill="url(#fond)" width="100%" height="100%"></rect>
		<g>
			<g fill="var(--24, #26271f)">
				<path d="m147 56.8 10.9-8.6-.9-12.1-2.7-10.1v-5.6l-.9-5.6.9-4.7 2-4.5 1.8-.8 1.5-1.2 6.3-.9h22.2l10.7-.9h50l14.9-.9 6.2-.9h12.2l6.4 1 11.6-.1h5.4l2 .7 3.4.2 7.3 6.5 3.4 5.6 1.8 4.5-.1 2.8 1 2.8v11.2l-.9 6.5-3.5 9.3-7.1 7.7-9.8 4.5-2.5.2-2 .8-6.2.9H287l-5.3 1-5.3 1-7.9-.1-6.4.9h-62.4l-8.7.1-4.5-.9-3.5-1-3.6-.7-1.8-.2-2-.7-7.8-1.1-3.6-.2-4.5-.7-3.5-1-7 2.4m-92.9-50c.3.3 2.1 1.1 2.5 1.6.4 1.1-.4 1.7.3 2.8.2.6 2.3 2.6 2.5 3.4 1.7 6.1 1.6 12.6 1.8 17.3.3 8.2 1 13-1 18.5-.2.7-1.7 1.5-2.1 2-4.4 9.4-9.3 18.6-16 25.7-1.7 1.8-3.9 2.2-5.5 4.2-.7.9-.5 3-1.1 3.8 10-.1 20.5-2.2 31.9-3.4l2.7 25.5c-8.1 2.2-14.7 1.6-22.4 1.4-3.4 0-7.5 1.6-9.5 2-4.9 1-12 .3-15.7.7-5.7.6-13.1 2.2-19.3 2.1-2.3-22 2.1-36.4 12.4-45.6 1.5-1.2 2.9-1 4.3-2.3 2.6-2.3 4.5-6.6 7.3-9s5.2-3.4 7.6-6.3c2.3-3.2 4-6.8 4.8-10.6.4-2.2-.8-2.4.4-3.7 0 0-1.8-5.8-2.2-6.2-.8-1.2-2.1-.8-3.1-1.7-.7-.3-1.9-2.3-2.5-2.4-6.4-1.5-14.5 6-17 9.1-1.1 1.3-1.9 5.2-3.1 6l-1.5.2c-2.7-2.5-5.3-4.2-8.2-6.6-4-3-6-5.5-3.4-10.7C6.6 21.1 19 9.3 32.1 6.4c11.9-2.6 18 1.8 24.2 7.5z"/>
				<path d="M152.5 70.1c-10 1.1-16.7-.7-24.5 2.6.1 5.6 1.4 13.2 1.5 20 0 .3-.1.7 0 1-.1 4-.6 11.3-.5 15.6-6.8-.4-13.5 1.3-19.9 3.1-.6-5.4-1.4-10.9-2.1-16.3-1-7-2-13.7-2.4-19.1-9.1-.3-20.6 1.3-30.6 2.3-.7-6.5-2.6-16.6-1.5-21.8.8-3.9 6.9-12.2 8.8-15.7 2-3.7 2.7-7.7 4.7-11.6.8-1.2 2.7-2.6 3.3-4 .8-1.6.3-3.2 1-4.7.9-1.8 3-3.1 4-5.1 1.1-2.1 2.9-8.1 4.2-9.5l.6-1.1c2.8-1.6 7.2-.3 10.4-1.1.4 0 4.6-2.3 5-2.3 3.8-.9 8-.9 11.9-1.3 1 9.6 1.9 18.8 2.3 29.2.2 4.1.6 11.7 1.2 17.4 5.9 1.2 15 .2 20.9-.4.8 7.9 1.8 16 1.7 22.8zm-36.6-33.8c-.9-4.5-1.3-8.3-1.9-11.7-.5.1-2.6.6-3.1.3-4.5 3.6-6.1 8.7-8.2 14.6-5.1 14.3 7.8 8.9 14.9 5.7-1-.4.4-3.7.3-3.7-.6-.2-2-4.8-2-5.2z"/>
			</g>
			<path fill="var(--jours, #f8f9eb)" d="M188.4 25.4c1.1 3.9.9 15.6-.4 21.7-.1 1.3-.6 2.5-1.4 3.6-.2.2-.6.1-.9.3-.2.2-.4.9-.6.9-3.6 1.4-9.9-.5-11.7-1.8-1.1-.8-2-1.8-2.7-3-.7-1.1-1.2-2.3-1.6-3.5-.3-1.1-.4-2.2-.3-3.4.2-.2.6-1.1.9-1.2 1.2-.4 2.4-.7 3.7-.9.5.9 1.6 3.4 2.4 4 1.9 1.2 4.4.7 5.7-1.2.2-.4.4-.8.5-1.2.2-2.5.3-4.9.3-7.4.1-2.3 0-4.5-.3-6.8h-8.4c.3-2.4.4-4.9.3-7.4 3.4.2 8.2 1 12 .3l.9-.6c.6-.1.9.5 1.2.6 2.6.3 5-.3 7.4.3v6.1c-2.3-.1-4.7.1-7 .6zm30.7 22.1c-1.5 2.2-3.8 3.7-6.3 4.5-3.9.9-5.4-.3-7.7-1.5-1.7-.8-3.2-1.8-4.6-2.9-.4-.3-.7-.7-.9-1.1-2-2.9-4.2-10.2-3.4-15.7l.6-.9c.3-1.7.6-2.8.9-4 .3-.9 0-1.4.3-2.2.6-1 1.3-1.9 2.2-2.8 1.4-2 2.6-4.2 5.5-4.6 4.3-.6 9.9.8 11.7 2.8 3.8 4 5.2 20.4 2.5 27.1-.3.4-.6.9-.8 1.3zm-5.8-21.4c-1.1-1.2-2.7-1.8-4.3-1.5-2.9.3-5.5 4.5-5.8 7.4-.2 1.8.4 3.8.6 5.3.1.5-.2 1.3 0 1.8.4 1.2 2.3 2.1 3.7 2.8.7.6 1.6.9 2.5.9.5-.3 1.1-.6 1.6-.9.9-.3 1.8-.8 2.5-1.5 2-3 1.3-11.6-.8-14.3zm39-1.1c-.1.7-.1 1.3-.1 2-.1 4 .2 7.6-.5 11.5-.2.7-.4 1.5-.8 2.2-.2.4-.3.8-.4 1.3-.4 1.9-.4 3.1-1.2 4.6-.2.3-.5.7-.7 1-.8 1.1-1.7 2.1-2.7 3-2.2 1.5-10.4 2.5-13.3 1.3-1.8-1-3.3-2.5-4.4-4.3-.6-.9-1-1.8-1.4-2.8v-1.3c-.2-.8-.4-1.7-.7-2.8-.4-1.6-.9-3.3-1.2-4.6-.3-3-.3-6.1.1-9.1.3-3.4.8-6.9.8-10.3 2.2.2 4.3.3 6.5.3-.5 3.3-.7 6.7-.6 10 .2 3.3.9 6.6 2.1 9.7.3.8.1 1.7.6 2.2 1.2.8 2.6 1.2 4 1.2.2 0 .8-.3.6-.3 1.2-.5 2.4-.7 3.1-1.5 1.6-2 2.4-6.5 2.9-11.2.3-3.4.4-6.8.4-9.4 2.6-.3 4.2-.4 6.8-.6.1.7.6 2.2.6 2.8.2 1.5-.4 3.7-.5 5.1zm29 25c-1.7-.3-6.1.1-7.4-.6v-.6c-.2-.8-2-1.8-2.4-2.5-1.8-2.4-3.4-4.9-5.2-7.3-.1-.2-.2-.3-.3-.4-1 .4-1.5.2-1.9.4s-.4.5-.6 1.4c-.5 3-.3 6.9-.3 10.1-2.3.3-4.5.4-6.8.3 0-3.8.3-8.1.5-11.9 0-.6.1-1.1.1-1.7.1-2.1-.4-3.5-.3-5.9.2-2 .2-4.1.3-6.1.1-4.6 0-9.2 0-13.8.8-.1 2.2-.3 2.5-.3 3-.2 10.8.3 13.2 1.6 2.9 1.4 6.1 7.4 6.1 12.6 0 1.3-.2 2.5-.6 3.7-.5 1.5-3.4 4.3-4.6 5.2l-1.5.7c-.2.5.2 1 0 1.5.7.9 1.4 1.7 2.2 2.6.9 1 1.9 2.2 2.7 3.3s1.3 2.5 2.2 3.7c.6.8 2.3 1.9 2.4 3 .1.8-.4.5-.3 1zm-16.4-32.6c-.2.2-1 .4-1.2.6v6.4c0-.2-.4.3-.3.7 0 .1 0 .2.1.3 0 .5.2 1.4.3 2.2.4-.1.8-.1 1.2 0 1.3-.5 4-1.1 5.3-1.8l.3-.3c.4-.5.7-1 .9-1.5 1.9-4.5-2.8-6.1-6.6-6.6zm41.6 30.4c0 .1-.1.2-.2.4-1 1.3-2 2.5-3.2 3.7-1.7.9-4.8.4-6.8.3-1 .1-2.1.1-3.1 0-1.8-.3-5.4-2.3-7.9-3.9-.9-.6-1.7-1.2-2.5-1.9.2-.5-.2-1 0-1.5.8-1 1.6-1.9 2.5-2.8.5-.8 1-1.7 1.5-2.5.3.2.6-.1.9 0 .2.1.4.8.6.9 1.9 1.2 4 2.1 6.1 2.4 0 0 1.3.1.9 0 1.9-.9 3.8-1 2.8-4-.3-.8-1.1-1.3-1.5-1.8-.7-1.2-1.5-2.3-2.4-3.4h-.6c-.4-.2-.9-1.3-1.3-1.5-3-2.6-6.4-4.4-5.8-9.9.5-4.4 1.9-6.5 5.5-7.7l1-.6c.9-.1 1.8-.1 2.8 0 2.8.4 5.4 1.4 7.7 3 .4.3 1 .9 1.5 1.3-.1.3.2.9 0 1.2 0 .2-1.9 3-2.1 3.1v.3c-.3.1-.8-.2-.9 0-.9-.5-2.2-2-3.4-2.2-3.7-.4-4.9 3.3-3.1 5.9.8 1.2 2.6 1.8 3.7 2.8 4 3.4 10.1 8.8 7.7 16.6-.3.7 0 1.1-.4 1.8z"/>
			<path fill="var(--de-web, #e1362c)" d="M163.5 84.4c.3.2.6.2.9.4 2.1 1.9 3 5.8 2.3 9.8h.2c-.3 1.5-.3 3.3-.8 4.6-.7 1.2-1.7 2.3-2.9 3.1-2.7 1.5-5.9.6-9.6.4.3-4.2.7-8 .9-11.3 0-.9-.3-2.2-.2-3.3.2-1.8.7-4 .8-6.3 4 .8 5.5.6 8.4 2.6zm-4.8 3.9c-.5 1.4-.2 3-.5 4.6-.1.9-.4 2-.6 3.2.2 0 .4.4.5.4.7 0 1.5-.2 2.1-.5.7 0 1.4-.2 2-.5 2.1-1.2 1.8-5.4.2-6.7-.9-.7-2-1.1-3.2-1.2 0 .3-.5.6-.5.7zm22.6 16.1c-3.9-.2-8.8.1-12.2-.9l.2-2.9c.4-5.5.9-11 1.4-16.2 0-.4.1-2.3.1-2.3 3.8.7 7.9.3 11.7 1.1v.4c.2 1.3.2 2.6 0 3.8-.4 0-1 .1-1.2.1-.4 0-.8-.1-1.1-.3-1.7-.1-3.5-.2-5.2-.1l-.2.6c-.1 1.1-.1 2.2 0 3.2 1.4.3 3 .5 4.6.7.1 1 .1 2.1 0 3.1-1.5 0-3.6.2-5 .3-.1 1.3-.1 2.6 0 3.8 2.1.4 5.1.6 7.4 1v1.5c-.3 1.1-.4 2-.5 3.1zm56.6-26c-.4 2.5-.9 5-1.6 7.4 0 .1 0 .2-.1.3-.6 2-2 4.3-2.7 6.2-.6 1.5-.4 2.2-1 3.8-1.6 4.3-3.5 8.3-5.2 12.8-.5 1.3-.9 2.6-1.4 3.9-2.2.4-4.4.5-6.6.3-.8-1.6-1.4-3.2-2-4.8-1.1-3.2-2.1-6.5-3.4-9.5-.7.1-1.4-.3-2.1-.1-1 .2-2.8 5-4.3 9-.8 2.3-1.5 4.4-1.8 5.3-1.9.1-3.7.1-5.6 0-.5-1.8-1-3.8-1.4-5.9-.6-2.9-1.1-5.9-1.6-8.7-.8-5.2-1.7-10-2.5-14.9-.3-2.6-.8-5.2-1-7.9-.1-.8-.2-1.5-.2-2.3 3.1 0 6.3.2 9.4.6.1.8.3 1.5.4 2.4.4 2.5.7 5.2 1.1 7.9.4 3.3 1 6.6 1.8 9.9 1-.3 1.8.2 2.5-.2l2.7-4.4c.9-1.5 1.3-3.1 2.1-4.8 0 0 1.6.1 1 .4l.7.4c.9 1.5 1.1 3.4 1.8 5 .3.8 1.4 1.7 1.5 2.6 0 .2-.1.9-.1 1.1.2.4.8.3 1 .8.6-.4.6-.1 1.4-.2.5-1.4 1.6-5.3 3-9.3.9-2.8 1.9-5.6 2.8-7.6.7-1.7 1.3-2.8 1.7-2.9 3-.8 8.1.7 10.1 1.3-.1.6-.3 1.3-.4 2.1zm23.3 38.2c-7.1-.4-16 .1-22.3-1.7l.3-5.3c.7-10 1.7-20 2.5-29.5l.3-4.2c6.9 1.2 14.4.6 21.2 2v.7c.5 1.7.1 4.8 0 7-.8 0-1.9.3-2.2.2-.7-.1-1.4-.2-2-.5-3.1-.3-6.3-.3-9.4-.2l-.4 1c-.1 2-.1 3.9 0 5.9 2.6.5 5.4.9 8.3 1.2.1 1.9.1 3.7 0 5.6-2.8.1-6.6.3-9.2.5-.2 2.3-.2 4.7 0 7 3.9.7 9.4 1 13.5 1.9v2.8c-.1 1.9-.3 3.5-.6 5.6zm30-1.4c-.3.2-4.1 2.8-4.4 2.9-1.5.5-3.7.1-5.6 0-5-.1-10.1-.6-15-1.6-.2-1.5-.2-3.2-.2-4.9 0-2.2.2-4.4.5-6.6.1-.3.8-2.2.8-2.4.5-2.7-.1-5 .1-7.4.5-5.5 1.5-12.6 1.8-18.1 7.6.5 18.1.8 19.2 6.8 0 .8 0 1.6-.1 2.4.2 2.6.2 6.3-1.2 8.3-.4.7-2.2 1.2-2.6 2-.1.4.2.7-.1 1 1.9.6 5.1 1.6 6.5 2.8.3.3 0 .6.3 1.1s1.1.7 1.3 1.2c.9 2 .4 7.3-.5 10.4 0 .8-.4 1.5-.8 2.1zm-7.8-10.3c-.2-.1-.4-.9-.6-1.1-.9-.8-1.8-.7-3.1-1.2-.8-.4-2.4-1.4-3.8-1.3-3.4.3-2.4 6.8-2.4 9.7 1.6.3 3.3.4 4.9.3 2.5-.3 7.5-2.4 5.6-6.3l-.6-.1zm-4.6-21.7c-.6-.3-1.1-.6-1.7-.8-3.5-.1-3.3 5-3 8.2.3.1 1.2.2 1.4.5 1.9-.2 3.9-.7 5.7-1.4.6-.3.8-1.1 1.2-1.7 2-3.5-.5-3.9-3.6-4.8z"/>
		</g>
	</g>
	<!-- Contenu -->
	<g font-family="Atkinson Hyperlegible">
		<text font-weight="900" font-size="96" font-family="Zilla Slab"><tspan y="560" x="50%" dominant-baseline="middle" text-anchor="middle">Quand l’obligation légale rejoint la mission des médias d’informer tous les publics</tspan></text>
		<path transform="scale(2) translate(400, 400)" fill="#ff52ab" d="M42.9 5.22v.53c-.42.24-.7.07-1.01-.1h-2.06l-.66.26-.61-.26-.3.16c-.12.01-.24.05-.36.05h-1.37l-.57-.25-.78.24h-1.13l-.42-.19c-.27-.05-.47.01-.7.12-.12.06-.36.04-.53.09-.23.06-.32.23-.77.2L31 5.83l-.8.23h-1.99l-.39-.2h-2.47l-.38-.2h-1.26l-.4.43-.75-.41H20.4l-.46.2c-.38-.09-.73-.2-1.1-.22-.35-.02-.66-.03-.84-.23l-.47.22H3.94l-.43-.2-.36.18-.5-.2H1.04l-.18-.1.57-.3 1.19-.05c-.46-.21-.95-.2-1.19-.39l-.34.18H.11c-.15-.26-.14-.53-.01-.81.5.13.93.29 1.53.12v-.93l.6-.08.47.22h.81l.44-.2.34.18.66-.22.65.21.4-.18h.8l.43.2c.15-.06.3-.13.51-.24l.87.23h1.5l.48-.2h2.01l.38-.2.43.2.38-.18 1.3.36.39-.16h1.02c.44-.05.55-.32 1.22-.14.36.13-.11.3-.41.46.54.16 1.02.08 1.56.1l.2-.59.38-.06c.45.05.55.3 1.02.39.06-.03.2-.1.36-.16l.38.18 1.54-.44.57.23h4.98l.39-.2h2.89c.17-.1.26-.15.38-.2H41l.44-.22c.4-.07.62.08.84.2l.36-.18h2.97l.52.22.73-.22h6.19l.35.18.43-.2L60 2.42l.43-.21c.45-.09.59.15.82.2h.84l.35-.19h4.15l.42.18.43-.19h9.85l.46-.22.27.15c.13.02.25.06.37.06h1.8l.46-.2.27.14 1.24-.19.53.25h.81l.43-.21h4.94l.38-.2c.78-.05 1.66.01 2.51-.03l.44-.19.35.19.43-.18.44.19h4.1l.42-.2.43.2.31-.17c.38-.04.77-.12 1.11.06.34.18.75.15 1.11.06.41-.09.78-.23 1.25-.37h.75l.39.42h.43l.73-.38c.53-.15.95.04 1.41.12l.3-.16.45.2h3.33l.24-.36c.44-.14.92 0 1.4-.1l.27.41c.45.1.92.05 1.42.04l.28-.4h1.7l.44-.23h4.94l.38-.2.44.2h1.22l.45-.22h1.63l.37-.19.44.18h3.35l.34-.18.45.19h1.63l.43-.2h1.64l.43.2.3-.15c.05-.02.1-.06.16-.06h5.15l.19-.02.33-.17h.9l.35.18.45-.2h1.22l.43.2h1.63l.45-.2h2.04l.35-.2h1.4c.03.1.08.19.14.31l-.79.15-.12.3-.69.13c0 .2.36.25.53.38h.43l.4-.46.74.85 1.14.1c-.32.3-.98-.01-1.24.27.06.03.1.08.15.08h2.1l.38-.41h.64v.32l.6.3.44-.2h1.22l.43.22h3.65c.26.05.33.24.67.21l-.15.2h-5.04l-.36-.19h-2.43l-.46-.21c-.18.25-.43.48-.88.63-.43.08-.56-.16-.87-.21-.6-.16-.94.2-1.5.21a87.3 87.3 0 0 1-.44-.19l-.68.24-1.15-.51-.7.54-.82-.26-.4.18h-6.56l-.45.21-.3-.15c-.43-.11-.9-.05-1.37-.04l-.35.18-.4-.16c-.44-.05-.91-.11-1.28.19h-8.69l-.37.2h-6.16l-.46.21h-3.27l-.45.22h-7.82l-.37.2h-2.06l-.4.2H98.3l-.33-.16-.51.2h-4.08l-.38.2h-5.33l-.46.22h-2.05l-.43-.2-.3.15c-.05.02-.1.05-.16.05H80.6c-.34.29-.81.23-1.28.19L79 4.8l-.44.19h-4.48l-.47.22h-2.04l-.31-.15c-.42-.13-.9-.04-1.36-.06l-.37.2-1.29.03-.52.24-.73-.21-.39.16h-2.04l-.42-.2-.43.21h-2.88l-.3.16c-.44.11-.9.04-1.35.04l-.43-.2c-.47-.08-.58.18-1.02.23l-.83-.26-.62.22-.4-.19h-.61c.03-.21-.25-.21-.68-.22l-.6.43h-1.37l-.45.22h-2.04l-.44-.21h-.8l-.44-.22c-.6-.04-.78.25-1.2.4h-2.51l-.6-.28V5.3l.82-.2c-.3-.18-.66-.07-1.02-.11l-.39.42-.65-.2-.14-.19c-.5-.02-1-.08-1.64.09.66.16 1.24.07 1.78.1ZM147.2.6c-.3-.21-.74-.13-1.07-.07-.4.08-.75.25-1.14.36-.1.03-.26.02-.42.03-.24-.08-.41-.27-.88-.2l-.3.3c.27.1.56.18.85.27l.33-.16h2.45c.04 0 .1-.05.17-.09l-.36-.22.37-.22Zm-2.04 1.8c0-.25 0-.48-.02-.72 0-.03-.16-.06-.24-.1-.17.15-.57.2-.57.4.07.21.33.33.82.43ZM141.65.93c-.35.2-.33.42-.06.6l.73-.25-.67-.35ZM36.39 5.09c-1.64-.1-1.64-.1-1.68.09.18.01.37.04.55.03.32-.01.67.07 1.13-.12Zm9.34.51-.01-.13-.55-.03c-.05 0-.14.05-.14.06.03.05.1.14.15.14.18 0 .37-.02.55-.04ZM140.47.95l-.26.08c.04.02.1.07.13.06.1 0 .19-.04.28-.06l-.15-.08Zm-29.13.5c-.04-.02-.1-.06-.13-.06-.1.01-.19.04-.28.07.05.02.1.07.14.07l.27-.07Zm34.9.3.15-.08c-.09-.03-.18-.06-.27-.07-.04 0-.1.04-.14.07l.27.08Zm-5.68.16-.15-.13c-.04.02-.13.05-.13.07.03.05.09.1.13.14l.15-.08Zm1.65 0-.15-.13c-.04.02-.13.05-.13.07.03.05.09.1.13.14l.15-.08Zm1.24 0-.15-.13c-.05.02-.14.05-.13.07.02.05.08.1.13.14l.15-.08Zm4.24 0 .15.08.13-.14c0-.02-.09-.05-.13-.07l-.15.13ZM53.97 2.94l-.15-.08c-.04.05-.1.1-.12.14-.01.02.08.05.12.07l.15-.13ZM8 4.33l.26-.08c-.04-.03-.1-.07-.13-.07-.1.01-.19.04-.28.07l.15.07Zm45.97.3-.14-.07c-.05.05-.11.1-.13.15-.01.02.08.04.13.07l.14-.14Zm1.24.22-.15-.07-.13.14c0 .02.09.05.13.07l.15-.14Zm-31.75.44-.15-.08-.13.14c0 .02.09.05.13.07l.15-.13Zm1.44-.05-.14.08.27.06c.04 0 .1-.04.14-.06a230 230 0 0 0-.27-.08Z"/>
		<g><image class="portrait" href="/img/lego.svg" width="128" height="128" x="610" y="860"/>
				<text font-weight="800" font-size="72" fill="#e11a81" x="770" y="928" dominant-baseline="middle">Angi Guyard</text></g>
	</g>
</svg>
