<svg xmlns="http://www.w3.org/2000/svg" width="1920" height="1080" viewBox="0 0 1920 1080" preserveAspectRatio="xMidYMid slice">
	<defs>
		<style>
			@import url('https://fonts.googleapis.com/css2?family=Atkinson+Hyperlegible+Next:ital,wght@0,200..800;1,200..800');
			@import url('https://fonts.googleapis.com/css2?family=Zilla+Slab:wght@400;700');
			:root { background-color: #767676; }
		</style>
	</defs>
	<!-- Décor -->
	<g>
		<rect fill="#fff" width="100%" height="100%"></rect>
		<g transform="translate(1480, 96)">
			<g fill="#a63823">
				<path d="m147 56.8 10.9-8.6-.9-12.1-2.7-10.1v-5.6l-.9-5.6.9-4.7 2-4.5 1.8-.8 1.5-1.2 6.3-.9h22.2l10.7-.9h50l14.9-.9 6.2-.9h12.2l6.4 1 11.6-.1h5.4l2 .7 3.4.2 7.3 6.5 3.4 5.6 1.8 4.5-.1 2.8 1 2.8v11.2l-.9 6.5-3.5 9.3-7.1 7.7-9.8 4.5-2.5.2-2 .8-6.2.9H287l-5.3 1-5.3 1-7.9-.1-6.4.9h-62.4l-8.7.1-4.5-.9-3.5-1-3.6-.7-1.8-.2-2-.7-7.8-1.1-3.6-.2-4.5-.7-3.5-1-7 2.4m-92.9-50c.3.3 2.1 1.1 2.5 1.6.4 1.1-.4 1.7.3 2.8.2.6 2.3 2.6 2.5 3.4 1.7 6.1 1.6 12.6 1.8 17.3.3 8.2 1 13-1 18.5-.2.7-1.7 1.5-2.1 2-4.4 9.4-9.3 18.6-16 25.7-1.7 1.8-3.9 2.2-5.5 4.2-.7.9-.5 3-1.1 3.8 10-.1 20.5-2.2 31.9-3.4l2.7 25.5c-8.1 2.2-14.7 1.6-22.4 1.4-3.4 0-7.5 1.6-9.5 2-4.9 1-12 .3-15.7.7-5.7.6-13.1 2.2-19.3 2.1-2.3-22 2.1-36.4 12.4-45.6 1.5-1.2 2.9-1 4.3-2.3 2.6-2.3 4.5-6.6 7.3-9s5.2-3.4 7.6-6.3c2.3-3.2 4-6.8 4.8-10.6.4-2.2-.8-2.4.4-3.7 0 0-1.8-5.8-2.2-6.2-.8-1.2-2.1-.8-3.1-1.7-.7-.3-1.9-2.3-2.5-2.4-6.4-1.5-14.5 6-17 9.1-1.1 1.3-1.9 5.2-3.1 6l-1.5.2c-2.7-2.5-5.3-4.2-8.2-6.6-4-3-6-5.5-3.4-10.7C6.6 21.1 19 9.3 32.1 6.4c11.9-2.6 18 1.8 24.2 7.5z"/>
				<path d="M152.5 70.1c-10 1.1-16.7-.7-24.5 2.6.1 5.6 1.4 13.2 1.5 20 0 .3-.1.7 0 1-.1 4-.6 11.3-.5 15.6-6.8-.4-13.5 1.3-19.9 3.1-.6-5.4-1.4-10.9-2.1-16.3-1-7-2-13.7-2.4-19.1-9.1-.3-20.6 1.3-30.6 2.3-.7-6.5-2.6-16.6-1.5-21.8.8-3.9 6.9-12.2 8.8-15.7 2-3.7 2.7-7.7 4.7-11.6.8-1.2 2.7-2.6 3.3-4 .8-1.6.3-3.2 1-4.7.9-1.8 3-3.1 4-5.1 1.1-2.1 2.9-8.1 4.2-9.5l.6-1.1c2.8-1.6 7.2-.3 10.4-1.1.4 0 4.6-2.3 5-2.3 3.8-.9 8-.9 11.9-1.3 1 9.6 1.9 18.8 2.3 29.2.2 4.1.6 11.7 1.2 17.4 5.9 1.2 15 .2 20.9-.4.8 7.9 1.8 16 1.7 22.8zm-36.6-33.8c-.9-4.5-1.3-8.3-1.9-11.7-.5.1-2.6.6-3.1.3-4.5 3.6-6.1 8.7-8.2 14.6-5.1 14.3 7.8 8.9 14.9 5.7-1-.4.4-3.7.3-3.7-.6-.2-2-4.8-2-5.2z"/>
			</g>
			<path fill="#e7bf49" d="M188.4 25.4c1.1 3.9.9 15.6-.4 21.7-.1 1.3-.6 2.5-1.4 3.6-.2.2-.6.1-.9.3-.2.2-.4.9-.6.9-3.6 1.4-9.9-.5-11.7-1.8-1.1-.8-2-1.8-2.7-3-.7-1.1-1.2-2.3-1.6-3.5-.3-1.1-.4-2.2-.3-3.4.2-.2.6-1.1.9-1.2 1.2-.4 2.4-.7 3.7-.9.5.9 1.6 3.4 2.4 4 1.9 1.2 4.4.7 5.7-1.2.2-.4.4-.8.5-1.2.2-2.5.3-4.9.3-7.4.1-2.3 0-4.5-.3-6.8h-8.4c.3-2.4.4-4.9.3-7.4 3.4.2 8.2 1 12 .3l.9-.6c.6-.1.9.5 1.2.6 2.6.3 5-.3 7.4.3v6.1c-2.3-.1-4.7.1-7 .6zm30.7 22.1c-1.5 2.2-3.8 3.7-6.3 4.5-3.9.9-5.4-.3-7.7-1.5-1.7-.8-3.2-1.8-4.6-2.9-.4-.3-.7-.7-.9-1.1-2-2.9-4.2-10.2-3.4-15.7l.6-.9c.3-1.7.6-2.8.9-4 .3-.9 0-1.4.3-2.2.6-1 1.3-1.9 2.2-2.8 1.4-2 2.6-4.2 5.5-4.6 4.3-.6 9.9.8 11.7 2.8 3.8 4 5.2 20.4 2.5 27.1-.3.4-.6.9-.8 1.3zm-5.8-21.4c-1.1-1.2-2.7-1.8-4.3-1.5-2.9.3-5.5 4.5-5.8 7.4-.2 1.8.4 3.8.6 5.3.1.5-.2 1.3 0 1.8.4 1.2 2.3 2.1 3.7 2.8.7.6 1.6.9 2.5.9.5-.3 1.1-.6 1.6-.9.9-.3 1.8-.8 2.5-1.5 2-3 1.3-11.6-.8-14.3zm39-1.1c-.1.7-.1 1.3-.1 2-.1 4 .2 7.6-.5 11.5-.2.7-.4 1.5-.8 2.2-.2.4-.3.8-.4 1.3-.4 1.9-.4 3.1-1.2 4.6-.2.3-.5.7-.7 1-.8 1.1-1.7 2.1-2.7 3-2.2 1.5-10.4 2.5-13.3 1.3-1.8-1-3.3-2.5-4.4-4.3-.6-.9-1-1.8-1.4-2.8v-1.3c-.2-.8-.4-1.7-.7-2.8-.4-1.6-.9-3.3-1.2-4.6-.3-3-.3-6.1.1-9.1.3-3.4.8-6.9.8-10.3 2.2.2 4.3.3 6.5.3-.5 3.3-.7 6.7-.6 10 .2 3.3.9 6.6 2.1 9.7.3.8.1 1.7.6 2.2 1.2.8 2.6 1.2 4 1.2.2 0 .8-.3.6-.3 1.2-.5 2.4-.7 3.1-1.5 1.6-2 2.4-6.5 2.9-11.2.3-3.4.4-6.8.4-9.4 2.6-.3 4.2-.4 6.8-.6.1.7.6 2.2.6 2.8.2 1.5-.4 3.7-.5 5.1zm29 25c-1.7-.3-6.1.1-7.4-.6v-.6c-.2-.8-2-1.8-2.4-2.5-1.8-2.4-3.4-4.9-5.2-7.3-.1-.2-.2-.3-.3-.4-1 .4-1.5.2-1.9.4s-.4.5-.6 1.4c-.5 3-.3 6.9-.3 10.1-2.3.3-4.5.4-6.8.3 0-3.8.3-8.1.5-11.9 0-.6.1-1.1.1-1.7.1-2.1-.4-3.5-.3-5.9.2-2 .2-4.1.3-6.1.1-4.6 0-9.2 0-13.8.8-.1 2.2-.3 2.5-.3 3-.2 10.8.3 13.2 1.6 2.9 1.4 6.1 7.4 6.1 12.6 0 1.3-.2 2.5-.6 3.7-.5 1.5-3.4 4.3-4.6 5.2l-1.5.7c-.2.5.2 1 0 1.5.7.9 1.4 1.7 2.2 2.6.9 1 1.9 2.2 2.7 3.3s1.3 2.5 2.2 3.7c.6.8 2.3 1.9 2.4 3 .1.8-.4.5-.3 1zm-16.4-32.6c-.2.2-1 .4-1.2.6v6.4c0-.2-.4.3-.3.7 0 .1 0 .2.1.3 0 .5.2 1.4.3 2.2.4-.1.8-.1 1.2 0 1.3-.5 4-1.1 5.3-1.8l.3-.3c.4-.5.7-1 .9-1.5 1.9-4.5-2.8-6.1-6.6-6.6zm41.6 30.4c0 .1-.1.2-.2.4-1 1.3-2 2.5-3.2 3.7-1.7.9-4.8.4-6.8.3-1 .1-2.1.1-3.1 0-1.8-.3-5.4-2.3-7.9-3.9-.9-.6-1.7-1.2-2.5-1.9.2-.5-.2-1 0-1.5.8-1 1.6-1.9 2.5-2.8.5-.8 1-1.7 1.5-2.5.3.2.6-.1.9 0 .2.1.4.8.6.9 1.9 1.2 4 2.1 6.1 2.4 0 0 1.3.1.9 0 1.9-.9 3.8-1 2.8-4-.3-.8-1.1-1.3-1.5-1.8-.7-1.2-1.5-2.3-2.4-3.4h-.6c-.4-.2-.9-1.3-1.3-1.5-3-2.6-6.4-4.4-5.8-9.9.5-4.4 1.9-6.5 5.5-7.7l1-.6c.9-.1 1.8-.1 2.8 0 2.8.4 5.4 1.4 7.7 3 .4.3 1 .9 1.5 1.3-.1.3.2.9 0 1.2 0 .2-1.9 3-2.1 3.1v.3c-.3.1-.8-.2-.9 0-.9-.5-2.2-2-3.4-2.2-3.7-.4-4.9 3.3-3.1 5.9.8 1.2 2.6 1.8 3.7 2.8 4 3.4 10.1 8.8 7.7 16.6-.3.7 0 1.1-.4 1.8z"/>
			<path fill="#557185" d="M163.5 84.4c.3.2.6.2.9.4 2.1 1.9 3 5.8 2.3 9.8h.2c-.3 1.5-.3 3.3-.8 4.6-.7 1.2-1.7 2.3-2.9 3.1-2.7 1.5-5.9.6-9.6.4.3-4.2.7-8 .9-11.3 0-.9-.3-2.2-.2-3.3.2-1.8.7-4 .8-6.3 4 .8 5.5.6 8.4 2.6zm-4.8 3.9c-.5 1.4-.2 3-.5 4.6-.1.9-.4 2-.6 3.2.2 0 .4.4.5.4.7 0 1.5-.2 2.1-.5.7 0 1.4-.2 2-.5 2.1-1.2 1.8-5.4.2-6.7-.9-.7-2-1.1-3.2-1.2 0 .3-.5.6-.5.7zm22.6 16.1c-3.9-.2-8.8.1-12.2-.9l.2-2.9c.4-5.5.9-11 1.4-16.2 0-.4.1-2.3.1-2.3 3.8.7 7.9.3 11.7 1.1v.4c.2 1.3.2 2.6 0 3.8-.4 0-1 .1-1.2.1-.4 0-.8-.1-1.1-.3-1.7-.1-3.5-.2-5.2-.1l-.2.6c-.1 1.1-.1 2.2 0 3.2 1.4.3 3 .5 4.6.7.1 1 .1 2.1 0 3.1-1.5 0-3.6.2-5 .3-.1 1.3-.1 2.6 0 3.8 2.1.4 5.1.6 7.4 1v1.5c-.3 1.1-.4 2-.5 3.1zm56.6-26c-.4 2.5-.9 5-1.6 7.4 0 .1 0 .2-.1.3-.6 2-2 4.3-2.7 6.2-.6 1.5-.4 2.2-1 3.8-1.6 4.3-3.5 8.3-5.2 12.8-.5 1.3-.9 2.6-1.4 3.9-2.2.4-4.4.5-6.6.3-.8-1.6-1.4-3.2-2-4.8-1.1-3.2-2.1-6.5-3.4-9.5-.7.1-1.4-.3-2.1-.1-1 .2-2.8 5-4.3 9-.8 2.3-1.5 4.4-1.8 5.3-1.9.1-3.7.1-5.6 0-.5-1.8-1-3.8-1.4-5.9-.6-2.9-1.1-5.9-1.6-8.7-.8-5.2-1.7-10-2.5-14.9-.3-2.6-.8-5.2-1-7.9-.1-.8-.2-1.5-.2-2.3 3.1 0 6.3.2 9.4.6.1.8.3 1.5.4 2.4.4 2.5.7 5.2 1.1 7.9.4 3.3 1 6.6 1.8 9.9 1-.3 1.8.2 2.5-.2l2.7-4.4c.9-1.5 1.3-3.1 2.1-4.8 0 0 1.6.1 1 .4l.7.4c.9 1.5 1.1 3.4 1.8 5 .3.8 1.4 1.7 1.5 2.6 0 .2-.1.9-.1 1.1.2.4.8.3 1 .8.6-.4.6-.1 1.4-.2.5-1.4 1.6-5.3 3-9.3.9-2.8 1.9-5.6 2.8-7.6.7-1.7 1.3-2.8 1.7-2.9 3-.8 8.1.7 10.1 1.3-.1.6-.3 1.3-.4 2.1zm23.3 38.2c-7.1-.4-16 .1-22.3-1.7l.3-5.3c.7-10 1.7-20 2.5-29.5l.3-4.2c6.9 1.2 14.4.6 21.2 2v.7c.5 1.7.1 4.8 0 7-.8 0-1.9.3-2.2.2-.7-.1-1.4-.2-2-.5-3.1-.3-6.3-.3-9.4-.2l-.4 1c-.1 2-.1 3.9 0 5.9 2.6.5 5.4.9 8.3 1.2.1 1.9.1 3.7 0 5.6-2.8.1-6.6.3-9.2.5-.2 2.3-.2 4.7 0 7 3.9.7 9.4 1 13.5 1.9v2.8c-.1 1.9-.3 3.5-.6 5.6zm30-1.4c-.3.2-4.1 2.8-4.4 2.9-1.5.5-3.7.1-5.6 0-5-.1-10.1-.6-15-1.6-.2-1.5-.2-3.2-.2-4.9 0-2.2.2-4.4.5-6.6.1-.3.8-2.2.8-2.4.5-2.7-.1-5 .1-7.4.5-5.5 1.5-12.6 1.8-18.1 7.6.5 18.1.8 19.2 6.8 0 .8 0 1.6-.1 2.4.2 2.6.2 6.3-1.2 8.3-.4.7-2.2 1.2-2.6 2-.1.4.2.7-.1 1 1.9.6 5.1 1.6 6.5 2.8.3.3 0 .6.3 1.1s1.1.7 1.3 1.2c.9 2 .4 7.3-.5 10.4 0 .8-.4 1.5-.8 2.1zm-7.8-10.3c-.2-.1-.4-.9-.6-1.1-.9-.8-1.8-.7-3.1-1.2-.8-.4-2.4-1.4-3.8-1.3-3.4.3-2.4 6.8-2.4 9.7 1.6.3 3.3.4 4.9.3 2.5-.3 7.5-2.4 5.6-6.3l-.6-.1zm-4.6-21.7c-.6-.3-1.1-.6-1.7-.8-3.5-.1-3.3 5-3 8.2.3.1 1.2.2 1.4.5 1.9-.2 3.9-.7 5.7-1.4.6-.3.8-1.1 1.2-1.7 2-3.5-.5-3.9-3.6-4.8z"/>
		</g>
		<path fill="#dbe6eb" d="m 1941.5559,1053.0895 c 0,-11.4559 -0.3277,-20.8682 0,-30.2691 q 4.2626,-121.59874 8.6687,-243.19748 c 7.6441,-211.5659 -10.267,-423.26805 11.5787,-634.74313 2.746,-26.31801 4.4059,-52.692787 3.9758,-79.033505 a 286.90545,158.9526 0 0 0 -11.5173,-31.07523 h -70.6402 c 0,14.169488 -0.7379,26.408838 0.1433,38.523301 2.5207,33.925034 7.7877,67.838694 7.9925,101.763714 1.0245,155.09232 2.1313,310.26412 0.3279,465.39049 -1.6393,133.2477 -7.07,266.52945 -10.9229,399.73174 a 225.4257,124.89132 0 0 1 -2.7257,13.1248 219.27773,121.4852 0 0 1 -92.6089,5.4612 573.81088,317.90519 0 0 0 -60.8854,-2.6113 c -401.0323,0.2044 -802.06468,-5.1318 -1203.05604,3.0315 -117.67223,2.4069 -235.59036,1.0105 -353.36504,1.9869 -32.1744,0.2611 -64.26681,3.02 -96.420714,4.2236 -14.550206,0.545 -29.182382,0.091 -43.527659,0.091 C 24.474305,1006.5958 17.834486,950.08812 17.301663,893.56913 16.70736,826.54789 22.855333,759.4926 23.408652,692.44867 24.945644,508.01824 24.986634,323.5424 25.970303,139.13468 c 0.06145,-12.228 2.049326,-24.456 3.89372,-36.66128 C 32.507656,84.761542 35.848057,67.08374 38.266251,52.971019 24.166901,39.755355 11.379114,32.76144 -9.9133667,32.30729 A 32.174397,17.825399 0 0 0 -43.009959,42.900344 c -5.184792,54.520751 4.651967,109.279916 -8.484203,163.777946 a 727.51024,403.05837 0 0 0 7.008689,55.83777 c 1.618966,74.48066 0.573811,148.89318 9.303934,223.37381 5.922547,50.58099 -3.442865,101.61613 -5.738109,152.36743 -5.902056,128.59264 -2.008338,257.25341 -2.746096,385.9142 a 206.98178,114.67294 0 0 0 15.308455,46.4822 45.085141,24.978264 0 0 1 1.434528,5.7337 c -21.312977,2.7248 -18.669348,11.2061 -15.349442,18.9268 l 17.521725,10.2184 41.191425,0.1019 c 2.069818,-1.3739 3.893717,-3.8149 6.25044,-3.9739 41.8882,-2.8271 83.714913,-5.779 125.685073,-7.9136 249.93563,-12.6594 500.71149,-7.6524 750.62662,-4.2463 241.77922,3.2927 483.84562,-0.1135 725.35842,5.4158 101.9128,2.3275 203.8464,2.6114 305.6977,4.9616 a 66.807982,37.013248 0 0 0 53.5285,-5.5974 v -34.0612 z M 23.326678,25.438267 c 72.832991,-2.974683 145.461062,-8.799161 218.355552,-9.934536 117.6722,-1.827956 235.50837,-1.589526 353.22159,-0.828826 180.70943,1.158084 361.35739,3.905693 542.04628,5.143253 50.9873,0.340613 101.9948,-2.906563 153.0026,-3.224468 q 202.1864,-1.441926 404.3523,-1.192144 c 35.5148,0.04542 71.0295,2.861148 106.565,4.689101 37.1744,1.907433 74.2878,4.155477 111.6265,6.267275 l 47.5034,-13.98783 V -10.15576 l -48.3641,-19.55117 -61.5003,-0.03406 c -13.4434,11.319695 -34.2851,6.051551 -51.397,6.051551 -273.0519,0.624457 -546.104,0.261137 -819.15599,1.158084 -122.38566,0.408734 -244.81231,3.338004 -367.1365,4.689102 q -288.44244,3.372061 -576.966843,5.642812 A 211.08043,116.94369 0 0 0 -49.895692,-1.8675226 L -68.032214,25.619923 c 34.428654,0 62.9552533,0.965069 91.358892,-0.170306"/>
	</g>
	<g>
		<circle fill="#a63823" r="72" cx="192" cy="192"></circle>
		<text font-weight="700" font-size="80" font-family="Zilla Slab" fill="#fff">
			<tspan x="192" y="192" dominant-baseline="middle" text-anchor="middle">8</tspan>
		</text>
		<text font-weight="700" font-size="96" font-family="Zilla Slab" fill="#557185"><tspan y="580" x="120">Parlons de santé au travail</tspan><tspan y="700" x="120">dans nos coopératives !</tspan></text>
		<rect fill="#a63823" width="10%" height="10" x="120" y="820" />
		<text font-family="Atkinson Hyperlegible Next" font-style="italic" font-weight="300" font-size="60" fill="#557185" x="120" y="928" dominant-baseline="middle">
			par Julie Brillet</text>
	</g>
</svg>
