<svg xmlns="http://www.w3.org/2000/svg" xmlns:xlink="http://www.w3.org/1999/xlink" viewBox="0 0 539.74 419.46"><defs><linearGradient id="a" x1="147.64" x2="468.29" y1="-4.52" y2="135.47" gradientUnits="userSpaceOnUse"><stop offset="0" stop-color="#33c9ff"/><stop offset="1" stop-color="#003dab"/></linearGradient><linearGradient xlink:href="#a" id="b" x1="124.9" x2="445.56" y1="47.55" y2="187.55"/><linearGradient xlink:href="#a" id="c" x1="147.73" x2="468.38" y1="-4.73" y2="135.27"/><linearGradient xlink:href="#a" id="d" x1="123.47" x2="444.14" y1="50.81" y2="190.82"/><linearGradient xlink:href="#a" id="e" x1="113.93" x2="434.58" y1="72.68" y2="212.67"/><linearGradient xlink:href="#a" id="f" x1="131.8" x2="452.46" y1="31.74" y2="171.74"/><linearGradient xlink:href="#a" id="g" x1="154.86" x2="475.52" y1="-21.08" y2="118.92"/><linearGradient xlink:href="#a" id="h" x1="164.35" x2="485.01" y1="-42.8" y2="97.19"/><linearGradient xlink:href="#a" id="i" x1="166.18" x2="486.84" y1="-46.99" y2="93.01"/><linearGradient xlink:href="#a" id="j" x1="163.86" x2="484.52" y1="-41.68" y2="98.32"/><linearGradient xlink:href="#a" id="k" x1="179.28" x2="499.96" y1="-77.03" y2="62.97"/><linearGradient xlink:href="#a" id="l" x1="163.08" x2="483.71" y1="-39.83" y2="100.16"/><linearGradient xlink:href="#a" id="m" x1="192.47" x2="513.14" y1="-107.24" y2="32.76"/><linearGradient xlink:href="#a" id="n" x1="181.87" x2="502.55" y1="-82.96" y2="57.05"/><linearGradient xlink:href="#a" id="o" x1="160.18" x2="480.85" y1="-33.27" y2="106.73"/><linearGradient xlink:href="#a" id="p" x1="141.73" x2="462.39" y1="8.99" y2="148.99"/><linearGradient xlink:href="#a" id="q" x1="139.91" x2="460.55" y1="13.18" y2="153.17"/><linearGradient xlink:href="#a" id="r" x1="122.62" x2="443.3" y1="52.75" y2="192.76"/><linearGradient xlink:href="#a" id="s" x1="134.09" x2="454.75" y1="26.5" y2="166.5"/><linearGradient xlink:href="#a" id="t" x1="152.55" x2="473.24" y1="-15.84" y2="124.17"/><linearGradient xlink:href="#a" id="u" x1="107.85" x2="428.52" y1="86.59" y2="226.59"/></defs><path fill="url(#a)" d="M378.68 87.54c-4.87 0-8.81 3.95-8.81 8.81s3.94 8.81 8.81 8.81 8.81-3.95 8.81-8.81-3.94-8.81-8.81-8.81Z"/><path fill="url(#b)" d="M289.43 126.06c3.69 0 6.67-2.99 6.67-6.68s-2.99-6.68-6.67-6.68-6.68 2.99-6.68 6.68 2.99 6.68 6.68 6.68Z"/><path fill="url(#c)" d="M306.71 71.36c3.69 0 6.67-2.99 6.67-6.68S310.39 58 306.71 58s-6.68 2.99-6.68 6.68 2.99 6.68 6.68 6.68Z"/><path fill="url(#d)" d="M207.9 90.59c0 3.69 2.99 6.68 6.68 6.68s6.67-2.99 6.67-6.68-2.99-6.68-6.67-6.68-6.68 2.99-6.68 6.68Z"/><path fill="url(#e)" d="M148.36 94.39c3.69 0 6.67-2.99 6.67-6.68s-2.99-6.68-6.67-6.68-6.68 2.99-6.68 6.68 2.99 6.68 6.68 6.68Z"/><path fill="url(#f)" d="M174.27 56.96c3.69 0 6.67-2.99 6.67-6.68s-2.99-6.68-6.67-6.68-6.68 2.99-6.68 6.68 2.99 6.68 6.68 6.68Z"/><path fill="url(#g)" d="M272.16 36.81c3.69 0 6.67-2.99 6.67-6.68s-2.99-6.68-6.67-6.68-6.68 2.99-6.68 6.68 2.99 6.68 6.68 6.68Z"/><path fill="url(#h)" d="M318.22 31.05c3.69 0 6.67-2.99 6.67-6.68s-2.99-6.68-6.67-6.68-6.68 2.99-6.68 6.68 2.99 6.68 6.68 6.68Z"/><path fill="url(#i)" d="M375.8 51.21c3.69 0 6.67-2.99 6.67-6.68s-2.99-6.68-6.67-6.68-6.68 2.99-6.68 6.68 2.99 6.68 6.68 6.68Z"/><path fill="url(#j)" d="M407.47 71.36c3.69 0 6.67-2.99 6.67-6.68S411.15 58 407.47 58s-6.68 2.99-6.68 6.68 2.99 6.68 6.68 6.68Z"/><path fill="url(#k)" d="M424.74 34.36a4.22 4.22 0 0 0 0-8.44c-2.33 0-4.23 1.89-4.23 4.22s1.89 4.22 4.23 4.22Z"/><path fill="url(#l)" d="M442.02 77.73c-2.33 0-4.23 1.89-4.23 4.22s1.89 4.22 4.23 4.22 4.22-1.89 4.22-4.22-1.89-4.22-4.22-4.22Z"/><path fill="url(#m)" d="M447.77 0c-2.33 0-4.23 1.89-4.23 4.22s1.89 4.22 4.23 4.22 4.22-1.89 4.22-4.22S450.1 0 447.77 0Z"/><path fill="url(#n)" d="M381.56 8.45a4.22 4.22 0 1 0-.002-8.442 4.22 4.22 0 0 0 .002 8.442Z"/><path fill="url(#o)" d="M338.37 48.75a4.22 4.22 0 0 0 0-8.44c-2.33 0-4.23 1.89-4.23 4.22s1.89 4.22 4.23 4.22Z"/><path fill="url(#p)" d="M269.28 68.9a4.22 4.22 0 0 0 0-8.44c-2.33 0-4.23 1.89-4.23 4.22s1.89 4.22 4.23 4.22Z"/><path fill="url(#q)" d="M211.7 48.75a4.22 4.22 0 0 0 0-8.44c-2.33 0-4.23 1.89-4.23 4.22s1.89 4.22 4.23 4.22Z"/><path fill="url(#r)" d="M178.69 79.08c0 2.33 1.89 4.22 4.23 4.22s4.22-1.89 4.22-4.22-1.89-4.22-4.22-4.22-4.23 1.89-4.23 4.22Z"/><path fill="url(#s)" d="M234.73 79.25c4.86 0 8.81-3.95 8.81-8.81s-3.94-8.81-8.81-8.81-8.81 3.95-8.81 8.81 3.94 8.81 8.81 8.81Z"/><path fill="url(#t)" d="M408.9 99.23c0 3.98 3.23 7.21 7.21 7.21s7.2-3.22 7.2-7.21-3.22-7.21-7.2-7.21-7.21 3.23-7.21 7.21Z"/><path fill="url(#u)" d="M428.24 135.41c-.96 0-1.88.13-2.77.36l-5.85-14.32s-.02-.02-.02-.04c-.05-.12-.12-.24-.2-.34l-.03-.03c-.08-.09-.16-.17-.26-.24-.03-.02-.05-.04-.08-.06-.02-.02-.04-.07-.07-.08-.09-.05-.19-.15-.28-.15-.13 0-.26-.02-.39-.03-.02 0-.03.03-.05.03H355.8c-.56-6.33-5.87-11.3-12.34-11.3-.24 0-.48.02-.72.04l-3.72-23.47c3.1-.79 5.39-3.59 5.39-6.94a7.17 7.17 0 1 0-14.34 0c0 3.53 2.56 6.46 5.92 7.05l3.78 23.87c-2.59.8-4.81 2.45-6.37 4.6l-34.28-20.57c.18-.62.28-1.27.28-1.95a7.17 7.17 0 1 0-7.17 7.17c2.2 0 4.17-1 5.49-2.56l34.23 20.54c-.58 1.43-.9 2.99-.9 4.62 0 1 .13 1.96.35 2.89l-55.45 19.1a8.809 8.809 0 0 0-7.72-4.57c-.35 0-.7.03-1.04.07l-6.53-21.96a7.177 7.177 0 0 0 3.73-6.29 7.17 7.17 0 1 0-7.17 7.17c.19 0 .37-.01.56-.03l6.53 21.97a8.804 8.804 0 0 0-4.85 6.96l-25.18 1.66a6.673 6.673 0 0 0-6.39-4.75c-1.13 0-2.19.28-3.12.77l-20.11-23.27a8.77 8.77 0 0 0 1.68-5.16c0-4.86-3.94-8.81-8.81-8.81s-8.81 3.95-8.81 8.81c0 .61.06 1.21.18 1.79l-36.1 13.13-.08.04c-.04.02-.07.03-.11.05-.07.04-.14.08-.21.13-.03.02-.05.04-.08.06-.09.08-.16.16-.23.25 0 0 0 .02-.01.02-.06.09-.11.18-.15.28 0 .01-.01.02-.02.03l-16.1 41.79-26.06-10.61 6.78-36.34 18.63-6.39c1.5 2.73 4.39 4.58 7.72 4.58 4.86 0 8.81-3.95 8.81-8.81s-3.94-8.81-8.81-8.81-8.81 3.95-8.81 8.81c0 .48.05.94.12 1.4l-18.16 6.23-10.31-23.4 5.35-8.28a6.67 6.67 0 0 0 9.15-6.2c0-3.69-2.99-6.68-6.67-6.68s-6.68 2.99-6.68 6.68c0 1.73.66 3.29 1.73 4.48l-20.66 31.96c-.28.43-.32.98-.1 1.44l39.99 86.82s0 .02.01.03c.04.08.09.16.14.24l.04.04c.05.06.1.12.16.18.02.02.04.03.06.05.06.04.11.09.17.13.03.02.06.03.09.05.06.03.12.06.18.08 0 0 .02 0 .03.01l84 28.5s.04 0 .07.01c.03 0 .05.02.08.03.04 0 .08 0 .12.01.03 0 .06.02.1.02l62.49 4.99 40.69 13.45 29.05 41.59c.28.41.75.64 1.23.64a1.498 1.498 0 0 0 1.47-1.21l8.17-42.14 45.44-15.15c2.27 2.94 5.81 4.83 9.81 4.83 6.85 0 12.4-5.55 12.4-12.4 0-5.53-3.62-10.21-8.62-11.81l12.42-65.22c.19.01.39.03.58.03 6.13 0 11.11-4.97 11.11-11.11s-4.97-11.11-11.11-11.11Zm-11.1 11.11c0 1.29.23 2.51.63 3.66l-18.52 9.45 18.79-34.14 4.66 11.41c-3.32 1.92-5.56 5.5-5.56 9.61Zm-49.52 86.58-8.24-22.08c3.43-1.53 6.43-3.83 8.79-6.69l32.81 23.71c-.83 1.32-1.42 2.81-1.7 4.4l-31.65.66Zm-149.98 4.26 27.6-18.59 39.27 8.71-9.37 14.47-57.5-4.59Zm-82.88-27.06 51.38-11.66-11.34 25.25-40.04-13.59Zm-23.73-43.4 25.08 10.21.04.02h.03l46.95 19.12-53.02 12.03-19.07-41.39Zm87-41.93c1.67-.09 3.21-.63 4.5-1.52l19.99 23.13a6.616 6.616 0 0 0-1.29 3.94 6.68 6.68 0 0 0 6.68 6.68c1.23 0 2.37-.34 3.36-.91l27.24 28.95a15.936 15.936 0 0 0-2.62 4.12l-65.44-20.92 7.58-43.46Zm157.67-1.45h60l-20.59 37.39-41.3-32.48c.96-1.45 1.61-3.12 1.88-4.91Zm-3.83 7.19 41.02 32.26-23.11 12.99c-4.29-6.61-11.73-10.99-20.2-10.99-.26 0-.51.01-.77.02l-2.95-31.21c2.3-.45 4.36-1.54 6.01-3.07Zm-13.46 102.76-47.22-7.77 38.54-23.05c3.14 4.57 7.82 8 13.29 9.54l-4.61 21.28Zm-51.77-8.55-38.47-8.55 11.25-9.62c2.81 2.71 6.62 4.38 10.83 4.38 8.55 0 15.48-6.87 15.6-15.39l39.91-3.26c.39 2.7 1.23 5.26 2.43 7.59l-41.55 24.85Zm38.89-35.43-39.92 3.26c-1.26-7.03-7.21-12.42-14.51-12.81l-.99-23.48a8.816 8.816 0 0 0 5.2-3.36l52.17 26.41a23.976 23.976 0 0 0-1.96 9.52c0 .15 0 .31.01.46Zm-58.42-32.91.99 23.49c-2.76.38-5.29 1.48-7.4 3.11l-27.23-28.95c.52-.78.88-1.68 1.03-2.64l25.19-1.67a8.805 8.805 0 0 0 7.42 6.66Zm-11.93 35.63c-.23 1.07-.45 2.17-.45 3.3 0 3.34 1.01 6.42 2.79 8.96l-12.69 11-54.18-19.68v-24.28l64.55 20.7Zm-13.55 25.37-27.9 18.8-21.37-36.63 49.27 17.83Zm-52.71-17.79 21.01 36.02-32.27-10.95 11.26-25.07Zm98.25 29.08 24.73 24.97-33.68-11.14 8.95-13.83Zm30.68 26.8-26.68-26.97 47.49 7.78 13.35 18.29-34.16.91Zm28.11-42.84c1.18.18 2.39.27 3.62.27 2.43 0 4.78-.36 6.99-1.04l7.87 21.1-23 .48 4.51-20.82Zm56.91 12.87-32.95-23.81c2.35-3.72 3.72-8.12 3.72-12.85 0-3.75-.86-7.3-2.39-10.46l23.28-13.08 12.11 57.7c-1.41.6-2.69 1.46-3.78 2.5Zm-70.41-98.38c1.98 3.81 5.87 6.45 10.41 6.67l2.96 31.28c-7.25 1.14-13.42 5.5-17 11.58l-52.16-26.41c.25-.82.39-1.69.39-2.58 0-.48-.05-.95-.12-1.41l55.53-19.13Zm-137.41-2.69-7.25 41.57-31.78-33.06 34.02-12.38a8.783 8.783 0 0 0 5.01 3.86Zm-40.96 10.62 33.54 34.69v24.75l-48.72-19.8 15.18-39.64Zm-50.29-31.83 9.88 22.43-6.21 33.31-16.52-35.86 12.85-19.88Zm241.98 192-25.82-36.97 33.14-.81-7.32 37.78Zm9.7-41.01-13.11-17.95 23.66-.46c.18.07.36.12.55.12.17 0 .35-.03.52-.09.04-.01.07-.03.1-.05l31.89-.63c.09 1.48.42 2.9.99 4.2l-44.61 14.87Zm56.81-32.15c-.27-.02-.55-.04-.83-.04-.66 0-1.29.07-1.92.16l-12.26-58.39 21.85-11.15c1.35 1.94 3.3 3.42 5.58 4.19l-12.42 65.22Z"/><path d="m63.21 388.43.11.37c.15 9.58-2.51 17.09-7.96 22.52-5.46 5.43-12.99 8.14-22.6 8.14s-17.7-3.46-23.72-10.4C3.02 402.13.01 393.17.01 382.19v-17.83c0-10.94 2.93-19.9 8.81-26.87 5.87-6.97 13.57-10.46 23.11-10.46s17.72 2.67 23.33 8.02c5.61 5.35 8.34 12.87 8.19 22.58l-.11.37H47.41c0-5.76-1.26-10.05-3.79-12.86-2.52-2.82-6.42-4.23-11.69-4.23-4.9 0-8.72 2.17-11.47 6.51s-4.12 9.94-4.12 16.81v17.95c0 6.91 1.45 12.55 4.35 16.9 2.9 4.36 6.93 6.54 12.09 6.54s8.55-1.41 10.96-4.23 3.62-7.15 3.62-12.99h15.87ZM70.13 384.17c0-9.95 2.52-18.11 7.57-24.46 5.05-6.35 12.04-9.53 20.98-9.53s16 3.17 21.09 9.5c5.08 6.33 7.63 14.5 7.63 24.49v1.3c0 10.04-2.53 18.21-7.6 24.52-5.07 6.31-12.07 9.47-21 9.47s-15.99-3.16-21.06-9.47c-5.07-6.31-7.6-14.49-7.6-24.52v-1.3Zm16.32 1.29c0 6.09.97 10.97 2.92 14.65 1.94 3.68 5.08 5.52 9.42 5.52s7.32-1.85 9.28-5.55c1.96-3.7 2.94-8.58 2.94-14.62v-1.3c0-5.92-.99-10.75-2.97-14.5-1.98-3.74-5.1-5.61-9.37-5.61s-7.32 1.88-9.28 5.64c-1.96 3.76-2.94 8.59-2.94 14.47v1.3ZM133.82 385.34c0-10.53 2.07-19.02 6.2-25.48 4.13-6.46 9.95-9.69 17.47-9.69 3.03 0 5.76.72 8.19 2.16 2.43 1.44 4.56 3.5 6.39 6.17v-36.58h16.43v96.24h-13.96l-1.4-8.2c-1.91 3.08-4.17 5.44-6.79 7.06-2.62 1.62-5.61 2.44-8.97 2.44-7.44 0-13.23-3-17.36-9.01-4.13-6-6.2-13.94-6.2-23.81v-1.3Zm16.32 1.3c0 5.84.9 10.44 2.69 13.79 1.79 3.35 4.71 5.03 8.75 5.03 2.36 0 4.41-.52 6.17-1.57 1.76-1.05 3.2-2.58 4.32-4.6v-28.44c-1.12-2.1-2.55-3.73-4.29-4.91-1.74-1.17-3.77-1.76-6.08-1.76-4 0-6.93 1.95-8.78 5.86-1.85 3.91-2.78 9.01-2.78 15.3v1.3ZM226.33 419.46c-9.05 0-16.12-3.05-21.2-9.16-5.08-6.11-7.63-13.97-7.63-23.6v-2.47c0-9.99 2.47-18.18 7.4-24.55 4.94-6.37 11.72-9.54 20.36-9.5 8.15 0 14.4 2.75 18.76 8.24 4.36 5.49 6.53 12.88 6.53 22.18v9.32h-36.17l-.17.37c.26 4.57 1.52 8.27 3.79 11.1 2.26 2.84 5.62 4.26 10.07 4.26 3.66 0 6.78-.41 9.34-1.23 2.56-.82 5.21-2.08 7.94-3.76l4.43 11.1c-2.43 2.18-5.72 4.01-9.87 5.49-4.15 1.48-8.67 2.22-13.57 2.22Zm-1.07-55.4c-3.29 0-5.82 1.24-7.6 3.73-1.78 2.49-2.85 5.79-3.23 9.9l.11.31h19.97v-1.36c0-3.91-.73-6.98-2.19-9.22s-3.81-3.36-7.07-3.36ZM276.1 393.66l2.4 13.77h.32l2.72-13.77 16.2-60.83h6.45l16.25 60.83 2.61 13.83h.32l2.56-13.83 13.69-60.83h6.93l-19.87 85.33h-6.07l-17.53-65.46-1.92-9.2h-.32l-1.81 9.2-17.74 65.46h-6.07l-19.87-85.33h6.93l13.85 60.83ZM350.27 385.52c0-9.34 2.33-17 6.98-22.97 4.65-5.98 10.82-8.97 18.49-8.97s13.89 2.99 18.54 8.97c4.65 5.98 6.98 13.64 6.98 22.97v1.93c0 9.38-2.32 17.04-6.95 23-4.63 5.96-10.79 8.94-18.46 8.94s-13.94-2.98-18.59-8.94c-4.65-5.96-6.98-13.63-6.98-23v-1.93Zm6.4 1.93c0 7.35 1.69 13.52 5.06 18.52 3.37 5 8.08 7.5 14.12 7.5s10.59-2.5 13.99-7.5c3.39-5 5.09-11.17 5.09-18.52v-1.93c0-7.23-1.7-13.36-5.12-18.4-3.41-5.04-8.1-7.56-14.07-7.56s-10.64 2.52-14.01 7.56c-3.37 5.04-5.06 11.17-5.06 18.4v1.93ZM438.72 360.78l-4.53-.35c-4.01 0-7.31 1.24-9.88 3.72-2.58 2.48-4.41 5.89-5.51 10.23v43.78h-6.39v-63.41H418l.8 10.55v.7c1.67-3.91 3.91-6.96 6.71-9.14 2.8-2.19 6.14-3.28 10.02-3.28.78 0 1.53.07 2.24.2.71.14 1.3.28 1.76.44l-.8 6.56ZM460.62 387.27h-6.71v30.89h-6.39v-91.43h6.39v54.5h6.07l22.11-26.49h7.46l.11.29L466 383.81l25.57 34.05-.16.29h-7.3l-23.5-30.89ZM533.4 401.93c0-2.97-1.11-5.56-3.33-7.77-2.22-2.21-6.23-4.01-12.01-5.42-6.82-1.56-11.89-3.7-15.21-6.42-3.32-2.71-4.98-6.51-4.98-11.4s1.86-8.95 5.57-12.31c3.71-3.36 8.62-5.04 14.73-5.04 6.43 0 11.56 1.79 15.4 5.36 3.84 3.58 5.66 7.98 5.49 13.22l-.11.35h-5.91c0-3.48-1.36-6.5-4.08-9.08-2.72-2.58-6.31-3.87-10.79-3.87s-8.1 1.11-10.44 3.34c-2.34 2.23-3.52 4.83-3.52 7.8s1 5.28 3.01 7.18c2.01 1.9 6.01 3.57 12.01 5.01 6.75 1.64 11.86 3.93 15.32 6.86 3.46 2.93 5.19 6.88 5.19 11.84 0 5.27-1.94 9.56-5.83 12.86-3.89 3.3-9.03 4.95-15.42 4.95-7 0-12.49-1.84-16.49-5.51-4-3.67-5.89-8.05-5.67-13.13l.11-.35h5.86c.25 4.57 1.94 7.89 5.09 9.96 3.14 2.07 6.85 3.11 11.11 3.11 4.62 0 8.26-1.13 10.92-3.4s4-4.98 4-8.15Z"/></svg>