<svg xmlns="http://www.w3.org/2000/svg" id="Calque_1" viewBox="0 0 1080 1080"><defs><style>.cls-1{fill:#ff6e14}.cls-2{fill:#3c3c3c}</style></defs><path d="M902.44 565.82v-94.74c0-10.75 7.02-17.11 15.35-17.11s15.35 6.36 15.35 17.11v4.17h.44c8.33-12.94 21.05-21.27 37.28-21.27 22.81 0 35.09 16.23 35.09 40.79v71.05h-32.9v-61.84c0-14.47-6.8-19.3-15.35-19.3-12.72 0-22.37 10.75-22.37 33.55v47.59h-32.9Zm-34.43-111.84c-8.99 0-16.45 7.02-16.45 18.2v93.64h32.9v-93.64c0-11.18-7.46-18.2-16.45-18.2m0-17.32c11.18 0 19.96-9.21 19.96-19.96s-8.77-19.96-19.96-19.96-20.18 9.21-20.18 19.96c0 11.4 9.21 19.96 20.18 19.96m-87.28 103.29c-14.69 0-23.68-11.62-23.68-28.95s8.99-28.95 23.68-28.95 23.68 11.62 23.68 28.95-8.99 28.95-23.68 28.95m0 28.07c34.65 0 57.02-23.68 57.02-57.02s-22.37-57.02-57.02-57.02-57.02 23.68-57.02 57.02 22.37 57.02 57.02 57.02M652 511c0 17.98 8.77 28.51 23.03 28.51 9.43 0 16.45-4.61 19.96-10.97h.44l23.9 15.35c-8.33 16.23-25.66 24.12-45.4 24.12-34.21 0-55.26-23.68-55.26-57.02s21.05-57.02 55.26-57.02c19.74 0 37.06 7.89 45.4 24.12l-23.9 15.35h-.44c-3.51-6.36-10.53-10.97-19.96-10.97-14.25 0-23.03 10.53-23.03 28.51m-149.12 54.83v-94.74c0-10.75 7.02-17.11 15.35-17.11s15.35 6.36 15.35 17.11v4.17h.44c8.33-12.94 21.05-21.27 37.28-21.27 22.81 0 35.09 16.23 35.09 40.79v71.05h-32.9v-61.84c0-14.47-6.8-19.3-15.35-19.3-12.72 0-22.37 10.75-22.37 33.55v47.59h-32.9Zm-70.18-25.88c-14.69 0-23.68-11.62-23.68-28.95s8.99-28.95 23.68-28.95 23.68 11.62 23.68 28.95-8.99 28.95-23.68 28.95m0 28.07c34.65 0 57.02-23.68 57.02-57.02s-22.37-57.02-57.02-57.02-57.02 23.68-57.02 57.02S398.05 568 432.7 568m-124.12-28.07c-14.69 0-23.68-11.62-23.68-28.95s8.99-28.95 23.68-28.95 23.68 11.62 23.68 28.95-8.99 28.95-23.68 28.95m10.97-85.97c-13.38 0-25 5.48-34.21 17.32h-.44v-52.41c0-11.18-7.46-18.2-16.45-18.2S252 407.69 252 418.87V565.8h30.7v-16.67h.44c7.46 11.84 20.18 18.86 35.31 18.86 28.29 0 47.59-24.34 47.59-57.46s-18.42-56.58-46.49-56.58M222.99 523.1c-4.3 8.23-15.03 18.08-28.16 18.08-7.42 0-11.76-3.2-14.82-5.87l58.19-41.73c-6.75-22.04-22.97-39.6-53.17-39.6-34.82 0-51.38 28.93-51.38 52.18 0 9.86 1.91 18.87 5.28 26.79-7.47 4.08-13.21 7.12-18.48 7.12-9.77 0-14.38-5.72-14.38-16.39V418.59c-.01-11.15-7.44-18.14-16.4-18.14-8.96 0-16.39 6.99-16.39 18.14v107.89c.01 24.79 17.4 41.29 42.07 41.29 12.19 0 24.49-4.14 38.79-13.63 10.05 8.83 22.96 13.87 36.81 13.87 28.39 0 45.4-12.48 53.68-29.31l-21.64-15.61Zm-37.96-42.86c10.88 0 14.85 6.56 16.82 9.53l-36.47 27.15c-1.31-3.38-2.41-8.78-2.41-12.43 0-16.63 11.69-24.25 22.06-24.25Z" class="cls-1"/><path d="M731.27 635.67h-5.77a8.98 8.98 0 0 1-8.98-8.98c0-4.77 3.73-8.71 8.49-8.96l6.26-.34h1.12l1.56-12.79a9.349 9.349 0 0 1 18.63 1.13v11.65h14.59c5.05 0 9.14 4.09 9.14 9.14 0 5.05-4.09 9.14-9.14 9.14h-14.59v25.96c0 3.64.83 6.5 2.49 8.58 1.66 2.07 3.98 3.12 6.97 3.12 1.6 0 3.23-.34 4.89-1.04 1.65-.69 3.39-1.79 5.21-3.27l10.1 15.07c-3.1 2.66-6.65 4.75-10.66 6.25-4.01 1.49-8.09 2.24-12.26 2.24-8.87 0-15.77-2.67-20.68-8.02-4.92-5.34-7.38-12.82-7.38-22.44v-26.44Z" class="cls-2"/><path d="m837.07 667.41 10.42 13.46a38.55 38.55 0 0 1-13.38 8.74c-5.07 1.97-10.55 2.96-16.43 2.96-11.22 0-20.55-3.64-27.97-10.91-7.43-7.27-11.14-16.4-11.14-27.41s3.57-20.04 10.74-27.41c7.16-7.37 16.09-11.06 26.77-11.06s19.61 3.69 26.78 11.06c7.16 7.37 10.74 16.5 10.74 27.41 0 1.5-.05 2.88-.16 4.17-.11 1.28-.22 2.24-.33 2.88h-54.66c1.28 4.38 3.63 7.85 7.05 10.41 3.42 2.57 7.48 3.85 12.18 3.85 3.74 0 7.14-.64 10.18-1.92 3.05-1.28 6.11-3.37 9.22-6.25Zm-21-34.64c-4.06 0-7.64 1.21-10.74 3.61-3.1 2.4-5.29 5.69-6.57 9.86h34.63c-1.28-4.17-3.45-7.46-6.5-9.86-3.05-2.4-6.65-3.61-10.82-3.61ZM897.17 634.71c-5.24 0-9.6 1.84-13.07 5.53-3.47 3.68-5.21 8.36-5.21 14.02s1.74 10.18 5.21 13.87c3.47 3.69 7.83 5.53 13.07 5.53 2.88 0 5.64-.61 8.26-1.84s5.15-3.08 7.61-5.53l13.63 13.78c-4.06 4.28-8.53 7.44-13.38 9.46-4.87 2.04-10.23 3.05-16.11 3.05-11.22 0-20.55-3.64-27.97-10.91-7.43-7.27-11.14-16.4-11.14-27.41s3.69-20.3 11.06-27.57c6.92-6.81 15.57-10.44 25.96-10.86 4.81-.2 12.48 1.07 16.92 2.92 4.75 1.98 9.11 4.79 13.06 8.41l-13.63 13.79c-2.24-2.14-4.54-3.7-6.89-4.72a18.343 18.343 0 0 0-7.38-1.53ZM955.51 690.97h-21.32V588.62c0-5.89 4.77-10.66 10.66-10.66 5.89 0 10.66 4.77 10.66 10.66v39.2c2.88-3.74 6.3-6.68 10.25-8.82 3.95-2.14 8.07-3.21 12.35-3.21 8.76 0 15.65 2.86 20.68 8.57 5.02 5.73 7.53 13.61 7.53 23.65v42.96H985v-39.92c0-5.02-1.18-8.92-3.53-11.7-2.35-2.78-5.67-4.16-9.94-4.16-3.1 0-6.01.87-8.73 2.65-2.73 1.76-5.16 4.29-7.29 7.61v45.53Z" class="cls-2"/></svg>