<svg xmlns="http://www.w3.org/2000/svg" fill="none" viewBox="0 0 240 54"><g clip-path="url(#a)"><path fill="#1C3350" d="M16.05 54c-2.433 0-4.6-.367-6.5-1.1-1.9-.733-3.516-1.75-4.85-3.05-1.3-1.3-2.3-2.8-3-4.5-.666-1.7-1-3.517-1-5.45v-1.2c0-2 .35-3.867 1.05-5.6a13.796 13.796 0 0 1 3.1-4.55c1.334-1.3 2.95-2.317 4.85-3.05 1.9-.733 4.017-1.1 6.35-1.1 2.367 0 4.483.367 6.35 1.1 1.9.733 3.517 1.75 4.85 3.05a13.179 13.179 0 0 1 3.05 4.55c.733 1.733 1.1 3.6 1.1 5.6v1.2c0 1.933-.35 3.75-1.05 5.45-.667 1.7-1.667 3.2-3 4.5-1.3 1.3-2.9 2.317-4.8 3.05-1.9.733-4.067 1.1-6.5 1.1Zm0-7.6c1.4 0 2.55-.3 3.45-.9.933-.6 1.634-1.433 2.1-2.5.467-1.1.7-2.333.7-3.7 0-1.433-.25-2.683-.75-3.75-.466-1.1-1.166-1.967-2.1-2.6-.933-.633-2.066-.95-3.4-.95-1.333 0-2.466.317-3.4.95-.933.633-1.65 1.5-2.15 2.6-.466 1.067-.7 2.317-.7 3.75 0 1.367.233 2.6.7 3.7.467 1.067 1.167 1.9 2.1 2.5.934.6 2.084.9 3.45.9Zm63.07 7.5c-4 0-7.15-.817-9.45-2.45-2.3-1.667-3.534-4-3.7-7h8c.133.833.65 1.55 1.55 2.15.9.6 2.166.9 3.8.9 1.166 0 2.166-.167 3-.5.866-.367 1.3-.95 1.3-1.75 0-.7-.334-1.267-1-1.7-.667-.467-1.884-.783-3.65-.95l-1.9-.2c-3.534-.367-6.134-1.333-7.8-2.9-1.667-1.567-2.5-3.533-2.5-5.9 0-2.033.5-3.7 1.5-5 1-1.333 2.383-2.333 4.15-3 1.766-.667 3.783-1 6.05-1 3.7 0 6.683.817 8.95 2.45 2.266 1.6 3.466 3.917 3.6 6.95h-8c-.134-.833-.584-1.533-1.35-2.1-.767-.6-1.867-.9-3.3-.9-1.034 0-1.884.183-2.55.55-.634.367-.95.883-.95 1.55 0 .7.3 1.217.9 1.55.633.333 1.633.583 3 .75l1.9.2c3.533.367 6.25 1.35 8.15 2.95 1.933 1.567 2.9 3.633 2.9 6.2 0 1.9-.517 3.533-1.55 4.9-1 1.367-2.45 2.417-4.35 3.15-1.867.733-4.1 1.1-6.7 1.1Zm27.632-.9 4.9-26.7h9.5l5.6 26.7h-6.9l-5.8-26.5h4.2l-5.3 26.5h-6.2Zm-1.7 0-.05-7.6h5.5l.05 7.6h-5.5Zm-4.45 0-7.25-27.6h8.9l6.7 27.6h-8.35Zm21.7 0 .05-7.6h5.5l-.05 7.6h-5.5Zm2.2 0 6.05-27.6h8.3l-6.6 27.6h-7.75Zm20.065 0V25.4h9.1V53h-9.1Zm-3.5-21v-6.6h12.6V32h-12.6Zm7.25-8.8c-1.667 0-2.9-.417-3.7-1.25-.767-.867-1.15-1.967-1.15-3.3 0-1.333.383-2.417 1.15-3.25.8-.867 2.016-1.3 3.65-1.3 1.666 0 2.883.433 3.65 1.3.766.833 1.15 1.917 1.15 3.25s-.384 2.433-1.15 3.3c-.767.833-1.967 1.25-3.6 1.25Zm25.19 30.2c-3 0-5.4-.367-7.2-1.1-1.767-.733-3.05-1.95-3.85-3.65-.8-1.7-1.2-4-1.2-6.9l.05-23.55h8.4l-.05 23.8c0 1.233.316 2.183.95 2.85.666.633 1.616.95 2.85.95h3.8v7.6h-3.75ZM157.257 32v-6.6h20V32h-20Zm37.379 22c-2.4 0-4.483-.383-6.25-1.15-1.766-.8-3.25-1.867-4.45-3.2a13.845 13.845 0 0 1-2.65-4.55c-.566-1.7-.85-3.467-.85-5.3v-1c0-1.933.3-3.767.9-5.5a13.983 13.983 0 0 1 2.75-4.6c1.2-1.333 2.684-2.383 4.45-3.15 1.767-.767 3.8-1.15 6.1-1.15 2.534 0 4.767.5 6.7 1.5 1.934 1 3.467 2.383 4.6 4.15 1.167 1.733 1.817 3.733 1.95 6h-8.9c-.1-1.1-.516-2.033-1.25-2.8-.7-.767-1.733-1.15-3.1-1.15-1.166 0-2.133.3-2.9.9-.733.6-1.283 1.433-1.65 2.5-.366 1.067-.55 2.333-.55 3.8 0 1.367.15 2.583.45 3.65.334 1.067.867 1.9 1.6 2.5.767.567 1.784.85 3.05.85.934 0 1.717-.167 2.35-.5a3.785 3.785 0 0 0 1.5-1.4c.367-.633.6-1.367.7-2.2h8.9c-.133 2.333-.8 4.383-2 6.15-1.166 1.767-2.733 3.15-4.7 4.15-1.966 1-4.216 1.5-6.75 1.5Zm18.064-1V16.5h9.1v20.8h-1.2c0-2.8.35-5.15 1.05-7.05.7-1.9 1.717-3.333 3.05-4.3 1.367-.967 3.05-1.45 5.05-1.45h.4c3 0 5.284 1.083 6.85 3.25 1.6 2.167 2.4 5.35 2.4 9.55V53h-9.1V36.95c0-1.267-.383-2.3-1.15-3.1-.766-.833-1.783-1.25-3.05-1.25-1.266 0-2.3.417-3.1 1.25-.8.8-1.2 1.867-1.2 3.2V53h-9.1Z"/><path fill="url(#b)" d="M35.782 53v-8c0-1.6.267-3 .8-4.2.567-1.233 1.434-2.317 2.6-3.25 1.2-.933 2.75-1.8 4.65-2.6l5.55-2.35c1.434-.6 2.467-1.317 3.1-2.15.667-.833 1-1.883 1-3.15 0-1.167-.4-2.15-1.2-2.95-.766-.833-1.9-1.25-3.4-1.25-1.533 0-2.683.433-3.45 1.3-.766.833-1.15 1.967-1.15 3.4h-9c0-2.4.517-4.533 1.55-6.4 1.034-1.867 2.55-3.333 4.55-4.4 2.034-1.067 4.534-1.6 7.5-1.6 2.934 0 5.4.517 7.4 1.55 2.034 1 3.567 2.383 4.6 4.15 1.067 1.733 1.6 3.7 1.6 5.9v.6c0 2.833-.766 5.167-2.3 7-1.533 1.833-4 3.483-7.4 4.95l-5.55 2.35c-.8.333-1.4.7-1.8 1.1-.366.4-.55.933-.55 1.6v1.8l-2.15-1.4h19.65v8h-26.6Z"/></g><circle cx="26" cy="12" r="7" fill="#707E8E"/><circle cx="41.5" cy="5.5" r="5.5" fill="#707E8E"/><circle cx="55.5" cy="4.5" r="3.5" fill="#707E8E"/><circle cx="66" cy="9" r="3" fill="#707E8E"/><circle cx="74" cy="16" r="2" fill="#707E8E"/><defs><linearGradient id="b" x1="1.327" x2="224.187" y1="32.513" y2="32.513" gradientUnits="userSpaceOnUse"><stop stop-color="#FF5722"/><stop offset=".115" stop-color="#FF5B20"/><stop offset=".229" stop-color="#FF6819"/><stop offset=".75" stop-color="#FF7D0E"/><stop offset="1" stop-color="#FF9800"/></linearGradient><clipPath id="a"><path fill="#fff" d="M0 14h240v40H0z"/></clipPath></defs></svg>