<svg xmlns="http://www.w3.org/2000/svg" xmlns:xlink="http://www.w3.org/1999/xlink" fill="none" viewBox="0 0 520 85"><linearGradient id="a"><stop offset=".16" stop-color="#a1e924"/><stop offset="1" stop-color="#00c34e"/></linearGradient><linearGradient xlink:href="#a" id="b" x1="-12.043" x2="69.541" y1="22.378" y2="107.496" gradientUnits="userSpaceOnUse"/><linearGradient xlink:href="#a" id="c" x1="8.511" x2="90.095" y1="2.677" y2="87.796" gradientUnits="userSpaceOnUse"/><linearGradient id="d" x1="66.952" x2="129.083" y1="65.998" y2="5.906" gradientUnits="userSpaceOnUse"><stop offset="0" stop-color="#00c34e"/><stop offset=".84" stop-color="#a1e924"/></linearGradient><linearGradient id="e" x1="70.517" x2="135.996" y1="90.977" y2="-7.686" gradientUnits="userSpaceOnUse"><stop offset="0"/><stop offset=".608" stop-color="#fff"/></linearGradient><g fill="#21335e"><path d="M213.735 32.939c-5.119 0-9.629 3.14-11.49 7.994l-9.844 25.624-4.009-10.987 8.841-22.522h-4.474c-5.262 0-9.951 3.395-11.67 8.469l-1.002 2.957-.966-2.884c-1.718-5.11-6.408-8.505-11.67-8.505h-4.438l8.949 22.522-4.081 11.023-9.88-25.66c-1.861-4.855-6.371-7.995-11.49-7.995h-6.443l21.012 51.468h12.099l6.944-18.251 7.016 18.25h12.099l21.083-51.467h-6.586zM270.435 61.666h-34.472c.179 3.832 1.11 6.57 2.864 8.213 1.718 1.679 3.902 2.482 6.586 2.482 2.256 0 4.117-.584 5.62-1.716a8.013 8.013 0 0 0 2.936-4.453h16.108c-.645 3.577-2.077 6.753-4.26 9.6-2.184 2.81-4.976 5.037-8.376 6.643-3.401 1.606-7.159 2.41-11.312 2.41-4.868 0-9.199-1.06-12.958-3.14-3.758-2.08-6.729-5.11-8.877-9.052-2.148-3.942-3.221-8.542-3.221-13.798 0-5.33 1.038-9.928 3.15-13.834 2.112-3.906 5.047-6.899 8.877-8.98 3.794-2.08 8.125-3.139 12.994-3.139 4.939 0 9.271 1.022 12.993 3.103 3.759 2.044 6.623 4.964 8.699 8.687 2.04 3.724 3.078 7.994 3.078 12.849 0 1.205-.143 2.592-.429 4.125zm-17.612-14.053c-1.825-1.68-4.045-2.483-6.729-2.483-2.792 0-5.119.84-6.945 2.555-1.825 1.68-2.863 4.162-3.114 7.447h19.401c.072-3.358-.787-5.84-2.613-7.52zM320.798 36.005c3.222 2.08 5.799 5.074 7.661 8.98 1.861 3.905 2.792 8.541 2.792 13.834 0 5.256-.931 9.855-2.792 13.797-1.862 3.943-4.439 6.936-7.661 9.053-3.221 2.08-6.908 3.139-10.989 3.139-3.794 0-7.051-.876-9.808-2.628-2.72-1.752-4.725-4.161-5.978-7.19v9.161h-15.248v-67.2h4.51c5.942 0 10.738 4.892 10.738 10.95V42.65c1.253-3.03 3.222-5.403 5.978-7.191 2.721-1.752 6.014-2.628 9.808-2.628 4.081.036 7.732 1.058 10.989 3.175zM297.03 49.803c-2.04 2.226-3.078 5.22-3.078 9.052 0 3.76 1.038 6.753 3.078 8.98 2.041 2.226 4.689 3.358 7.875 3.358 3.258 0 5.907-1.095 7.875-3.285 2.005-2.19 2.971-5.22 2.971-9.09s-1.002-6.898-2.971-9.088c-2.004-2.19-4.617-3.285-7.875-3.285-3.221.036-5.834 1.131-7.875 3.358zM361.105 69.003l8.447-27.815c1.396-4.599 5.549-7.702 10.274-7.702h8.304l-17.647 50.665h-18.9l-17.647-50.665h8.34c4.689 0 8.842 3.103 10.238 7.666zM440.105 61.666h-34.471c.179 3.832 1.11 6.57 2.864 8.213 1.718 1.679 3.901 2.482 6.586 2.482 2.255 0 4.116-.584 5.62-1.716a8.006 8.006 0 0 0 2.935-4.453h16.108c-.644 3.577-2.076 6.753-4.26 9.6-2.183 2.81-4.975 5.037-8.376 6.643-3.4 1.606-7.159 2.41-11.311 2.41-4.868 0-9.2-1.06-12.958-3.14-3.759-2.08-6.73-5.11-8.877-9.052-2.148-3.942-3.222-8.542-3.222-13.798 0-5.33 1.038-9.928 3.15-13.834 2.112-3.906 5.047-6.899 8.877-8.98 3.795-2.08 8.126-3.139 12.994-3.139 4.94 0 9.271 1.022 12.994 3.103 3.758 2.044 6.622 4.964 8.698 8.687 2.04 3.724 3.079 7.994 3.079 12.849 0 1.205-.144 2.592-.43 4.125zm-17.611-14.053c-1.826-1.68-4.045-2.483-6.73-2.483-2.792 0-5.119.84-6.944 2.555-1.826 1.68-2.864 4.162-3.114 7.447h19.401c.071-3.358-.788-5.84-2.613-7.52zM471.032 35.677c3.007-1.825 6.265-2.738 9.737-2.738v16.608h-4.331c-4.045 0-7.16.876-9.415 2.628-2.219 1.752-3.329 4.71-3.329 8.907V84.15h-15.248V33.487h5.87c5.155 0 9.343 4.27 9.343 9.526 1.933-3.066 4.402-5.511 7.373-7.336zM520 70.828v13.36h-6.873c-5.834 0-10.344-1.46-13.566-4.418-3.222-2.92-4.868-7.81-4.868-14.564V46.59h-6.694V33.486h6.694V21.04h4.474c5.942 0 10.739 4.891 10.739 10.95v1.497h9.987v13.068h-9.987v18.908c0 2.007.394 3.394 1.217 4.161.787.803 2.148 1.168 4.045 1.168H520z"/></g><path fill="url(#b)" d="M50.901 77.654a37.635 37.635 0 0 1-2.9 2.372c-.787.548-1.395 1.022-2.075 1.424-6.408 4.015-11.133 3.54-12.1 3.394-4.975-.109-9.413-2.372-12.528-5.95a19.624 19.624 0 0 1-1.61-2.153 26.206 26.206 0 0 1-.967-1.496c-1.038-1.752-1.503-3.03-1.503-3.03l-1.611-3.577-.072-.183L1.36 37.064l-.071-.146L0 34.217h11.276c1.11 0 2.183.182 3.221.51.824.256 1.611.585 2.363.95 3.722 1.533 6.765 4.38 8.662 7.957.25.511.501 1.022.716 1.533L35.76 66.01l1.18 2.591c2.363 4.271 6.408 7.447 11.24 8.578l.788.146 1.862.256h.107l-.036.036z"/><path fill="url(#c)" d="M74.24 71.63a19.633 19.633 0 0 1-1.611-2.153 12.154 12.154 0 0 1-.573-.876l-1.181-2.555L53.478 28.74a19.938 19.938 0 0 0-.715-1.533c-1.862-3.577-4.94-6.424-8.663-7.957-.752-.402-1.54-.73-2.362-.95a10.629 10.629 0 0 0-3.222-.51H27.205l1.252 2.737.072.146 22.05 47.818.072.182 1.61 3.577s.466 1.278 1.504 3.03c.286.474.608.985.966 1.496a13.398 13.398 0 0 0 1.611 2.154c3.079 3.54 7.553 5.804 12.529 5.95.286.036.966.11 1.897.11.93.036 1.61-.037 1.897-.11 4.975-.11 9.414-2.373 12.528-5.95.394-.438.752-.912 1.074-1.387-4.796-.256-9.056-2.519-12.027-5.913z"/><path fill="url(#d)" d="M115.405 1H110.143c-1.11 0-2.184.183-3.222.511-.823.256-1.611.584-2.362.95-3.723 1.532-6.766 4.38-8.663 7.956-.25.512-.501 1.023-.716 1.534L78.392 48.378c-.107.475-.215.95-.286 1.424a15.822 15.822 0 0 0-.215 2.591 17.65 17.65 0 0 0 3.58 11.024c.143.255.5.84 1.11 1.57.572.766 1.037 1.24 1.252 1.423.322.365.644.73 1.002 1.095a18.065 18.065 0 0 0 4.654 3.358l1.002-2.226.072-.183 4.474-9.819 25.128-54.752.072-.146L121.49 1z"/><path fill="url(#e)" d="M115.193 1H109.931c-1.11 0-2.184.183-3.222.511-.823.256-1.611.584-2.362.95-3.723 1.532-6.766 4.38-8.663 7.956-.25.512-.5 1.023-.716 1.534L78.18 48.378c-.107.475-.215.95-.286 1.424a15.822 15.822 0 0 0-.215 2.591 17.65 17.65 0 0 0 3.58 11.024c.143.255.5.84 1.11 1.57.572.766 1.037 1.24 1.252 1.423.322.365.645.73 1.002 1.095a18.062 18.062 0 0 0 4.654 3.358l1.002-2.226.072-.183 4.474-9.819 25.129-54.752.071-.146L121.278 1z" opacity=".2"/></svg>