<svg xmlns="http://www.w3.org/2000/svg" viewBox="0 0 1037.03 287.95">
  <path fill="#222" d="M136.66 165.22c-.74-20.58-10.65-33.06-30.12-33.06-17.64 0-30.12 11.38-33.06 33.06zM.01 189.46v-2.94C.01 124.07 47.76 85.5 106.54 85.5c54 0 99.92 30.86 101.3 99.92v17.64H73.1c1.84 23.15 15.43 35.64 36 35.64 20.2 0 27.92-9.56 30.12-20.57h67.6c-5.88 44.08-39.31 69.8-100.3 69.8C45.18 287.93 0 253.03 0 189.47M222.19 7.66h72.38v156.11l46.65-72.74h74.2l-59.14 85.96 63.92 106.17h-80.08l-45.55-80.08v80.08h-72.38zm206.86 83.38h72v192.13h-72zm100.71 0h72.37v30.86c10.66-20.2 31.23-36 63.55-36 36.37 0 61.72 23.15 61.72 70.9v126.37h-72.37v-110.2c0-19.47-6.98-29.4-24.25-29.4-18 0-28.65 10.66-28.65 33.43v106.17h-72.37zm352.33 96.99v-2.58c0-30.12-10.65-46.28-33.06-46.28-22.04 0-34.16 15.06-34.16 45.18v2.94c0 31.22 11.02 47.39 34.16 47.39 22.04 0 33.06-16.17 33.06-46.65m-140.33 1.46v-2.93c0-62.45 46.66-100.66 107.27-100.66 59.88 0 106.53 37.1 106.53 98.82v2.94c0 63.18-47.02 100.29-106.9 100.29s-106.9-35.27-106.9-98.46M503.41 38.36a38.36 38.36 0 1 0-76.72 0 38.36 38.36 0 0 0 76.72 0m533.62 211.22a38.36 38.36 0 1 0-76.72 0 38.36 38.36 0 0 0 76.72 0"/>
</svg>

