<svg xmlns="http://www.w3.org/2000/svg" xml:space="preserve" viewBox="0 0 595.28 595.28">
  <style>
    .st1{fill:#193382}.st2{enable-background:new}.st3{fill:#98abd8}
  </style>
	<g id="CutContour">
    <path id="CutContour_1_" fill="#fff" d="M296.67 581.37c-75.66 0-146.8-29.46-200.3-82.97-53.5-53.5-82.97-124.64-82.97-200.3 0-75.66 29.46-146.8 82.97-200.3 53.5-53.5 124.64-82.97 200.3-82.97 75.66 0 146.8 29.46 200.3 82.97 53.5 53.5 82.97 124.64 82.97 200.3 0 75.66-29.46 146.8-82.97 200.3s-124.64 82.97-200.3 82.97z"/>
  </g>
	<g id="LOGO_DGSI">
    <path d="M296.67 518.15a218.59 218.59 0 0 1-155.59-64.45 218.6 218.6 0 0 1-64.45-155.59 218.59 218.59 0 0 1 64.45-155.59 218.6 218.6 0 0 1 155.59-64.45 218.59 218.59 0 0 1 155.59 64.45 218.6 218.6 0 0 1 64.45 155.59c0 58.78-22.89 114.03-64.45 155.59s-96.81 64.45-155.59 64.45z" class="st1"/>
		<path d="M573.42 298.11c0 152.85-123.91 276.75-276.75 276.75S19.92 450.95 19.92 298.11 143.83 21.35 296.67 21.35s276.75 123.91 276.75 276.76zm-83.45 193.3c51.63-51.63 80.07-120.28 80.07-193.3s-28.44-141.67-80.07-193.3c-51.63-51.63-120.28-80.07-193.3-80.07S155 53.17 103.37 104.81C51.74 156.44 23.3 225.09 23.3 298.11s28.44 141.67 80.07 193.3c51.63 51.63 120.28 80.07 193.3 80.07s141.67-28.44 193.3-80.07z" class="st1"/>
		<path d="M523.61 298.11c0 125.33-101.6 226.94-226.94 226.94S69.73 423.44 69.73 298.11 171.34 71.17 296.67 71.17s226.94 101.6 226.94 226.94zM296.67 74.6c-123.44 0-223.51 100.07-223.51 223.51s100.07 223.51 223.51 223.51 223.51-100.07 223.51-223.51S420.11 74.6 296.67 74.6z" class="st1"/>
		<g id="DGSI_Bleu_clair_1_" class="st2">
      <path id="_x3C_Tracé_x3E__1_" d="M248.33 442.89v-4.64l1.31-.27a9.68 9.68 0 0 0 1.79-.5v-20.59l-2.86.4-.73-5.19 1.45-.35a39.9 39.9 0 0 1 2.77-.55 67.82 67.82 0 0 1 10.05-.85c2.48 0 4.75.35 6.73 1.03 2.03.7 3.78 1.75 5.19 3.1a13.34 13.34 0 0 1 3.23 4.98 18.2 18.2 0 0 1 1.08 6.46c0 2.02-.21 3.87-.63 5.48a16.98 16.98 0 0 1-1.75 4.36 13.47 13.47 0 0 1-2.66 3.3 14.78 14.78 0 0 1-6.75 3.44c-1.19.26-2.37.39-3.51.39h-14.71zm12.07-5.84.4.06c.35.04.83.06 1.4.06a4.98 4.98 0 0 0 2.82-.94 7.8 7.8 0 0 0 2.71-3.24c.37-.78.67-1.69.9-2.71.23-1.02.35-2.19.35-3.48 0-1.85-.2-3.49-.59-4.88a9.19 9.19 0 0 0-1.63-3.3 6.38 6.38 0 0 0-2.54-1.9 9.47 9.47 0 0 0-3.72-.67h-.08v21z" class="st3"/>
			<path d="M292.94 443.57c-1.22 0-2.45-.14-3.64-.42a14.3 14.3 0 0 1-6.5-3.45 13.4 13.4 0 0 1-2.45-3.07 15.33 15.33 0 0 1-1.59-3.9c-.37-1.42-.56-3-.56-4.69 0-2.71.44-5.19 1.32-7.36a16.21 16.21 0 0 1 3.71-5.62 15.95 15.95 0 0 1 5.58-3.52c2.1-.79 4.4-1.19 6.84-1.19.59 0 1.25.06 2.03.18a21.1 21.1 0 0 1 4.62 1.29 9.6 9.6 0 0 1 2.11 1.18c.33.26.97.93.62 2.17-.09.32-.22.66-.41 1.05a24.22 24.22 0 0 1-1.91 3.22c-.26.34-.49.6-.71.8l-.63.56-2.88-.64-.37-.53c-.44-.64-.88-1.17-1.31-1.6a4.64 4.64 0 0 0-2.48-1.39c-.47-.1-.98-.16-1.51-.16a3.99 3.99 0 0 0-1.97.72c-.41.28-.84.67-1.26 1.16-.42.49-.8 1.11-1.15 1.85a13.2 13.2 0 0 0-.88 2.78 18.63 18.63 0 0 0-.35 3.82c0 1.85.21 3.43.62 4.71.4 1.24.93 2.27 1.57 3.04.62.75 1.3 1.28 2.07 1.62.79.35 1.59.53 2.44.53.7 0 1.33-.06 1.87-.19l.5-.13v-5.46c-.11-.05-.27-.1-.48-.17-.43-.13-1.04-.27-1.81-.41l-1.36-.24v-4.68h14.59v4.59l-1.25.31c-.73.18-.93.35-.93.35l-.01.02v7.5l-.6.49a28.6 28.6 0 0 1-3.34 2.4 19.68 19.68 0 0 1-2.98 1.49 13.7 13.7 0 0 1-5.17.99zm24.24 0a19.94 19.94 0 0 1-4.44-.66c-.79-.2-1.58-.46-2.34-.75-.78-.3-1.48-.65-2.09-1.04-.51-.29-.84-.82-.97-1.59-.05-.31-.1-.71-.12-1.18a23.13 23.13 0 0 1 .05-3.1c.04-.55.1-1.09.17-1.62.08-.57.18-1.09.31-1.54l.36-1.29 3.99.28.38.97c.3.78.67 1.49 1.1 2.13.41.61.88 1.14 1.38 1.57.49.42 1.01.74 1.56.97a4.1 4.1 0 0 0 1.59.32c.51 0 1.01-.07 1.49-.22.45-.14.83-.33 1.16-.58a2.34 2.34 0 0 0 .97-1.99 2.9 2.9 0 0 0-.37-1.54c-.3-.5-.71-.95-1.22-1.35-.58-.45-1.26-.87-2.01-1.24-.84-.42-1.71-.83-2.59-1.24-.94-.44-1.86-.89-2.72-1.36a13.5 13.5 0 0 1-2.62-1.84 9.2 9.2 0 0 1-1.98-2.59 7.8 7.8 0 0 1-.79-3.61c0-.95.25-1.97.75-3.06a9.17 9.17 0 0 1 2.25-2.97c.98-.89 2.24-1.63 3.74-2.22 1.5-.59 3.29-.88 5.32-.88a20.59 20.59 0 0 1 5.03.64c.78.21 1.49.47 2.11.77a5.5 5.5 0 0 1 1.63 1.16c.31.31.68.89.51 1.85-.05.3-.14.63-.27 1a20.16 20.16 0 0 1-.99 2.14c-.2.36-.39.67-.59.96-.25.37-.48.63-.71.83l-.53.46-3.14-.28-.4-.86a5.39 5.39 0 0 0-.87-1.37 4.18 4.18 0 0 0-1.98-1.27 4 4 0 0 0-2.33.07 2.2 2.2 0 0 0-.76.44c-.17.16-.29.33-.36.52-.09.23-.13.45-.13.67 0 .35.09.64.29.9.31.41.74.81 1.27 1.19.6.42 1.3.83 2.08 1.21l2.67 1.32c.95.47 1.88.99 2.78 1.54.97.6 1.84 1.28 2.6 2.03.8.79 1.46 1.72 1.96 2.74a9.03 9.03 0 0 1 .42 6.23 11.28 11.28 0 0 1-5.45 6.64c-.95.51-2.03.93-3.2 1.23-1.21.3-2.53.46-3.95.46z" class="st3"/>
			<path d="M330.12 442.89v-4.64l1.31-.27a9.68 9.68 0 0 0 1.79-.5v-21.05a8.1 8.1 0 0 0-1.78-.49l-1.33-.26v-4.66h15.2v4.64l-1.31.27c-.96.2-1.51.38-1.82.51v21.04c.26.12.79.3 1.8.49l1.33.26v4.66h-15.19z" class="st3"/>
    </g>
		<path id="DGSI_Gris_1_" fill="#c2bbb1" d="M276.7 425.91c0 1.89-.19 3.58-.58 5.07-.39 1.49-.91 2.8-1.58 3.95a11.67 11.67 0 0 1-2.34 2.9 13.41 13.41 0 0 1-9.16 3.41h-13.06v-1.66c1.03-.21 1.8-.44 2.32-.69.52-.25.78-.48.78-.69V415l-3.11.43-.29-2.09c.74-.18 1.62-.36 2.64-.52a64.54 64.54 0 0 1 9.79-.83c2.31 0 4.38.31 6.19.94a12.4 12.4 0 0 1 4.58 2.73 11.78 11.78 0 0 1 2.84 4.38c.65 1.72.98 3.68.98 5.87zm-16.22-11.52-.84.01-.88.03v23.02c0 .11.01.21.05.32.05.17.13.31.25.44s.31.24.57.33c.26.09.59.16 1.01.2.42.05.94.07 1.58.07a6.55 6.55 0 0 0 3.74-1.22 9.45 9.45 0 0 0 3.28-3.9c.42-.89.76-1.91 1.02-3.05s.39-2.42.39-3.84c0-2.01-.22-3.79-.66-5.33a10.85 10.85 0 0 0-1.94-3.89 8 8 0 0 0-3.18-2.38 11.05 11.05 0 0 0-4.39-.81zm42.94-.1c.08.06.08.2.02.42-.06.22-.16.48-.31.78a16.53 16.53 0 0 1-1.13 2.04 8.38 8.38 0 0 1-1.1 1.45l-1.43-.32c-.5-.73-1-1.34-1.51-1.84a6.83 6.83 0 0 0-5.14-2.02 5.83 5.83 0 0 0-2.9 1 8.1 8.1 0 0 0-1.59 1.45c-.52.6-.99 1.35-1.39 2.23-.41.88-.74 1.93-1 3.13s-.39 2.59-.39 4.16c0 2.03.23 3.77.7 5.22a10.6 10.6 0 0 0 1.87 3.58 7.41 7.41 0 0 0 5.78 2.75c.83 0 1.58-.08 2.23-.23s1.25-.35 1.78-.61v-6.92c0-.17-.03-.33-.09-.49-.06-.16-.21-.31-.45-.46-.24-.15-.61-.3-1.1-.45a17.7 17.7 0 0 0-2.01-.45v-1.66h11.3v1.66c-.86.21-1.44.49-1.75.83-.3.34-.45.68-.45 1.03v6.83c-1.12.92-2.17 1.67-3.14 2.26s-1.89 1.04-2.73 1.37a12.63 12.63 0 0 1-7.82.51 12.54 12.54 0 0 1-5.76-3.05 11.68 11.68 0 0 1-2.15-2.7c-.61-1.03-1.08-2.19-1.42-3.48s-.51-2.72-.51-4.28c0-2.51.4-4.76 1.2-6.75.8-1.99 1.91-3.67 3.33-5.06a14.33 14.33 0 0 1 5.01-3.16 17.48 17.48 0 0 1 6.26-1.09c.5 0 1.09.05 1.78.16s1.39.26 2.12.45c.73.2 1.43.44 2.12.73.7.3 1.28.62 1.77.98zm25.06 18.4c0 .68-.1 1.38-.31 2.09a9.64 9.64 0 0 1-4.65 5.65c-.84.45-1.78.82-2.84 1.09a14.07 14.07 0 0 1-7.52-.19c-.73-.19-1.45-.42-2.15-.69a9.68 9.68 0 0 1-1.85-.93c-.08-.03-.14-.18-.18-.44-.05-.26-.08-.6-.1-1-.02-.4-.03-.85-.02-1.36a26.1 26.1 0 0 1 .23-3.05c.07-.5.16-.94.26-1.32l1.61.11c.35.89.77 1.71 1.27 2.45.5.74 1.06 1.38 1.68 1.91.62.53 1.28.94 2 1.24.71.29 1.45.44 2.22.44.68 0 1.34-.1 1.97-.29.64-.2 1.19-.48 1.68-.85a4.06 4.06 0 0 0 1.61-3.3c0-.92-.2-1.72-.61-2.39-.41-.67-.95-1.27-1.62-1.79s-1.44-.99-2.29-1.42c-.85-.42-1.73-.84-2.63-1.26-.9-.42-1.78-.85-2.63-1.32-.85-.46-1.62-1-2.29-1.61a7.43 7.43 0 0 1-1.62-2.12 6.2 6.2 0 0 1-.61-2.86c0-.71.2-1.5.6-2.37a7.6 7.6 0 0 1 1.86-2.44c.84-.76 1.92-1.39 3.23-1.91s2.89-.77 4.72-.77a17.17 17.17 0 0 1 4.6.59c.68.18 1.28.4 1.8.66a4 4 0 0 1 1.19.84c.08.06.09.2.06.41a7.2 7.2 0 0 1-.59 1.68 16.82 16.82 0 0 1-.99 1.77c-.17.24-.31.42-.43.52l-1.5-.14a6.92 6.92 0 0 0-2.51-2.93 5.23 5.23 0 0 0-2.8-.79c-.76 0-1.4.1-1.94.29-.54.2-.98.46-1.33.79-.35.33-.6.71-.76 1.12-.16.42-.24.84-.24 1.26 0 .71.21 1.34.62 1.89.42.55.96 1.07 1.63 1.54.67.48 1.44.93 2.3 1.35.86.42 1.75.86 2.65 1.32.91.45 1.79.94 2.65 1.47.86.53 1.63 1.13 2.3 1.79a8.24 8.24 0 0 1 1.63 2.29c.43.87.64 1.86.64 2.98zm3.29 8.55v-1.66c1.03-.21 1.8-.44 2.32-.69.52-.25.78-.48.78-.69v-22.48c0-.18-.25-.41-.74-.68a8.92 8.92 0 0 0-2.37-.73v-1.66h11.91v1.66c-1.03.21-1.81.45-2.34.7-.53.26-.79.49-.79.7v22.48c0 .18.25.4.75.67.5.26 1.29.5 2.38.71v1.66h-11.9z" class="st2"/>
		<linearGradient id="SVGID_1_" x1="263.18" x2="263.17" y1="441.47" y2="411.75" gradientUnits="userSpaceOnUse">
      <stop offset="0" stop-color="#020203"/>
			<stop offset=".05" stop-color="#222224"/>
			<stop offset=".14" stop-color="#504f51"/>
			<stop offset=".21" stop-color="#757476"/>
			<stop offset=".27" stop-color="#8e8e8e"/>
			<stop offset=".3" stop-color="#989898"/>
			<stop offset=".34" stop-color="#7a797a" stop-opacity=".96"/>
			<stop offset=".41" stop-color="#464547" stop-opacity=".88"/>
			<stop offset=".46" stop-color="#232325" stop-opacity=".8"/>
			<stop offset=".51" stop-color="#0c0c0e" stop-opacity=".75"/>
			<stop offset=".53" stop-color="#020203" stop-opacity=".72"/>
			<stop offset="1" stop-color="#020203"/>
    </linearGradient>
		<path fill="url(#SVGID_1_)" d="M263.04 441.47h-13.3v-2.08l.19-.04c1.01-.21 1.77-.43 2.27-.67.64-.31.65-.48.65-.48v-22.94l-3.07.43-.36-2.52.2-.05a56.18 56.18 0 0 1 5.89-.97 65.95 65.95 0 0 1 6.59-.4c2.33 0 4.44.32 6.27.95 1.84.64 3.41 1.57 4.67 2.79a11.96 11.96 0 0 1 2.89 4.46c.66 1.74.99 3.75.99 5.96 0 1.9-.2 3.63-.59 5.13-.39 1.5-.93 2.85-1.6 4.01a12.13 12.13 0 0 1-5.29 4.94c-1.02.51-2.1.89-3.2 1.13-1.08.23-2.16.35-3.2.35zm-12.83-.46h12.83a14.6 14.6 0 0 0 6.2-1.44c.99-.5 1.94-1.14 2.81-1.92.87-.77 1.64-1.73 2.29-2.85a15.56 15.56 0 0 0 1.55-3.89c.38-1.46.57-3.15.57-5.01 0-2.15-.32-4.1-.96-5.79a11.58 11.58 0 0 0-2.78-4.29 12.05 12.05 0 0 0-4.5-2.68 18.65 18.65 0 0 0-6.12-.93c-.97 0-2.04.03-3.16.1a77.01 77.01 0 0 0-6.59.73c-.92.15-1.74.31-2.42.47l.23 1.65 3.14-.44v23.47c0 .32-.29.6-.91.9-.51.24-1.23.46-2.19.67v1.25zm11.99-1.96c-.64 0-1.18-.02-1.6-.07a4.76 4.76 0 0 1-1.06-.22c-.3-.1-.51-.23-.66-.39a1.16 1.16 0 0 1-.3-.54 1.2 1.2 0 0 1-.05-.38v-23.24l.22-.01.89-.03.85-.01c1.67 0 3.17.28 4.46.82a8.43 8.43 0 0 1 3.27 2.45 10.97 10.97 0 0 1 1.98 3.97c.44 1.56.67 3.37.67 5.39 0 1.43-.13 2.74-.39 3.9a15.03 15.03 0 0 1-1.04 3.1 10.08 10.08 0 0 1-3.36 4 7.19 7.19 0 0 1-3.88 1.26zm-3.21-24.4v22.8c0 .09.01.17.04.25.04.13.1.25.2.35.1.1.26.19.48.27.24.08.56.15.96.19.4.04.93.07 1.55.07a6.37 6.37 0 0 0 3.6-1.18 9.34 9.34 0 0 0 3.2-3.81c.41-.87.75-1.88 1-3s.38-2.4.38-3.79c0-1.98-.22-3.75-.65-5.27a10.65 10.65 0 0 0-1.9-3.81 7.85 7.85 0 0 0-3.09-2.31 10.96 10.96 0 0 0-4.28-.79l-.83.01-.66.02z"/>
		<linearGradient id="SVGID_00000161621692928005963690000008630534151262859153_" x1="292.7" x2="292.69" y1="442.15" y2="411.75" gradientUnits="userSpaceOnUse">
      <stop offset="0" stop-color="#020203"/>
			<stop offset=".05" stop-color="#222224"/>
			<stop offset=".14" stop-color="#504f51"/>
			<stop offset=".21" stop-color="#757476"/>
			<stop offset=".27" stop-color="#8e8e8e"/>
			<stop offset=".3" stop-color="#989898"/>
			<stop offset=".34" stop-color="#7a797a" stop-opacity=".96"/>
			<stop offset=".41" stop-color="#464547" stop-opacity=".88"/>
			<stop offset=".46" stop-color="#232325" stop-opacity=".8"/>
			<stop offset=".51" stop-color="#0c0c0e" stop-opacity=".75"/>
			<stop offset=".53" stop-color="#020203" stop-opacity=".72"/>
			<stop offset="1" stop-color="#020203"/>
    </linearGradient>
		<path fill="url(#SVGID_00000161621692928005963690000008630534151262859153_)" d="M292.93 442.15c-1.12 0-2.23-.13-3.32-.38a12.63 12.63 0 0 1-8.07-5.85 13.9 13.9 0 0 1-1.44-3.54 17.25 17.25 0 0 1-.52-4.33c0-2.53.41-4.83 1.22-6.84a14.82 14.82 0 0 1 3.39-5.14 14.81 14.81 0 0 1 5.09-3.22c1.94-.73 4.07-1.1 6.34-1.1.51 0 1.12.05 1.82.16.69.11 1.41.26 2.15.46.73.2 1.45.44 2.15.74.7.29 1.31.63 1.81 1 .24.19.14.55.11.67-.06.23-.17.51-.32.82a24.36 24.36 0 0 1-1.76 2.96 4.4 4.4 0 0 1-.53.6l-.09.08-1.63-.36-.05-.07c-.49-.71-.98-1.31-1.48-1.8a6.26 6.26 0 0 0-3.16-1.76 8.81 8.81 0 0 0-1.81-.19 5.34 5.34 0 0 0-2.76.96c-.52.35-1.03.82-1.54 1.41-.5.58-.96 1.32-1.36 2.18-.4.87-.73 1.9-.98 3.08a20.04 20.04 0 0 0-.38 4.11c0 1.99.23 3.73.69 5.15.46 1.42 1.07 2.6 1.83 3.51a7.11 7.11 0 0 0 5.59 2.66c.81 0 1.54-.07 2.18-.22a8.12 8.12 0 0 0 1.6-.53v-6.77a.92.92 0 0 0-.08-.4c-.03-.07-.12-.2-.36-.35a4.63 4.63 0 0 0-1.05-.43c-.49-.15-1.15-.3-1.98-.45l-.19-.03v-2.08h11.76v2.07l-.18.04c-.81.2-1.36.45-1.63.76-.27.3-.39.59-.39.88v6.94l-.08.07a26.9 26.9 0 0 1-3.17 2.28c-.98.59-1.92 1.05-2.77 1.39-.86.34-1.69.57-2.45.7-.77.1-1.51.16-2.2.16zm2.7-29.94c-2.21 0-4.29.36-6.18 1.07a14.26 14.26 0 0 0-4.93 3.11 14.27 14.27 0 0 0-3.28 4.98 17.69 17.69 0 0 0-1.19 6.66c0 1.53.17 2.95.5 4.22.33 1.27.8 2.42 1.39 3.42a11.73 11.73 0 0 0 4.76 4.53c.94.49 1.96.87 3.01 1.11 1.05.24 2.13.37 3.21.37a12.44 12.44 0 0 0 4.48-.87c.83-.33 1.74-.78 2.7-1.36.93-.56 1.95-1.28 3.03-2.17v-6.72c0-.4.17-.8.51-1.19.31-.35.87-.63 1.69-.85v-1.24H294.5v1.23c.76.14 1.38.28 1.84.43.5.16.89.32 1.15.48.29.18.47.37.55.58.07.19.11.38.11.57v7.06l-.13.06c-.54.26-1.16.48-1.83.63-.67.15-1.44.23-2.29.23a7.65 7.65 0 0 1-5.95-2.83c-.8-.96-1.44-2.19-1.91-3.66a17.5 17.5 0 0 1-.71-5.29c0-1.58.13-3 .39-4.21s.6-2.28 1.01-3.18c.42-.9.9-1.67 1.43-2.29a8.22 8.22 0 0 1 1.63-1.49c.55-.37 1.1-.64 1.63-.8.53-.16 1-.24 1.39-.24.66 0 1.3.07 1.91.2.61.13 1.2.35 1.76.66.56.3 1.11.72 1.63 1.23.5.49 1 1.1 1.48 1.8l1.22.27a11.55 11.55 0 0 0 .97-1.31 31.92 31.92 0 0 0 1.12-2.02c.14-.29.23-.54.29-.75.04-.16.03-.21.03-.21a8.62 8.62 0 0 0-1.68-.91 17.8 17.8 0 0 0-4.19-1.17 14.8 14.8 0 0 0-1.72-.14z"/>
		<linearGradient id="SVGID_00000127732861047131307790000017069043374164125320_" x1="318.66" x2="318.65" y1="442.15" y2="411.75" gradientUnits="userSpaceOnUse">
      <stop offset="0" stop-color="#020203"/>
			<stop offset=".05" stop-color="#222224"/>
			<stop offset=".14" stop-color="#504f51"/>
			<stop offset=".21" stop-color="#757476"/>
			<stop offset=".27" stop-color="#8e8e8e"/>
			<stop offset=".3" stop-color="#989898"/>
			<stop offset=".34" stop-color="#7a797a" stop-opacity=".96"/>
			<stop offset=".41" stop-color="#464547" stop-opacity=".88"/>
			<stop offset=".46" stop-color="#232325" stop-opacity=".8"/>
			<stop offset=".51" stop-color="#0c0c0e" stop-opacity=".75"/>
			<stop offset=".53" stop-color="#020203" stop-opacity=".72"/>
			<stop offset="1" stop-color="#020203"/>
    </linearGradient>
		<path fill="url(#SVGID_00000127732861047131307790000017069043374164125320_)" d="M317.18 442.15c-.55 0-1.19-.05-1.91-.16a22.86 22.86 0 0 1-4.36-1.15c-.72-.28-1.36-.6-1.89-.95-.12-.05-.22-.22-.28-.6a20.14 20.14 0 0 1-.05-3.94c.04-.51.09-1.03.16-1.53.07-.51.16-.97.27-1.35l.05-.18 1.95.14.05.14c.34.87.76 1.68 1.25 2.4a9.3 9.3 0 0 0 1.64 1.86 6.03 6.03 0 0 0 7.57.53 3.88 3.88 0 0 0 1.52-3.12c0-.88-.19-1.64-.58-2.27a6.25 6.25 0 0 0-1.57-1.73 13.4 13.4 0 0 0-2.25-1.39c-.85-.42-1.73-.84-2.63-1.26a43.3 43.3 0 0 1-2.64-1.32 12.07 12.07 0 0 1-2.34-1.64 6.52 6.52 0 0 1-2.31-5.15c0-.74.21-1.57.62-2.47a7.66 7.66 0 0 1 1.92-2.51c.86-.77 1.97-1.43 3.3-1.95a13.3 13.3 0 0 1 4.8-.79 17.71 17.71 0 0 1 4.66.6c.69.18 1.31.41 1.85.67.55.27.97.57 1.26.89.19.15.13.49.11.6a8.11 8.11 0 0 1-.61 1.73 21.28 21.28 0 0 1-1 1.8c-.18.26-.33.45-.47.56l-.07.07-1.73-.16-.06-.12a6.8 6.8 0 0 0-1.11-1.72 5.52 5.52 0 0 0-2.69-1.69 5.4 5.4 0 0 0-3.16.11c-.5.18-.92.43-1.25.74-.32.31-.56.66-.7 1.04-.15.39-.22.78-.22 1.18 0 .67.19 1.24.58 1.75.4.53.93 1.03 1.58 1.49.66.47 1.42.92 2.27 1.33a216 216 0 0 1 2.66 1.32c.91.46 1.81.95 2.67 1.48a13.4 13.4 0 0 1 2.34 1.82 8.45 8.45 0 0 1 1.68 2.36 7 7 0 0 1 .65 3.07c0 .7-.11 1.42-.32 2.15a9.63 9.63 0 0 1-4.76 5.79c-.85.46-1.82.83-2.89 1.11-1.06.28-2.26.42-3.56.42zm-7.67-9.37c-.08.32-.15.69-.21 1.1a25.43 25.43 0 0 0-.21 4.36c.02.39.06.72.1.97.04.24.08.29.08.3.51.33 1.11.63 1.8.9s1.41.5 2.13.68c.72.19 1.44.33 2.13.44a13.21 13.21 0 0 0 8.07-1.31 9.82 9.82 0 0 0 3.65-3.46 8.44 8.44 0 0 0 1.19-4.06c0-1.08-.2-2.04-.6-2.87a8.17 8.17 0 0 0-1.59-2.23 12.87 12.87 0 0 0-2.26-1.76 35.52 35.52 0 0 0-2.64-1.46l-2.65-1.31c-.87-.43-1.65-.89-2.33-1.37a7.62 7.62 0 0 1-1.69-1.59 3.32 3.32 0 0 1-.67-2.03c0-.45.09-.9.25-1.34.17-.45.44-.85.82-1.21.37-.35.84-.64 1.41-.84a5.8 5.8 0 0 1 3.44-.12c.5.13 1.01.34 1.5.64s.97.7 1.41 1.19c.42.46.8 1.04 1.13 1.72l1.26.11a9.35 9.35 0 0 0 .81-1.21l.48-.94a9.37 9.37 0 0 0 .58-1.62c.03-.16.01-.21.01-.21a3.85 3.85 0 0 0-1.13-.79 9 9 0 0 0-1.76-.64 18.52 18.52 0 0 0-4.54-.59c-1.79 0-3.35.25-4.63.76-1.28.5-2.35 1.13-3.16 1.86a7.36 7.36 0 0 0-1.8 2.36 5.6 5.6 0 0 0 .01 5.02c.39.77.92 1.47 1.57 2.05.65.6 1.41 1.13 2.24 1.58.84.45 1.72.89 2.62 1.31l2.64 1.26c.86.43 1.65.91 2.33 1.44a6.86 6.86 0 0 1 1.68 1.86c.43.71.65 1.55.65 2.51a4.31 4.31 0 0 1-1.7 3.49 6.44 6.44 0 0 1-6.1.73 7.8 7.8 0 0 1-2.06-1.27 9.88 9.88 0 0 1-1.72-1.95c-.48-.72-.9-1.51-1.24-2.36l-1.3-.1z"/>
		<linearGradient id="SVGID_00000102509223845573017770000001050236871903841941_" x1="337.73" x2="337.71" y1="441.48" y2="412.43" gradientUnits="userSpaceOnUse">
      <stop offset="0" stop-color="#020203"/>
			<stop offset=".05" stop-color="#222224"/>
			<stop offset=".14" stop-color="#504f51"/>
			<stop offset=".21" stop-color="#757476"/>
			<stop offset=".27" stop-color="#8e8e8e"/>
			<stop offset=".3" stop-color="#989898"/>
			<stop offset=".34" stop-color="#7a797a" stop-opacity=".96"/>
			<stop offset=".41" stop-color="#464547" stop-opacity=".88"/>
			<stop offset=".46" stop-color="#232325" stop-opacity=".8"/>
			<stop offset=".51" stop-color="#0c0c0e" stop-opacity=".75"/>
			<stop offset=".53" stop-color="#020203" stop-opacity=".72"/>
			<stop offset="1" stop-color="#020203"/>
    </linearGradient>
		<path fill="url(#SVGID_00000102509223845573017770000001050236871903841941_)" d="M343.91 441.47h-12.37v-2.08l.19-.04c1.01-.21 1.77-.43 2.27-.67.64-.31.65-.48.65-.48v-22.48s-.04-.16-.62-.48a8.56 8.56 0 0 0-2.3-.7l-.19-.04v-2.08h12.37v2.08l-.19.04c-1.01.21-1.77.44-2.28.68-.66.32-.66.49-.66.49v22.48s.04.15.62.46c.48.25 1.26.49 2.32.69l.19.04v2.09zm-11.91-.46h11.44v-1.23a9.08 9.08 0 0 1-2.26-.7c-.6-.32-.87-.59-.87-.87v-22.48c0-.32.29-.61.92-.91a9.75 9.75 0 0 1 2.21-.68v-1.23H332v1.23a8.4 8.4 0 0 1 2.25.71c.59.33.86.6.86.88v22.48c0 .32-.29.6-.92.9-.51.24-1.23.46-2.19.67v1.23z"/>
		<g id="France_1_">
      <linearGradient id="path3931_00000091716614738936891660000006659315674746375576_" x1="7.58" x2="23.38" y1="449.27" y2="425.25" gradientTransform="matrix(1 0 0 -1 174.25 718.3)" gradientUnits="userSpaceOnUse">
        <stop offset="0" stop-color="#0052a0"/>
				<stop offset="1" stop-color="#fff"/>
      </linearGradient>
			<path id="path3931_1_" fill="url(#path3931_00000091716614738936891660000006659315674746375576_)" d="M173.78 227.67c12.88 2.74 19.36 7.25 30.69 17.25 9.85 10 15.73 17.11 19.61 28.54 3.9 8.83 6.36 22.58 4.41 39.52-1.54 9.76-5.24 18.78-11.29 28.64-4.87 7.69-12.48 15.53-14.68 17.66-2.06 1.99-5.34-1.13-2.16-4.62 4.56-4.88 12.52-12.73 18.27-25.46 3.18-8.72 6.06-15.19 5.85-28.02-.34-11.12-2.47-20.13-6.57-30.38-3.06-5.64-5.12-11.54-15.29-21.04-13.63-12.99-24.41-15.86-29.97-18.07-3.59-1.66-1.54-4.63 1.13-4.02z"/>
			<linearGradient id="path3949_00000148634476297523492920000017558293982310336394_" x1="215.35" x2="200.77" y1="391.93" y2="440.73" gradientTransform="matrix(1 0 0 -1 174.25 718.3)" gradientUnits="userSpaceOnUse">
        <stop offset="0" stop-color="#dd0028"/>
				<stop offset="1" stop-color="#fff"/>
      </linearGradient>
			<path id="path3949_1_" fill="url(#path3949_00000148634476297523492920000017558293982310336394_)" d="M384.6 239.33c-5.52 4.79-10.59 10.05-17.42 21.19-8.29 12.91-10.96 37.45-6.36 54.61 3.27 14.56 12.76 26.26 21.97 35.11 3.84 4.13 6.38-.2 4.31-2.05-5.55-5.27-14.72-15.54-18.42-24.99-3.7-9.44-6.45-20.97-5.02-33.11.34-8.73 2.51-18.25 8.88-29.56 6.3-9.42 10.94-14.19 15.44-18.92 3.38-2.57-.99-5.26-3.38-2.28z"/>
			<linearGradient id="path3959_00000047757506530116403630000017030987467912000937_" x1="67.53" x2="101.82" y1="348.25" y2="331.83" gradientTransform="matrix(1 0 0 -1 174.25 718.3)" gradientUnits="userSpaceOnUse">
        <stop offset="0" stop-color="#fff"/>
				<stop offset="1" stop-color="#dd0028"/>
      </linearGradient>
			<path id="path3959_1_" fill="url(#path3959_00000047757506530116403630000017030987467912000937_)" d="M206.51 357.84a173 173 0 0 1 30.41 3.99c14.96 3.51 29.76 9.75 35.42 13.22a260.34 260.34 0 0 1 18.93 11.24c2.73 2.25-.06 6.51-2.78 4.25-3.86-3.21-13.48-8.85-19.24-11.6-9.11-4.74-18.99-7.97-28.59-11.1-8.65-2.04-15.27-3.49-21.16-4.27a81.4 81.4 0 0 0-12.63-1.16c-5 .37-5.15-4.93-.36-4.57z"/>
			<path id="path3969_1_" fill="#dd0028" d="M301.48 364.81c4.99-5.24 12.83-7.39 21.76-6.78 8.01 1.44 19.09 5.24 22.99 6.06 3.9.82 12.32 2.26 16.83.72 5.54-1.54 11.5-6.57 14.06-10.68 1.64-2.46 6.48-1.2 3.7 3.39-2.17 2.89-8.73 10.16-16.94 12.42-2.63.95-14.4.74-24.02-2.05-4.07-2.06-16.63-5.51-23.92-4.82-8.72.88-17.12 9.38-19.81 17.14-1.64 5.13-7.08 1.85-4.41-2.05a44.47 44.47 0 0 1 9.76-13.35z"/>
			<g id="g4073_1_">
        <g id="g4064_1_">
          <g id="g4056_1_">
            <g id="g4049_1_">
              <g id="g4043_1_">
                <g id="g4038_1_">
                  <g id="g4034_1_">
                    <g id="g4031_1_">
                      <linearGradient id="path3971_00000035512181932899564510000016308330780563943088_" x1="387.23" x2="406.48" y1="377.47" y2="377.47" gradientUnits="userSpaceOnUse">
                        <stop offset="0" stop-color="#fff"/>
												<stop offset="1" stop-color="#dd0028"/>
                      </linearGradient>
											<path id="path3971_1_" fill="url(#path3971_00000035512181932899564510000016308330780563943088_)" d="M388.73 365.77c-2.31.86-1.42 3.16-.76 4.92 3.63 10.45 6.54 17.71 10.53 29.03 1.31 3.05 4.65 5.23 5.81-1.16.29-6.68.51-10.23 1.09-20.32.36-7.04.36-7.91.94-18.29 1.09-9.22-4.28-9.15-4.94-5.08-.73 3.7-.15 4.86-.87 6.53-4.91 2.4-7.09 2.44-11.8 4.37z"/>
                    </g>
                  </g>
                </g>
              </g>
            </g>
          </g>
        </g>
      </g>
			<g id="g4233_1_">
        <g id="g4216_1_">
          <g id="g4200_1_">
            <g id="g4185_1_">
              <g id="g4171_1_">
                <g id="g4158_1_">
                  <g id="g4146_1_">
                    <g id="g4135_1_">
                      <g id="g4125_1_">
                        <g id="g4116_1_">
                          <g id="g4108_1_">
                            <g id="g4101_1_">
                              <g id="g4095_1_">
                                <g id="g4090_1_">
                                  <g id="g4086_1_">
                                    <g id="g4083_1_">
                                      <path id="path3973_1_" d="M393.12 369.31c3.41 9.29 5.58 16.01 6.17 17.06.28-1.14.8-9.58.87-11.98.4-5.24.07-1.16.36-7.4-2.46.87-4.49 1.38-7.4 2.32z" class="st1"/>
                                    </g>
                                  </g>
                                </g>
                              </g>
                            </g>
                          </g>
                        </g>
                      </g>
                    </g>
                  </g>
                </g>
              </g>
            </g>
          </g>
        </g>
      </g>
			<linearGradient id="path3914-4_00000024694308599021689570000004429177149073330571_" x1="298.47" x2="391.27" y1="193.22" y2="193.22" gradientUnits="userSpaceOnUse">
        <stop offset="0" stop-color="#0052a0"/>
				<stop offset=".27" stop-color="#0052a0"/>
				<stop offset="1" stop-color="#fff"/>
      </linearGradient>
			<path id="path3914-4_1_" fill="url(#path3914-4_00000024694308599021689570000004429177149073330571_)" d="M303.31 168.83c9.95 11.51 21.44 21.4 27.75 25.63 5.99 4.14 22.42 12.51 30.19 14.52 9.98 2.7 18.72 4.57 27.73 5.95 3.64 1.44 2.56 4.4-.65 4.57-6.18.35-26.54-4.9-33.9-7.4-7.43-2.81-24.26-11.29-30.78-17.2-6.46-4.73-21.28-18.37-24.49-24-2.27-3.34 1.55-5.89 4.15-2.07z"/>
			<path id="path3928-5_1_" fill="#0052a0" d="M181.77 221.34a49.15 49.15 0 0 1-4.84-.7c-3.32-.72-4.44-2.3-2.9-4.09l.68-.79 2.73.37c4.68.64 18.43.74 24.94.18 13.32-1.14 25.8-3.79 33.29-7.09 19.47-8.57 31.56-18.2 45.94-36.62a79.52 79.52 0 0 1 3.87-4.72 1.86 1.86 0 0 1 3.13 1.38c0 1.51-3.89 7.24-8.54 12.62-9.19 10.6-18.55 18.19-31.32 25.39-18.64 10.51-34.32 14.47-56.82 14.36-4.07-.02-8.64-.15-10.16-.29z"/>
    </g>
		<g id="Parallèles_1_" opacity=".38">
      <radialGradient id="Parallèle_derrière_corse_00000177447458980346592220000000625602149527628186_" cx="-40.35" cy="435.26" r="33.73" gradientTransform="matrix(-1 0 0 .2 390.84 285.14)" gradientUnits="userSpaceOnUse">
        <stop offset="0" stop-color="#b1b1b1"/>
				<stop offset=".39" stop-color="#b1b1b1"/>
				<stop offset=".65" stop-color="#b1b1b1"/>
				<stop offset="1" stop-color="#0e1444"/>
      </radialGradient>
			<path id="Parallèle_derrière_corse_1_" fill="url(#Parallèle_derrière_corse_00000177447458980346592220000000625602149527628186_)" d="M434.8 356.04c-3.32-2.35-8.92-3-25.74-2.92-14.67.68-18.6.75-19.39.79-1.19.34-6.98 2.42-4.14 3.25 2.55.05 8.56.31 21.17-.09 8.37-.45 23.5-.04 27.58 4.48.18-.86 2.08-4.18.52-5.51z"/>
			<g id="g3871_1_" transform="translate(78.42 -120.42)">
        <g id="g4076_1_" transform="translate(1.99 19.9)">
          <linearGradient id="path4033_00000153672164895692653260000012946392193380479159_" x1="-138.99" x2="-71.53" y1="501.42" y2="513.11" gradientTransform="matrix(1 0 0 -.8 205.95 814.3)" gradientUnits="userSpaceOnUse">
            <stop offset="0" stop-color="#646565"/>
						<stop offset=".34" stop-color="#8b8c8c"/>
						<stop offset=".9" stop-color="#9c9c9c"/>
						<stop offset="1" stop-color="#0e1444"/>
          </linearGradient>
					<path id="path4033_1_" fill="url(#path4033_00000153672164895692653260000012946392193380479159_)" d="m141.58 406.85-.6-6.98c-9.16 1.44-15.9 2.8-26.15 4.38-3.98.78-50.86 7.77-51.43 8.44.09 1.9.43 4.6.85 5.8 53.89-8.48 77.33-11.64 77.33-11.64z"/>
        </g>
      </g>
			<linearGradient id="path3901_00000028286486783969977320000015527027031659572145_" x1="-68.75" x2="-38.04" y1="432.49" y2="431.37" gradientTransform="matrix(1 0 0 -.8 219.23 586.4)" gradientUnits="userSpaceOnUse">
        <stop offset="0" stop-color="#616060"/>
				<stop offset=".25" stop-color="#616060"/>
				<stop offset=".5" stop-color="#616060"/>
				<stop offset="1" stop-color="#0e1444"/>
      </linearGradient>
			<path id="path3901_1_" fill="url(#path3901_00000028286486783969977320000015527027031659572145_)" d="M179.31 244.17c12.78.09-2.06.25 4.03.17 1.11-1.21 1.51-4.11-3.54-4.51-2.84.17-.33-.37-7.8-.05-6.71-.09-14.02-1.37-19.21-3.58-4.05 6.75 2.22 6.82 4.14 7.17 6.42 1.54 19.53.77 22.38.8z"/>
			<linearGradient id="path3998_00000038384724229454017800000001360476729719607742_" x1="-33.35" x2="-10.17" y1="429.39" y2="429.61" gradientTransform="matrix(1 0 0 -.8 214.3 604.07)" gradientUnits="userSpaceOnUse">
        <stop offset="0" stop-color="#616060"/>
				<stop offset="1" stop-color="#0e1444"/>
      </linearGradient>
			<path id="path3998_1_" fill="url(#path3998_00000038384724229454017800000001360476729719607742_)" d="M176.21 263.37c18.25-.97 22.82-1.02 28.97-2 1.97-.97.35-5-5.12-4.58-8.49.98-32.83 2.1-36.63 1.84-7.18.31-14.21-.81-17.29-1.08-.48 1.76-2 6.01 3.32 6.26 7.97-.07 10.08.15 17.44.03l9.31-.47z"/>
			<g id="g3900_1_" transform="translate(79.3 -127.67)">
        <linearGradient id="path3898_00000039843448129780905220000002813585335349479569_" x1="-97.41" x2="-78.04" y1="524.48" y2="524.88" gradientTransform="matrix(1 0 0 -.8 203.7 818.02)" gradientUnits="userSpaceOnUse">
          <stop offset="0" stop-color="#616060"/>
					<stop offset="1" stop-color="#0e1444"/>
        </linearGradient>
				<path id="path3898_1_" fill="url(#path3898_00000039843448129780905220000002813585335349479569_)" d="M89.37 402.62c11.45-1.04 38.85-4.33 45.24-4.9.71-1.97-.03-4.37-2.25-4.87-5.2.45-41.5 4.68-43.56 4.81-6.37.11-18.64 1.78-26.17-1.26-.23.25-.6 6.29-.46 6.84 1.48 1.44 17.31.28 27.2-.62z"/>
      </g>
			<linearGradient id="path3075_00000158709255360732315910000002402657715785297577_" x1="100.16" x2="51.84" y1="416.51" y2="410.68" gradientTransform="matrix(1 0 0 -1 312.17 704.83)" gradientUnits="userSpaceOnUse">
        <stop offset="0" stop-color="#b1b1b1"/>
				<stop offset=".66" stop-color="#b1b1b1"/>
				<stop offset="1" stop-color="#0e1444"/>
      </linearGradient>
			<path id="path3075_1_" fill="url(#path3075_00000158709255360732315910000002402657715785297577_)" d="M449.24 273.06c-7.72.58-30.02 4.5-38.21 5.53-13.02 1.88-28.51 4.39-46.64 7.32-1.19.18-.6 3.33.47 3.21 12.96-2.33 56.43-8.7 59.3-11.67 7.25-1.35 19.81-2.7 25.08-4.39z" opacity=".86"/>
			<linearGradient id="path3896_00000066498733968217494570000013611252818262840216_" x1="-62.3" x2="-15.52" y1="428.56" y2="431.86" gradientTransform="matrix(1 0 0 -.8 214.3 604.07)" gradientUnits="userSpaceOnUse">
        <stop offset="0" stop-color="#616060"/>
				<stop offset="1" stop-color="#696869"/>
      </linearGradient>
			<path id="path3896_1_" fill="url(#path3896_00000066498733968217494570000013611252818262840216_)" fill-opacity="0" d="M177.36 263.16c13.29-.67 30.75-2.42 36.85-2.5 5.06-1.55 3.22-5.47-4.81-4.88 1.93-.04-42.17 3.11-45.98 2.85-6.71-.09-5.68.26-11.79-.86-21.84 7.59 18.54 6.36 25.73 5.39z"/>
			<linearGradient id="path3930_00000119103247845259158170000018146083931766401460_" x1="131.31" x2="69.27" y1="409.44" y2="403.35" gradientTransform="matrix(1 0 0 -1 299.32 717)" gradientUnits="userSpaceOnUse">
        <stop offset="0" stop-color="#b1b1b1"/>
				<stop offset=".06" stop-color="#b1b1b1"/>
				<stop offset=".13" stop-color="#b1b1b1"/>
				<stop offset=".25" stop-color="#b1b1b1"/>
				<stop offset=".7" stop-color="#b1b1b1"/>
				<stop offset="1" stop-color="#0e1444"/>
      </linearGradient>
			<path id="path3930_1_" fill="url(#path3930_00000119103247845259158170000018146083931766401460_)" d="M450.4 294.64c-4.96.4-20.71 1.05-39.79 3.66-6.12.98-39.48 4.72-44.6 5.97-2.57 2.52-1.87 3.65.26 4.45 6.21-.71 13.53-2.02 26.11-3.47 6.47-.75 52.38-6.58 57.51-4.31 0 0 1.2-1.72.51-6.3z"/>
			<linearGradient id="path3857_00000027563003036412885970000015780812130965442742_" x1="91.93" x2="-46.12" y1="421.89" y2="392.32" gradientTransform="matrix(1.5 0 0 -1.1 284.73 756.18)" gradientUnits="userSpaceOnUse">
        <stop offset="0" stop-color="#4a4f54"/>
				<stop offset="1" stop-color="#b2afc4"/>
      </linearGradient>
			<path id="path3857_1_" fill="url(#path3857_00000027563003036412885970000015780812130965442742_)" d="M255.02 310.81c24.88-4.08 47.97-6.74 74.79-11.45 22.2-3.49 38.86-6.46 63.3-10.19 10.86-1.71 37.79-5.74 56.76-9.97-.54-5.8-.06-6.08-.94-6.11-13.18 1.03-78.67 13.15-86.24 14.32-20.99 2.32-62.22 9.72-71.55 11.14-23.34 3.56-48.66 5.97-82.49 12.51-14.02 2.43-50.03 7.62-63.6 9.92.09 1.2.19 1.8.83 5.75 15.86-2.52 30.65-3.64 40.59-5.48 20.21-2.76 49.93-7.16 68.55-10.44z"/>
			<g id="g3906_1_" transform="translate(82.47 -112.6)">
        <linearGradient id="path3908_00000158733931452830058010000012081893322552964776_" x1="-96.46" x2="-81.2" y1="504.91" y2="504.76" gradientTransform="matrix(1 0 0 -.8 206.55 806.2)" gradientUnits="userSpaceOnUse">
          <stop offset="0" stop-color="#616060"/>
					<stop offset="1" stop-color="#0e1444"/>
        </linearGradient>
				<path id="path3908_1_" fill="url(#path3908_00000158733931452830058010000012081893322552964776_)" d="M91.04 406.57c11.46-1.04 43.83-6.72 44.79-6.7a7.37 7.37 0 0 0-.27-5.9c-5.61.56-47.82 6.63-49.87 6.76-6.08.81-16.07 2.3-26.34 2.12-.15 3.23.14 2.28-.05 6.43 1.47 1.46 21.85-1.81 31.74-2.71z"/>
      </g>
			<g id="g3912_1_" transform="translate(87.67 -102.5)">
        <g id="g3914_1_" transform="translate(1.99 19.9)">
          <linearGradient id="path3916_00000030483018785748129250000000810324926943230127_" x1="-115.47" x2="-97.62" y1="490.07" y2="494.96" gradientTransform="matrix(.9 0 0 -.8 210.56 800.22)" gradientUnits="userSpaceOnUse">
            <stop offset="0" stop-color="#7b7c7c"/>
						<stop offset="1" stop-color="#0e1444"/>
          </linearGradient>
					<path id="path3916_1_" fill="url(#path3916_00000030483018785748129250000000810324926943230127_)" d="M127.16 406.65c.39-.02 1-4.07-.09-4.73-1.39-.13-8.35 1.74-18.59 3.33-3.98.78-45.69 9.2-47.03 10.58-.11 1.08 1.03 5.91 1.43 5.78 21.57-5.64 26.04-7.73 35.88-9.47 0 0 20.17-4.03 23.45-4.57l4.95-.92z"/>
        </g>
      </g>
			<linearGradient id="path3940_00000035511822521192108600000015622066476188602793_" x1="83.42" x2="-77" y1="419.17" y2="385.48" gradientTransform="matrix(1.5 0 0 -1.1 287.09 778.92)" gradientUnits="userSpaceOnUse">
        <stop offset="0" stop-color="#4a4f54"/>
				<stop offset="1" stop-color="#b2afc4"/>
      </linearGradient>
			<path id="path3940_1_" fill="url(#path3940_00000035511822521192108600000015622066476188602793_)" d="M258.59 336.27c24.88-4.08 51.3-7.33 78.12-12.05 18.63-3.14 38.27-6.94 56.04-9.95 15.4-2.56 58.26-10.99 57.13-13.34.64.47 1.05-4.62.51-6.29-9 4.69-56.07 13.56-77.85 16.82a7030.72 7030.72 0 0 1-77.47 12.66c-23.34 3.56-46.82 6.97-80.82 12.34-14.02 1.76-33.37 4.59-63.93 5.55.25 2.04.52 3.32 1.67 5.58a284.9 284.9 0 0 0 39.41-2.62c21.21-1.92 49.41-6.6 67.19-8.7z"/>
			<linearGradient id="path3976-4_00000070823915885977470240000017036928845496289160_" x1="75.35" x2="22.16" y1="419.46" y2="410.63" gradientTransform="matrix(1.5 0 0 -1.1 281.66 715)" gradientUnits="userSpaceOnUse">
        <stop offset="0" stop-color="#4a4f54"/>
				<stop offset="1" stop-color="#b2afc4"/>
      </linearGradient>
			<path id="path3976-4_1_" fill="url(#path3976-4_00000070823915885977470240000017036928845496289160_)" d="M246.09 260.13c24.9-4.23 46.64-7.72 73.33-11.37 24.38-3.75 39.71-5.45 60.52-8.25 9.17-.8 49.5-6.16 59.94-3.49-.75-3.53-2.48-5.93-3.15-6.2-.95-.78-9.41-.75-9.41-.75l-12.11.52s-10.44.59-17.14 1.48c-6.45.27-13.96 1.49-23.81 3.09-20.23 2.24-78.53 10.44-87.86 11.86-23.51 3.89-60.96 9.97-87.62 15.14-13.92 2.19-43.28 9.07-55.63 14.26-.16.39-.42 4.44-.4 6.59.61-.55 25.11-9.73 37.49-10.63 14.18-3.44 47.23-8.99 65.85-12.25z"/>
			<linearGradient id="path4087_00000054954166214954808290000016049669847506847874_" x1="90.14" x2="23.82" y1="419.91" y2="407.72" gradientTransform="matrix(1.5 0 0 -1.1 282.07 733.85)" gradientUnits="userSpaceOnUse">
        <stop offset="0" stop-color="#4a4f54"/>
				<stop offset="1" stop-color="#b2afc4"/>
      </linearGradient>
			<path id="path4087_1_" fill="url(#path4087_00000054954166214954808290000016049669847506847874_)" d="M251.93 284.88c24.9-4.23 48.1-7.79 74.79-11.45 22.2-3.49 40.13-5.79 64.56-9.51 9.32-.82 32.61-5.72 54.64-6.77-1.05-7.06-1.85-5.07-11.52-5.02-12.57.94-38.94 5.3-77.2 9.98-20.99 2.32-59.82 9.1-69.15 10.51a5173.77 5173.77 0 0 0-83.35 13.61c-14.07 2.51-50.24 8.61-61.72 11.89.06 3.25.08 3.84-.03 6.43 20.32-3.68 27.53-5.38 40.26-8.07 19.77-3.69 50.09-8.34 68.72-11.6z"/>
			<linearGradient id="path3954_00000103248265246559149700000017443095668169892792_" x1="139.79" x2="71.42" y1="405.39" y2="401.53" gradientTransform="matrix(1 0 0 -1 302.01 731.76)" gradientUnits="userSpaceOnUse">
        <stop offset="0" stop-color="#b1b1b1"/>
				<stop offset=".25" stop-color="#b1b1b1"/>
				<stop offset=".67" stop-color="#b1b1b1"/>
				<stop offset="1" stop-color="#0e1444"/>
      </linearGradient>
			<path id="path3954_1_" fill="url(#path3954_00000103248265246559149700000017443095668169892792_)" d="M447.93 316.2c-.97-1.02-17.12-1.46-36.29.58-16.68 1.37-34.61 3.8-40.04 4.96-1.64 1.46-2.01 3.76.74 3.95 6.59-1.46 25.68-3.67 37.7-4.48 7.96-.41 32.96-2.83 37.55.24.17-.84.77-4.49.34-5.25z"/>
			<linearGradient id="path3870_00000085246906600632742310000014570599263340539562_" x1="86.73" x2="35.7" y1="432.18" y2="430.42" gradientTransform="matrix(1 0 0 -1 259.56 604.4)" gradientUnits="userSpaceOnUse">
        <stop offset="0" stop-color="#4a4f54"/>
				<stop offset="1" stop-color="#b2afc4"/>
      </linearGradient>
			<path id="path3870_1_" fill="url(#path3870_00000085246906600632742310000014570599263340539562_)" d="M246.07 163.62c12.32-2.64 43.04-7.06 46.72-7.56 3.68-.5 26.58-3.83 49.68-3.12 3.17 0 19.3 1.32 20.65 1.84 2.72 1.05 2.98.7-.9-1.05-4.56-1.83-17.08-2.77-26.3-3.14-13.23-.43-38.81 2.09-44.11 2.99-5.12.87-19.64 3.16-28.09 4.43a427.45 427.45 0 0 0-38.48 8.25 216.78 216.78 0 0 0-24.94 8.42c-1.8.75-8.02 3.54-12.62 8.48 6.17-3.71 7.34-4.29 11.66-6.02a384.08 384.08 0 0 1 23.05-7.82 382.42 382.42 0 0 1 23.68-5.7z"/>
			<path id="path2994_1_" fill="#616060" d="M186.01 189.02c1.08 3.13 17.4 4.54 22.38 4.78 11.8.58 15.12.95 39.44-1.31 7.37-.69 12.85-1.71 14.22-2.26 1.25-.49 1.13-2.29-1.05-3.49-.84-.46-7.5 2.4-23.01 3.1-3.15.21-28.73.89-35.35-.22-3.07-.51-9.51-1.15-12.23-3.37-1.75-1.43-.63-4.33-.63-4.33-2.07.8-5.08 3.31-3.77 7.1z"/>
			<linearGradient id="path3764_00000049919970274463263510000002882321240630481814_" x1="139.35" x2="82.36" y1="444.49" y2="426.34" gradientTransform="matrix(.6 0 0 -1 275.52 579.84)" gradientUnits="userSpaceOnUse">
        <stop offset="0" stop-color="#616060"/>
				<stop offset=".69" stop-color="#696969"/>
				<stop offset="1" stop-color="#0e1444"/>
      </linearGradient>
			<path id="path3764_1_" fill="url(#path3764_00000049919970274463263510000002882321240630481814_)" d="M365.33 155.29c1.3 4.1-1.59 7.1-7.46 10.91-9.95 5.39-11.21 6.52-37.23 14.54-1.59.85-1.07 2.85.69 2.74 5.46-.88 25.77-8.03 28.61-9.89 5.25-2.61 18.01-9.03 18.34-13.26.29-3.64-2.94-5.04-2.95-5.04z"/>
			<path id="path3808_1_" fill="#616060" fill-opacity="0" d="M186.17 189.13c.99 3.17 17.24 4.43 22.23 4.67 11.8.58 29.35-.5 53.67-2.76 7.37-.69 15.89-2.15 17.27-2.69 1.25-.49 2.58-3.74-1.35-2.77-.93.23-24.48 3.57-39.99 4.26-3.15.21-25.79.95-34.11.07-4.12-.43-11.61-1.68-13.6-4.04-1.06-1.24-.47-4.64-.47-4.64-2.5 2.3-4.91 3.87-3.65 7.9z"/>
			<linearGradient id="path3810_00000033351954633856636410000017262930524267246981_" x1="-59.9" x2="-5.15" y1="438.7" y2="437.24" gradientTransform="matrix(1 0 0 -.8 235.7 554.73)" gradientUnits="userSpaceOnUse">
        <stop offset="0" stop-color="#616060"/>
				<stop offset=".25" stop-color="#616060"/>
				<stop offset=".74" stop-color="#616060"/>
				<stop offset="1" stop-color="#0e1444"/>
      </linearGradient>
			<path id="path3810_1_" fill="url(#path3810_00000033351954633856636410000017262930524267246981_)" d="M175.53 206.74c4.88 2.25 14.24 2.38 18.72 2.55 12.41.46 16.27 1.73 37.96.68 13.79-6.39-4.08-4.64-12.1-4.32-2.84.17-28.8-.27-34.74-1.21-2.73-.43-7.5-1.69-9.33-3.54-.96-.97-.46-3.56-.46-3.56-5.54 4.84-4.36 8.13-.05 9.4z"/>
			<linearGradient id="path3796_00000157269944620613780280000005672430513682795147_" x1="79.78" x2="19.88" y1="413.81" y2="409.95" gradientTransform="matrix(1.2 0 0 -1.2 266.88 675.74)" gradientUnits="userSpaceOnUse">
        <stop offset="0" stop-color="#4a4f54"/>
				<stop offset="1" stop-color="#b2afc4"/>
      </linearGradient>
			<path id="path3796_1_" fill="url(#path3796_00000157269944620613780280000005672430513682795147_)" d="M242.54 177.03c15.64-3.26 48.98-8.22 55.78-8.84 6.79-.62 29.98-3.65 58.78-4.5 3.78 0 16.01.27 28.39 3.25-4.3-2.49-5.63-3.71-10.88-4.54-5.28-.69-13.09-.91-18.5-1.14-15.95-.84-52.91 2.76-59.17 3.72-5.84.66-23.68 3.24-33.77 4.75-10.09 1.51-32.02 6.04-45.89 9.82-13.87 3.78-28.62 9.37-33.59 11.57-5.47 2.67-7.69 4.87-10.06 8.35 3.81-2.05 7.77-4.88 12.53-6.67 5.14-2.21 21.92-7.33 27.72-8.97 5.8-1.64 13.03-3.54 28.66-6.8z"/>
			<linearGradient id="path3871_00000110433783091874611520000010342394525595917244_" x1="121.35" x2="68.67" y1="433.38" y2="415.56" gradientTransform="matrix(.9 0 0 -1 297.37 625.02)" gradientUnits="userSpaceOnUse">
        <stop offset="0" stop-color="#6b6b6b"/>
				<stop offset=".71" stop-color="#989898"/>
				<stop offset="1" stop-color="#0e1444"/>
      </linearGradient>
			<path id="path3871_1_" fill="url(#path3871_00000110433783091874611520000010342394525595917244_)" d="M400.84 179.22c.3 4.08-4.12 6.88-9.68 9.68-6.05 3.04-18.82 7.74-36.97 13.24-2.13.92-2.26 5.42 3.43 3.44 8.08-1.91 19.67-6.46 27.86-9.36 11.21-4.79 15.45-6.88 18.11-10.29 2.04-2.52-2.35-6.23-2.75-6.71z"/>
			<linearGradient id="path3833_00000026859021800503736930000006543878700449328299_" x1="115.59" x2="61.49" y1="435.15" y2="418.12" gradientTransform="matrix(.9 0 0 -1 281.43 610.2)" gradientUnits="userSpaceOnUse">
        <stop offset="0" stop-color="#636262"/>
				<stop offset=".71" stop-color="#757575"/>
				<stop offset="1" stop-color="#0e1444"/>
      </linearGradient>
			<path id="path3833_1_" fill="url(#path3833_00000026859021800503736930000006543878700449328299_)" d="M383.67 165.78c4.89 5.49-12.48 12.97-12.57 12.86-2.51 1.26-20.91 8.46-39.14 12.92-2.18.91-.58 3.23 1.84 3.11 8.26-1.89 23.26-6.76 29.18-8.44 11.55-4.67 22.88-8.62 24.93-13.94 1.39-3.61-3.63-5.97-4.24-6.51z"/>
			<linearGradient id="path3988_00000066478899711263133280000010030438455871456411_" x1="106.02" x2="81.42" y1="429.72" y2="422.6" gradientTransform="matrix(1 0 0 -1 304.44 639.33)" gradientUnits="userSpaceOnUse">
        <stop offset="0" stop-color="#838383"/>
				<stop offset=".46" stop-color="#939393"/>
				<stop offset="1" stop-color="#0e1444"/>
      </linearGradient>
			<path id="path3988_1_" fill="url(#path3988_00000066478899711263133280000010030438455871456411_)" d="M416.03 195.49c-2.37 2.66-5.13 4.45-9.01 6.08-5.66 2.03-15.11 5.82-27.49 9.04-.59 2.19 2.72 1.83 5.37 3.31 9.76-2.6 20.46-6.26 28.53-9.72 3.95-2.09 4.65-3.35 4.93-4.33-.05-1.42-.83-2.45-2.33-4.38z" opacity=".57"/>
			<linearGradient id="path3891_00000092420008571485272690000008135183519610679943_" x1="107.15" x2="76.65" y1="428.32" y2="420.85" gradientTransform="matrix(1 0 0 -1 312.89 655.3)" gradientUnits="userSpaceOnUse">
        <stop offset="0" stop-color="#949494"/>
				<stop offset=".47" stop-color="#a3a3a3"/>
				<stop offset="1" stop-color="#0e1444"/>
      </linearGradient>
			<path id="path3891_1_" fill="url(#path3891_00000092420008571485272690000008135183519610679943_)" d="M427.5 212.21c-2.41 2.12-5.32 4.86-10.73 6.75-5.66 2.03-11.94 3.46-21.04 6.09-5.68 1.32-4.13 5.77-2.18 5.43 10.59-1.87 17.43-4.42 27.05-7.35a67.37 67.37 0 0 0 6.98-2.62c3.22-1.42 4.23-2.24-.08-8.3z"/>
			<linearGradient id="path3972_00000152963635690844355250000010061309732462566332_" x1="79.07" x2="17.84" y1="421.04" y2="411.94" gradientTransform="matrix(1.5 0 0 -1.1 283.12 694.6)" gradientUnits="userSpaceOnUse">
        <stop offset="0" stop-color="#4a4f54"/>
				<stop offset="1" stop-color="#b2afc4"/>
      </linearGradient>
			<path id="path3972_1_" fill="url(#path3972_00000152963635690844355250000010061309732462566332_)" d="M241.88 236.14c24.9-4.23 57.69-10.31 74.04-12.3 8.44-.89 41.97-5.16 62.68-7.12 2.28.01 13.47-1.04 25.25-1.6 5.89-.28 11.8-.23 16.59-.08 4.5.14 8.53 1 9.89 2.37-2.47-5.45-2.87-6.91-10.66-7.63-5.85-.46-13.85-.03-19.09.01-11.4-.01-33.21 2.93-72.19 6.9-20.23 2.24-52.56 8.11-61.89 9.52-21.88 3.73-41.41 6.81-64.93 11.91-1.6.61-18.5 4.02-33.56 8.36-14.5 4.97-21.07 4.58-22.33 12.87 4.81-2.4 23.89-8.28 35.3-10.84 22.65-5.5 42-9.1 60.9-12.37z"/>
			<linearGradient id="path3881_00000027591162859092697880000002619307779104146328_" x1="-91.95" x2="-84.46" y1="376.13" y2="374.03" gradientTransform="matrix(1 0 0 -1 259.56 604.4)" gradientUnits="userSpaceOnUse">
        <stop offset="0" stop-color="#616060"/>
				<stop offset="1" stop-color="#0e1444"/>
      </linearGradient>
			<path id="path3881_1_" fill="url(#path3881_00000027591162859092697880000002619307779104146328_)" d="M165.72 224.57c8.31 1.53 6.77-3.56 6.73-4.07-2.73-.43-6.12-.48-8.54-2.47-.99-.86-1.28-1.66-1.28-1.66-4.58 5.32-1.32 7.13 3.09 8.2z"/>
			<linearGradient id="path3843_00000089570899480698091240000008317157149172094105_" x1="74.62" x2="14.72" y1="411.31" y2="407.45" gradientTransform="matrix(1.4 0 0 -1.2 275.57 688.15)" gradientUnits="userSpaceOnUse">
        <stop offset="0" stop-color="#4a4f54"/>
				<stop offset="1" stop-color="#b2afc4"/>
      </linearGradient>
			<path id="path3843_1_" fill="url(#path3843_00000089570899480698091240000008317157149172094105_)" d="M242.67 193.48c18.08-3.59 55.12-8.69 62.72-9.65 7.61-.96 32.57-4.92 64.27-5.77 4.14 0 25.77-.35 33.51 3.68-3.75-4.09-5.57-4.44-5.7-4.52-5.29-2.82-23.42-2.42-27.45-2.4-9.42-1.04-49.72 2.44-57.69 3.64-6.65.66-36.25 5.62-47.74 7.13-11.49 1.51-31.44 5.57-47.27 9.21-15.03 3.45-22.76 6.18-31.89 8.94-1.33.2-6.7 1.93-11.96 4.41-2.63 1.24-5.54 2.63-7.61 4.14-2.07 1.51-3.33 3.65-4.33 5.56 3.58-2.72 13.14-6.89 19.7-8.78 5.92-2.07 20.76-6.27 27.36-7.91 6.61-1.63 16-4.09 34.08-7.68z"/>
			<linearGradient id="path4043_00000098186815670310052260000011177017895851553939_" x1="125.22" x2="78.15" y1="427.41" y2="417.79" gradientTransform="matrix(1 0 0 -1 304.73 673.67)" gradientUnits="userSpaceOnUse">
        <stop offset="0" stop-color="#a9a9a9"/>
				<stop offset=".25" stop-color="#ababab"/>
				<stop offset=".56" stop-color="#adadad"/>
				<stop offset="1" stop-color="#0e1444"/>
      </linearGradient>
			<path id="path4043_1_" fill="url(#path4043_00000098186815670310052260000011177017895851553939_)" d="M426.48 235.99c-3.34 1.11-11.51 3.75-18.34 4.97-5.83 1.44-6.73 1.51-16.05 3.71-8.74 1.94-10.7 6.62-3.5 5.21 11.77-2.02 33.75-6.94 42.37-9.14 5-1.66 19.54-5.29-4.48-4.75z"/>
			<linearGradient id="path4072_00000096763678256855204700000002537903790613026215_" x1="100.09" x2="59.81" y1="419.39" y2="415.96" gradientTransform="matrix(1 0 0 -1 309.85 691.5)" gradientUnits="userSpaceOnUse">
        <stop offset="0" stop-color="#a9a9a9"/>
				<stop offset=".59" stop-color="#adadad"/>
				<stop offset="1" stop-color="#0e1444"/>
      </linearGradient>
			<path id="path4072_1_" fill="url(#path4072_00000096763678256855204700000002537903790613026215_)" d="M445.79 257.31c-7.74-.08-28.44 2.65-36.59 3.87-8.33 1.2-24.72 2.99-36.68 5.38-5.92 1.06-4.38 5.8 2.82 4.39 11.77-2.02 42.69-7.42 50.63-8.82 6.64-1.27 16.6-3.21 19.82-4.82z"/>
			<g id="g3958_1_" transform="translate(87.44 -86.31)">
        <g id="g3960_1_" transform="translate(1.99 19.9)">
          <linearGradient id="path3962-5_00000180330001129715621480000000552617582180879295_" x1="-139.06" x2="-103.65" y1="462.57" y2="472.9" gradientTransform="matrix(.8 0 0 -.8 195.11 787.5)" gradientUnits="userSpaceOnUse">
            <stop offset="0" stop-color="#616060"/>
						<stop offset=".58" stop-color="#8b8c8c"/>
						<stop offset="1" stop-color="#0e1444"/>
          </linearGradient>
					<path id="path3962-5_1_" fill="url(#path3962-5_00000180330001129715621480000000552617582180879295_)" d="M108.58 411.24c1.02-1.59 1.21-4.11-.31-4.56-7.2 1.56-36.51 9.12-39.96 12.79-.1 1.08 1.14 3.27 1.94 4.04 6.6-3 12.89-5.18 21.69-7.99 7.64-2.52 11.5-3.14 16.64-4.28z"/>
        </g>
      </g>
			<linearGradient id="path3973-2_00000149376682091452709950000009616128833134514356_" x1="93.51" x2="-80.39" y1="417.91" y2="380.59" gradientTransform="matrix(1.5 0 0 -1.1 296.1 796.34)" gradientUnits="userSpaceOnUse">
        <stop offset="0" stop-color="#4a4f54"/>
				<stop offset="1" stop-color="#b2afc4"/>
      </linearGradient>
			<path id="path3973-2_1_" fill="url(#path3973-2_00000149376682091452709950000009616128833134514356_)" d="M269.06 359.71c26.44-4.12 52.25-8.22 78.48-12.88 21.13-3.97 36.72-7.05 54.49-10.54 14.6-3.11 38.4-8.32 45.35-14.29a5.97 5.97 0 0 0 .51-6.05c-5.36 7.71-60.17 17.41-65.24 18.85-20.39 3.52-63.17 11.25-72.5 12.66-23.34 3.56-36.95 6.69-71.18 10.33-16.43 1.75-64.72 8.84-79.98 3.89.25 2.04 2.57 5.84 3.7 6.25 6.99 1.8 40.51-.71 40.51-.71.49.68 52-5.52 65.86-7.51z"/>
			<linearGradient id="path3943_00000114753561002684099940000015489426342419359930_" x1="156.6" x2="87.6" y1="403.37" y2="402.05" gradientTransform="matrix(.8 0 0 -1 316.06 751.82)" gradientUnits="userSpaceOnUse">
        <stop offset="0" stop-color="#b1b1b1"/>
				<stop offset=".13" stop-color="#b1b1b1"/>
				<stop offset=".25" stop-color="#b1b1b1"/>
				<stop offset=".76" stop-color="#b1b1b1"/>
				<stop offset="1" stop-color="#0e1444"/>
      </linearGradient>
			<path id="path3943_1_" fill="url(#path3943_00000114753561002684099940000015489426342419359930_)" d="M442.59 338.45c-2.18-2.46-8.8-2.48-21.99-1.99-13.57 1.38-18.32 1.48-34.61 3.3-2.5.95-2.09 3.6-.27 4.55 5.4-1.53 25.13-3.13 34.92-3.53 6.48-.41 17.52-.69 21.26 2.39.14-.84 1.04-3.54.69-4.72z"/>
			<g id="g3961_1_" transform="translate(109.85 -58.69)">
        <g id="g3963_1_" transform="translate(1.99 19.9)">
          <linearGradient id="path3965_00000155115399705789251660000014062588317561067945_" x1="-210.33" x2="-144.61" y1="324.15" y2="345.65" gradientTransform="matrix(1 0 0 -1 288.7 756.5)" gradientUnits="userSpaceOnUse">
            <stop offset="0" stop-color="#727272"/>
						<stop offset=".33" stop-color="#919191"/>
						<stop offset=".71" stop-color="#b3b2b2"/>
						<stop offset="1" stop-color="#0e1444"/>
          </linearGradient>
					<path id="path3965_1_" fill="url(#path3965_00000155115399705789251660000014062588317561067945_)" d="M135.76 408.63c1.49-1.14-1.41-3.75-3.79-3.22-5.75 1.32-16.52 3.45-27.68 6.87-20.99 5.08-33.99 11.5-33.47 14.79.49 1.4 1.95 2.76 2.9 3.7 1.79-5.92 19.56-11.19 25.04-12.73 4.2-1.57 25.33-6.84 37-9.41z"/>
        </g>
      </g>
			<g id="g3928_1_" opacity=".89" transform="translate(97.68 -71.15)">
        <g id="g3930_1_" transform="translate(1.99 19.9)">
          <linearGradient id="path3932_00000010305488230873146120000004760085180701381761_" x1="-200.08" x2="-160.82" y1="340.35" y2="351.8" gradientTransform="matrix(1 0 0 -1 276.53 768.95)" gradientUnits="userSpaceOnUse">
            <stop offset="0" stop-color="#616060"/>
						<stop offset=".58" stop-color="#9f9fa0"/>
						<stop offset="1" stop-color="#0e1444"/>
          </linearGradient>
					<path id="path3932_1_" fill="url(#path3932_00000010305488230873146120000004760085180701381761_)" d="M112.02 412.03s-4.86-3.27-13.56-1.45c-7.38 1.49-25.87 5.36-29.34 12.24.14.93 1.54 2.99 2.49 3.93 2.99-4.58 21.06-9.74 25.22-10.69 3.24-.94 11.46-3.02 15.19-4.03z"/>
        </g>
      </g>
			<linearGradient id="path3947_00000124857637223193984910000000868425506061933721_" x1="76.61" x2="-69.44" y1="408.21" y2="377.14" gradientTransform="matrix(1.5 0 0 -1.1 305.97 830.03)" gradientUnits="userSpaceOnUse">
        <stop offset="0" stop-color="#4a4f54"/>
				<stop offset="1" stop-color="#b2afc4"/>
      </linearGradient>
			<path id="path3947_1_" fill="url(#path3947_00000124857637223193984910000000868425506061933721_)" d="M282.28 399.55a887.1 887.1 0 0 0 76.84-12.75c21.01-4.16 50.64-12.38 50.96-12.77 6.4-2.25 10.3-2.82 20.03-8.11 1.16-.63 4.53-4.05 4.71-6.34-9.23 7-34.95 13.4-40.21 14.89-19.23 5.31-61.61 13.55-73.55 15.15-23.32 3.69-58.39 8.49-64.51 8.81-8.06.63-56.38 5.84-70.24 1.12.55 2.12 5.06 3.8 6.18 4.31 6.74 1.43 15.01 1.43 22.17 1.4 33.77-.95 53.94-4.05 67.62-5.71z"/>
			<linearGradient id="path3137_00000103233786340179694510000004217876632038276027_" x1="94.62" x2="-79.28" y1="414.61" y2="377.3" gradientTransform="matrix(1.5 0 0 -1.1 304.94 813.43)" gradientUnits="userSpaceOnUse">
        <stop offset="0" stop-color="#4a4f54"/>
				<stop offset="1" stop-color="#b2afc4"/>
      </linearGradient>
			<path id="path3137_1_" fill="url(#path3137_00000103233786340179694510000004217876632038276027_)" d="M281.05 379.86c25.77-2.97 50.46-7.55 76.97-12.67 21.13-3.97 54.41-12.39 54.41-12.39-.21-.1 16.19-3.56 28.1-10.3 1.15-.65 2.51-3.42 2.23-5.38-9.15 6.57-43.9 14.45-49.29 15.56-20.3 4.18-63.29 12.98-73.21 14.43-23.3 3.52-32.25 4.85-68.38 9.4-14.36 1.74-47.94 7.02-79.96 4.15.55 2.12 3.21 3.72 4.33 4.22 13.95 1.83 24.75 1.13 37.32.44 42.84-3.41 53.74-5.73 67.48-7.46z"/>
			<linearGradient id="path3866_00000106826730917214663800000014476903945534244246_" x1="73.28" x2="22.54" y1="418.69" y2="413.46" gradientTransform="matrix(1.5 0 0 -1.1 283.12 676.77)" gradientUnits="userSpaceOnUse">
        <stop offset="0" stop-color="#4a4f54"/>
				<stop offset="1" stop-color="#b2afc4"/>
      </linearGradient>
			<path id="path3866_1_" fill="url(#path3866_00000106826730917214663800000014476903945534244246_)" d="M241.13 213.63c24.49-5.61 62.92-9.82 71.84-11.73 8.44-.89 48.94-6.37 70.39-6.43 2.28.01 8.14-.32 14.69-.28s13.65.27 19.4 2.24a10.1 10.1 0 0 0-4.94-4.68c-2.14-.86-5.5-1.16-8.99-1.57-4.36-.27-14.15-.07-20.16.1-11.4-.01-39.01 2.17-64.24 5.08-27.93 3.93-36.07 4.87-53.2 7.48-12.58 1.92-39.8 7.65-51.52 10.36-16.66 3.85-20.91 5.48-30.82 7.6-1.57.52-9.44 2.39-16.86 5.22-3.71 1.42-8.28 3.42-10.92 5.27-2.64 1.85-3.59 5.49-3.59 5.49s12.39-6.88 28.2-10.6c22.26-5.8 41.82-10.28 60.72-13.55z"/>
    </g>
		<g id="layer8_1_">
      <linearGradient id="Patch_masquage_parallèle_corse_00000153674069388615324370000011584261562412705691_" x1="391.79" x2="405.99" y1="352.37" y2="357.29" gradientUnits="userSpaceOnUse">
        <stop offset="0" stop-color="#fff"/>
				<stop offset="1" stop-color="#dd0028"/>
      </linearGradient>
			<path id="Patch_masquage_parallèle_corse_1_" fill="url(#Patch_masquage_parallèle_corse_00000153674069388615324370000011584261562412705691_)" d="M404.89 358.05c1.61-.12 1.57.28 1.52-1.76l-3.61.88c.72.25 2.09.88 2.09.88z"/>
    </g>
		<path fill="#003878" d="M73.99 182.22a4.76 4.76 0 0 1 2.91-2.43c1.31-.42 2.57-.31 3.78.33s2.03 1.6 2.44 2.91a4.73 4.73 0 0 1-.33 3.79 4.8 4.8 0 0 1-2.92 2.44c-1.31.41-2.58.3-3.79-.33a4.91 4.91 0 0 1-2.09-6.71zm30.28-27.06-16.73-13.49 6.95-8.61a15.83 15.83 0 0 1 3.37-3.33c.95-.62 2.01-.9 3.17-.82 1.16.08 2.27.55 3.34 1.41a5.92 5.92 0 0 1 1.92 2.53 6 6 0 0 1 .32 2.95 8.15 8.15 0 0 1-.8 2.35c.7-.45 1.27-.73 1.7-.85.29-.08.81-.12 1.55-.12s1.28.04 1.62.11l6.87 1.41-4.71 5.84-7.34-1.36a4.93 4.93 0 0 0-2.04-.1c-.56.16-1.03.48-1.41.95l-.37.46 6.79 5.48-4.2 5.19zm-5.77-13.22 1.76-2.18c.19-.24.48-.75.88-1.55.21-.4.26-.82.15-1.26a2.02 2.02 0 0 0-.71-1.11c-.54-.43-1.09-.6-1.66-.49-.56.11-1.23.64-1.99 1.58l-1.83 2.27 3.4 2.74zm6.23-20.9 12.5-12.68 3.27 3.22-7.82 7.93 2.43 2.4 7.26-7.36 3.12 3.08-7.26 7.36 3.02 2.97 8.05-8.16 3.47 3.42-12.72 12.9-15.32-15.08zm1.92-10.05 3.6-3.65-.2 6.45-2.01 2.04-1.39-4.84zm16.13-7.7 8.47-7.08c1.85-1.54 3.59-2.26 5.25-2.15 1.65.11 3.16.97 4.51 2.6 1.39 1.67 1.98 3.38 1.76 5.16-.22 1.77-1.35 3.52-3.41 5.24l-2.79 2.33 5.11 6.12-5.12 4.28-13.78-16.5zm10.99 2.75 1.25-1.04c.98-.82 1.53-1.57 1.64-2.24a2.14 2.14 0 0 0-.5-1.81 2.36 2.36 0 0 0-1.62-.88c-.65-.07-1.44.29-2.4 1.09l-1.45 1.21 3.08 3.67zm20.33-26.61 5.5-3.7 7.15 10.62a10.67 10.67 0 0 1 1.51 3.32c.3 1.16.34 2.32.11 3.49a7.42 7.42 0 0 1-1.21 2.96 13.44 13.44 0 0 1-3.45 3.19c-.87.58-1.85 1.16-2.96 1.73a8.9 8.9 0 0 1-3.06 1.01c-.93.1-1.91.02-2.92-.26a6.76 6.76 0 0 1-2.56-1.27c-1.1-.9-1.95-1.79-2.54-2.67l-7.15-10.62 5.5-3.7 7.32 10.87a3.73 3.73 0 0 0 2.34 1.73c.91.18 1.84-.05 2.8-.69a3.66 3.66 0 0 0 1.69-2.31c.18-.9-.07-1.85-.73-2.83l-7.34-10.87zm12.73-7.97 11-5.79c1.83-.97 3.48-1.25 4.94-.86a5 5 0 0 1 3.25 2.6 4.8 4.8 0 0 1 .47 3.45 5.19 5.19 0 0 1-1.38 2.35 6.04 6.04 0 0 1 3.91.1 5.27 5.27 0 0 1 2.56 2.51 5.8 5.8 0 0 1-.19 5.88 7.23 7.23 0 0 1-1.9 1.8 29.93 29.93 0 0 1-2.5 1.65l-10.14 5.34-10.02-19.03zm9.85 4.34 2.56-1.35c.92-.48 1.47-.98 1.66-1.48s.13-1.06-.18-1.65c-.29-.55-.7-.89-1.22-1.01s-1.23.05-2.12.52l-2.59 1.37 1.89 3.6zm3.94 7.47 3-1.58c1.01-.53 1.63-1.09 1.86-1.67.22-.58.18-1.17-.14-1.78a1.9 1.9 0 0 0-1.33-1.03c-.59-.12-1.4.08-2.43.62l-2.98 1.57 2.02 3.87zm10.16-23.9 6.15-2.51 6.13 15 9.6-3.92 2 4.9-15.74 6.43-8.14-19.9zM212.42 51l6.33-2.06 6.67 20.43-6.33 2.07L212.42 51zm36.73 8.96c.94.37 1.55.6 1.83.68.42.12.98.25 1.67.37l-.94 4.05a20.05 20.05 0 0 1-3.05-.93c-1.03-.39-1.75-.7-2.18-.92-1.28.96-3 1.69-5.14 2.2-3.18.75-5.88.52-8.11-.7-2.63-1.45-4.37-3.94-5.21-7.49-.82-3.44-.5-6.34.95-8.7 1.45-2.36 3.87-3.94 7.28-4.74 3.47-.82 6.37-.52 8.7.89 2.33 1.42 3.9 3.86 4.73 7.33.73 3.09.56 5.75-.53 7.96zm-5.73-2.14c.3-1.04.23-2.48-.21-4.32-.5-2.11-1.25-3.53-2.25-4.24a4.2 4.2 0 0 0-3.57-.59 4.05 4.05 0 0 0-2.8 2.12c-.58 1.11-.64 2.65-.18 4.61.54 2.28 1.31 3.79 2.31 4.53 1 .74 2.18.95 3.54.62.44-.1.84-.24 1.21-.42a8.18 8.18 0 0 0-2.92-.87l.46-2.57a5.59 5.59 0 0 1 1.43.07c.35.08 1.07.33 2.14.76l.84.3zm25.14-19.23 6.58-.8 1.54 12.71c.15 1.26.1 2.48-.15 3.64a7.74 7.74 0 0 1-1.49 3.16 7.47 7.47 0 0 1-2.43 2.09 13.2 13.2 0 0 1-4.53 1.27c-1.04.13-2.18.19-3.43.19a9.05 9.05 0 0 1-3.18-.49 7.74 7.74 0 0 1-2.49-1.56 6.66 6.66 0 0 1-1.7-2.29 13.1 13.1 0 0 1-1.05-3.53l-1.54-12.71 6.58-.8 1.58 13.01a3.74 3.74 0 0 0 1.3 2.61 3.6 3.6 0 0 0 2.8.65 3.62 3.62 0 0 0 2.55-1.29c.57-.72.78-1.68.63-2.86l-1.57-13zm14.73-1.28 17.8-.32.08 4.59-11.14.2.06 3.41 10.33-.18.08 4.38-10.33.18.07 4.24 11.46-.2.09 4.87-18.12.32-.38-21.49zm37.22.77 16.3 1.97-.55 4.58-9.68-1.17-.45 3.73 8.27 1-.52 4.31-8.27-1-1.05 8.72-6.62-.8 2.57-21.34zm18.8 24.13 4.63-20.99 10.81 2.38c2 .44 3.5.95 4.48 1.53s1.7 1.4 2.14 2.48c.44 1.07.52 2.28.22 3.61a5.99 5.99 0 0 1-1.41 2.85 5.95 5.95 0 0 1-2.5 1.6c-.62.21-1.45.32-2.46.33.71.43 1.22.81 1.52 1.15.2.22.46.67.79 1.33s.54 1.16.62 1.5l1.8 6.77-7.33-1.62-2.05-7.18a5.1 5.1 0 0 0-.82-1.88c-.4-.43-.89-.71-1.48-.84l-.58-.13-1.88 8.52-6.5-1.41zm9.27-11.05 2.73.6c.3.07.89.1 1.78.09.45.01.85-.13 1.2-.43.35-.29.58-.67.67-1.13.15-.68.05-1.25-.3-1.7-.35-.46-1.12-.82-2.3-1.08l-2.85-.63-.93 4.28zm28.53 17.5-7.15-2.38-2.12 3.03-6.43-2.14 14.46-17.84 6.87 2.29.87 22.94-6.6-2.2.1-3.7zm.16-4.85.19-8.08-4.67 6.59 4.48 1.49zm18.77-7.32 5.64 2.59 2.4 14.18 4.95-10.81 5.69 2.61-8.96 19.54-5.69-2.61-2.4-14.08-4.92 10.73-5.68-2.6 8.97-19.55zm19.13 36.22 1.27-1.26c.9.28 1.7.62 2.39 1.03 1.44.86 2.28 1.69 2.54 2.5a2.6 2.6 0 0 1-1.32 3.24c-.5.28-1.15.36-1.95.24a8.03 8.03 0 0 1-2.77-1.13 23.54 23.54 0 0 1-3.18-2.34l.93-1.55c.77.69 1.65 1.33 2.63 1.91.72.43 1.27.63 1.64.59.37-.04.65-.22.83-.53a.9.9 0 0 0 .06-.82c-.1-.3-.38-.58-.82-.85-.62-.35-1.36-.69-2.25-1.03zm12.74-5.48 4.1 4.49a10.6 10.6 0 0 1-3.68 2.56 8 8 0 0 1-3.96.52 11.69 11.69 0 0 1-4.52-1.72c-2-1.2-3.47-2.47-4.39-3.81a9.12 9.12 0 0 1-1.46-5.04c-.05-2.02.61-4.17 1.98-6.46 1.83-3.05 4.04-4.92 6.64-5.58 2.6-.67 5.39-.12 8.36 1.65 2.32 1.39 3.87 2.95 4.64 4.68.77 1.73.9 3.77.38 6.1l-5.7-1.88c.16-.67.22-1.19.18-1.56a3.9 3.9 0 0 0-.57-1.71 3.93 3.93 0 0 0-1.34-1.28 3.92 3.92 0 0 0-3.9-.22c-.98.46-1.96 1.52-2.95 3.17-1.22 2.04-1.75 3.63-1.58 4.76a3.73 3.73 0 0 0 1.94 2.7c1.09.65 2.1.84 3.02.56a6.4 6.4 0 0 0 2.81-1.93zm17.19 18.36-6.04-4.52-2.96 2.21-5.43-4.06 19.34-12.37 5.8 4.34-6.41 22.05-5.57-4.17 1.27-3.48zm1.68-4.55 2.73-7.61-6.51 4.79 3.78 2.82zm19.5-1.35 5 4.39-14.18 16.15-5-4.39 14.18-16.15zm-.4 18.75 4.71 4.23a4.8 4.8 0 0 0-1.09 2.24c-.14 1.1.23 2.1 1.12 3.01a3.24 3.24 0 0 0 2.01 1.1c.67.06 1.22-.12 1.64-.53.4-.39.58-.91.55-1.57-.03-.66-.53-1.76-1.49-3.3-1.57-2.54-2.41-4.63-2.5-6.28a5.24 5.24 0 0 1 1.65-4.24 5.67 5.67 0 0 1 2.91-1.51 6.43 6.43 0 0 1 3.68.44c1.3.52 2.73 1.59 4.3 3.18 1.92 1.96 3.02 3.81 3.3 5.56.28 1.75-.28 3.49-1.68 5.25l-4.65-4.21c.58-.8.83-1.54.77-2.23a3.4 3.4 0 0 0-1.07-2.04c-.54-.55-1.07-.85-1.57-.9-.51-.05-.93.09-1.27.42-.24.24-.35.57-.32.99.02.42.35 1.14.99 2.15 1.59 2.51 2.59 4.44 3.01 5.78s.5 2.55.22 3.62a5.97 5.97 0 0 1-1.67 2.84c-.98.96-2.16 1.58-3.52 1.85s-2.74.13-4.13-.43a13.05 13.05 0 0 1-4.27-3.06c-2.56-2.61-3.83-4.91-3.81-6.9a8.44 8.44 0 0 1 2.18-5.46zm28.47 9.03 11.19 13.84-3.57 2.88-7-8.67-2.66 2.15 6.49 8.04-3.41 2.76-6.49-8.04-3.3 2.66 7.21 8.92-3.79 3.06-11.39-14.09 16.72-13.51zm25.01 54.77c.63 1.21.74 2.47.33 3.78a4.79 4.79 0 0 1-2.44 2.92 4.81 4.81 0 0 1-3.79.34 4.79 4.79 0 0 1-2.92-2.44 4.81 4.81 0 0 1-.33-3.79 4.8 4.8 0 0 1 2.44-2.92 4.65 4.65 0 0 1 3.83-.32 4.83 4.83 0 0 1 2.88 2.43zM70.3 218.59l-2.89 9.43a11.64 11.64 0 0 1-2.14 4.27 7.72 7.72 0 0 1-3.04 2.17 9.5 9.5 0 0 1-3.79.62 16.08 16.08 0 0 1-4.13-.72c-2.2-.67-3.82-1.44-4.88-2.31-1.06-.87-1.86-1.88-2.4-3.01s-.8-2.26-.76-3.36c.05-1.51.25-2.83.6-3.96l2.89-9.43 20.54 6.3zm-6.6 4.92-11.23-3.44-.47 1.56c-.41 1.33-.55 2.32-.42 2.97.12.65.5 1.25 1.14 1.79.64.54 1.78 1.07 3.42 1.57 2.18.67 3.78.77 4.8.3 1.02-.46 1.78-1.52 2.29-3.16l.47-1.59zm-.14 18.65-1.45 6.5-20.98-4.67 1.45-6.5 20.98 4.67zm-24.01 9.2 21.28 3.04-1.56 10.96a15.74 15.74 0 0 1-1.19 4.58 4.95 4.95 0 0 1-2.31 2.32 5.99 5.99 0 0 1-3.59.5 6.08 6.08 0 0 1-2.95-1.19 6.02 6.02 0 0 1-1.79-2.37 7.91 7.91 0 0 1-.51-2.43 6.5 6.5 0 0 1-1.03 1.6c-.21.22-.63.51-1.27.89s-1.12.62-1.45.73l-6.62 2.31 1.06-7.43 7-2.59a4.76 4.76 0 0 0 1.81-.96c.4-.43.64-.94.72-1.54l.08-.58-8.64-1.23.96-6.61zm11.72 8.41-.39 2.77c-.04.3-.03.89.04 1.78.02.45.2.83.51 1.16a2 2 0 0 0 1.18.59c.69.1 1.24-.04 1.67-.43.43-.38.73-1.18.9-2.37l.41-2.89-4.32-.61zm6.46 18.35-.82 17.78-4.58-.21.51-11.13-3.41-.16-.48 10.32-4.38-.2.48-10.32-4.23-.2-.53 11.45-4.86-.22.83-18.1 21.47.99zM44.9 315.35l-1.48 5.9a10.6 10.6 0 0 1-4.17-1.65 8 8 0 0 1-2.62-3.01 11.62 11.62 0 0 1-1.06-4.71c-.11-2.33.14-4.26.74-5.77a9.15 9.15 0 0 1 3.39-4c1.66-1.16 3.81-1.8 6.48-1.92 3.55-.17 6.33.64 8.32 2.44 2 1.8 3.08 4.42 3.25 7.88.13 2.7-.32 4.86-1.33 6.46-1.02 1.6-2.64 2.83-4.87 3.69l-1.59-5.8a3.82 3.82 0 0 0 2.83-3.95 3.9 3.9 0 0 0-1.98-3.37c-.93-.56-2.35-.8-4.27-.71-2.38.11-3.99.55-4.84 1.32a3.73 3.73 0 0 0-1.18 3.11c.06 1.27.46 2.21 1.21 2.83.74.61 1.8 1.03 3.17 1.26zm13.22 7.57L61 342.9l-5.25.76-.97-6.7-16.02 2.32-.95-6.57 16.02-2.32-.97-6.7 5.26-.77zm3.92 24.26 1.44 6.5-20.98 4.65-1.44-6.5 20.98-4.65zm-7.92 14.43c3.35-1.03 6.25-.91 8.69.39 2.44 1.29 4.18 3.61 5.21 6.94 1.06 3.42.95 6.34-.31 8.75-1.27 2.42-3.55 4.13-6.86 5.15-2.4.74-4.49.95-6.28.61a8.98 8.98 0 0 1-4.67-2.4 11.99 11.99 0 0 1-3.04-5.31 13.82 13.82 0 0 1-.67-6.09 9.06 9.06 0 0 1 2.36-4.77 12.25 12.25 0 0 1 5.57-3.27zm1.93 6.36c-2.07.64-3.45 1.48-4.11 2.53a4.08 4.08 0 0 0-.39 3.56 4.12 4.12 0 0 0 2.31 2.76c1.12.47 2.82.35 5.12-.35 1.93-.59 3.23-1.42 3.88-2.48a4.2 4.2 0 0 0 .36-3.59 4 4 0 0 0-2.31-2.66c-1.15-.5-2.77-.42-4.86.23zm16.37 15.55 2.45 5.7-7.72 12.14 10.92-4.71 2.48 5.75-19.74 8.51-2.48-5.75 7.65-12.06-10.84 4.67-2.47-5.73 19.75-8.52zm9.96 49.84 3.78-2.39 5.48 8.68-7.75 4.89a21.26 21.26 0 0 1-5.1-2.95 17.33 17.33 0 0 1-3.48-4.16c-1.36-2.16-2.1-4.15-2.23-5.97a8.95 8.95 0 0 1 1.29-5.23 12.75 12.75 0 0 1 4.3-4.28 12.4 12.4 0 0 1 5.95-2.04 9.39 9.39 0 0 1 5.61 1.49c1.36.86 2.7 2.33 4.02 4.42 1.27 2.01 2.03 3.62 2.3 4.85a6.98 6.98 0 0 1-.13 3.55 9.03 9.03 0 0 1-1.97 3.32l-4.39-4.81c.54-.66.83-1.37.86-2.13a4.16 4.16 0 0 0-.74-2.38 4.36 4.36 0 0 0-3.14-2.13c-1.32-.19-2.9.3-4.75 1.46-1.97 1.24-3.14 2.5-3.51 3.77a4.58 4.58 0 0 0 .69 3.89c.4.62.87 1.17 1.41 1.62.54.46 1.26.91 2.17 1.37l1.71-1.08-2.38-3.76zm19.79 5.04 10.96 14.02-3.61 2.82-6.86-8.78-2.69 2.1 6.36 8.14-3.45 2.7-6.36-8.14-3.34 2.61 7.06 9.03-3.84 3-11.15-14.28 16.92-13.22zm9.72 3.19 3.16 4.04-6.37-1.03-1.76-2.25 4.97-.76zm4.15 14.28 4.28 4.49-3.02 14.06 8.61-8.21 4.32 4.53-15.56 14.83-4.32-4.53 2.99-13.97-8.54 8.14-4.31-4.52 15.55-14.82zm17.87 18.29 13.48 11.62-3 3.48-8.44-7.28-2.23 2.58 7.83 6.75-2.86 3.32-7.83-6.75-2.77 3.21 8.68 7.49-3.18 3.69-13.72-11.84 14.04-16.27zm10.16 1.25 3.89 3.35-6.45.22-2.16-1.87 4.72-1.7zm-5.42 30.81 12.41-17.55 9.04 6.39a16.38 16.38 0 0 1 3.54 3.15 5 5 0 0 1 1.01 3.11 5.97 5.97 0 0 1-1.2 3.42 5.94 5.94 0 0 1-2.4 2.08c-.91.41-1.89.58-2.93.5a8.04 8.04 0 0 1-2.4-.65c.49.67.81 1.22.95 1.65.1.29.17.8.22 1.54a8.4 8.4 0 0 1-.01 1.63l-.97 6.94-6.13-4.33.9-7.41c.12-.95.12-1.63-.02-2.05-.2-.55-.55-.99-1.04-1.35l-.48-.34-5.04 7.12-5.45-3.85zm12.82-6.58 2.29 1.62c.25.18.78.43 1.61.78.41.18.83.21 1.27.07.44-.13.79-.39 1.06-.78.4-.56.53-1.13.38-1.68-.14-.56-.71-1.19-1.7-1.89l-2.38-1.68-2.53 3.56zm21.81 24.7-6.56-3.72-2.66 2.57-5.9-3.34 17.62-14.72 6.3 3.57-3.57 22.68-6.05-3.43.82-3.61zm1.09-4.72 1.75-7.89-5.85 5.57 4.1 2.32zm17.33-5.83 6.06 2.71-6.62 14.79 9.46 4.23-2.16 4.83-15.52-6.95 8.78-19.61zm19.05 8.31 16.84 5.75-1.48 4.34-10.54-3.6-1.11 3.24 9.78 3.34-1.42 4.15-9.78-3.34-1.37 4.01 10.85 3.71-1.57 4.6-17.15-5.86 6.95-20.34zm32.48 9.86 9.7 1.79c1.91.35 3.41.9 4.49 1.64a7.73 7.73 0 0 1 2.51 2.77 9.23 9.23 0 0 1 1.04 3.7c.11 1.35.03 2.75-.24 4.19-.42 2.26-1 3.96-1.74 5.11a8.86 8.86 0 0 1-2.72 2.73 7.06 7.06 0 0 1-3.25 1.13c-1.5.12-2.84.07-4-.14l-9.7-1.8 3.91-21.12zm5.65 5.99-2.14 11.55 1.6.3c1.37.25 2.36.28 3 .08a3.14 3.14 0 0 0 1.65-1.33c.47-.69.86-1.89 1.17-3.58.41-2.24.33-3.84-.24-4.8-.58-.96-1.71-1.6-3.4-1.91l-1.64-.31zm17.9-1.93 17.73 1.55-.4 4.57-11.1-.96-.3 3.4 10.3.9-.38 4.37-10.3-.9-.37 4.22 11.42.99-.42 4.85-18.05-1.57 1.87-21.42zm34.08 1.77 6.63-.32.79 16.18 10.35-.51.25 5.29-16.98.83-1.04-21.47zm36.25 14.75-7.46 1.06-.54 3.66-6.71.95 4.98-22.41 7.17-1.02 11.01 20.14-6.89.98-1.56-3.36zm-2.01-4.4-3.43-7.32-1.24 7.98 4.67-.66zm24.43-3.64 5.95-2.16c.42.95.91 1.62 1.46 2.01.9.64 1.96.78 3.18.42.91-.27 1.55-.69 1.91-1.26.37-.57.47-1.14.3-1.7a1.96 1.96 0 0 0-1.12-1.23c-.59-.29-1.8-.36-3.62-.24-2.98.2-5.22-.05-6.71-.74a5.24 5.24 0 0 1-2.97-3.45 5.7 5.7 0 0 1 .03-3.27 6.42 6.42 0 0 1 2.12-3.04c1.07-.9 2.69-1.67 4.83-2.31 2.63-.77 4.79-.88 6.46-.3 1.67.57 2.95 1.89 3.85 3.94l-5.9 2.12a3.37 3.37 0 0 0-1.6-1.73 3.4 3.4 0 0 0-2.3-.01c-.74.22-1.25.54-1.54.96-.28.42-.35.86-.22 1.31.1.33.34.58.73.75.38.18 1.17.22 2.36.13 2.96-.22 5.14-.2 6.52.06 1.39.26 2.49.76 3.3 1.51s1.39 1.68 1.72 2.81a6.83 6.83 0 0 1-.02 3.98 7.15 7.15 0 0 1-2.32 3.45 12.95 12.95 0 0 1-4.71 2.33c-3.51 1.03-6.13 1.07-7.88.12a8.24 8.24 0 0 1-3.81-4.46zm18.42-20.68 16.52-6.62 1.71 4.26-10.34 4.15 1.27 3.17 9.59-3.85 1.63 4.07-9.59 3.85 1.57 3.93 10.64-4.27 1.81 4.52-16.82 6.75-7.99-19.96zm5.77-8.44 4.76-1.91-2.76 5.83-2.65 1.07.65-4.99zm33.38 4.63 5.98-1.12c.41 1.63.49 3.12.25 4.48a8.08 8.08 0 0 1-1.63 3.64 11.8 11.8 0 0 1-3.83 2.94 13.92 13.92 0 0 1-5.55 1.73 9.06 9.06 0 0 1-5.05-1.41c-1.74-1.02-3.23-2.71-4.46-5.08-1.64-3.16-2.06-6.02-1.27-8.58.8-2.56 2.73-4.65 5.8-6.24 2.4-1.25 4.54-1.75 6.42-1.49s3.67 1.22 5.39 2.88l-4.6 3.86c-.49-.49-.9-.82-1.24-.98a3.75 3.75 0 0 0-3.54.06 3.87 3.87 0 0 0-2.23 3.21c-.13 1.08.26 2.47 1.14 4.17 1.1 2.12 2.17 3.4 3.22 3.85 1.05.45 2.16.37 3.32-.23 1.12-.59 1.81-1.35 2.06-2.28.24-.93.18-2.07-.18-3.41zm14.23-23.59 5.53-3.65 7.05 10.69a11 11 0 0 1 1.49 3.33 7.8 7.8 0 0 1 .08 3.5 7.54 7.54 0 0 1-1.24 2.95 13.38 13.38 0 0 1-3.48 3.16c-.87.58-1.86 1.14-2.98 1.7-1.11.56-2.13.88-3.07.98s-1.91 0-2.92-.29a6.81 6.81 0 0 1-2.55-1.29 12.61 12.61 0 0 1-2.52-2.69l-7.05-10.69 5.53-3.65 7.22 10.94a3.74 3.74 0 0 0 2.33 1.76c.9.19 1.84-.03 2.8-.67a3.67 3.67 0 0 0 1.71-2.29c.19-.9-.05-1.85-.71-2.84l-7.22-10.95zm23.14 9.98-13.62-16.63 8.56-7.02a16.16 16.16 0 0 1 3.97-2.57 5.02 5.02 0 0 1 3.27-.15 6.02 6.02 0 0 1 2.98 2.06c.75.92 1.21 1.88 1.36 2.87s.06 1.97-.29 2.95a7.87 7.87 0 0 1-1.27 2.14 6.3 6.3 0 0 1 1.84-.48c.3-.02.82.05 1.54.2.72.15 1.25.3 1.57.45l6.43 2.78-5.8 4.76-6.91-2.83a5.02 5.02 0 0 0-1.98-.52c-.58.05-1.11.26-1.58.64l-.45.37 5.53 6.75-5.15 4.23zm-2.94-14.12 2.17-1.77c.23-.19.62-.64 1.17-1.34.29-.35.42-.75.41-1.2a2 2 0 0 0-.47-1.23c-.44-.53-.95-.81-1.52-.82-.58-.01-1.33.37-2.27 1.14l-2.26 1.85 2.77 3.37zm8.03-18.41 4.81-4.6 14.84 15.55-4.81 4.6-14.84-15.55zm8.05-7.56 13.56-14.96 3.93 3.56-4.55 5.02 11.99 10.87-4.46 4.92-11.99-10.87-4.55 5.02-3.93-3.56zm15.85-17.83 10.69-14.23 3.67 2.76-6.69 8.91 2.73 2.05 6.2-8.27 3.51 2.63-6.2 8.27 3.39 2.54 6.88-9.17 3.89 2.92-10.88 14.49-17.19-12.9zm.56-10.22 3.08-4.1.66 6.42-1.72 2.29-2.02-4.61zm19.12-18.32 3.31-5.77 18.64 10.69-3.31 5.77-18.64-10.69zm6.23-10.74 2.64-5.61 14.2-2.27-10.76-5.06 2.66-5.66 19.45 9.14-2.66 5.67-14.1 2.26 10.68 5.02-2.66 5.65-19.45-9.14zm10.05-21.82 6.69-19.05 5.01 1.76-2.24 6.39 15.27 5.37-2.2 6.27-15.27-5.37-2.25 6.39-5.01-1.76zm4.2-32.16 1.24-4.98 3.11 5.65-.69 2.77-3.66-3.44zm3.47 9.62 4.29-17.27 4.45 1.11-2.69 10.81 3.31.83 2.5-10.03 4.25 1.06-2.49 10.03 4.11 1.02 2.77-11.12 4.72 1.17-4.38 17.59-20.84-5.2zm26.48-18.71-21.26-3.14 1.62-10.95c.3-2.03.71-3.56 1.21-4.58a5.04 5.04 0 0 1 2.32-2.31 5.92 5.92 0 0 1 3.59-.48c1.18.18 2.16.58 2.94 1.21s1.38 1.42 1.78 2.38c.26.61.42 1.42.5 2.43.38-.74.72-1.27 1.04-1.59.21-.22.64-.51 1.27-.89a8.03 8.03 0 0 1 1.46-.73l6.63-2.27-1.09 7.42-7.02 2.55c-.91.32-1.51.64-1.82.95-.4.43-.64.94-.73 1.54l-.09.58 8.63 1.28-.98 6.6zm-11.68-8.47.41-2.77c.05-.3.03-.89-.03-1.78a1.72 1.72 0 0 0-.51-1.16 1.94 1.94 0 0 0-1.17-.59c-.69-.1-1.25.04-1.68.42-.43.38-.74 1.17-.91 2.37l-.43 2.89 4.32.62zm-6.45-18.99.46-6.64 21.44 1.51-.47 6.64-21.43-1.51zm.9-12.4-.14-17.8 4.59-.03.09 11.14 3.41-.03-.08-10.34 4.38-.03.08 10.34 4.24-.03-.09-11.47 4.87-.04.14 18.12-21.49.17zm-1.65-36.24-.66-6.59 12.74-1.28c1.27-.13 2.48-.05 3.64.23a7.7 7.7 0 0 1 3.13 1.56 7.5 7.5 0 0 1 2.04 2.47c.61 1.24 1 2.75 1.18 4.55.1 1.04.14 2.18.12 3.43a8.9 8.9 0 0 1-.56 3.17c-.35.87-.89 1.69-1.62 2.45s-1.5 1.32-2.32 1.65c-1.32.54-2.5.87-3.55.98l-12.74 1.28-.66-6.59 13.04-1.31a3.74 3.74 0 0 0 2.63-1.24c.59-.71.83-1.64.72-2.79-.11-1.14-.53-2-1.24-2.58a3.77 3.77 0 0 0-2.84-.7l-13.05 1.31zm19.58-15.95-21.05 4.33-2.23-10.84a16.07 16.07 0 0 1-.43-4.72 5.02 5.02 0 0 1 1.39-2.96c.8-.84 1.87-1.4 3.21-1.68a6.04 6.04 0 0 1 3.18.12 5.9 5.9 0 0 1 2.48 1.63c.45.49.88 1.19 1.3 2.11.1-.83.24-1.45.43-1.85.12-.27.42-.7.89-1.27.47-.57.85-.96 1.12-1.18l5.45-4.41 1.51 7.35-5.72 4.8a5.11 5.11 0 0 0-1.38 1.51c-.23.54-.28 1.1-.16 1.7l.12.57 8.54-1.76 1.35 6.55zm-13.87-3.95-.56-2.74c-.06-.3-.27-.85-.64-1.66a1.8 1.8 0 0 0-.88-.92 2 2 0 0 0-1.3-.16c-.68.14-1.16.46-1.43.97-.27.5-.29 1.35-.05 2.54l.59 2.86 4.27-.89zm-12.26-14.99-5.26-17 4.38-1.36 3.3 10.64 3.26-1.01-3.06-9.87 4.18-1.3 3.06 9.87 4.05-1.25-3.39-10.95 4.65-1.44 5.36 17.31-20.53 6.36z"/>
  </g>
</svg>
