<svg xmlns="http://www.w3.org/2000/svg" viewBox="0 0 230 45">
	<path fill="#ff6e14" d="M58.3 36.6c3.6 0 5.8-2.8 5.8-7 0-4.3-2.2-7.2-5.8-7.2-3.6 0-5.8 2.9-5.8 7.1 0 4.3 2.2 7.1 5.8 7.1Zm2.7-21c6.9 0 11.4 5.8 11.5 13.8 0 8.1-4.7 14.1-11.7 14.1a10 10 0 0 1-8.7-4.6v4h-7.6V7c0-2.7 1.8-4.5 4-4.5s4 1.8 4 4.5v12.9h.1c2-2.7 5-4.3 8.4-4.3Zm27.8 21c3.6 0 5.8-2.8 5.8-7 0-4.3-2.2-7.2-5.8-7.2-3.7 0-5.9 2.9-5.9 7.1 0 4.3 2.2 7.1 5.9 7.1Zm0-21c8.5 0 14 5.7 14 14 0 8.1-5.5 14-14 14-8.6 0-14-5.9-14-14 0-8.3 5.4-14 14-14Zm106.8 0c2.2 0 4 1.6 4 4.4v23h-8V20c0-2.8 1.8-4.5 4-4.5Zm0-14.1a4.9 4.9 0 0 1 0 9.8 4.9 4.9 0 1 1 0-9.8Zm25.2 14c5.6 0 8.6 4 8.6 10V43h-8V27.8c0-3.6-1.7-4.7-3.8-4.7-3.1 0-5.5 2.6-5.5 8.2V43h-8V19.7c0-2.6 1.7-4.2 3.7-4.2s3.8 1.6 3.8 4.2v1a11 11 0 0 1 9.2-5.2Zm-46.6 21.1c3.6 0 5.8-2.8 5.8-7 0-4.3-2.2-7.2-5.8-7.2-3.6 0-5.8 2.9-5.8 7.1 0 4.3 2.2 7.1 5.8 7.1Zm0-21c8.5 0 14 5.7 14 14 0 8.1-5.5 14-14 14s-14-5.9-14-14c0-8.3 5.5-14 14-14Zm-26 7c-3.5 0-5.6 2.5-5.6 7 0 4.3 2.1 7 5.6 7 2 0 4-1 5-2.8l5.9 3.8c-2 4-6.3 6-11.1 6-8.4 0-13.6-5.9-13.6-14 0-8.3 5.2-14 13.6-14 4.8 0 9.1 1.8 11.1 5.8l-5.9 3.8a5.4 5.4 0 0 0-5-2.7Zm-25.4-7c5.6 0 8.6 3.9 8.6 10V43h-8V27.8c0-3.6-1.7-4.7-3.8-4.7-3.2 0-5.5 2.6-5.5 8.2V43H106V19.7c0-2.6 1.7-4.2 3.7-4.2s3.8 1.6 3.8 4.2v1h.1c2-3.2 5.4-5.2 9.2-5.2ZM22.5 27.8c0 1 .2 2 .6 3l9-6.6a4.5 4.5 0 0 0-4.1-2.4c-2.6 0-5.5 2-5.5 6Zm7.9 9a8.2 8.2 0 0 0 6.9-4.4l5.3 3.8c-2 4.2-6.2 7.2-13.2 7.2-3.3 0-6.5-1.2-9-3.4a17 17 0 0 1-9.5 3.4c-6 .1-10.3-4-10.3-10.1V6.8c0-2.7 1.8-4.4 4-4.4 2.1 0 4 1.7 4 4.4v25.9c0 2.6 1 4 3.5 4 1.3 0 2.7-.8 4.5-1.8-.9-2-1.3-4.3-1.3-6.6 0-5.7 4-12.8 12.6-12.8 7.5 0 11.4 4.3 13 9.7L26.8 35.5a5 5 0 0 0 3.7 1.4Z"/>
</svg>
