<svg xmlns="http://www.w3.org/2000/svg" width="1920" height="1080" viewBox="0 0 1920 1080" preserveAspectRatio="xMidYMid slice">
	<defs>
		<style>
			@import url('https://fonts.googleapis.com/css2?family=Kumbh+Sans:wght@800..900');
			@import url('https://fonts.googleapis.com/css2?family=Nunito+Sans:opsz@6..12');
			@font-face {
				font-family: "GOODBRUSH";
				src: url("http://localhost:8080/fonts/GOODBRUSH.woff2") format("woff2");
			}
			:root { background-color: #767676; }
			.portrait {
				clip-path: circle();
				translate: calc(var(--longueur) * -2ch);
			}
		</style>
		<pattern id="grain" x="0" y="0" patternUnits="userSpaceOnUse" height="428" width="642">
			<image x="0" y="0" href="http://localhost:8080/img/bg-2025.png" height="428" width="642"></image>
		</pattern>
	</defs>
	<!-- Décor -->
	<g>
		<rect fill="url(#grain)" width="100%" height="100%"></rect><image x="840" y="44" width="270.2" height="140" href="http://localhost:8080/img/logo.svg"/>
		<g id="ruban" transform="scale(1) translate(790, 140)">
			<path fill="#ffd165" d="M117.8 28.7C68.1 29 15.6 59.9 2 66.7l8 9-8 22.1c12.3-7.4 66.1-43.1 115.8-43.5V28.7Z"></path>
			<path fill="#a46022" d="M118 54.4c-14 1-67-9-67-9v-20l67-3.4v32.4Z"></path>
			<path fill="#ffd165" d="M224 25c76.5.4 83 9.2 104 16l-12.2 9L328 72c-18.9-7.4-27.5-21-104-21.5V25Z"></path>
			<path fill="#a46022" d="m224 50.4 58.5-6.5L281 17h-57v33.4Z"></path>
			<path fill="#fdc02f" d="M51 45.3c76 9.4 158.2-24.4 231.7-1.4l6.3-24.4c-75.4-24.6-158.5 7.2-238 0v25.8Z"></path>
			<path fill="#3d9dd9" d="M40.3 17c.9-.4.4-2.6-.4-4.6-1.1-2.4-2.5-2.6-3.4-2-1 .5-1.5 1.8.1 4 1.3 1.6 3 3.1 3.7 2.7Zm-9 2.6c-2.1-1.6-3.4-1-4-.2-.5 1-.3 2.4 2.2 3.4 2 .9 4.1 1.4 4.6.5.5-.8-1-2.4-2.8-3.7Zm.5 12.4c0-1-2.1-1.6-4.3-1.9C25 29.8 24 31 24 32c0 1 .9 2.2 3.5 1.9 2.2-.3 4.3-1 4.3-1.9Zm-2.3 9.2c-2.5 1-2.7 2.4-2.1 3.4.5.9 1.8 1.4 4-.2 1.7-1.3 3.2-2.9 2.7-3.7-.5-.9-2.7-.4-4.6.5Z"></path>
			<path fill="#3d9dd9" d="M39 22c-.5.6-.7 1.7 1 3 1.3 1 2.8 1.9 3.3 1.3.5-.5-.3-2-1.3-3.3-1.3-1.7-2.4-1.5-3-1Zm-1.4 8.5c1.7.2 3.4.2 3.6-.6.2-.7-1.3-1.6-2.8-2.2-2-.8-2.8-.1-3 .7-.2.8.2 1.8 2.2 2.1Zm.8 5.8c1.6-.6 3-1.5 2.8-2.3-.2-.7-1.9-.8-3.5-.5-2.1.3-2.5 1.3-2.3 2.1.2.8 1 1.5 3 .7ZM40 39c-1.7 1.3-1.5 2.4-1 3 .7.6 1.8.7 3-1 1-1.2 1.9-2.8 1.3-3.3-.5-.5-2 .3-3.3 1.3Z" opacity=".6"></path>
			<path id="courbe" fill="none" d="M51 40.3c76 9.4 158.2-24.4 231.7-1.4"></path>
			<text fill="black" font-size="10.6px" font-family="Kumbh Sans" dy="-.35em">
				<textPath lengthAdjust="spacingAndGlyphs" href="#courbe" startOffset="2.5%">Design, qualité et accessibilité depuis</textPath>
			</text>
			<text fill="black" font-size="14px" font-family="GOODBRUSH" dy="-.2em">
				<textPath lengthAdjust="spacingAndGlyphs" href="#courbe" startOffset="84%">2006</textPath>
			</text>
		</g>
	</g>
	<!-- Contenu -->
	<g font-family="Kumbh Sans"><text font-weight="900" font-size="64"><tspan y="312" x="50%" dominant-baseline="middle" text-anchor="middle">Conférence d’ouverture</tspan></text>
			<g><image href="/img/sponsors-2025/maif.svg" width="191" height="150" x="512" y="440" /><image href="/img/sponsors-2025/monotype.svg" width="533" height="100" x="960" y="470" /><image href="/img/sponsors-2025/onepoint.svg" width="292" height="75" x="78" y="660" /><image href="/img/sponsors-2025/orange.svg" width="75" height="75" x="448" y="660" /><image href="/img/sponsors-2025/elementor.svg" width="375" height="75" x="601" y="660" /><image href="/img/sponsors-2025/temesis.svg" width="336" height="75" x="1054" y="660" /><image href="/img/sponsors-2025/enedis.svg" width="327" height="66" x="1468" y="666" /><image href="/img/sponsors-2025/livre-rare-book.svg" width="73" height="50" x="120" y="810" /><image href="/img/sponsors-2025/leboncoin.svg" width="158" height="50" x="313" y="810" /><image href="/img/sponsors-2025/proton.svg" width="173" height="44" x="588" y="810" /><image href="/img/sponsors-2025/alwaysdata.svg" width="293" height="44" x="881" y="810" /><image href="/img/sponsors-2025/compositech.svg" width="108" height="50" x="1294" y="810" /><image href="/img/sponsors-2025/ideance.svg" width="55" height="60" x="1522" y="806" /><image href="/img/sponsors-2025/w3c.svg" width="99" height="66" x="1689" y="810" /></g>
			<path transform="scale(2) translate(400, 180)" fill="#ff52ab" d="M42.9 5.22v.53c-.42.24-.7.07-1.01-.1h-2.06l-.66.26-.61-.26-.3.16c-.12.01-.24.05-.36.05h-1.37l-.57-.25-.78.24h-1.13l-.42-.19c-.27-.05-.47.01-.7.12-.12.06-.36.04-.53.09-.23.06-.32.23-.77.2L31 5.83l-.8.23h-1.99l-.39-.2h-2.47l-.38-.2h-1.26l-.4.43-.75-.41H20.4l-.46.2c-.38-.09-.73-.2-1.1-.22-.35-.02-.66-.03-.84-.23l-.47.22H3.94l-.43-.2-.36.18-.5-.2H1.04l-.18-.1.57-.3 1.19-.05c-.46-.21-.95-.2-1.19-.39l-.34.18H.11c-.15-.26-.14-.53-.01-.81.5.13.93.29 1.53.12v-.93l.6-.08.47.22h.81l.44-.2.34.18.66-.22.65.21.4-.18h.8l.43.2c.15-.06.3-.13.51-.24l.87.23h1.5l.48-.2h2.01l.38-.2.43.2.38-.18 1.3.36.39-.16h1.02c.44-.05.55-.32 1.22-.14.36.13-.11.3-.41.46.54.16 1.02.08 1.56.1l.2-.59.38-.06c.45.05.55.3 1.02.39.06-.03.2-.1.36-.16l.38.18 1.54-.44.57.23h4.98l.39-.2h2.89c.17-.1.26-.15.38-.2H41l.44-.22c.4-.07.62.08.84.2l.36-.18h2.97l.52.22.73-.22h6.19l.35.18.43-.2L60 2.42l.43-.21c.45-.09.59.15.82.2h.84l.35-.19h4.15l.42.18.43-.19h9.85l.46-.22.27.15c.13.02.25.06.37.06h1.8l.46-.2.27.14 1.24-.19.53.25h.81l.43-.21h4.94l.38-.2c.78-.05 1.66.01 2.51-.03l.44-.19.35.19.43-.18.44.19h4.1l.42-.2.43.2.31-.17c.38-.04.77-.12 1.11.06.34.18.75.15 1.11.06.41-.09.78-.23 1.25-.37h.75l.39.42h.43l.73-.38c.53-.15.95.04 1.41.12l.3-.16.45.2h3.33l.24-.36c.44-.14.92 0 1.4-.1l.27.41c.45.1.92.05 1.42.04l.28-.4h1.7l.44-.23h4.94l.38-.2.44.2h1.22l.45-.22h1.63l.37-.19.44.18h3.35l.34-.18.45.19h1.63l.43-.2h1.64l.43.2.3-.15c.05-.02.1-.06.16-.06h5.15l.19-.02.33-.17h.9l.35.18.45-.2h1.22l.43.2h1.63l.45-.2h2.04l.35-.2h1.4c.03.1.08.19.14.31l-.79.15-.12.3-.69.13c0 .2.36.25.53.38h.43l.4-.46.74.85 1.14.1c-.32.3-.98-.01-1.24.27.06.03.1.08.15.08h2.1l.38-.41h.64v.32l.6.3.44-.2h1.22l.43.22h3.65c.26.05.33.24.67.21l-.15.2h-5.04l-.36-.19h-2.43l-.46-.21c-.18.25-.43.48-.88.63-.43.08-.56-.16-.87-.21-.6-.16-.94.2-1.5.21a87.3 87.3 0 0 1-.44-.19l-.68.24-1.15-.51-.7.54-.82-.26-.4.18h-6.56l-.45.21-.3-.15c-.43-.11-.9-.05-1.37-.04l-.35.18-.4-.16c-.44-.05-.91-.11-1.28.19h-8.69l-.37.2h-6.16l-.46.21h-3.27l-.45.22h-7.82l-.37.2h-2.06l-.4.2H98.3l-.33-.16-.51.2h-4.08l-.38.2h-5.33l-.46.22h-2.05l-.43-.2-.3.15c-.05.02-.1.05-.16.05H80.6c-.34.29-.81.23-1.28.19L79 4.8l-.44.19h-4.48l-.47.22h-2.04l-.31-.15c-.42-.13-.9-.04-1.36-.06l-.37.2-1.29.03-.52.24-.73-.21-.39.16h-2.04l-.42-.2-.43.21h-2.88l-.3.16c-.44.11-.9.04-1.35.04l-.43-.2c-.47-.08-.58.18-1.02.23l-.83-.26-.62.22-.4-.19h-.61c.03-.21-.25-.21-.68-.22l-.6.43h-1.37l-.45.22h-2.04l-.44-.21h-.8l-.44-.22c-.6-.04-.78.25-1.2.4h-2.51l-.6-.28V5.3l.82-.2c-.3-.18-.66-.07-1.02-.11l-.39.42-.65-.2-.14-.19c-.5-.02-1-.08-1.64.09.66.16 1.24.07 1.78.1ZM147.2.6c-.3-.21-.74-.13-1.07-.07-.4.08-.75.25-1.14.36-.1.03-.26.02-.42.03-.24-.08-.41-.27-.88-.2l-.3.3c.27.1.56.18.85.27l.33-.16h2.45c.04 0 .1-.05.17-.09l-.36-.22.37-.22Zm-2.04 1.8c0-.25 0-.48-.02-.72 0-.03-.16-.06-.24-.1-.17.15-.57.2-.57.4.07.21.33.33.82.43ZM141.65.93c-.35.2-.33.42-.06.6l.73-.25-.67-.35ZM36.39 5.09c-1.64-.1-1.64-.1-1.68.09.18.01.37.04.55.03.32-.01.67.07 1.13-.12Zm9.34.51-.01-.13-.55-.03c-.05 0-.14.05-.14.06.03.05.1.14.15.14.18 0 .37-.02.55-.04ZM140.47.95l-.26.08c.04.02.1.07.13.06.1 0 .19-.04.28-.06l-.15-.08Zm-29.13.5c-.04-.02-.1-.06-.13-.06-.1.01-.19.04-.28.07.05.02.1.07.14.07l.27-.07Zm34.9.3.15-.08c-.09-.03-.18-.06-.27-.07-.04 0-.1.04-.14.07l.27.08Zm-5.68.16-.15-.13c-.04.02-.13.05-.13.07.03.05.09.1.13.14l.15-.08Zm1.65 0-.15-.13c-.04.02-.13.05-.13.07.03.05.09.1.13.14l.15-.08Zm1.24 0-.15-.13c-.05.02-.14.05-.13.07.02.05.08.1.13.14l.15-.08Zm4.24 0 .15.08.13-.14c0-.02-.09-.05-.13-.07l-.15.13ZM53.97 2.94l-.15-.08c-.04.05-.1.1-.12.14-.01.02.08.05.12.07l.15-.13ZM8 4.33l.26-.08c-.04-.03-.1-.07-.13-.07-.1.01-.19.04-.28.07l.15.07Zm45.97.3-.14-.07c-.05.05-.11.1-.13.15-.01.02.08.04.13.07l.14-.14Zm1.24.22-.15-.07-.13.14c0 .02.09.05.13.07l.15-.14Zm-31.75.44-.15-.08-.13.14c0 .02.09.05.13.07l.15-.13Zm1.44-.05-.14.08.27.06c.04 0 .1-.04.14-.06a230 230 0 0 0-.27-.08Z"/><g><path transform="scale(.66) translate(1280, 1420)" fill="#c4e1f4" d="M55.574 14.317c-5.648 5.569-51.048 5.743-54.165 7.692-2.445 2.32 5.47 36.625 8.451 41.463 1.063 1.725 2.089 1.882 4.293.745 3.493-2.11 46.12-4.491 50.82-4.732.517-1.158 2.734 2.275 2.95.912.871-3.554 81.578-7.675 84.06-7.858 3.961-.29.648-2.045 5.378-1.69 10.065.756 31.542-3.023 39.215-1.737 6.149 1.029 7.429.89 13.117-.826 5.792-1.752 37.37-2.811 41.115-.506.936.574 1.58.31 1.523-.47.364-.08 22.088-2.572 22.134-3.06.11-.788.756-1.209 1.423-.72 1.213.69 24.986 1.955 25.215-.343.656-6.56-4.555-33.797-7.75-40.347-3.378-6.923-18.214 2.177-30.964-1.19-67.924 4.963-52.6 5.038-70.457 2.83-1.218 2.457-7.123-2.832-10.116 1.575-1.233 1.81-11.043 2.91-13.389 1.414-2.003-1.273-51.982 7.278-57.559 3.232-8.819 4.865-46.566 3.5-55.294 3.616Z"/>
				<text font-size="32" font-weight="800">
					<tspan x="880" y="966">À suivre</tspan>
				</text>
				<text font-size="32" font-weight="800" fill="#25222c"><tspan y="1020" x="50%" dominant-baseline="middle" text-anchor="middle">« Conférence anniversaire » à 09h40</tspan>
				</text></g>
	</g>
</svg>
