<svg xmlns="http://www.w3.org/2000/svg" xmlns:xlink="http://www.w3.org/1999/xlink" viewBox="0 0 793.7 251">
	<defs>
		<clipPath id="clip-path" transform="translate(-24 -13.2)">
			<path d="M0 0h841.9v226.8H0z" class="cls-3"/>
		</clipPath>
		<clipPath id="clip-path-3" transform="translate(-24 -13.2)">
			<path d="M141.7 73.4c-2.9.9-4.3 2-4.3 5.3v18c0 1.7.7 2.4 2.5 2.4h35.6c18.1 0 23.2 3 23.2 13.2v3.6c0 8-1.3 11.8-7.3 16.3l-36.3 26.2c-16.3 12-23 17.7-23 33v16.2c0 3.1.9 5.1 4.9 5.1h96.7c1 0 1.3-.2 1.3-1v-27.2c0-1-.2-1.1-1.4-1.1h-53v-1.8c0-2.7 1-4.2 4.3-6l27.9-18.8c18.8-13 19.3-22 19.3-34.8v-18.2c0-28.8-24.7-33.8-52.4-33.8a167 167 0 0 0-38 3.4" class="cls-3"/>
		</clipPath>
		<clipPath id="clip-path-5" transform="translate(-24 -13.2)">
			<path d="M137.3 70h72.8v58.6h-72.8z" class="cls-3"/>
		</clipPath>
		<clipPath id="clip-path-6" transform="translate(-24 -13.2)">
			<path d="M139.9 99h35.6c18.1 0 23.2 3.2 23.2 13.3v3.6c0 5.8-.7 9.4-3.4 12.7a54.1 54.1 0 0 0 10.9-13.3A30.3 30.3 0 0 0 179.9 70h-.2a167 167 0 0 0-38 3.4c-3 1-4.4 2-4.4 5.3v18a2.6 2.6 0 0 0 .4 1.5l.7.6a3.2 3.2 0 0 0 1.5.3" class="cls-3"/>
		</clipPath>
		<clipPath id="clip-path-7" transform="translate(-24 -13.2)">
			<path d="M158.4 178.4h76.7v34.3h-76.7z" class="cls-3"/>
		</clipPath>
		<clipPath id="clip-path-8" transform="translate(-24 -13.2)">
			<path d="M233.6 183.4h-53v-1.8a5.4 5.4 0 0 1 .9-3.2s-23.1 11.1-23.1 34.3h75.4c.9 0 1.3-.2 1.3-1.1v-27.1c0-1-.2-1.1-1.5-1.1" class="cls-3"/>
		</clipPath>
		<linearGradient id="linear-gradient" x2="1" y1="226.7" y2="226.7" gradientTransform="matrix(59 0 0 -59 150.2 13376)" gradientUnits="userSpaceOnUse">
			<stop offset="0"/>
			<stop offset="1" stop-color="#fff"/>
		</linearGradient>
		<linearGradient id="linear-gradient-2" x2="1" y1="226.9" y2="226.9" gradientTransform="matrix(75 0 0 -75 157.5 17122)" gradientUnits="userSpaceOnUse">
			<stop offset="0" stop-color="#fff"/>
			<stop offset="1"/>
		</linearGradient>
		<linearGradient id="linear-gradient-3" x2="1" y1="226.8" y2="226.8" gradientTransform="matrix(156 0 0 -156 98.3 35545.6)" gradientUnits="userSpaceOnUse">
			<stop offset="0" stop-color="#ff5722"/>
			<stop offset=".2" stop-color="#ff5b20"/>
			<stop offset=".5" stop-color="#ff6819"/>
			<stop offset=".8" stop-color="#ff7d0e"/>
			<stop offset="1" stop-color="#ff9800"/>
		</linearGradient>
		<linearGradient id="linear-gradient-4" x2="1" y1="226.7" y2="226.7" gradientTransform="matrix(59 0 0 -59 150.2 13376)" gradientUnits="userSpaceOnUse">
			<stop offset="0"/>
			<stop offset="1"/>
		</linearGradient>
		<linearGradient xlink:href="#linear-gradient-4" id="linear-gradient-5" y1="226.9" y2="226.9" gradientTransform="matrix(75 0 0 -75 157.5 17122)"/>
		<mask id="mask" width="139" height="139" x="83.9" y="16.6" maskUnits="userSpaceOnUse">
			<path fill="url(#linear-gradient)" d="M128.4 50.1h98.3v98.3h-98.3z" transform="rotate(-45 149.6 121.8)"/>
		</mask>
		<mask id="mask-2" width="111" height="111" x="117.2" y="126.9" maskUnits="userSpaceOnUse">
			<path fill="url(#linear-gradient-2)" d="M157.5 156.3H236v78.5h-78.5z" transform="rotate(-45 168.8 218)"/>
		</mask>
		<style>
			.cls-3{fill:none}.cls-5{clip-path:url(#clip-path)}.cls-10{opacity:.46;mix-blend-mode:overlay}
		</style>
	</defs>
	<g style="isolation:isolate">
		<g id="Layer_2" data-name="Layer 2">
			<g id="Layer_1-2" class="cls-5" data-name="Layer 1">
				<g class="cls-5">
					<path fill="#fff" d="M96.3 148.3c0 41.8-9.3 52.1-48.2 52.1s-48-10.3-48-52C0 106.3 9.1 96 48 96s48.1 10.3 48.1 52.2m-64.5 0c0 20 2.7 25 16.4 25s16.5-5 16.5-25-2.7-25.1-16.5-25.1-16.4 5-16.4 25.1M298.2 99c2.1.5 2.9 1.2 2.9 2.8v16.7c0 2.2-.8 2.9-3.1 2.9h-32.4c-6.2 0-9.2 1.4-9.2 5v1.7c0 2.5 2 4.3 7.4 6.1l22.6 7.4c14.7 5 19.4 14.5 19.4 28v3.3c0 21.3-17.2 27.5-39.3 27.5a358.9 358.9 0 0 1-39.8-1.8c-2.3 0-3-.7-3-2.7v-18c0-2.2.7-3 3-3h39c7.1 0 9.3-.9 9.3-4.3v-1.3c0-2.7-2.2-4.3-9.8-6.8l-20.6-7c-14.3-4.6-19-16-19-28.3v-3.3c0-19.2 14-27.8 43.4-27.8a154.6 154.6 0 0 1 29.2 2.9m170-2c1.7 0 2.4.7 2.2 2.5l-15.4 84c-2.7 15.1-8.8 17-26.8 17-23 0-25.8-1.7-29-17l-7.5-34.8-7.4 34.7c-3.3 15.4-6.2 17-29.3 17-17.8 0-24-1.8-26.8-17l-15.2-84c-.4-1.7.5-2.4 2.2-2.4H343c1.3 0 1.7.7 2 2.5l11.2 73.3c.4 1.8.8 2 2 2s1.7-.2 2-2l16.5-70.4a2.6 2.6 0 0 1 2.9-2.2h24.2a2.7 2.7 0 0 1 3 2.2l16.4 70.3c.4 1.9.7 2 1.8 2 1.3 0 1.8-.1 2.2-2l11.2-73.2c.2-1.8.7-2.5 2-2.5Zm49.2-28c0 10.6-6.7 16.7-18 16.7-11.8 0-18.5-6.1-18.5-16.6 0-10.3 6.7-16.5 18.5-16.5 11.4 0 18 6.2 18 16.5M512.3 97c1.8 0 2.7 1 2.7 2.9v96.7c0 2-.9 3-2.7 3h-26c-1.9 0-2.8-1-2.8-3V99.8c0-1.8 1-2.9 2.7-2.9Zm58-28.3c1.8-.5 2.7 1 2.7 3v26h15.5c2.2 0 3.1.8 3.1 2.7v17.5c0 2-.9 2.9-3 2.9H573v43.4c0 7.8 3 9 10.3 9h6.9c2 0 3 1 3 2.7v19c0 2.3-1 3.2-3 3.6a93.8 93.8 0 0 1-18 2c-17 0-30.7-.8-30.7-24.8v-54.9h-10.9c-2 0-3-.9-3-2.9v-17.5c0-1.8 1-2.7 3-2.7h11V78.5c0-2 .6-2.4 2.4-2.9ZM682 99c2 .5 3.2 1.2 3.2 3.7v17.6c0 2-1.1 2.9-3.3 2.9h-30.6c-13.7 0-16.5 5-16.5 25s2.8 25.1 16.5 25.1H682c2.2 0 3.3 1 3.3 3v17.5c0 2.5-1.1 3.2-3.1 3.8a147 147 0 0 1-30.8 2.9c-40.1 0-47.9-10.5-47.9-52.3s7.8-52.1 48-52.1c6.3 0 20.4.4 30.7 2.9m47.3-41.2c1.8 0 2.7 1.1 2.7 3v36.1a209 209 0 0 1 17.2-.9c35.8 0 44.3 7.8 44.3 44v56.6c0 2-.9 3-2.7 3h-26.2c-1.8 0-2.6-1-2.6-3v-46.8c0-25.2-1.4-26.6-17.7-26.6h-12.1v73.4c0 2-1 3-2.7 3h-26.5c-1.8 0-2.7-1-2.7-3V60.8c0-1.8 1-3 2.7-3Z"/>
					<path fill="#424242" d="M268.7 69a8.6 8.6 0 1 1-8.3-9 8.6 8.6 0 0 1 8.3 9M241 39.5A13 13 0 1 1 228.6 26 13 13 0 0 1 241 39.5m-44-20.7A16.3 16.3 0 1 1 181.3 2 16.3 16.3 0 0 1 197 18.8m-56 4.3a22.3 22.3 0 1 1-21.6-23A22.3 22.3 0 0 1 141 23M82.6 53.8a29 29 0 1 1-28-30 29 29 0 0 1 28 30"/>
				</g>
				<g clip-path="url(#clip-path-3)">
					<path fill="url(#linear-gradient-3)" d="M96.7 54.5h173.7v173.7H96.7z" transform="rotate(-45 155.6 163.8)"/>
				</g>
				<g class="cls-5">
					<g clip-path="url(#clip-path-5)">
						<g class="cls-10" clip-path="url(#clip-path-6)" mask="url(#mask)">
							<path fill="url(#linear-gradient-4)" d="M128.4 50.1h98.3v98.3h-98.3z" transform="rotate(-45 149.6 121.8)"/>
						</g>
					</g>
					<g clip-path="url(#clip-path-7)">
						<g class="cls-10" clip-path="url(#clip-path-8)" mask="url(#mask-2)">
							<path fill="url(#linear-gradient-5)" d="M157.5 156.3H236v78.5h-78.5z" transform="rotate(-45 168.8 218)"/>
						</g>
					</g>
				</g>
			</g>
		</g>
	</g>
</svg>
