<svg xmlns="http://www.w3.org/2000/svg" fill-rule="evenodd" clip-rule="evenodd" image-rendering="optimizeQuality" shape-rendering="geometricPrecision" text-rendering="geometricPrecision" viewBox="0 0 488.018 124.044">
  <path fill="#454b4e" d="M363 9.985c-10.844-2.998-16.511 1.169-17 12.5a238.614 238.614 0 0 0 3.5 19.5 520.594 520.594 0 0 1 9.5 30 999.21 999.21 0 0 1-17.5-38 98.68 98.68 0 0 1-6.5-25 22.411 22.411 0 0 1 2.5-8c3.073-1.117 6.24-1.284 9.5-.5 5.892 2.437 11.226 5.604 16 9.5z" opacity=".883"/>
  <path fill="#f0860f" d="M363 9.985a363.4 363.4 0 0 1 20 19 11.743 11.743 0 0 0 3 5 116.31 116.31 0 0 0 6.5 13 76.404 76.404 0 0 0 2 15c2.748 4.752 6.248 8.919 10.5 12.5.983.59 1.65.257 2-1a129.017 129.017 0 0 1-8.5-22.5c-1.713-4.373-4.213-8.207-7.5-11.5.556-.383.889-.883 1-1.5 6.802-2.07 12.802-.737 18 4 1.568 2.31 2.402 4.978 2.5 8l1 19c.5 1.833 1.667 3 3.5 3.5a35.063 35.063 0 0 0 15-1c9.663-8.611 20.996-12.777 34-12.5-.106 2.579.561 4.912 2 7-16.356 5.179-31.356 13.012-45 23.5l-22 11a838.577 838.577 0 0 0-61 23 12.93 12.93 0 0 1-5 .5c-.322-2.222.345-4.056 2-5.5 11.459-4.638 20.959-11.805 28.5-21.5a15.256 15.256 0 0 1 1.5-4.5 537.193 537.193 0 0 0-8-20.5 520.594 520.594 0 0 0-9.5-30 238.614 238.614 0 0 1-3.5-19.5c.489-11.331 6.156-15.498 17-12.5z" opacity=".962"/>
  <path fill="#434b4e" d="M410 41.985c-5.198-4.737-11.198-6.07-18-4a17.902 17.902 0 0 1-6-4 11.743 11.743 0 0 1-3-5c13.925-6.1 22.925-1.767 27 13z" opacity=".898"/>
  <path fill="#f0870e" d="M162 28.985c4.265.23 8.098 1.564 11.5 4a168.937 168.937 0 0 1 2 24c8.571-5.95 17.238-6.283 26-1a22.981 22.981 0 0 1 2 5c.816 8.579.649 17.079-.5 25.5a34.041 34.041 0 0 1 1.5 7.5l1.5 1.5c7.071-1.243 7.738.424 2 5-5.188 2.349-10.022 1.849-14.5-1.5a91.567 91.567 0 0 1-1.5-6.5 96.11 96.11 0 0 0-.5-30.5c-7.065-4.488-12.398-2.821-16 5l-1 32c-3.309 3.147-7.142 3.813-11.5 2l-1-2a312.925 312.925 0 0 0 0-70z" opacity=".887"/>
  <path fill="#f0870e" d="M239 29.985a10.098 10.098 0 0 1 6 1.5c3.076 6.24 7.409 11.408 13 15.5-7.033 1.403-12.533-.93-16.5-7-3.967 6.07-9.467 8.403-16.5 7 6.141-4.472 10.808-10.14 14-17z" opacity=".783"/>
  <path fill="#414b4e" d="M25 33.985c4.195.18 7.695 1.847 10.5 5a2042.604 2042.604 0 0 1 17 48 65.764 65.764 0 0 0 6.5 13c-5.649 3.095-10.816 2.428-15.5-2a406.617 406.617 0 0 1-5.5-19c-6.01-.166-12.01 0-18 .5a10.256 10.256 0 0 0-4 1.5 107.83 107.83 0 0 1-7 19c-1.352 1.396-3.02 2.063-5 2-1.819.158-3.152-.51-4-2a985.479 985.479 0 0 0 25-66zm1 13a413.503 413.503 0 0 1 10 26.5 54.558 54.558 0 0 1-18-.5 583.005 583.005 0 0 0 8-26z" opacity=".877"/>
  <path fill="#d07a33" d="M386 33.985a17.902 17.902 0 0 0 6 4c-.111.617-.444 1.117-1 1.5 3.287 3.293 5.787 7.127 7.5 11.5a129.017 129.017 0 0 0 8.5 22.5c-.35 1.257-1.017 1.59-2 1-4.252-3.581-7.752-7.748-10.5-12.5a76.404 76.404 0 0 1-2-15 116.31 116.31 0 0 1-6.5-13z"/>
  <path fill="#f0870e" d="M135 42.985h4a79.172 79.172 0 0 1-2 10c3.497 1.223 6.997 1.223 10.5 0 1.5.167 2.333 1 2.5 2.5a22.703 22.703 0 0 1-2 5 60.931 60.931 0 0 1-11 .5c-.166 9.006 0 18.006.5 27 .348 4.348 2.681 6.68 7 7a29.75 29.75 0 0 0 9-5 4.457 4.457 0 0 1 1.5 2c-5.746 10.37-14.08 12.87-25 7.5a60.631 60.631 0 0 1-3.5-6.5l-1-31a36.347 36.347 0 0 1-3.5-5.5l.5-2.5c5.573-2.183 9.74-5.85 12.5-11z" opacity=".879"/>
  <path fill="#f0870e" d="M288 42.985h4a44.36 44.36 0 0 1-2 10c4.318 1.04 8.651 1.04 13 0 .28 2.772-.387 5.272-2 7.5a60.931 60.931 0 0 1-11 .5c-.423 10.08.077 20.08 1.5 30 1.501 2.084 3.501 3.417 6 4a26.224 26.224 0 0 0 9.5-5c.018 5.403-2.649 9.236-8 11.5-4 .667-8 .667-12 0-2.833-1.5-5-3.667-6.5-6.5a320.493 320.493 0 0 1-2-34c-2.825-1.564-3.825-3.898-3-7 5.573-2.183 9.74-5.85 12.5-11z" opacity=".877"/>
  <path fill="#f0870e" d="M238 51.985c20.343-.826 29.509 8.84 27.5 29-4.815 17.997-16.315 24.497-34.5 19.5-9.094-4.677-13.761-12.177-14-22.5.896-13.877 7.896-22.543 21-26zm0 6c7.682-.82 12.515 2.513 14.5 10 2.772 10.14.938 19.308-5.5 27.5-9.404 2.313-14.904-1.52-16.5-11.5a47.96 47.96 0 0 1 1-18c1.305-3.461 3.471-6.128 6.5-8z" opacity=".876"/>
  <path fill="#414b4e" d="M66 52.985a40.911 40.911 0 0 1 9 .5 6.977 6.977 0 0 1 3.5 2.5l1 34c3.951 7.605 8.618 7.939 14 1a46.127 46.127 0 0 0 3.5-17 1114.772 1114.772 0 0 0-2-21 40.914 40.914 0 0 1 9 .5 6.978 6.978 0 0 1 3.5 2.5c.388 11.347.388 22.68 0 34 .163 2.176.996 4.009 2.5 5.5 7.071-1.243 7.738.424 2 5-6.662 3.065-11.828 1.565-15.5-4.5-3.381 4.692-8.048 6.692-14 6-5.296.682-9.63-.985-13-5a1564.252 1564.252 0 0 0-3.5-44z" opacity=".893"/>
  <path fill="#474c4d" d="M466 58.985a68.944 68.944 0 0 1 20 2.5c1.473.71 2.14 1.876 2 3.5a134.215 134.215 0 0 0-20 1c-1.439-2.088-2.106-4.421-2-7z" opacity=".813"/>
</svg>
