<svg xmlns="http://www.w3.org/2000/svg" fill="#ff5d1f" viewBox="0 0 1018 180"><path fill-rule="evenodd" d="M296.19 12.33A14.67 14.67 0 1 1 281.53 27a14.67 14.67 0 0 1 14.66-14.67Zm219.37 118.82c-23.3 0-40.64-16.78-40.64-40.22s17.34-40.22 40.64-40.22c23.69 0 40.37 16.68 40.37 40.27a53.62 53.62 0 0 1-.5 7.16H497a18 18 0 0 0 6.49 9.72c7.41 5.52 21.36 5 27.19-2.78l23.29-.17c-5.77 16.89-20.82 26.24-38.37 26.24ZM731 129.57V52.29h18.74l2 7.86c7.73-8.75 18.7-10.56 29.73-7.76v19.89c-8.13-1.47-17.29-2.31-23.75 4.06-3.37 3.32-5.22 8.18-5.22 14.3v38.93Zm143.84-77.28h13.57V51c0-26.37 17-36.83 41-29.4v18.19c-10.54-2.83-19.52-2-19.52 11.24v1.26h19.52v19.27H909.9v58h-21.51v-58h-13.55V52.29Zm-463.34 0h13.55V34.48l21.48-2.9v20.71h19.56v19.27h-19.56v29.6c0 11.77 10.33 11.41 19.46 9.87v18.46a65.17 65.17 0 0 1-12.83 1.37c-9 0-16.1-2.26-21-7-4.63-4.52-7.16-11.27-7.16-20.41V71.56h-13.5V52.29ZM285 129.57V52.29h21.48v77.28Zm542.63 1.58c-23.3 0-40.65-16.78-40.65-40.22s17.35-40.22 40.65-40.22C851.28 50.71 868 67.39 868 91a55.34 55.34 0 0 1-.5 7.16H809a17.92 17.92 0 0 0 6.49 9.72c7.4 5.52 21.35 5 27.18-2.78l23.3-.17c-5.78 16.89-20.82 26.24-38.37 26.24Zm-18.48-47.87h37.17c-5.32-17.45-31.68-17.31-37.17 0Zm208.85-31v71.82c0 22.45-14.37 35.65-34.28 38-14.05 1.63-29.13-1.45-38.66-12.65l15.51-12c8.28 11 36.6 7.79 36.59-11v-5.35c-6.37 6.9-14.88 9.9-24.16 9.9-21.1 0-30-14.34-30-34V52.29h21.48v42.39c0 9.64 4.24 16.43 14.55 16.43 10.47 0 17.44-6.2 17.44-16.86v-42Zm-691.24 77.29V52.29h18.74l2.1 8.46c6.37-6.84 14.88-9.9 24.13-9.9 21.1 0 30 14.34 30 34v44.69h-21.5V87.18c0-9.64-4.24-16.43-14.55-16.43-10.47 0-17.44 6.2-17.44 16.87v41.95Zm243.71 0V52.29h18.74l2 7.86c7.73-8.75 18.69-10.56 29.73-7.76v19.89c-8.14-1.47-17.29-2.31-23.75 4.06-3.37 3.32-5.22 8.18-5.22 14.3v38.93Zm-73.34-46.29h37.17c-5.33-17.45-31.69-17.31-37.17 0Zm208.1 36.54C692.4 133.24 670 134.89 655.08 124v38.47h-21.49V52.29h17.65l1.79 7.2a37.53 37.53 0 0 1 24.53-8.78c23.09 0 38.63 17.61 38.63 40.22 0 11.41-4 21.61-11 28.89Zm-50.3-28.89c0 11.63 8.22 20 19.89 20s19.74-8.5 19.74-20-8.12-20-19.74-20-19.89 8.37-19.89 20Z"/><path d="M74.72 50.88v76.25a13.44 13.44 0 0 1-13.4 13.4 13.44 13.44 0 0 1-13.4-13.4V50.88a13.44 13.44 0 0 1 13.4-13.4 13.44 13.44 0 0 1 13.4 13.4Z"/><rect width="26.8" height="47.87" y="65.07" rx="13.4"/><rect width="26.8" height="103.05" x="159.05" y="37.48" rx="13.4"/><rect width="26.8" height="47.87" x="206.97" y="65.07" rx="13.4"/><rect width="42.12" height="132.2" x="95.82" y="47.8" rx="21.06"/><path d="M116.89 0a17.58 17.58 0 1 1-17.58 17.57A17.57 17.57 0 0 1 116.89 0Z"/></svg>
