<svg xmlns="http://www.w3.org/2000/svg" viewBox="0 0 420 420">
	<defs>
		<clipPath id="a"><circle cx="210" cy="210" r="210"/></clipPath>
		<linearGradient id="b" x1="0" x2="1" y1="0" y2="0" gradientTransform="rotate(90) scale(366)" gradientUnits="userSpaceOnUse">
			<stop offset="0" stop-color="#7662B9" stop-opacity="1"/>
			<stop offset="1" stop-color="#d1c3ff" stop-opacity="1"/>
		</linearGradient>
	</defs>
	<g clip-path="url(#a)">
		<circle cx="210" cy="210" r="210" fill="url(#b)"/>
		<path d="M157.37 271.57h-15.92c-9.32 0-16.88-7.73-16.88-17.26V116.3c0-9.52 7.56-17.26 16.88-17.26h40.78V78.27a3.8 3.8 0 0 1 3.76-3.84h50.16a3.8 3.8 0 0 1 3.76 3.84v20.77h40.78c9.31 0 16.88 7.73 16.88 17.26v138.01c0 9.53-7.56 17.26-16.88 17.26h-15.93v11.04a3.8 3.8 0 0 1-3.76 3.84h-6.4v18.98a3.8 3.8 0 0 1-3.77 3.85h-79.52a3.8 3.8 0 0 1-3.76-3.85v-18.98h-6.42a3.8 3.8 0 0 1-3.76-3.84v-11.04Z" fill="#fff" transform="translate(-5.73)"/>
		<path d="m258.5 295.12 87.92 11.67c18.39 2.44 41.16 19.67 38.77 38.46l-16.09 49.62c-2.39 18.79-19.25 32.06-37.63 29.62l-120.49.12-120.27-.09c-18.38 2.45-35.25-10.81-37.65-29.6L36.95 345.3c-2.4-18.78 20.36-36.03 38.75-38.48l87.93-11.71v-4.66h-2.5l-1.54-.16-1.44-.46-1.3-.72-1.14-.96-.94-1.15-.7-1.34-.45-1.48-.16-1.57v-7.04h-12c-11.49 0-20.8-9.52-20.8-21.26V116.3c0-11.73 9.31-21.26 20.8-21.26h36.86V78.27l.15-1.58.45-1.47.71-1.34.93-1.15 1.14-.96 1.3-.72 1.45-.46 1.54-.16h50.16l1.54.16 1.45.46 1.3.72 1.13.96.94 1.15.7 1.34.46 1.47.15 1.58v16.77h36.87c11.48 0 20.8 9.53 20.8 21.26v138.01c0 11.74-9.32 21.26-20.8 21.26h-12.01v7.04l-.16 1.57-.45 1.48-.7 1.33-.94 1.16-1.13.96-1.3.72-1.45.46-1.55.16h-2.5v4.67Zm-87.04-4.67v5.76c6.31 2.34 20.05 6.38 39.6 6.38 19.57 0 33.3-4.03 39.62-6.37v-5.77h-79.22Zm-10.17-14.88v6.88h99.56v-6.88h-99.56Zm74.7-180.53V78.43h-49.85v16.61H236Zm57.67 21.26c0-7.32-5.81-13.26-12.97-13.26H141.45c-7.16 0-12.97 5.94-12.97 13.26v138.01c0 7.32 5.81 13.26 12.97 13.26H280.7c7.16 0 12.97-5.94 12.97-13.26V116.3Z" fill="#220582" transform="translate(-5.73)"/>
		<circle cx="180.24" cy="169.47" r="10.21" fill="#220582" transform="translate(-3.34)"/>
		<circle cx="180.24" cy="169.47" r="10.21" fill="#220582" transform="translate(62.86)"/>
		<path d="M243.02 213.13a4 4 0 0 1 3.2 7.34 90.45 90.45 0 0 1-36.22 7.5 90.45 90.45 0 0 1-36.22-7.5 4 4 0 0 1 3.2-7.34 82.46 82.46 0 0 0 33.02 6.85 82.46 82.46 0 0 0 33.02-6.85Z" fill="#220582"/>
	</g>
</svg>