<svg xmlns="http://www.w3.org/2000/svg" viewBox="0 0 140 140">
  <circle cx="70" cy="70" r="70" fill="#C5C3CE"/>
  <path fill="#fff" d="M60.452 18.451h19.895v7.737H60.452zm-8.597 66.316h36.842v5.281H51.855zm-9.824-56.49h56.737v56.122H42.031z"/>
  <path fill="#423f4a" d="M62.541 17.223c-1.842 0-3.193 1.474-3.193 3.193v5.158H46.576c-3.93 0-7 3.193-7 7v46.299c0 3.93 3.193 7 7 7h4.174v2.332c0 1.843 1.474 3.193 3.193 3.193h32.79c1.841 0 3.193-1.473 3.193-3.193v-2.332h4.42c3.93 0 7-3.193 7-7V32.574c0-3.93-3.191-6.999-6.998-7H81.697v-5.156c.001-1.843-1.472-3.195-3.191-3.195H62.54zm0 2.58h15.965c.245 0 .367.245.367.49v5.158H62.049v-5.158c0-.245.246-.49.492-.49zm-15.842 8.595h47.649a4.141 4.141 0 0 1 4.173 4.176v46.299a4.141 4.141 0 0 1-4.173 4.176H46.699a4.141 4.141 0 0 1-4.178-4.176V32.574a4.141 4.141 0 0 1 4.178-4.176zm6.877 57.475h33.647v2.334h.123c-.002.245-.245.49-.49.49h-32.79c-.246 0-.49-.246-.49-.492v-2.332zm1.842 6.262s-38.316 4.982-42.246 5.595c-3.93.613-4.299 2.07-4.299 3.067v2.947A70 70 0 0 0 70 140a70 70 0 0 0 62.662-39.068v-.135c0-.996-.367-2.454-4.297-3.067-3.93-.613-44.457-5.595-44.457-5.595h-28.49z"/>
  <path fill="#fff" d="M55.54 91.42c0 1.12 6.536 2.044 14.675 2.044 8.14 0 14.798-.924 14.798-2.045v-1.647H55.54Z"/>
  <path fill="#423f4a" d="M70.277 98.276c-5.94 0-15.965-1.158-15.965-5.275v-4.348h31.93v4.348c0 4.245-10.025 5.275-15.965 5.275zm-13.614-6.755v1.48c.371.9 5.322 2.702 13.49 2.702s13.118-1.802 13.49-2.83v-1.352z"/>
  <circle cx="60.329" cy="50.258" r="3.561" fill="#423f4a"/>
  <circle cx="82.434" cy="50.258" r="3.561" fill="#423f4a"/>
  <path fill="#423f4a" d="M60.96 65.486a1 1 0 0 0-1.368.352 1 1 0 0 0 .351 1.369s9.835 5.755 22.637.305a1 1 0 0 0 .53-1.313 1 1 0 0 0-1.313-.527c-12.006 5.112-20.836-.186-20.836-.186Z" color="#000" style="-inkscape-stroke:none"/>
</svg>

