<svg xmlns="http://www.w3.org/2000/svg" viewBox="0 0 953 938"><g fill="#4f27d6"><circle cx="493.991" cy="517.857" r="6.31"/><circle cx="156.637" cy="721.368" r="12.182"/><circle cx="837.515" cy="560.07" r="16.985"/><circle cx="515.387" cy="524.804" r="13.441"/><circle cx="735.874" cy="246.672" r="14.18"/><circle cx="278.543" cy="78.69" r="8.669"/><circle cx="620.603" cy="89.838" r="11.789"/><circle cx="161.614" cy="693.866" r="9.658"/><circle cx="772.385" cy="399.521" r="10.174"/><circle cx="472.398" cy="83.944" r="6.224"/><circle cx="805.771" cy="419.022" r="14.208"/><circle cx="661.554" cy="832.72" r="11.191"/><circle cx="823.707" cy="591.541" r="11.801"/><circle cx="527.08" cy="840.398" r="16.862"/><circle cx="553.576" cy="541.033" r="11.145"/><circle cx="415.44" cy="658.42" r="15.446"/><circle cx="444.326" cy="387.445" r="12.532"/><circle cx="847.785" cy="487.569" r="12.243"/><circle cx="658.949" cy="551.828" r="6.645"/><circle cx="572.924" cy="879.868" r="13.797"/><circle cx="169.236" cy="368.56" r="13.839"/><circle cx="280.952" cy="576.518" r="5.469"/><circle cx="469.514" cy="893.569" r="17.539"/><circle cx="78.782" cy="400.96" r="8.615"/><circle cx="783.849" cy="370.827" r="7.53"/><circle cx="506.355" cy="124.737" r="7.28"/><circle cx="557.404" cy="692.08" r="10.022"/><circle cx="690.383" cy="224.913" r="6.978"/><circle cx="682.003" cy="277.252" r="17.878"/><circle cx="265.893" cy="139.596" r="17.774"/><circle cx="543.001" cy="455.622" r="13.657"/><circle cx="529.192" cy="94.804" r="7.522"/><circle cx="342.16" cy="160.857" r="6.009"/><circle cx="758.717" cy="176.656" r="11.741"/><circle cx="627.952" cy="348.728" r="16.718"/><circle cx="497.554" cy="109.43" r="9.128"/><circle cx="713.643" cy="223.804" r="14.676"/><circle cx="787.067" cy="702.218" r="12.518"/><circle cx="822.861" cy="462.911" r="14.717"/><circle cx="360.87" cy="856.56" r="15.349"/><circle cx="358.806" cy="513.46" r="8.155"/><circle cx="302.947" cy="415.641" r="10.016"/><circle cx="627.915" cy="438.109" r="15.717"/><circle cx="584.82" cy="734.041" r="7.317"/><circle cx="760.824" cy="153.668" r="9.859"/><circle cx="698.574" cy="806.233" r="17.116"/><circle cx="847.44" cy="514.571" r="11.229"/><circle cx="435.413" cy="699.207" r="10.62"/><circle cx="448.962" cy="816.02" r="6.56"/><circle cx="796.059" cy="467.203" r="7.7"/><circle cx="89.636" cy="502.197" r="9.017"/><circle cx="627.774" cy="795.203" r="8.433"/><circle cx="292.437" cy="381.717" r="8.109"/><circle cx="173.368" cy="788.352" r="8.745"/><circle cx="324.006" cy="326.937" r="8.6"/><circle cx="378.702" cy="461.542" r="9.063"/><circle cx="673.727" cy="93.691" r="6.537"/><circle cx="832.323" cy="683.313" r="10.891"/><circle cx="103.059" cy="305.984" r="14.001"/><circle cx="511.996" cy="650.955" r="10.066"/><circle cx="637.152" cy="129.918" r="8.275"/><circle cx="391.194" cy="804.809" r="7.582"/><circle cx="340.088" cy="741.531" r="6.216"/><circle cx="578.452" cy="178.116" r="10.225"/><circle cx="561.665" cy="45.91" r="7.958"/><circle cx="656.469" cy="863.974" r="13.546"/><circle cx="579.778" cy="756.865" r="7.281"/><circle cx="299.628" cy="398.082" r="6.181"/><circle cx="879.397" cy="409.904" r="8.22"/><circle cx="157.625" cy="230.261" r="6.619"/><circle cx="155.538" cy="617.468" r="8.493"/><circle cx="136.452" cy="315.831" r="10.836"/><circle cx="101.036" cy="417.044" r="12.13"/><circle cx="356.397" cy="486.536" r="9.427"/><circle cx="240.057" cy="796.754" r="6.083"/><circle cx="315.305" cy="450.875" r="8.639"/><circle cx="754.081" cy="768.616" r="14.976"/><circle cx="781.963" cy="203.072" r="10.821"/><circle cx="738.442" cy="274.401" r="11.559"/><circle cx="396.005" cy="463.053" r="6.652"/><circle cx="410.97" cy="84.906" r="7.209"/><circle cx="214.332" cy="136.72" r="13.457"/><circle cx="481.05" cy="97.626" r="7.241"/><circle cx="517.446" cy="668.891" r="6.302"/><circle cx="371.794" cy="334.999" r="6.539"/><circle cx="837.567" cy="396.512" r="10.783"/><circle cx="561.818" cy="181.136" r="6.078"/><circle cx="118.007" cy="401.688" r="8.965"/><circle cx="80.822" cy="282.119" r="6.146"/><circle cx="414.367" cy="238.869" r="7.598"/><circle cx="435.599" cy="676.332" r="10.237"/><circle cx="479.024" cy="166.451" r="8.986"/><circle cx="595.693" cy="135.016" r="11.077"/><circle cx="285.208" cy="429.253" r="9.021"/><circle cx="251.083" cy="775.539" r="6.469"/><circle cx="759.736" cy="266.724" r="6.444"/><circle cx="323.751" cy="637.52" r="6.555"/><circle cx="532.697" cy="874.225" r="15.097"/><circle cx="446.856" cy="416.083" r="9.971"/><circle cx="666.115" cy="142.133" r="13.951"/><circle cx="332.675" cy="793.044" r="8.122"/><circle cx="319.836" cy="660.747" r="6.167"/><circle cx="273.602" cy="810.334" r="9.477"/><circle cx="110.094" cy="620.917" r="9.391"/><circle cx="606.056" cy="756.359" r="13.035"/><circle cx="550.399" cy="614.444" r="7.187"/><circle cx="326.634" cy="189.781" r="8.437"/><circle cx="175.567" cy="493.692" r="10.917"/><circle cx="873.417" cy="277.206" r="8.164"/><circle cx="805.165" cy="670.894" r="7.513"/><circle cx="796.115" cy="230.381" r="13.344"/><circle cx="337.648" cy="288.042" r="6.039"/><circle cx="268.616" cy="789.148" r="8.71"/><circle cx="753.679" cy="691.178" r="9.639"/><circle cx="669.753" cy="74.44" r="7.689"/><circle cx="807.226" cy="281.267" r="11.359"/><circle cx="796.691" cy="483.473" r="6.89"/><circle cx="871.843" cy="387.637" r="6.701"/><circle cx="743.795" cy="647.841" r="14.072"/><circle cx="625.333" cy="249.516" r="13.784"/><circle cx="703.555" cy="105.018" r="16.385"/><circle cx="645.42" cy="152.808" r="6.585"/><circle cx="570.989" cy="485.604" r="7.331"/><circle cx="863.203" cy="555.688" r="7.84"/><circle cx="421.749" cy="180.757" r="8.326"/><circle cx="516.251" cy="189.037" r="8.084"/><circle cx="596.079" cy="69.526" r="8.421"/><circle cx="447.017" cy="437.679" r="6.965"/><circle cx="276.332" cy="167.128" r="11.344"/><circle cx="385.034" cy="406.654" r="8.011"/><circle cx="800.877" cy="583.447" r="11.138"/><circle cx="626.219" cy="278.526" r="6.453"/><circle cx="772.905" cy="471.827" r="10.75"/><circle cx="782.753" cy="539.873" r="7.502"/><circle cx="522.085" cy="227.92" r="7.032"/><circle cx="398.191" cy="712.431" r="6.38"/><circle cx="278.781" cy="301.216" r="7.517"/><circle cx="446.319" cy="463.311" r="6.35"/><circle cx="827.538" cy="294.783" r="7.105"/><circle cx="202.546" cy="756.678" r="8.354"/><circle cx="223.147" cy="548.813" r="6.367"/><circle cx="741.272" cy="814.661" r="6.629"/><circle cx="413.291" cy="733.103" r="8.01"/><circle cx="154.645" cy="652.698" r="9.795"/><circle cx="411.389" cy="628.756" r="6.761"/><circle cx="284.505" cy="96.529" r="7.643"/><circle cx="860.036" cy="682.692" r="6.385"/><circle cx="357.113" cy="100.016" r="9.914"/><circle cx="136.38" cy="248.181" r="7.665"/><circle cx="49.335" cy="478.69" r="6.032"/><circle cx="570.822" cy="465.841" r="7.897"/><circle cx="311.484" cy="348.927" r="6.622"/><circle cx="143.672" cy="410.596" r="7.92"/><circle cx="434.893" cy="826.342" r="7.427"/><circle cx="56.9" cy="329.095" r="7.472"/><circle cx="105.633" cy="536.965" r="6.533"/><circle cx="303.667" cy="863.717" r="13.207"/><circle cx="913.264" cy="398.57" r="6.362"/><circle cx="252.702" cy="817.667" r="9.831"/><circle cx="351.237" cy="827.973" r="8.526"/><circle cx="316.328" cy="403.333" r="7.563"/><circle cx="92.04" cy="626.788" r="8.297"/><circle cx="780.195" cy="424.138" r="7.882"/><circle cx="134.038" cy="603.567" r="9.58"/><circle cx="839.97" cy="373.125" r="6.875"/><circle cx="102.238" cy="281.878" r="7.877"/><circle cx="267.283" cy="95.711" r="7.497"/><circle cx="908.927" cy="546.828" r="7.098"/><circle cx="728.11" cy="430.201" r="6.898"/><circle cx="585.077" cy="625.17" r="6.5"/><circle cx="114.549" cy="723.676" r="6.975"/><circle cx="144.552" cy="360.605" r="9.259"/><circle cx="808.876" cy="353.56" r="9.813"/><circle cx="295.637" cy="84.366" r="6.857"/><circle cx="218.686" cy="823.744" r="7.407"/><circle cx="119.209" cy="443.462" r="8.678"/><circle cx="180.815" cy="708.097" r="7.841"/><circle cx="594.794" cy="869.492" r="9.465"/><circle cx="439.1" cy="497.991" r="6.922"/><circle cx="317.65" cy="124.092" r="6.161"/><circle cx="484.211" cy="461.915" r="7.718"/><circle cx="678.84" cy="857.726" r="8.472"/><circle cx="365.891" cy="582.497" r="4.831"/><circle cx="385.37" cy="771.246" r="7.889"/><circle cx="493.891" cy="579.305" r="6.085"/><circle cx="665.955" cy="199.366" r="6.674"/><circle cx="683.64" cy="119.422" r="6.563"/><circle cx="776.296" cy="637.724" r="6.307"/><circle cx="801.491" cy="208.932" r="7.794"/><circle cx="114.428" cy="371.236" r="7.146"/><circle cx="633.647" cy="752.417" r="8.999"/><circle cx="379.225" cy="878.743" r="8.519"/><circle cx="212.12" cy="200.381" r="6.599"/><circle cx="892.399" cy="459.168" r="7.237"/><circle cx="508.133" cy="856.329" r="7.117"/><circle cx="570.273" cy="740.773" r="6.513"/><circle cx="213.664" cy="772.207" r="8.431"/><circle cx="779.552" cy="440.364" r="7.314"/><circle cx="106.253" cy="639.494" r="9.138"/><circle cx="848.546" cy="675.46" r="6.63"/><circle cx="633.479" cy="810.511" r="7.479"/><circle cx="428.065" cy="878.916" r="6.637"/><circle cx="39.221" cy="418.56" r="6.302"/><circle cx="455.728" cy="851.142" r="6.353"/><circle cx="656.039" cy="344.799" r="7.237"/><circle cx="333.539" cy="58.343" r="9.61"/><circle cx="36.957" cy="518.159" r="7.616"/><circle cx="179.541" cy="271.513" r="6.953"/><circle cx="204.191" cy="219.027" r="6.853"/><circle cx="483.971" cy="210.111" r="6.393"/><circle cx="598.368" cy="187.952" r="6.051"/><circle cx="518.251" cy="428.871" r="6.503"/><circle cx="585.054" cy="522.485" r="6.718"/><circle cx="849.997" cy="468.526" r="6.091"/><circle cx="438.891" cy="596.47" r="7.219"/><circle cx="554.023" cy="673.105" r="6.331"/><circle cx="66.368" cy="582.003" r="6.898"/><circle cx="211.981" cy="291.686" r="6.219"/><circle cx="191.042" cy="131.589" r="6.05"/><circle cx="792.506" cy="774.677" r="7.629"/><circle cx="331.682" cy="220.489" r="6.179"/><circle cx="573.917" cy="285.948" r="6.313"/><circle cx="800.55" cy="167.023" r="6.796"/><circle cx="439.262" cy="185.132" r="6.17"/><circle cx="36.47" cy="464.597" r="6.645"/><circle cx="504.41" cy="771.928" r="6.357"/><circle cx="265.636" cy="227.344" r="6.259"/><circle cx="324.092" cy="283.292" r="7.212"/><circle cx="160.424" cy="523.896" r="6.247"/><circle cx="258.465" cy="300.032" r="8.823"/><circle cx="820.591" cy="636.837" r="7.155"/><circle cx="553.968" cy="33.564" r="6.537"/><circle cx="573.775" cy="256.464" r="6.32"/><circle cx="449.614" cy="907.989" r="6.241"/><circle cx="750.47" cy="227.513" r="6.36"/><circle cx="768.737" cy="750.492" r="6.278"/></g><g fill="#25222c"><circle cx="837.114" cy="444.717" r="7.042"/><circle cx="781.572" cy="298.062" r="8.492"/><circle cx="490.755" cy="35.547" r="6.08"/><circle cx="622.477" cy="399.879" r="10.68"/><circle cx="740.517" cy="463.343" r="14.001"/><circle cx="874.812" cy="362.249" r="15.935"/><circle cx="463.827" cy="454.452" r="12.383"/><circle cx="679.957" cy="188.262" r="9.735"/><circle cx="438.793" cy="115.059" r="7.813"/><circle cx="722.265" cy="307.861" r="12.691"/><circle cx="507.51" cy="790.448" r="11.259"/><circle cx="771.357" cy="515.911" r="6.313"/><circle cx="461.585" cy="810.84" r="6.127"/><circle cx="411.377" cy="760.838" r="8.939"/><circle cx="780.448" cy="274.999" r="13.439"/><circle cx="498.879" cy="87.983" r="8.871"/><circle cx="494.257" cy="658.388" r="7.096"/><circle cx="428.267" cy="462.28" r="6.922"/><circle cx="802.483" cy="523.374" r="16.941"/><circle cx="742.582" cy="543.047" r="17.148"/><circle cx="618.5" cy="822.64" r="10.651"/><circle cx="432.475" cy="541.951" r="13.69"/><circle cx="66.139" cy="384.69" r="10.823"/><circle cx="233.701" cy="773.423" r="9.911"/><circle cx="430.697" cy="248.523" r="10.056"/><circle cx="171.368" cy="472.161" r="7.293"/><circle cx="503.254" cy="686.408" r="16.018"/><circle cx="128.393" cy="277.309" r="7.637"/><circle cx="559.177" cy="381.446" r="12.245"/><circle cx="97.303" cy="255.825" r="6.687"/><circle cx="208.279" cy="488.636" r="10.768"/><circle cx="492.658" cy="188.556" r="14.829"/><circle cx="809.483" cy="730.797" r="6.03"/><circle cx="512.614" cy="409.079" r="7.427"/><circle cx="517.827" cy="908.601" r="7.278"/><circle cx="903.165" cy="422.394" r="6.12"/><circle cx="597.736" cy="814.372" r="9.21"/><circle cx="763.39" cy="626.538" r="9.409"/><circle cx="358.353" cy="135.455" r="10.04"/><circle cx="596.454" cy="778.87" r="9.342"/><circle cx="884.084" cy="487.676" r="18.22"/><circle cx="671.296" cy="675.432" r="12.171"/><circle cx="369.196" cy="787.303" r="11.895"/><circle cx="163.144" cy="207.865" r="14.54"/><circle cx="860.355" cy="411.13" r="8.74"/><circle cx="819.343" cy="656.432" r="11.25"/><circle cx="430.619" cy="141.97" r="14.043"/><circle cx="438.666" cy="618.145" r="7.337"/><circle cx="435.903" cy="355.619" r="9.748"/><circle cx="540.45" cy="695.507" r="6.594"/><circle cx="482.637" cy="852.94" r="13.24"/><circle cx="519.724" cy="755.633" r="12.217"/><circle cx="79.046" cy="358.838" r="17.453"/><circle cx="692.063" cy="389.713" r="8.453"/><circle cx="635.054" cy="840.055" r="9.453"/><circle cx="407.689" cy="198.153" r="6.887"/><circle cx="621.594" cy="877.769" r="9.61"/><circle cx="828.471" cy="315.513" r="12.639"/><circle cx="323.259" cy="166.443" r="12.02"/><circle cx="751.61" cy="610.684" r="8.658"/><circle cx="581.66" cy="608.238" r="9.493"/><circle cx="406.444" cy="105.928" r="10.908"/><circle cx="538.046" cy="106.539" r="7.061"/><circle cx="569.839" cy="723.29" r="6.518"/><circle cx="87.466" cy="473.855" r="10.069"/><circle cx="450.361" cy="40.952" r="6.027"/><circle cx="643.192" cy="238.405" r="6.414"/><circle cx="128.297" cy="484.558" r="8.206"/><circle cx="458.648" cy="211.601" r="9.97"/><circle cx="557.911" cy="197.701" r="10.118"/><circle cx="520.924" cy="150.709" r="6.322"/><circle cx="810.958" cy="562.919" r="9.087"/><circle cx="890.704" cy="335.69" r="12.11"/><circle cx="91.926" cy="653.216" r="10.021"/><circle cx="584.622" cy="161.408" r="7.211"/><circle cx="413.686" cy="686.581" r="6.878"/><circle cx="660.751" cy="368.964" r="14.701"/><circle cx="455.987" cy="185.9" r="8.289"/><circle cx="443.751" cy="164.916" r="7.733"/><circle cx="52.916" cy="584.433" r="6.625"/><circle cx="449.47" cy="270.043" r="7.86"/><circle cx="637.864" cy="167.95" r="7.803"/><circle cx="127.692" cy="697.096" r="10.244"/><circle cx="757.347" cy="571.089" r="9.858"/><circle cx="429.27" cy="226.509" r="6.328"/><circle cx="77.311" cy="557.103" r="15.202"/><circle cx="216.496" cy="574.276" r="17.022"/><circle cx="313.053" cy="429.808" r="7.113"/><circle cx="424.29" cy="40.262" r="6.995"/><circle cx="493.607" cy="535.111" r="6.162"/><circle cx="280.939" cy="554.637" r="8.547"/><circle cx="210.601" cy="408.325" r="7.602"/><circle cx="569.099" cy="526.686" r="7.799"/><circle cx="656.733" cy="165.954" r="8.97"/><circle cx="402.704" cy="60.535" r="16.366"/><circle cx="165.943" cy="437.889" r="6.016"/><circle cx="425.147" cy="743.828" r="6.862"/><circle cx="638.571" cy="208.165" r="10.426"/><circle cx="222.346" cy="794.833" r="10.069"/><circle cx="821.555" cy="491.424" r="7.84"/><circle cx="797.249" cy="391.668" r="8.006"/><circle cx="802.552" cy="608.203" r="12.772"/><circle cx="619.662" cy="857.157" r="8.502"/><circle cx="261.146" cy="428.251" r="11.654"/><circle cx="699.641" cy="181.31" r="7.281"/><circle cx="594.792" cy="889.282" r="9.894"/><circle cx="564.343" cy="271.575" r="9.069"/><circle cx="496.753" cy="907.684" r="8.491"/><circle cx="239.555" cy="751.823" r="6.704"/><circle cx="318.936" cy="383.996" r="8.336"/><circle cx="457.576" cy="88.17" r="8.175"/><circle cx="191.742" cy="286.339" r="8.272"/><circle cx="288.68" cy="507.052" r="6.893"/><circle cx="821.352" cy="205.559" r="9.209"/><circle cx="151.479" cy="537.215" r="6.228"/><circle cx="514.962" cy="810.909" r="9.391"/><circle cx="556.466" cy="124.476" r="7.979"/><circle cx="745.603" cy="327.048" r="13.487"/><circle cx="584.9" cy="475.215" r="7.545"/><circle cx="744.956" cy="397.378" r="12.377"/><circle cx="300.15" cy="838.175" r="6.098"/><circle cx="475.922" cy="52.498" r="13.093"/><circle cx="365.359" cy="44.285" r="6.9"/><circle cx="612.539" cy="71.139" r="7.006"/><circle cx="541.329" cy="678.963" r="6.71"/><circle cx="434.359" cy="480.651" r="6.332"/><circle cx="373.664" cy="504.241" r="7.254"/><circle cx="175.56" cy="447.881" r="6.949"/><circle cx="239.406" cy="644.906" r="6.323"/><circle cx="570.372" cy="234.796" r="9.527"/><circle cx="227.262" cy="602.514" r="10.59"/><circle cx="174.651" cy="631.585" r="8.305"/><circle cx="373.171" cy="61.214" r="9.871"/><circle cx="139.829" cy="222.124" r="12.308"/><circle cx="113.124" cy="603.674" r="7.802"/><circle cx="821.896" cy="403.434" r="6.149"/><circle cx="83.99" cy="330.073" r="11.2"/><circle cx="660.245" cy="657.732" r="7.759"/><circle cx="326.09" cy="464.315" r="6.026"/><circle cx="158.608" cy="458.239" r="6.807"/><circle cx="909.004" cy="520.91" r="6.278"/><circle cx="219.103" cy="528.546" r="7.182"/><circle cx="701.685" cy="844.31" r="10.537"/><circle cx="649.485" cy="82.09" r="11.835"/><circle cx="418.057" cy="448.711" r="6.391"/><circle cx="690.853" cy="201.447" r="6.028"/><circle cx="563.398" cy="316.611" r="7.352"/><circle cx="489.712" cy="127.173" r="7.777"/><circle cx="784.534" cy="759.039" r="9.538"/><circle cx="823.253" cy="226.678" r="8.904"/><circle cx="439.363" cy="94.706" r="7.665"/><circle cx="486.025" cy="79.105" r="6.392"/><circle cx="65.308" cy="492.374" r="8.198"/><circle cx="477.256" cy="807.811" r="6.143"/><circle cx="443.748" cy="868.145" r="9.412"/><circle cx="46.636" cy="454.003" r="6.327"/><circle cx="783.902" cy="623.263" r="7.337"/><circle cx="376.59" cy="480.114" r="7.513"/><circle cx="727.608" cy="481.589" r="6.358"/><circle cx="856.97" cy="389.5" r="7.685"/><circle cx="128.212" cy="199.453" r="7.152"/><circle cx="322.822" cy="136.626" r="6.191"/><circle cx="524.596" cy="695.683" r="6.274"/><circle cx="167.435" cy="311.27" r="6.215"/><circle cx="631.799" cy="66.582" r="8.191"/><circle cx="414.11" cy="610.742" r="6.78"/><circle cx="498.416" cy="303.815" r="10.237"/><circle cx="109.841" cy="702.861" r="7.657"/><circle cx="723.98" cy="345.851" r="8.53"/><circle cx="273.48" cy="770.555" r="6.049"/><circle cx="862.447" cy="252.768" r="6.951"/><circle cx="179.653" cy="182.576" r="7.57"/><circle cx="463.154" cy="33.239" r="7.303"/><circle cx="827.299" cy="611.749" r="6.49"/><circle cx="858.983" cy="536.804" r="8.033"/><circle cx="416.817" cy="261.956" r="6.157"/><circle cx="629.522" cy="110.379" r="8.581"/><circle cx="763.846" cy="207.096" r="6.829"/><circle cx="494.862" cy="635.197" r="7.685"/><circle cx="762.703" cy="724.73" r="6.37"/><circle cx="369.973" cy="526.96" r="7.807"/><circle cx="677.908" cy="655.682" r="6.791"/><circle cx="672.428" cy="399.024" r="9.377"/><circle cx="436.603" cy="30.487" r="8.177"/><circle cx="848.019" cy="704.428" r="9.884"/><circle cx="354.754" cy="751.918" r="7.976"/><circle cx="861.408" cy="666.539" r="6.561"/><circle cx="362.036" cy="804.891" r="4.109"/><circle cx="507.403" cy="70.489" r="6.181"/><circle cx="562.124" cy="291.297" r="6.141"/><circle cx="850.522" cy="454.77" r="6.446"/><circle cx="603.57" cy="55.489" r="6.028"/><circle cx="143.507" cy="263.893" r="8.326"/><circle cx="381.797" cy="35.885" r="6.879"/><circle cx="256.822" cy="388.417" r="7.486"/><circle cx="659.031" cy="185.059" r="7.298"/><circle cx="645.55" cy="331.788" r="6.028"/><circle cx="745.553" cy="211.635" r="9.674"/><circle cx="540.994" cy="579.196" r="6.037"/><circle cx="376.378" cy="134.679" r="6.957"/><circle cx="758.326" cy="521.527" r="7.505"/><circle cx="423.797" cy="76.666" r="6.463"/><circle cx="841.546" cy="419.18" r="6.186"/><circle cx="117.052" cy="674.545" r="6.405"/><circle cx="36.74" cy="441.418" r="7.397"/><circle cx="155.481" cy="480.717" r="6.457"/><circle cx="403.92" cy="126.06" r="6.479"/><circle cx="523.635" cy="633.866" r="6.334"/><circle cx="715.761" cy="182.29" r="7.804"/><circle cx="450.257" cy="251.168" r="6.97"/><circle cx="691.173" cy="166.136" r="6.875"/><circle cx="386.763" cy="856.008" r="7.048"/><circle cx="552.366" cy="842.501" r="6.806"/><circle cx="246.36" cy="687.489" r="6.197"/><circle cx="771.063" cy="686.024" r="6.991"/><circle cx="170.352" cy="338.451" r="6.58"/><circle cx="560.026" cy="167.51" r="6.29"/><circle cx="649.967" cy="679.743" r="6.484"/><circle cx="248.579" cy="90.794" r="8.164"/><circle cx="406.991" cy="745.941" r="4.345"/><circle cx="229.12" cy="170.619" r="6.102"/><circle cx="718.749" cy="284.949" r="6.782"/><circle cx="398.448" cy="378.61" r="7.566"/><circle cx="436.976" cy="449.257" r="6.901"/><circle cx="851.731" cy="321.332" r="6.058"/><circle cx="856.377" cy="267.23" r="6.065"/><circle cx="684.027" cy="370.636" r="7.069"/><circle cx="145.863" cy="761.815" r="6.488"/><circle cx="211.807" cy="305.16" r="6.171"/><circle cx="759.642" cy="414.387" r="7.203"/><circle cx="531.19" cy="661.306" r="6.054"/><circle cx="170.97" cy="512.891" r="6.296"/><circle cx="428.785" cy="332.697" r="6.054"/><circle cx="606.248" cy="114.469" r="6.869"/><circle cx="211.769" cy="385.15" r="6.498"/><circle cx="807.129" cy="301.199" r="6.17"/><circle cx="399.962" cy="228.02" r="6.147"/><circle cx="204.176" cy="817.35" r="7.544"/><circle cx="643.985" cy="652.982" r="7.345"/><circle cx="126.599" cy="654.511" r="7.708"/><circle cx="177.396" cy="562.847" r="7.366"/><circle cx="473.353" cy="227.184" r="6.818"/><circle cx="640.69" cy="879.165" r="8.271"/><circle cx="514.426" cy="137.286" r="6.634"/><circle cx="88.25" cy="434.05" r="6.532"/><circle cx="794.214" cy="657.177" r="6.708"/><circle cx="339.024" cy="146.576" r="6.218"/></g><g fill="#45235e"><circle cx="500.528" cy="26.666" r="6.401"/><circle cx="795.037" cy="311.5" r="9.612"/><circle cx="173.403" cy="294.214" r="9.181"/><circle cx="389.416" cy="429.447" r="10.708"/><circle cx="504.971" cy="447.601" r="16.058"/><circle cx="693.444" cy="471.106" r="8.408"/><circle cx="765.842" cy="312.698" r="10.907"/><circle cx="434.725" cy="845.861" r="10.393"/><circle cx="168.156" cy="414.989" r="15.169"/><circle cx="874.142" cy="443.578" r="15.679"/><circle cx="579.971" cy="200.77" r="11.112"/><circle cx="850.076" cy="280.874" r="6.343"/><circle cx="424.793" cy="307.886" r="6.778"/><circle cx="151.543" cy="601.404" r="6.645"/><circle cx="142.292" cy="443.924" r="14.091"/><circle cx="509.952" cy="280.228" r="14.4"/><circle cx="583.54" cy="83.81" r="9.027"/><circle cx="429.93" cy="572.862" r="16.465"/><circle cx="520.44" cy="569.677" r="16.041"/><circle cx="412.452" cy="168.65" r="6.702"/><circle cx="703.433" cy="291.127" r="7.003"/><circle cx="97.048" cy="450.721" r="11.022"/><circle cx="648.352" cy="569.471" r="11.991"/><circle cx="219.787" cy="689.457" r="15.566"/><circle cx="376.69" cy="362.366" r="16.733"/><circle cx="512.605" cy="169.746" r="6.99"/><circle cx="428.816" cy="201.636" r="12.787"/><circle cx="888.219" cy="532.688" r="16.902"/><circle cx="868.522" cy="307.13" r="12.276"/><circle cx="714.571" cy="735.41" r="10.206"/><circle cx="351.32" cy="50.62" r="8.301"/><circle cx="333.603" cy="85.747" r="13.923"/><circle cx="225.624" cy="456.051" r="13.784"/><circle cx="202.644" cy="244.559" r="15.368"/><circle cx="311.686" cy="213.995" r="14.249"/><circle cx="110.195" cy="492.211" r="9.449"/><circle cx="896.216" cy="384.676" r="11.362"/><circle cx="101.826" cy="582.939" r="14.435"/><circle cx="555.836" cy="250.459" r="7.505"/><circle cx="754.576" cy="491.744" r="15.438"/><circle cx="271.788" cy="278.869" r="12.336"/><circle cx="797.535" cy="184.153" r="10.272"/><circle cx="737.383" cy="712.25" r="14.636"/><circle cx="585.139" cy="538.269" r="6.107"/><circle cx="766.024" cy="598.154" r="8.499"/><circle cx="574.672" cy="506.547" r="11.341"/><circle cx="705.435" cy="763.402" r="7.629"/><circle cx="607.387" cy="797.424" r="6.564"/><circle cx="729.904" cy="610.086" r="14.629"/><circle cx="395.59" cy="733.784" r="7.373"/><circle cx="747.167" cy="193.44" r="7.58"/><circle cx="281.737" cy="216.234" r="8.506"/><circle cx="512.565" cy="321.667" r="9.189"/><circle cx="311.738" cy="730.49" r="7.769"/><circle cx="328.907" cy="304.96" r="11.98"/><circle cx="485.69" cy="784.251" r="8.57"/><circle cx="562.437" cy="810.913" r="6.039"/><circle cx="911.096" cy="496.102" r="9.322"/><circle cx="211.174" cy="269.759" r="7.044"/><circle cx="126.926" cy="584.263" r="6.997"/><circle cx="714.886" cy="450.584" r="13.504"/><circle cx="134.976" cy="630.935" r="15.865"/><circle cx="144.023" cy="675.744" r="15.133"/><circle cx="799.276" cy="637.332" r="12.492"/><circle cx="276.821" cy="189.388" r="7.92"/><circle cx="160.485" cy="275.385" r="11.278"/><circle cx="296.84" cy="364.882" r="8.618"/><circle cx="648.088" cy="632.706" r="11.596"/><circle cx="645.09" cy="520.158" r="8.234"/><circle cx="162.443" cy="552.423" r="8.538"/><circle cx="644.21" cy="694.558" r="8.121"/><circle cx="339.641" cy="272.415" r="6.601"/><circle cx="133.37" cy="384.752" r="13.606"/><circle cx="916.1" cy="429.668" r="6.683"/><circle cx="646.348" cy="539.281" r="10.121"/><circle cx="845.204" cy="344.559" r="17.351"/><circle cx="107.749" cy="239.606" r="7.387"/><circle cx="873.451" cy="644.06" r="15.652"/><circle cx="433.521" cy="516.272" r="11.18"/><circle cx="328.366" cy="343.16" r="6.052"/><circle cx="878.93" cy="579.79" r="17.887"/><circle cx="681.791" cy="304.099" r="8.307"/><circle cx="193.837" cy="199.26" r="7.758"/><circle cx="631.197" cy="227.058" r="7.302"/><circle cx="188.07" cy="214.327" r="7.049"/><circle cx="495.072" cy="805.093" r="6.363"/><circle cx="138.847" cy="739.487" r="10.72"/><circle cx="232.92" cy="626.717" r="9.371"/><circle cx="657.637" cy="211.263" r="6.101"/><circle cx="391.65" cy="141.567" r="8.047"/><circle cx="560.15" cy="90.548" r="13.03"/><circle cx="758.789" cy="805.361" r="9.071"/><circle cx="600.744" cy="168.964" r="6.496"/><circle cx="854.177" cy="373.733" r="7.263"/><circle cx="570.297" cy="577.243" r="6.938"/><circle cx="621.626" cy="377.403" r="9.606"/><circle cx="689.229" cy="748.43" r="8.895"/><circle cx="557.615" cy="565.461" r="7.651"/><circle cx="327.215" cy="755.429" r="9.388"/><circle cx="286.461" cy="796.527" r="6.592"/><circle cx="331.286" cy="875.572" r="7.196"/><circle cx="442.52" cy="294.49" r="14.597"/><circle cx="777.116" cy="785.59" r="9.022"/><circle cx="233.852" cy="151.498" r="9.903"/><circle cx="142.458" cy="469.451" r="7.19"/><circle cx="45.211" cy="496.811" r="10.858"/><circle cx="152.859" cy="585.386" r="8.032"/><circle cx="192.265" cy="802.363" r="11.054"/><circle cx="558.545" cy="400.942" r="6.177"/><circle cx="529.791" cy="545.687" r="8.864"/><circle cx="551.797" cy="519.135" r="7.499"/><circle cx="762.979" cy="738.668" r="6.025"/><circle cx="594.095" cy="848.905" r="9.589"/><circle cx="185.839" cy="399.148" r="7.899"/><circle cx="252.68" cy="837.452" r="6.639"/><circle cx="552.88" cy="659.623" r="6.718"/><circle cx="331.109" cy="721.07" r="12.281"/><circle cx="839.153" cy="215.184" r="7.44"/><circle cx="465.738" cy="830.5" r="12.422"/><circle cx="540.516" cy="213.427" r="9.145"/><circle cx="646.437" cy="817.788" r="7.008"/><circle cx="787.171" cy="157.413" r="7.719"/><circle cx="429.832" cy="634.122" r="10.057"/><circle cx="115.26" cy="262.831" r="6.907"/><circle cx="738.21" cy="677.791" r="8.165"/><circle cx="430.414" cy="268.327" r="6.992"/><circle cx="367.261" cy="449.09" r="6.825"/><circle cx="310.941" cy="792.547" r="7.053"/><circle cx="376.756" cy="754.069" r="10.721"/><circle cx="888.088" cy="424.976" r="6.997"/><circle cx="114.107" cy="520.799" r="10.873"/><circle cx="783.868" cy="501.49" r="6.792"/><circle cx="51.99" cy="368.683" r="6.743"/><circle cx="536.94" cy="525.691" r="7.832"/><circle cx="501.37" cy="387.328" r="12.696"/><circle cx="780.121" cy="586.571" r="6.538"/><circle cx="311.079" cy="67.565" r="13.612"/><circle cx="637.367" cy="320.697" r="6.155"/><circle cx="338.43" cy="860.525" r="6.436"/><circle cx="569.749" cy="663.187" r="6.385"/><circle cx="759.469" cy="286.677" r="8.066"/><circle cx="640.56" cy="380.758" r="6.396"/><circle cx="510.267" cy="36.341" r="6.074"/><circle cx="718.302" cy="780.724" r="9.458"/><circle cx="376.503" cy="898.191" r="7.924"/><circle cx="731.493" cy="516.859" r="9.409"/><circle cx="425.685" cy="165.189" r="6.213"/><circle cx="803.836" cy="369.072" r="6.342"/><circle cx="416.705" cy="592.874" r="6.532"/><circle cx="823.461" cy="723.888" r="8.629"/><circle cx="52.224" cy="547.6" r="10.354"/><circle cx="255.193" cy="327.038" r="5.42"/><circle cx="165.334" cy="168.538" r="7.93"/><circle cx="219.129" cy="158.542" r="6.28"/><circle cx="319.116" cy="698.56" r="10.79"/><circle cx="204.574" cy="155.751" r="6.388"/><circle cx="389.403" cy="93.031" r="6.806"/><circle cx="425.793" cy="105.803" r="6.773"/><circle cx="266.54" cy="455.274" r="9.429"/><circle cx="851.283" cy="299.353" r="6.11"/><circle cx="669.252" cy="796.215" r="7.573"/><circle cx="177.238" cy="673.43" r="6.154"/><circle cx="816.112" cy="249.312" r="6.16"/><circle cx="571.58" cy="412.424" r="8.764"/><circle cx="821.322" cy="378.458" r="11.188"/><circle cx="509.342" cy="546.416" r="6.557"/><circle cx="904.044" cy="583.308" r="7.237"/><circle cx="673.417" cy="556.514" r="7.225"/><circle cx="404.557" cy="33.735" r="7.995"/><circle cx="673.645" cy="535.626" r="6.811"/><circle cx="585.017" cy="571.74" r="6.43"/><circle cx="343.091" cy="254.083" r="6.236"/><circle cx="694.769" cy="317.663" r="7.613"/><circle cx="185.711" cy="351.723" r="7.04"/><circle cx="120.16" cy="356.291" r="7.202"/><circle cx="367.19" cy="826.369" r="6.372"/><circle cx="109.362" cy="685.276" r="6.21"/><circle cx="703.745" cy="205.424" r="6.132"/><circle cx="242.324" cy="179.083" r="6.882"/><circle cx="462.724" cy="865.388" r="6.954"/><circle cx="566.616" cy="429.211" r="6.828"/><circle cx="439.39" cy="655.89" r="6.864"/><circle cx="689.291" cy="86.67" r="6.733"/><circle cx="141.039" cy="291.14" r="8.023"/><circle cx="130.351" cy="717.599" r="7.801"/><circle cx="394.555" cy="751.624" r="6.093"/><circle cx="68.906" cy="474.874" r="8.392"/><circle cx="721.945" cy="152.321" r="7.759"/><circle cx="567.042" cy="597.733" r="6.385"/><circle cx="829.708" cy="510.237" r="6.846"/><circle cx="709.378" cy="164.504" r="6.389"/><circle cx="365.059" cy="225.049" r="9.017"/><circle cx="710.776" cy="480.245" r="9.392"/><circle cx="419.96" cy="281.169" r="6.367"/><circle cx="125.124" cy="294.223" r="7.636"/><circle cx="116.957" cy="225.502" r="9.052"/><circle cx="564.356" cy="759.926" r="7.401"/><circle cx="675.376" cy="815.51" r="6.794"/><circle cx="561.745" cy="777.509" r="6.128"/><circle cx="452.716" cy="229.392" r="6.354"/><circle cx="435.236" cy="909.817" r="6.271"/><circle cx="450.318" cy="345.24" r="6.798"/><circle cx="896.06" cy="510.342" r="6.154"/><circle cx="262.809" cy="179.282" r="6.203"/><circle cx="692.117" cy="778.831" r="7.319"/><circle cx="481.745" cy="115.128" r="5.22"/><circle cx="913.143" cy="477.023" r="7.156"/><circle cx="229.076" cy="812.115" r="8.164"/><circle cx="536.943" cy="634.439" r="6.95"/><circle cx="736.229" cy="739.999" r="7.994"/><circle cx="843.273" cy="606.345" r="7.632"/><circle cx="191.335" cy="374.869" r="6.046"/><circle cx="216.934" cy="661.787" r="6.877"/><circle cx="435.233" cy="811.375" r="4.968"/><circle cx="236.14" cy="100.679" r="6.59"/><circle cx="257.009" cy="164.089" r="7.671"/><circle cx="616.144" cy="463.287" r="6.611"/><circle cx="644.122" cy="187.268" r="6.164"/><circle cx="356.947" cy="200.503" r="6.492"/><circle cx="550.269" cy="825.423" r="6.927"/><circle cx="542.03" cy="127.177" r="6.674"/><circle cx="721.593" cy="499.824" r="6.242"/><circle cx="63.349" cy="402.501" r="6.453"/><circle cx="276.831" cy="370.549" r="7.445"/><circle cx="773.566" cy="329.045" r="7.009"/><circle cx="463.998" cy="770.19" r="6.095"/><circle cx="324.409" cy="367.751" r="6.052"/><circle cx="269.669" cy="112.613" r="7.557"/><circle cx="750.412" cy="734.696" r="6.229"/><circle cx="167.089" cy="739.628" r="6.528"/><circle cx="341.567" cy="133.414" r="6.279"/><circle cx="56.219" cy="349.945" r="6.051"/><circle cx="527.555" cy="165.821" r="6.097"/><circle cx="889.377" cy="309.902" r="6.487"/><circle cx="655.031" cy="229.872" r="6.465"/><circle cx="357.644" cy="118.206" r="6.331"/><circle cx="190.186" cy="596.526" r="6.665"/><circle cx="725.524" cy="835.519" r="6.53"/><circle cx="709.313" cy="599.976" r="6.206"/><circle cx="565.095" cy="613.957" r="6.04"/><circle cx="867.467" cy="521.338" r="6.111"/><circle cx="645.417" cy="58.815" r="6.438"/><circle cx="617.887" cy="288.987" r="6.281"/><circle cx="210.864" cy="430.173" r="7.168"/></g><g fill="#639"><circle cx="155.517" cy="296.672" r="7.07"/><circle cx="767.512" cy="706.298" r="6.913"/><circle cx="89.448" cy="268.641" r="7.636"/><circle cx="263.949" cy="856.949" r="7.166"/><circle cx="335.115" cy="824.851" r="7.233"/><circle cx="156.97" cy="636.394" r="6.404"/><circle cx="439.925" cy="796.639" r="6.379"/><circle cx="663.396" cy="694.046" r="6.362"/><circle cx="435.804" cy="317.979" r="6.447"/><circle cx="102.354" cy="351.264" r="6.414"/><circle cx="645.477" cy="789.453" r="7.82"/><circle cx="41.639" cy="388.287" r="6.236"/><circle cx="280.786" cy="866.578" r="6.105"/><circle cx="326.373" cy="776.74" r="7.373"/><circle cx="248.646" cy="463.137" r="7.071"/><circle cx="49.059" cy="568.893" r="6.456"/><circle cx="525.485" cy="781.207" r="7.883"/><circle cx="551.25" cy="750.533" r="6.605"/><circle cx="441.181" cy="749.098" r="7.104"/><circle cx="62.916" cy="312.873" r="7.199"/><circle cx="635.556" cy="856.668" r="6.473"/><circle cx="178.887" cy="731.813" r="7.155"/><circle cx="211.409" cy="355.189" r="6.329"/><circle cx="428.837" cy="606.619" r="6.21"/><circle cx="156.842" cy="345.196" r="6.013"/><circle cx="93.941" cy="610.077" r="6.497"/><circle cx="294.648" cy="233.385" r="6.238"/><circle cx="330.313" cy="677.947" r="6.666"/><circle cx="536.697" cy="897.457" r="6.016"/><circle cx="191.098" cy="673.103" r="6.495"/><circle cx="161.098" cy="777.963" r="6.193"/><circle cx="552.236" cy="888.415" r="6.389"/><circle cx="554.648" cy="871.232" r="6.024"/><circle cx="715.057" cy="824.042" r="6.329"/><circle cx="439.215" cy="718.694" r="6.854"/><circle cx="570.718" cy="705.601" r="6.944"/><circle cx="170.864" cy="245.597" r="6.503"/><circle cx="450.566" cy="367.685" r="6.495"/><circle cx="206.369" cy="788.758" r="6.012"/><circle cx="563.676" cy="898.362" r="6.275"/><circle cx="322.869" cy="806.731" r="6.552"/><circle cx="215.994" cy="509.669" r="6.767"/><circle cx="347.293" cy="773.747" r="10.513"/><circle cx="815.952" cy="743.872" r="6.449"/><circle cx="407.806" cy="152.376" r="8.519"/><circle cx="71.621" cy="640.612" r="6.238"/><circle cx="75.024" cy="453.988" r="7.862"/><circle cx="133.229" cy="528.417" r="9.037"/><circle cx="352.015" cy="73.478" r="6.856"/><circle cx="474.554" cy="133.069" r="7.083"/><circle cx="424.079" cy="122.22" r="6.728"/><circle cx="401.211" cy="695.828" r="6.205"/><circle cx="165.595" cy="154.077" r="6.013"/><circle cx="726.929" cy="811.036" r="7.116"/><circle cx="236.511" cy="130.462" r="9.259"/><circle cx="607.619" cy="838.641" r="6.52"/><circle cx="272.236" cy="509.581" r="6.697"/><circle cx="392.064" cy="836.793" r="6.514"/><circle cx="80.317" cy="583.073" r="6.263"/><circle cx="458.123" cy="752.425" r="9.2"/><circle cx="224.405" cy="734.744" r="8.229"/><circle cx="310.007" cy="94.046" r="6.974"/><circle cx="167.252" cy="390.915" r="7.683"/><circle cx="420.105" cy="903.172" r="8.778"/><circle cx="396.53" cy="899.053" r="6.254"/><circle cx="439.476" cy="733.251" r="6.38"/><circle cx="190.354" cy="430.25" r="6.498"/><circle cx="801.212" cy="688.398" r="6.614"/><circle cx="254.528" cy="270.935" r="4.961"/><circle cx="46.86" cy="402.36" r="8.012"/><circle cx="566.071" cy="854.863" r="8.513"/><circle cx="255.825" cy="745.765" r="6.893"/><circle cx="316.121" cy="821.925" r="6.105"/><circle cx="362.724" cy="385.252" r="7.255"/><circle cx="195.658" cy="738.698" r="10.264"/><circle cx="98.807" cy="388.057" r="12.652"/><circle cx="400.064" cy="447.791" r="7.152"/><circle cx="168.205" cy="575.678" r="7.784"/><circle cx="414.827" cy="463.192" r="6.775"/><circle cx="246.361" cy="705.796" r="9.179"/><circle cx="78.357" cy="302.592" r="9.382"/><circle cx="92.574" cy="676.532" r="12.22"/><circle cx="388.839" cy="787.283" r="7.008"/><circle cx="148.603" cy="183.343" r="13.602"/><circle cx="116.062" cy="469.765" r="7.299"/><circle cx="196.772" cy="776.641" r="8.018"/><circle cx="614.558" cy="783.972" r="7.094"/><circle cx="681.04" cy="840.74" r="8.561"/><circle cx="171.761" cy="599.774" r="9.349"/><circle cx="339.632" cy="207.304" r="8.19"/><circle cx="111.62" cy="660.802" r="7.816"/><circle cx="189.578" cy="720.61" r="7.123"/><circle cx="736.195" cy="827.712" r="6.624"/><circle cx="397.896" cy="181.293" r="10.109"/><circle cx="373.329" cy="83.33" r="11.331"/><circle cx="201.836" cy="329.19" r="16.511"/><circle cx="366.736" cy="546.157" r="8.396"/><circle cx="85.438" cy="532.516" r="9.677"/><circle cx="438.259" cy="893.235" r="10.364"/><circle cx="544.558" cy="768.063" r="10.289"/><circle cx="254.481" cy="204.496" r="17.871"/><circle cx="322.171" cy="264.004" r="8.269"/><circle cx="250.407" cy="111.017" r="10.522"/><circle cx="70.412" cy="611.126" r="17.044"/><circle cx="483.638" cy="758.972" r="15.374"/><circle cx="352.733" cy="883.368" r="12.062"/><circle cx="234.427" cy="826.704" r="7.059"/><circle cx="273.617" cy="836.995" r="14.012"/><circle cx="539.974" cy="801.926" r="16.298"/><circle cx="281.209" cy="528.955" r="12.013"/><circle cx="406.669" cy="884.551" r="10.454"/><circle cx="663.88" cy="761.98" r="18.528"/><circle cx="153.784" cy="751.422" r="6.575"/><circle cx="365.702" cy="564.288" r="7.063"/><circle cx="412.036" cy="214.948" r="8.202"/><circle cx="344.833" cy="236.488" r="7.697"/><circle cx="257.305" cy="371.675" r="7.954"/><circle cx="183.66" cy="651.868" r="13.537"/><circle cx="448.87" cy="327.726" r="8.211"/><circle cx="212.612" cy="716.484" r="7.27"/><circle cx="188.373" cy="149.146" r="10.26"/><circle cx="144.679" cy="505.484" r="16.496"/><circle cx="204.518" cy="177.799" r="15.185"/><circle cx="189.148" cy="539.776" r="14.731"/><circle cx="189.631" cy="510.853" r="9.591"/><circle cx="325.714" cy="843.513" r="13.595"/><circle cx="583.326" cy="714.58" r="8.233"/><circle cx="347.094" cy="181.285" r="11.542"/><circle cx="347.109" cy="456.545" r="14.848"/><circle cx="226.866" cy="190.673" r="7.1"/><circle cx="58.246" cy="460.902" r="7.055"/><circle cx="225.306" cy="115.02" r="9.043"/><circle cx="550.163" cy="902.417" r="7.295"/><circle cx="272.654" cy="749.661" r="6.15"/><circle cx="227.45" cy="221.271" r="12.714"/><circle cx="289.702" cy="454.382" r="12.723"/><circle cx="581.197" cy="680.413" r="10.964"/><circle cx="157.487" cy="327.608" r="8.192"/><circle cx="444.603" cy="65.966" r="15.917"/><circle cx="193.014" cy="616.012" r="12.772"/><circle cx="129.589" cy="557.159" r="17.734"/><circle cx="426.354" cy="802.032" r="6.173"/><circle cx="299.225" cy="761.99" r="18.137"/><circle cx="789.073" cy="733.304" r="11.259"/><circle cx="126.572" cy="421.456" r="11.066"/><circle cx="99.824" cy="554.085" r="7.318"/><circle cx="380.472" cy="202.08" r="13.494"/><circle cx="58.687" cy="517.912" r="13.478"/><circle cx="271.288" cy="320.293" r="11.352"/><circle cx="192.251" cy="457.222" r="11.867"/><circle cx="804.395" cy="755.574" r="9.532"/><circle cx="344.655" cy="810.172" r="10.093"/><circle cx="498.672" cy="877.173" r="10.189"/><circle cx="159.062" cy="250.025" r="6.659"/><circle cx="239.067" cy="667.687" r="9.903"/><circle cx="276.35" cy="402.175" r="15.254"/><circle cx="298.825" cy="814.706" r="10.739"/><circle cx="278.838" cy="482.719" r="16.423"/><circle cx="816.363" cy="705.408" r="10.013"/><circle cx="249.353" cy="728.446" r="10.21"/><circle cx="435.824" cy="771.816" r="14.945"/><circle cx="137.217" cy="339.422" r="7.679"/><circle cx="62.531" cy="428.304" r="17.776"/><circle cx="314.597" cy="242.251" r="11.609"/><circle cx="213.4" cy="639.015" r="8.678"/><circle cx="415.982" cy="713.807" r="10.594"/><circle cx="113.507" cy="336.652" r="11.341"/><circle cx="199.061" cy="704.619" r="8.634"/><circle cx="372.433" cy="162.297" r="17.359"/><circle cx="177.566" cy="760.111" r="16.219"/><circle cx="732.509" cy="795.057" r="8.913"/><circle cx="828.053" cy="429.576" r="10.275"/><circle cx="535.753" cy="182.585" r="11.506"/><circle cx="566.666" cy="65.767" r="11.556"/><circle cx="603.689" cy="216.974" r="16.943"/><circle cx="564.188" cy="638.646" r="17.049"/><circle cx="726.04" cy="199.684" r="11.84"/><circle cx="536.227" cy="67.711" r="18.252"/><circle cx="725.482" cy="125.956" r="12.593"/><circle cx="642.409" cy="460.645" r="8.99"/><circle cx="698.851" cy="140.978" r="17.737"/><circle cx="582.229" cy="554.778" r="8.581"/><circle cx="570.98" cy="447.223" r="9.815"/><circle cx="619.55" cy="55.257" r="8.123"/><circle cx="771.081" cy="252.967" r="7.99"/><circle cx="550.801" cy="593.748" r="7.959"/><circle cx="750.083" cy="431.924" r="10.235"/><circle cx="496.57" cy="424.787" r="7.644"/><circle cx="593.272" cy="454.365" r="12.423"/><circle cx="768.935" cy="223.274" r="8.028"/><circle cx="865.994" cy="614.318" r="13.098"/><circle cx="749.851" cy="126.6" r="9.287"/><circle cx="670.167" cy="639.671" r="10.215"/><circle cx="745.274" cy="363.995" r="17.765"/><circle cx="670.607" cy="458.078" r="13.446"/><circle cx="572.522" cy="303.799" r="7.586"/><circle cx="772.735" cy="659.734" r="14.874"/><circle cx="841.845" cy="632.691" r="12.437"/><circle cx="565.424" cy="338.779" r="14.567"/><circle cx="571.301" cy="144.481" r="12.965"/><circle cx="812.75" cy="333.107" r="10.809"/><circle cx="837.789" cy="250.168" r="14.597"/><circle cx="795.764" cy="258.036" r="6.164"/><circle cx="598.856" cy="97.998" r="9.665"/><circle cx="551.816" cy="109.143" r="5.35"/><circle cx="501.933" cy="220.544" r="13.343"/><circle cx="626.691" cy="303.821" r="8.804"/><circle cx="730.442" cy="168.023" r="10.013"/><circle cx="887.738" cy="619.923" r="6.737"/><circle cx="787.113" cy="559.736" r="8.32"/><circle cx="525.012" cy="123.286" r="8.718"/><circle cx="542.968" cy="233.222" r="9.62"/><circle cx="832.97" cy="528.512" r="7.775"/><circle cx="748.089" cy="589.614" r="6.922"/><circle cx="809.968" cy="546.225" r="6.383"/><circle cx="867.758" cy="331.849" r="6.878"/><circle cx="816.267" cy="189.902" r="6.946"/><circle cx="618.983" cy="126.951" r="8.348"/><circle cx="828.132" cy="269.899" r="7.139"/><circle cx="582.994" cy="588.801" r="8.795"/><circle cx="911.013" cy="459.401" r="10.125"/><circle cx="522.852" cy="463.606" r="6.188"/><circle cx="663.718" cy="521.001" r="6.933"/><circle cx="902.952" cy="355.437" r="8.531"/><circle cx="776.976" cy="347.835" r="11.512"/><circle cx="565.065" cy="216.484" r="7.063"/><circle cx="843.928" cy="658.991" r="9.857"/><circle cx="794.632" cy="449.708" r="8.913"/><circle cx="581.503" cy="47.838" r="7.979"/><circle cx="571.728" cy="362.244" r="8.474"/><circle cx="496.23" cy="407.859" r="7.769"/><circle cx="501.419" cy="53.609" r="8.768"/><circle cx="675.952" cy="167.408" r="8.049"/><circle cx="671.197" cy="222.511" r="9.62"/><circle cx="692.208" cy="450.227" r="6.507"/><circle cx="620.244" cy="321.261" r="8.231"/><circle cx="864.469" cy="470.619" r="6.88"/><circle cx="758.694" cy="448.953" r="6.842"/><circle cx="548.935" cy="357.674" r="8.153"/><circle cx="573.484" cy="395.684" r="6.691"/><circle cx="642.152" cy="670.144" r="6.131"/><circle cx="902.16" cy="562.197" r="9.551"/><circle cx="495.428" cy="325.707" r="6.541"/><circle cx="630.151" cy="416.218" r="6.032"/><circle cx="847.096" cy="583.875" r="8.346"/><circle cx="724.124" cy="586.135" r="8.139"/><circle cx="520.433" cy="106.343" r="6.016"/><circle cx="709.288" cy="331.683" r="7.123"/><circle cx="494.556" cy="369.747" r="6.137"/><circle cx="780.621" cy="605.945" r="6.749"/><circle cx="740.878" cy="141.419" r="7.207"/><circle cx="526.482" cy="39.13" r="8.607"/><circle cx="730.626" cy="565.659" r="6.711"/><circle cx="585.4" cy="651.065" r="6.361"/><circle cx="813.91" cy="625.18" r="6.1"/><circle cx="900.722" cy="443.722" r="6.203"/><circle cx="853.69" cy="429.003" r="7.835"/><circle cx="567.443" cy="552.587" r="6.351"/><circle cx="650.13" cy="442.811" r="6.556"/><circle cx="494.381" cy="552.956" r="7.072"/><circle cx="894.493" cy="600.908" r="7.173"/><circle cx="779.93" cy="184.175" r="6.255"/><circle cx="871.518" cy="509.522" r="6.058"/><circle cx="526.015" cy="201.462" r="7.552"/><circle cx="799.033" cy="498.174" r="7.49"/><circle cx="914.673" cy="415.562" r="6.361"/><circle cx="898.4" cy="404.253" r="6.379"/><circle cx="642.207" cy="99.44" r="5.665"/><circle cx="687.328" cy="407.554" r="6.011"/><circle cx="770.886" cy="556.912" r="6.529"/><circle cx="598.78" cy="153.134" r="6.795"/><circle cx="735.492" cy="416.761" r="6.888"/><circle cx="771.23" cy="529.853" r="7.281"/><circle cx="513.225" cy="94.89" r="6.577"/><circle cx="815.316" cy="263.615" r="6.298"/><circle cx="752.035" cy="300.426" r="6.373"/><circle cx="667.039" cy="570.594" r="6.037"/><circle cx="795.715" cy="328.565" r="6.012"/></g><g stroke-width="1.144"><g fill="#ff52ab" paint-order="markers fill stroke" transform="translate(-96.186 -1011.601) scale(.87442)"><circle cx="451.689" cy="1286.895" r="15.206"/><circle cx="451.689" cy="1327.674" r="15.206"/><circle cx="451.689" cy="1369.066" r="15.206"/><circle cx="493.743" cy="1286.895" r="15.206"/></g><circle cx="451.689" cy="1286.895" r="15.206" fill="#ff52ab" paint-order="markers fill stroke" transform="translate(-15.115 -1011.601) scale(.87442)"/><g fill="#ff52ab" paint-order="markers fill stroke" transform="translate(65.955 -1011.601) scale(.87442)"><circle cx="451.689" cy="1286.895" r="15.206"/><circle cx="451.689" cy="1327.674" r="15.206"/><circle cx="451.689" cy="1369.066" r="15.206"/><circle cx="493.743" cy="1327.674" r="15.206"/></g><g fill="#ff52ab" paint-order="markers fill stroke" transform="translate(147.025 -1011.601) scale(.87442)"><circle cx="451.689" cy="1327.674" r="15.206"/><circle cx="493.743" cy="1286.895" r="15.206"/></g><g fill="#ff52ab" paint-order="markers fill stroke" transform="translate(228.096 -1011.601) scale(.87442)"><circle cx="451.689" cy="1327.674" r="15.206"/><circle cx="451.689" cy="1369.066" r="15.206"/><circle cx="493.743" cy="1286.895" r="15.206"/></g><g fill="#ff52ab" paint-order="markers fill stroke"><g transform="translate(-114.436 -337.606) scale(.87442)"><circle cx="558.319" cy="1327.943" r="15.206"/><circle cx="600.373" cy="1327.943" r="15.206"/><circle cx="600.373" cy="1369.336" r="15.206"/><circle cx="600.373" cy="1287.164" r="15.206"/></g><g transform="translate(-27.93 -334.869) scale(.87442)"><circle cx="558.319" cy="1287.164" r="15.206"/><circle cx="600.373" cy="1327.943" r="15.206"/></g><g transform="translate(52.424 -332.574) scale(.87442)"><circle cx="600.373" cy="1327.943" r="15.206"/><circle cx="600.373" cy="1287.164" r="15.206"/></g></g></g></svg>