<svg xmlns="http://www.w3.org/2000/svg" viewBox="0 0 358.5 53.8">
  <path fill="#e85693" d="M34.9 1.2a8 8 0 0 0-8 8 8 8 0 0 0 1.2 4.2l-10.6 17a6 6 0 0 0-2-.4 6 6 0 0 0-2.3.5l-5.7-7a4 4 0 0 0 .5-2 4 4 0 0 0-4-3.9 4 4 0 0 0-4 4 4 4 0 0 0 4 4 4 4 0 0 0 .6 0l5.5 8a6 6 0 0 0-.6 2.4 6 6 0 0 0 6 6 6 6 0 0 0 6-6 6 6 0 0 0-.4-1.9l12.7-17a8 8 0 0 0 1 0 8 8 0 0 0 1.1 0l13.3 20.2a9 9 0 0 0-.7 3.4 9 9 0 0 0 8.9 9 9 9 0 0 0 9-9 9 9 0 0 0-9-9 9 9 0 0 0-1 0l-14.2-19a8 8 0 0 0 .8-3.4 8 8 0 0 0-8-8ZM89.8 35v-3a7 7 0 0 1 2-5c1.3-1.3 3.2-2 5.7-2h10.2v-5.3a4 4 0 0 0-1.5-3.4c-1-.8-2.7-1.2-5.2-1.2s-4.2.4-5.2 1.1c-1 .7-1.5 1.8-1.5 3.3v.7c0 .6-.3 1-.9 1h-2.1c-.6 0-.8-.3-.8-1v-1c0-5 3.6-7.5 10.7-7.5s10.7 2.5 10.7 7.5v21.3c0 .6-.3.9-.8.9h-2.2c-.6 0-.9-.3-.9-.9l-.1-2.1a14.8 14.8 0 0 1-9.8 3.4c-2.6 0-4.7-.7-6.1-2a5.7 5.7 0 0 1-2.2-4.8m4-.6c0 2.7 1.7 4.1 5.1 4.1 3 0 5.9-1.1 8.8-3.3v-7h-9.4c-3 0-4.5 1.4-4.5 4.3zm26.9 6.2V1c0-.6.3-.9.9-.9h2.3c.6 0 .8.3.8.9v39.6c0 .6-.3.9-.8.9h-2.3c-.6 0-.9-.3-.9-.9m9.9-27.5-.1-.3c0-.4.3-.6.9-.6h2.3c.5 0 .8.3.9.9l5.6 20.6.2 1 .2.9.1.4.6-2.4L147 13c.2-.6.5-.9 1-.9h2.5c.5 0 .8.3.9.9l5.3 20.7.6 2.3.7-2.3 5.5-20.6c.2-.6.5-.9 1-.9h2c.5 0 .8.2.8.5l-.1.3-7.7 27.6c-.2.6-.4.8-.9.8h-2.9c-.5 0-.8-.3-.9-.8l-5.2-20-.6-2.8-.8 2.8-5.6 19.9c-.2.6-.5.8-.9.8H139c-.5 0-.8-.3-1-.8zM172 35v-3a7 7 0 0 1 2-5c1.3-1.3 3.2-2 5.7-2h10.2v-5.3a4 4 0 0 0-1.5-3.4c-1-.8-2.7-1.2-5.2-1.2s-4.2.4-5.2 1.1c-1 .7-1.5 1.8-1.5 3.3v.7c0 .6-.3 1-.9 1h-2.1c-.6 0-.8-.3-.8-1v-1c0-5 3.6-7.5 10.7-7.5s10.7 2.5 10.7 7.5v21.3c0 .6-.3.9-.8.9h-2.2c-.6 0-.9-.3-.9-.9l-.1-2.1a14.8 14.8 0 0 1-9.8 3.4c-2.6 0-4.7-.7-6.1-2A6 6 0 0 1 172 35m4-.6c0 2.7 1.7 4.1 5.1 4.1 3 0 5.9-1.1 8.8-3.3v-7h-9.4c-3 0-4.5 1.4-4.5 4.3zm23.3-21.3-.1-.3c0-.4.3-.5.8-.5h2.4c.5 0 .8.3 1 .9l6.7 19.7.4 1.6.3 1.4.1.6 1-3.4 6.8-19.8c.2-.6.5-.9 1-.9h2.3c.6 0 .8.2.8.5l-.1.3-13.6 39.7c-.2.6-.6.9-1 .9h-1.8c-.7 0-.9-.3-.7-.9l3.6-11.1zM227 35.3v-1.6c0-.6.3-.8.8-.8h2.2c.5 0 .8.3.8.8v1.4c0 2.5 2.3 3.7 6.9 3.7 2.3 0 4-.3 5.2-1 1.2-.7 1.8-1.6 1.8-2.7v-2.2c0-1.5-1.2-2.6-3.5-3.3l-9.1-3a8 8 0 0 1-3.2-2.1c-.9-1-1.4-2.2-1.4-3.6v-2.3c0-2 .8-3.6 2.5-4.8 1.6-1.3 4.2-1.9 7.8-1.9 3.5 0 6.1.6 7.8 1.9a5.8 5.8 0 0 1 2.5 4.8v1.7c0 .5-.3.8-.8.8h-2.2c-.5 0-.8-.2-.8-.7v-1.7c0-2.4-2.2-3.6-6.6-3.6-4.3 0-6.4 1.2-6.4 3.6v1.5c0 1.5 1 2.6 3 3.2l9.1 3c3.4 1.1 5.1 3 5.1 5.6v3.4c0 1.9-.9 3.5-2.7 4.8-1.8 1.3-4.5 1.9-8.1 1.9-3.6 0-6.3-.6-8.1-1.9-1.7-1.4-2.6-3-2.6-4.9m28.3-.9v-15c0-2.3.7-4.2 2-5.5 1.4-1.4 3.4-2 6.2-2 3.5 0 6.9 1.1 10 3.4V.9c0-.6.3-.9.8-.9h2.4c.6 0 .9.3.9.9v39.7c0 .6-.3.9-.9.9h-2.1c-.6 0-.9-.3-.9-.9l-.1-2.1c-3 2.3-6.4 3.4-10.1 3.4-2.8 0-4.8-.7-6.2-2a7.7 7.7 0 0 1-2-5.5m4-.5a4 4 0 0 0 1.3 3.2c.9.8 2.2 1.2 3.9 1.2 3 0 6-1.1 9-3.3V18.8a14.3 14.3 0 0 0-9-3.4c-1.8 0-3.1.4-3.9 1.3a4 4 0 0 0-1.3 3.2zM286 35v-3a7 7 0 0 1 2-5c1.3-1.3 3.2-2 5.7-2h10.2v-5.3a4 4 0 0 0-1.5-3.4c-1-.8-2.7-1.2-5.2-1.2s-4.2.4-5.2 1.1c-1 .7-1.5 1.8-1.5 3.3v.7c0 .6-.3 1-.9 1h-2.1c-.6 0-.8-.3-.8-1v-1c0-5 3.6-7.5 10.7-7.5s10.7 2.5 10.7 7.5v21.3c0 .6-.3.9-.8.9h-2.2c-.6 0-.9-.3-.9-.9l-.1-2.1a14.8 14.8 0 0 1-9.8 3.4c-2.6 0-4.7-.7-6.1-2A5.7 5.7 0 0 1 286 35m3.9-.6c0 2.7 1.7 4.1 5.1 4.1 3 0 5.9-1.1 8.8-3.3v-7h-9.4c-3 0-4.5 1.4-4.5 4.3zm23.8-19.6v-1.4c0-.6.3-.8.8-.9l3.1-.2h.5V6c0-.6.3-.9.9-.9h2.4c.6 0 .8.3.8.9v6.3h6.7c.6 0 .9.3.9.8v1.6c0 .6-.3.9-.9.9h-6.7v17.6c0 1.5.5 2.6 1.6 3.4 1.1.8 2.8 1.1 5.3 1.1h1c.6 0 .9.3.9.9v1.8c0 .6-.3.9-.9.9h-1.6c-3.9 0-6.6-.6-8.1-1.9-1.6-1.3-2.3-3.2-2.3-5.7v-18h-3.6c-.5 0-.8-.3-.8-.9M336.4 35v-3a7 7 0 0 1 2-5c1.3-1.3 3.2-2 5.7-2h10.2v-5.3a4 4 0 0 0-1.5-3.4c-1-.8-2.7-1.2-5.2-1.2s-4.2.4-5.2 1.1c-1 .7-1.5 1.8-1.5 3.3v.7c0 .6-.3 1-.9 1h-2.1c-.6 0-.8-.3-.8-1v-1c0-5 3.6-7.5 10.7-7.5s10.7 2.5 10.7 7.5v21.3c0 .6-.3.9-.8.9h-2.2c-.6 0-.9-.3-.9-.9l-.1-2.1a14.8 14.8 0 0 1-9.8 3.4c-2.6 0-4.7-.7-6.1-2a5.7 5.7 0 0 1-2.2-4.8m3.9-.6c0 2.7 1.7 4.1 5.1 4.1 3 0 5.9-1.1 8.8-3.3v-7h-9.4c-3 0-4.5 1.4-4.5 4.3z"/>
</svg>
