<svg xmlns="http://www.w3.org/2000/svg" xml:space="preserve" viewBox="0 0 82.4 38.2">
  <path fill="#26ed72" d="M39.3 18.5h43v18.1h-43z"/>
  <path fill="#3d1473" d="M41.6 27h.8v4.2c0 2.6 1.7 3.3 3.7 3.3 1.8 0 3.6-1.1 3.6-3.2 0-1-.5-1.3-1.2-1.3s-1 .5-1.2 1c0 .5-.4 1.2-.8 1.2s-.9-.6-.9-1.8V27h1.8c1.1 0 1.7-.4 1.7-1.1 0-.8-.6-1.2-1.7-1.2h-1.8v-2.2c0-1.2-.5-1.8-1.6-1.8-1 0-1.6.6-1.6 1.8v2.2h-.8c-1 0-1.6.4-1.6 1.2 0 .7.6 1.1 1.6 1.1zM55 34.5a7 7 0 0 0 3.9-1c.5-.4.9-.7.9-1.4s-.5-1.1-1.2-1.1c-.5 0-1 .2-1.4.5a3 3 0 0 1-2 .6c-1 0-1.8-.7-2-2h5c1.1 0 1.6-.4 1.6-1.5 0-2.4-2-4.1-4.8-4.1-2.7 0-5 1.7-5 5s2.3 5 5 5zm-1.7-6.2c.2-1 1-1.7 1.8-1.7 1 0 1.7.7 1.8 1.7zm12.5 6.2c1.1 0 2.2-.4 3-.9.5-.3.8-.8.8-1.3 0-.8-.6-1.3-1.4-1.3-.6 0-1 .2-1.2.5-.3.3-.7.6-1.2.6-1 0-2-.8-2-2.6 0-1.9 1-2.7 2-2.7.5 0 1 .3 1.2.6.3.3.6.5 1.2.5.8 0 1.4-.5 1.4-1.3 0-.5-.3-1-.9-1.3-.7-.5-1.8-.8-3-.8-2.4 0-5.3 1.4-5.3 5s2.9 5 5.4 5zm12.6-.1c1.1 0 1.7-.7 1.7-1.9v-3.9c0-3-1.6-4.1-3.6-4.1-1.1 0-2 .5-2.7 1.2v-3.2c0-1.2-.5-1.8-1.6-1.8-1 0-1.7.6-1.7 1.8v10c0 1.2.6 1.9 1.7 1.9 1 0 1.6-.7 1.6-1.9v-3.7c0-1 .7-2 1.6-2 1 0 1.4.8 1.4 2.3v3.4c0 1.2.6 1.9 1.6 1.9z"/>
  <g transform="matrix(.98 0 0 .98 -56.8 -94.2)">
    <ellipse cx="81.7" cy="123.6" fill="#fb98f0" rx="11.1" ry="11" transform="rotate(1)"/>
    <path fill="#240053" d="M95.6 121.4 75.7 130l.3 2.7 3.3 1 .6-1.6 1.7.5.6-1.7 1.6.5.6-1.6 1.7.5.6-1.7 1.7.5.6-1.6 1.7.5.6-1.7 1.6.5.6-1.7 1.7.6.6-1.7zm-33.8 6.3.2 2.8 3.3 1 .7-1.7 3.3 1 .6-1.6 3.3 1 .6-1.7 8.4 2.5-3.2-7.2zm12.5-9 .5 3.8 3.2-3.8z"/>
    <path fill="#fff" d="m65.7 127-.2.2-1.7-.5.8-2 1.6.5.5-1.3.2-.1 4-.7 3.9-.6.3-.1 1-3v-.2l-.2-.2.6-1.7 15.4 4.6-.6 1.6-.3.2-2.3 1.1-2.2 1.2-2.3 1.2-2.3 1.1-2.2 1.2h-.3l-1.7-.4 1.3-3.8-2.9-.8-.2.1-2.3 1.2-4 .6z"/>
    <path fill="#3d1473" d="m93.9 120.9-1.7-.5-1.6-.5-15-4.6-.7 1.7-.6 1.7 1.7.5.6-1.7 15 4.5-.6 1.7 1.7.5.6-1.7 1.7.5.6-1.6zm-2.9 2.8-1.7-.5-.6 1.6 1.7.6zm-2.3 1.1-1.6-.5-.6 1.7 1.6.5zm-2.2 1.2-1.7-.5-.6 1.7 1.7.5zm-2.3 1.2-1.7-.5-.6 1.6 1.7.5zm-2.3 1.1-1.6-.5-.6 1.7 1.6.5zm-2.2 1.2L78 129l.6-1.7-1.7-.5-.6 1.7-.6 1.6 3.3 1zm-1.1-2.2.6-1.7.6-1.6-1.7-.5.6-1.7-1.6-.5.6-1.6-1.7-.5-.6 1.6-.6 1.7 1.7.5-.6 1.6 1.6.5-.6 1.7zm-2.7-2.7-1.7-.5-.6 1.7 1.7.5zm-2.3 1.2-3.3-1-.7 1.6 3.4 1zm-4 .6L68 126l-1.7-.5-.6 1.7 3.3 1zm-3.9.7-3.3-1-.6 1.6 3.3 1zm-1.7-.5.6-1.7 1.7.5.6-1.6-3.3-1-.6 1.6-.6 1.7zm3-2.8 3.3 1 .6-1.7-3.4-1Zm7.8-1.3-3.3-1-.6 1.6 3.3 1z"/>
  </g>
  <path fill="#3d1473" d="M75.6 13.4c-1 0-1.5.4-1.5 1.1 0 .7.6 1.1 1.5 1.1h5.3c1 0 1.4-.4 1.4-1s-.5-1.2-1.4-1.2h-1.1V7c0-1.1-.6-1.7-1.7-1.7h-2.3c-1 0-1.6.4-1.6 1 0 .8.6 1.2 1.6 1.2h1v6zM76.3 2a2 2 0 0 0 2 2 2 2 0 0 0 2-2 2 2 0 0 0-2-2 2 2 0 0 0-2 2zm-8.2 13.8c2.7 0 5-1 5-3.4 0-2-1.8-2.7-4.3-3.2-1.5-.2-2.5-.5-2.5-1.1 0-.8 1-1 1.9-1 1 0 1.7.3 2.1.6l1.1.2c.7 0 1.3-.3 1.3-1 0-1.4-2.3-2-4.5-2-2.3 0-4.8.8-4.8 3 0 2.1 1.7 3 4.2 3.4 1.5.3 2.5.6 2.5 1.3 0 .8-.8 1-2 1s-2-.4-2.7-.7c-.4-.3-.8-.4-1.1-.4-.8 0-1.3.4-1.3 1.1 0 1.4 2.6 2.2 5.1 2.2zM56.5 5c-2.6 0-5.7 1.6-5.7 5.5s3 5.4 5.7 5.4c2.6 0 5.7-1.5 5.7-5.4 0-3.9-3-5.5-5.7-5.5zm0 2.2c1.3 0 2.6 1 2.6 3.3s-1.3 3.3-2.6 3.3-2.6-1-2.6-3.3S55.2 7 56.5 7zM45.3 5c-1.4 0-2.4.5-3 1.4l-.1-.4c-.2-.7-.7-1-1.4-1-1 0-1.5.6-1.5 1.8v11.7h3v-4c.7.8 1.7 1.3 3 1.3 2.4 0 4.6-1.9 4.6-5.4 0-3.6-2.2-5.4-4.6-5.4zm-.8 2.2c1.2 0 2.3 1 2.3 3.2 0 2-1 3.2-2.3 3.2-1 0-2-.8-2.2-1.8V9.2c.2-1 1.1-2 2.2-2zm-13.3 8.6c.8 0 1.2-.4 1.2-1.5V9.8c0-1.4.7-2.4 1.5-2.4s1.2.7 1.2 2.5v4.2c0 1.1.5 1.7 1.3 1.7.9 0 1.4-.6 1.4-1.7V8.5c0-2.2-1.1-3.6-2.9-3.6-1.2 0-2.1.9-2.7 2-.3-1.2-1.2-2-2.5-2a3 3 0 0 0-2.5 1.6v-.1c0-1-.5-1.4-1.3-1.4-1 0-1.4.6-1.4 1.7v7.4c0 1.1.5 1.7 1.4 1.7.9 0 1.4-.6 1.4-1.7V9.7c0-1.3.6-2.3 1.4-2.3.9 0 1.2.7 1.2 2.5v4.4c0 1.1.5 1.5 1.3 1.5zM17.7 5C15 5 12 6.5 12 10.4s3 5.4 5.7 5.4c2.6 0 5.6-1.5 5.6-5.4 0-3.9-3-5.5-5.6-5.5zm0 2.2c1.3 0 2.6 1 2.6 3.3s-1.3 3.3-2.6 3.3c-1.4 0-2.6-1-2.6-3.3S16.3 7 17.7 7zM6.4 15.8c2.6 0 4.8-1.7 4.8-3.5 0-.7-.6-1.3-1.3-1.3-.8 0-1 .5-1.3 1-.2.7-.8 1.6-2.2 1.6C4.7 13.6 3 12.3 3 9c0-3.5 1.7-5 3.4-5 1.4 0 2 1 2.2 1.7.2.5.5.9 1.3.9.7 0 1.3-.5 1.3-1.3C11.2 3.6 9.1 2 6.4 2 3.4 2 0 3.6 0 9c0 5.2 3.4 7 6.4 7z"/>
</svg>
