<svg xmlns="http://www.w3.org/2000/svg" fill="none" viewBox="0 0 2053 521"><g clip-path="url(#a)"><mask id="b" width="521" height="521" x="0" y="0" maskUnits="userSpaceOnUse" style="mask-type:luminance"><path fill="#fff" d="M521 0H0v521h521V0Z"/></mask><g mask="url(#b)"><path fill="#FF7BE5" d="M440.855 0H80.145C35.882 0 0 35.882 0 80.145v360.71C0 485.118 35.882 521 80.145 521h360.71C485.118 521 521 485.118 521 440.855V80.145C521 35.882 485.118 0 440.855 0Z"/></g><path fill="#fff" d="M260.511 451.984c105.748 0 191.473-85.725 191.473-191.472 0-105.748-85.725-191.473-191.473-191.473-105.747 0-191.472 85.725-191.472 191.473 0 105.747 85.725 191.472 191.472 191.472Z"/><path fill="#FF7BE5" d="M260.512 189.359c15.325 0 27.749-12.424 27.749-27.749 0-15.326-12.424-27.749-27.749-27.749-15.326 0-27.749 12.423-27.749 27.749 0 15.325 12.423 27.749 27.749 27.749Z"/><path fill="#FF7BE5" d="m364.755 187.33-63.511 9.745c-27.328 2.844-55.028 2.769-83.098 0l-61.854-9.72c-9.101-.297-16.669 6.999-16.669 16.125 0 9.126 5.49 14.963 15.655 16.125l46.446 6.134 63.61 6.751-40.041 2.919-5.515 137.013c0 8.161 6.604 14.765 14.765 14.765 7.716 0 14.147-5.961 14.715-13.652l4.65-61.582a7.444 7.444 0 0 1 7.419-6.875 7.444 7.444 0 0 1 7.42 6.875l4.65 61.582c.593 7.691 6.999 13.652 14.715 13.652 8.161 0 14.765-6.604 14.765-14.765l-5.145-126.404c0-9.249 7.346-16.842 16.595-17.139l51.417-9.249c10.239-1.806 15.656-7.395 15.656-16.125 0-9.126-7.544-16.447-16.645-16.15v-.025Z"/></g><path fill="#000" d="m878.548 384.6 4.3.782V397.5H755.41v-12.118l5.473-.782c22.282-3.127 29.319-11.337 21.891-31.273l-13.682-35.573h-96.555l-13.291 35.182c-8.6 22.282.782 28.537 20.327 31.664l5.082.782V397.5h-83.264v-12.118l4.3-.782c14.073-2.737 23.455-12.9 32.446-35.182l88.737-225.948h32.837l89.128 229.075c8.6 21.891 17.591 29.709 29.709 32.055Zm-199.365-84.046h83.264L720.228 191.88l-41.045 108.674ZM890.15 397.5v-11.336l4.691-.782c13.291-1.955 18.373-6.646 18.373-22.282V161.389c0-15.246-4.691-21.109-23.064-24.628v-10.163l80.137-17.201h3.127V363.1c0 15.636 5.473 20.327 18.373 22.282l4.691.782V397.5H890.15Zm118.34 0v-11.336l4.69-.782c13.29-1.955 18.38-6.646 18.38-22.282V161.389c0-15.246-4.69-21.109-23.07-24.628v-10.163l80.14-17.201h3.13V363.1c0 15.636 5.47 20.327 18.37 22.282l4.69.782V397.5h-106.33Zm242.83-191.547h68.8v11.336c-14.85 4.3-23.45 16.81-35.96 47.301l-59.03 141.119c-24.63 57.855-41.05 73.492-68.41 73.492-16.81 0-29.32-5.864-37.14-12.119 3.52-16.809 13.68-35.182 32.84-35.182 13.29 0 19.94 5.864 29.32 5.864 8.6 0 13.68-3.909 24.23-27.364l-61.37-145.028c-13.68-32.837-20.33-44.564-31.27-48.083v-11.336h105.93v11.336l-5.08 1.173c-16.81 3.127-21.89 13.291-10.55 39.873l32.05 78.183 30.49-75.056c11.34-28.536 7.04-39.873-9.77-43l-5.08-1.173v-11.336ZM1384 124h4v273h-4zM1458.17 228.5v-62.606h25.67c4.35 0 8.02.686 11 2.057 2.98 1.372 5.22 3.28 6.71 5.724 1.55 2.385 2.32 5.158 2.32 8.318 0 3.16-.68 5.813-2.05 7.96a14.27 14.27 0 0 1-5.46 5.008c-2.21 1.133-4.65 1.789-7.33 1.968l1.43-.984c2.86.119 5.39.894 7.6 2.325 2.27 1.372 4.02 3.22 5.28 5.545 1.31 2.326 1.96 4.86 1.96 7.603 0 3.339-.8 6.29-2.41 8.854-1.61 2.564-3.94 4.591-6.98 6.082-3.04 1.431-6.76 2.146-11.18 2.146h-26.56Zm12.08-9.838h12.52c3.28 0 5.81-.745 7.6-2.236s2.68-3.637 2.68-6.439c0-2.803-.92-4.979-2.77-6.529-1.85-1.61-4.41-2.415-7.69-2.415h-12.34v17.619Zm0-26.652h11.62c3.16 0 5.55-.716 7.16-2.147 1.67-1.431 2.5-3.458 2.5-6.081 0-2.564-.83-4.562-2.5-5.993-1.61-1.49-4.03-2.236-7.25-2.236h-11.53v16.457Zm67.38 36.49v-22.001l-21.11-40.605h13.69l14.75 30.945h-2.41l14.67-30.945h13.59l-21.11 40.605V228.5h-12.07Zm-79.46 125v-62.606h41.14v9.749h-29.06v16.367h26.38v9.391h-26.38v17.35h29.06v9.749h-41.14Zm61.09 0v-62.606h12.07v53.215h27.46v9.391h-39.53Zm58.81 0v-62.606h41.14v9.749h-29.06v16.367h26.38v9.391h-26.38v17.35h29.06v9.749h-41.14Zm61.09 0v-62.606h14.4l19.14 39.084 18.96-39.084h14.4V353.5h-12.08v-42.035l-16.54 33.27h-9.57l-16.64-33.27V353.5h-12.07Zm88.16 0v-62.606h41.14v9.749h-29.07v16.367h26.39v9.391h-26.39v17.35h29.07v9.749h-41.14Zm61.09 0v-62.606h12.07l28.8 43.198v-43.198h12.07V353.5h-12.07l-28.8-43.109V353.5h-12.07Zm88.67 0v-52.857h-18.33v-9.749h48.56v9.749h-18.24V353.5h-11.99Zm74.53 1.073c-6.09 0-11.45-1.371-16.1-4.114-4.65-2.743-8.29-6.529-10.91-11.358-2.63-4.89-3.94-10.524-3.94-16.904 0-6.38 1.31-11.984 3.94-16.814 2.62-4.889 6.26-8.705 10.91-11.448 4.65-2.743 10.01-4.114 16.1-4.114 6.14 0 11.53 1.371 16.18 4.114 4.66 2.743 8.26 6.559 10.83 11.448 2.62 4.83 3.93 10.434 3.93 16.814 0 6.38-1.31 12.014-3.93 16.904-2.57 4.829-6.17 8.615-10.83 11.358-4.65 2.743-10.04 4.114-16.18 4.114Zm0-10.822c3.81 0 7.09-.864 9.83-2.593 2.81-1.789 4.98-4.293 6.53-7.513 1.55-3.22 2.33-7.036 2.33-11.448 0-4.472-.78-8.288-2.33-11.448-1.55-3.22-3.72-5.694-6.53-7.423-2.74-1.729-6.02-2.594-9.83-2.594-3.76 0-7.04.865-9.84 2.594-2.8 1.729-4.98 4.203-6.53 7.423-1.55 3.16-2.33 6.976-2.33 11.448 0 4.412.78 8.228 2.33 11.448 1.55 3.22 3.73 5.724 6.53 7.513 2.8 1.729 6.08 2.593 9.84 2.593Zm50.19 9.749v-62.606h23.34c5.07 0 9.24.865 12.52 2.594 3.28 1.729 5.72 4.054 7.33 6.976 1.61 2.862 2.42 6.052 2.42 9.57 0 3.339-.78 6.469-2.33 9.391-1.55 2.862-3.99 5.187-7.33 6.976-3.28 1.729-7.51 2.593-12.7 2.593h-11.18V353.5h-12.07Zm32.46 0-12.88-27.547h13.06l13.6 27.547h-13.78Zm-20.39-33.27h10.55c3.64 0 6.32-.895 8.05-2.684 1.73-1.788 2.6-4.143 2.6-7.065 0-2.922-.87-5.217-2.6-6.887-1.67-1.729-4.35-2.593-8.05-2.593h-10.55v19.229Z"/><defs><clipPath id="a"><path fill="#fff" d="M0 0h521v521H0z"/></clipPath></defs></svg>