<svg xmlns="http://www.w3.org/2000/svg" fill="none" viewBox="0 0 801 160">
  <g fill="#92003B" clip-path="url(#a)">
    <path d="m506 74-12.7 3-8.9 2c0-2.4.1-4.9.7-7.2.7-3 2.3-6.4 5.1-8 3-1.6 6.7-1.8 10-.5s4.8 4.5 5.5 7.8l.4 2.8h-.2Zm23 5c0-23-14.5-33-33-33-21 0-34.2 14.5-34.2 33.1 0 20.3 11.2 33.4 35.3 33.4 13 0 20.4-2.3 29.1-6.7L523 90.7a49 49 0 0 1-21.2 4.8c-9.1 0-14.3-3.4-16.3-9.9h43c.4-1.7.6-3.7.6-6.6Zm-216-5-12.7 3-8.8 2h-.1c0-2.4.2-4.9.7-7.2.8-3 2.4-6.4 5.2-8a12 12 0 0 1 10-.5c3.2 1.3 4.8 4.5 5.4 7.8l.4 2.8h-.1Zm23 5c0-23-14.5-33-33-33-21 0-34.2 14.5-34.2 33.1 0 20.3 11.2 33.4 35.3 33.4 13 0 20.4-2.3 29.2-6.7l-3.4-15.1c-6.6 3-12.9 4.8-21.2 4.8-9 0-14.3-3.4-16.2-9.9h43c.3-1.7.5-3.7.5-6.6Zm-76.2-50h-21.3v81.2h21.3V29Zm273.7 19h22.4l4.7 14.4c3-7 9.5-16.2 21.3-16.2 16.1 0 24.9 8.2 24.9 29.4v34.6h-22.4V78.6c0-3 .3-6.2-1.3-9-1.1-1.8-3-3.1-4.9-4-4-2-8.2-2-12 .1-1 .5-5.6 3-5.6 4.2v40.3h-22.4V64.8l-4.7-16.7Zm90.2 16.4h-10.3V48h10.3V37.9l22.4-5.3v15.5h22.4v16.3h-22.4v18.2c0 7.2 3.4 10.5 8.6 10.5 5.3 0 8.3-.7 12.8-2.2l2.7 16.9a55 55 0 0 1-21.5 4c-16.3 0-25-7.8-25-22.8V64.4ZM710.4 94c8.2 0 13-5.9 13-15.3 0-9.5-4.6-15-12.7-15s-12.9 5.5-12.9 15.3c0 9.3 4.6 15 12.6 15Zm.2-48.4c21 0 36.3 13.2 36.3 33.6 0 20.6-15.3 33-36.5 33-21.1 0-36-12.7-36-33 0-20.4 14.8-33.6 36.2-33.6Zm-268.8 2.3a23.4 23.4 0 0 0-19 .3 28.2 28.2 0 0 0-12 14.2 20.7 20.7 0 0 0-12.1-14.5 23 23 0 0 0-19 .3 28.2 28.2 0 0 0-11.9 14.2V62l-4.6-14H341l4.7 16.9v45.3h22.2V69.7c0-.3 1-.9 1.2-1a18 18 0 0 1 9-4 10 10 0 0 1 9.1 5c1.7 2.7 1.4 5.9 1.4 8.9v31.6H411V69.7c0-.3 1-.9 1.2-1a18 18 0 0 1 9-4 10 10 0 0 1 9.1 5c1.6 2.7 1.4 5.9 1.4 9v31.5H454V75.6c0-10.2-1.4-23.3-12.1-27.7Zm358-1.7c-11.7 0-18.3 9.1-21.3 16.2l-4.7-14.3h-22.4l4.7 16.7v45.4h22.4v-42c3.2-.5 20.5 2.7 23.8 4v-26h-2.5ZM206.4 74l-12.6 3-8.9 2c0-2.4.1-4.9.7-7.2.7-3 2.3-6.4 5.1-8 3-1.6 6.7-1.8 10-.5s4.8 4.5 5.5 7.8l.3 2.8Zm23 5c0-23-14.4-33-33-33-21 0-34.1 14.5-34.1 33.1 0 20.3 11.2 33.4 35.3 33.4 13 0 20.4-2.3 29.1-6.7l-3.3-15.1a49 49 0 0 1-21.2 4.8c-9.1 0-14.3-3.4-16.3-9.9h43c.4-1.7.6-3.7.6-6.6ZM66.1 16a64 64 0 1 0 .1 128 64 64 0 0 0 0-128Zm-16 90.7H39.6V53.4h10.7v53.3Zm42.7 0h-32V96h32v10.7Zm0-21.3h-32V74.7h32v10.7Zm0-21.4h-32V53.4h32V64Z"/>
  </g>
  <defs>
    <clipPath id="a">
      <path fill="#fff" d="M2.3 16H798v128H2.3z"/>
    </clipPath>
  </defs>
</svg>
