<svg width="1200" height="225" viewBox="0 0 1200 225" xmlns="http://www.w3.org/2000/svg" style="fill-rule:evenodd;clip-rule:evenodd;stroke-linejoin:round;stroke-miterlimit:2;">
        <path d="M195.096,0.517L195.096,176.35L155.335,176.35L155.335,124.736C155.335,96.583 155.583,69.912 156.816,39.783C153.113,53.119 149.655,64.726 144.963,79.791L114.588,176.35L80.507,176.35L50.131,79.791C45.439,64.726 41.982,53.366 38.525,40.031C39.512,70.159 39.759,96.583 39.759,124.736L39.759,176.35L0,176.35L0,0.517L62.479,0.517L85.693,76.086C89.892,90.162 94.089,105.474 97.794,119.797C101.498,105.226 105.697,89.422 109.648,75.345L132.616,0.517L195.096,0.517Z" style="fill-rule:nonzero;"/>
        <path d="M307.962,112.635C307.962,88.434 297.343,76.827 280.303,76.827C263.016,76.827 252.396,88.434 252.396,112.635C252.396,136.837 263.016,148.444 280.303,148.444C297.343,148.444 307.962,136.837 307.962,112.635ZM213.377,112.635C213.377,72.135 239.556,45.957 280.303,45.957C320.803,45.957 346.981,72.135 346.981,112.635C346.981,153.136 320.803,179.314 280.303,179.314C239.556,179.314 213.377,153.136 213.377,112.635Z" style="fill-rule:nonzero;"/>
        <path d="M485.772,92.879L485.772,176.35L447.247,176.35L447.247,100.534C447.247,86.458 441.074,78.803 426.75,78.803C414.896,78.803 402.549,86.458 402.549,105.226L402.549,176.35L364.023,176.35L364.023,48.921L401.562,48.921L401.562,66.949C409.957,55.095 423.046,45.957 441.567,45.957C466.757,45.957 485.772,61.269 485.772,92.879Z" style="fill-rule:nonzero;"/>
        <path d="M597.4,112.635C597.4,88.434 586.782,76.827 569.741,76.827C552.454,76.827 541.836,88.434 541.836,112.635C541.836,136.837 552.454,148.444 569.741,148.444C586.782,148.444 597.4,136.837 597.4,112.635ZM502.817,112.635C502.817,72.135 528.994,45.957 569.741,45.957C610.242,45.957 636.421,72.135 636.421,112.635C636.421,153.136 610.242,179.314 569.741,179.314C528.994,179.314 502.817,153.136 502.817,112.635Z" style="fill-rule:nonzero;"/>
        <path d="M696.93,77.815L696.93,136.343C696.93,145.974 701.622,147.703 711.501,147.703L721.378,147.703L721.378,176.35C715.452,176.844 709.277,177.337 703.598,177.337C671.739,177.337 658.404,166.965 658.404,140.788L658.404,77.815L639.389,77.815L639.389,48.921L658.404,48.921L658.404,11.137L696.93,11.137L696.93,48.921L721.378,48.921L721.378,77.815L696.93,77.815Z" style="fill-rule:nonzero;"/>
        <path d="M862.394,48.921L816.212,181.288C805.1,213.393 790.529,225 752.745,225C745.337,225 741.632,224.753 737.681,224.506L737.681,194.871L750.028,194.871C764.353,194.871 769.291,186.722 769.291,177.091C769.291,169.929 766.327,160.792 763.364,152.395L726.814,48.921L768.304,48.921L773.983,66.949C781.392,91.891 788.801,118.068 795.715,147.209C802.63,117.821 809.791,91.891 816.953,67.196L822.634,48.921L862.394,48.921Z" style="fill-rule:nonzero;"/>
        <path d="M965.133,111.647C965.133,87.446 955.008,76.827 937.968,76.827C920.681,76.827 910.556,88.434 910.556,112.635C910.556,136.837 920.681,148.444 937.968,148.444C955.008,148.444 965.133,135.85 965.133,111.647ZM1004.15,112.635C1004.15,153.136 983.161,179.314 948.587,179.314C931.3,179.314 919.199,172.398 911.05,160.792L911.05,224.753L872.524,224.753L872.524,48.921L910.063,48.921L910.063,65.961C918.212,53.613 930.56,45.957 948.587,45.957C983.161,45.957 1004.15,72.135 1004.15,112.635Z" style="fill-rule:nonzero;"/>
        <path d="M1053.3,99.547L1109.61,99.547C1106.89,83.742 1096.76,74.357 1081.21,74.357C1067.13,74.357 1056.26,81.766 1053.3,99.547ZM1147.39,123.996L1053.05,123.996C1055.77,142.27 1067.13,150.913 1082.19,150.913C1095.04,150.913 1103.43,145.727 1107.88,136.59L1144.43,136.59C1137.51,163.509 1112.82,179.314 1082.19,179.314C1042.68,179.314 1016.01,153.136 1016.01,112.635C1016.01,72.382 1041.94,45.957 1081.7,45.957C1121.46,45.957 1147.39,73.37 1147.39,116.339L1147.39,123.996Z" style="fill-rule:nonzero;"/>
        <rect x="1158.27" y="135.602" width="41.73" height="40.748" style="fill-rule:nonzero;"/>
</svg>
