<svg width="690" height="175" fill="none" xmlns="http://www.w3.org/2000/svg"><g clip-path="url(#a)" fill="#6D4AFF"><path d="M141.942 172.268v-68.341c0-27.882 16.336-50.087 49.013-50.087a62.905 62.905 0 0 1 15.579 1.725V83.68c-3.713-.246-6.924-.246-8.413-.246-17.31 0-24.753 7.893-24.753 23.931v64.903h-31.426ZM215.942 114.305c0-34.296 25.991-60.448 62.134-60.448s62.125 26.135 62.125 60.448-25.99 60.676-62.129 60.676c-36.139 0-62.13-26.398-62.13-60.676Zm93.322 0c0-19.493-13.121-33.308-31.188-33.308s-31.193 13.803-31.193 33.308c0 19.738 13.121 33.308 31.193 33.308 18.072 0 31.184-13.587 31.184-33.308h.004ZM431.291 81.225H397.38v43.177c0 15.05 5.444 21.96 21.041 21.96 1.484 0 5.193 0 9.901-.246v25.415c-6.435 1.725-12.117 2.713-18.318 2.713-26.238 0-44.063-15.792-44.063-45.645V81.226h-21.04V56.306h5.245a15.836 15.836 0 0 0 11.175-4.617 15.7 15.7 0 0 0 4.62-11.144v-23.47h31.439v39.231h33.911v24.918ZM440.694 114.305c0-34.296 25.991-60.448 62.134-60.448 36.144 0 62.13 26.135 62.13 60.448s-25.991 60.693-62.13 60.693c-36.138 0-62.134-26.415-62.134-60.693Zm93.318 0c0-19.493-13.121-33.308-31.188-33.308s-31.192 13.802-31.192 33.308c0 19.738 13.121 33.308 31.192 33.308 18.072 0 31.188-13.588 31.188-33.308ZM581.294 172.268v-65.874c0-30.595 19.556-52.554 54.458-52.554 34.654 0 54.21 21.96 54.21 52.554v65.874h-31.188v-63.407c0-17.02-7.677-27.631-23.022-27.631-15.346 0-23.023 10.61-23.023 27.631v63.407h-31.435ZM0 127.405v44.859h31.59v-42.918c0-4.176 1.665-8.18 4.627-11.133a15.82 15.82 0 0 1 11.169-4.611h32.391a57.087 57.087 0 0 0 40.285-16.642 56.711 56.711 0 0 0 16.687-40.157A56.708 56.708 0 0 0 120.06 16.64 57.082 57.082 0 0 0 79.769 0H0v56.074h31.59V29.637h46.05a27.01 27.01 0 0 1 19.063 7.87 26.83 26.83 0 0 1 7.901 18.998 26.833 26.833 0 0 1-7.898 19.005 27.01 27.01 0 0 1-19.067 7.872H44.163a44.266 44.266 0 0 0-16.904 3.345 44.15 44.15 0 0 0-14.331 9.543 43.987 43.987 0 0 0-9.572 14.285A43.871 43.871 0 0 0 0 127.405Z"/></g><defs><clipPath id="a"><path fill="#fff" d="M0 0h690v175H0z"/></clipPath></defs></svg>