<svg xmlns="http://www.w3.org/2000/svg" viewBox="0 0 455.1 104"><path fill="#3a6a91" d="M52 0C15.8-.2 0 33.3 0 52.6c0 19.9 16.5 51.5 52 51.4 34.9-.1 51.8-27.8 52-51.7C104.3 25.5 84.1-.2 52 0zm21.4 43.1c-3.4-8.9-10.3-9.7-10.3-9.7v58.1s-4.9 1.8-10 1.8c-5.4 0-10-1.8-10-1.8V33.4s-6.4.9-10.3 9.7c-5.5-3.3-11.3-7-15.8-9.7C20.2 25 33.7 11 53.4 11c19.6.1 33.5 14.4 35.8 22.4-8.2 5-10.2 6-15.8 9.7zM136 42V31.8h5.2V17.5H152v14.3h10.7V42H152v35h-10.8V42H136zm77.7 11.9-35.1 6.7c1.1 2.2 2.8 3.9 4.9 5.2s4.5 1.9 7.1 1.9c2.3 0 4.4-.5 6.2-1.6 1.8-1 3-2.1 3.6-3.1l1-1.5 9.5 4.8c-.2.3-.3.7-.7 1.2-.3.5-1 1.5-2.3 2.8-1.2 1.3-2.5 2.5-3.9 3.5s-3.4 1.9-5.8 2.8c-2.5.9-5.1 1.2-7.9 1.2-7.1 0-12.9-2.3-17.4-6.8-4.5-4.3-6.8-9.9-6.8-16.7 0-6.6 2.3-12.2 6.8-16.8 4.5-4.6 10.2-6.9 16.8-6.9 6.7 0 12.2 2.3 16.8 6.7s7 10.1 7.2 16.6zM190 41c-3.4 0-6.3 1-8.7 3.1-2.3 2.1-3.7 4.9-4.1 8.3l24.1-4.6c-2.1-4.5-5.9-6.8-11.3-6.8zm101.9 8.2v27.7h-10.8V50.2c0-2.7-.6-4.9-1.8-6.6-1.2-1.7-3.1-2.6-5.8-2.6-2.7 0-4.9 1-6.9 3.1-1.9 2.1-3 5.2-3 9.5V77h-10.8V50.2c0-2.7-.6-4.9-1.8-6.6-1.2-1.7-3.1-2.6-5.8-2.6-2.7 0-4.9 1-6.9 3.1s-3 5.2-3 9.5V77h-10.8V31.8h10.8v3.5c3-3 6.9-4.5 11.9-4.5 6.2 0 10.7 2.3 13.6 7 3.6-4.7 8.5-7 14.7-7 4.5 0 8.4 1.5 11.5 4.3 3.3 2.9 4.9 7.6 4.9 14.1zm57.4 4.7-35.1 6.7c1.1 2.2 2.8 3.9 4.9 5.2 2.2 1.3 4.5 1.9 7.1 1.9 2.3 0 4.4-.5 6.2-1.6 1.8-1 3-2.1 3.6-3.1l1-1.5 9.5 4.8c-.2.3-.3.7-.7 1.2-.3.5-1 1.5-2.3 2.8-1.2 1.3-2.5 2.5-3.9 3.5s-3.4 1.9-5.8 2.8c-2.5.9-5.1 1.2-7.9 1.2-7.1 0-12.9-2.3-17.4-6.8-4.4-4.5-6.7-10.2-6.7-16.8 0-6.6 2.3-12.2 6.8-16.8 4.5-4.6 10.2-6.9 16.8-6.9s12.2 2.3 16.8 6.7c4.7 4.7 7 10.2 7.1 16.7zM325.6 41c-3.4 0-6.3 1-8.7 3.1-2.3 2.1-3.7 4.9-4.1 8.3l24.1-4.6c-2.1-4.5-5.9-6.8-11.3-6.8zm28.9 30.5 5.9-7.8c.5.4 1.1.9 1.9 1.5.8.5 2.3 1.3 4.6 2.3 2.3 1 4.4 1.5 6.5 1.5 3.7 0 5.6-1.6 5.6-4.6 0-1.4-.8-2.5-2.3-3.5-1.5-.9-3.3-1.7-5.4-2.4s-4.2-1.5-6.3-2.3c-2.2-.8-4.1-2.2-5.6-4.2s-2.3-4.5-2.3-7.5c0-4 1.5-7.3 4.4-9.8 3-2.5 6.6-3.9 10.8-3.9 3 0 6 .4 8.8 1.4 2.8.9 4.8 1.8 6 2.9l1.9 1.4-4.9 7.5c-3.5-2.5-7.1-3.7-10.8-3.7-1.6 0-3 .3-3.8 1s-1.3 1.6-1.3 2.6c0 1.4.8 2.4 2.3 3.3 1.5.9 3.2 1.6 5.3 2.3 2.1.7 4.2 1.5 6.3 2.3 2.2.8 4 2.3 5.5 4.4 1.5 2.2 2.2 4.8 2.2 8 0 4.2-1.5 7.6-4.4 10.2-3 2.6-6.9 3.9-11.7 3.9-2.2 0-4.3-.3-6.4-.7s-3.9-1-5.4-1.6c-1.5-.7-2.8-1.3-3.9-1.9-1.1-.6-2-1.1-2.5-1.6l-1-1zm46.6-50.7c-1.2-1.2-1.8-2.7-1.8-4.5s.6-3.3 1.8-4.5c1.2-1.2 2.7-1.8 4.4-1.8s3.2.6 4.5 1.8c1.2 1.2 1.9 2.8 1.9 4.5s-.6 3.2-1.8 4.4c-1.2 1.2-2.8 1.8-4.5 1.8-1.9.1-3.3-.5-4.5-1.7zm-1 56.2V31.8h10.8V77h-10.8zm19.7-5.5 5.9-7.8c.5.4 1.1.9 1.9 1.5.8.5 2.3 1.3 4.6 2.3 2.3 1 4.4 1.5 6.5 1.5 3.7 0 5.6-1.6 5.6-4.6 0-1.4-.8-2.5-2.3-3.5-1.5-.9-3.3-1.7-5.4-2.4-2.1-.7-4.2-1.5-6.3-2.3-2.2-.8-4.1-2.2-5.6-4.2s-2.3-4.5-2.3-7.5c0-4 1.5-7.3 4.4-9.8 3-2.6 6.6-3.9 10.8-3.9 3 0 6 .4 8.8 1.4 2.8.9 4.8 1.8 6 2.9l1.9 1.4-4.9 7.5c-3.5-2.5-7.1-3.7-10.8-3.7-1.6 0-3 .3-3.8 1s-1.3 1.6-1.3 2.6c0 1.4.8 2.4 2.3 3.3 1.5.9 3.2 1.6 5.3 2.3 2 .7 4.2 1.5 6.3 2.3 2.2.8 4 2.3 5.5 4.4s2.2 4.8 2.2 8c0 4.2-1.5 7.6-4.4 10.2-3 2.6-6.9 3.9-11.7 3.9-2.2 0-4.3-.3-6.4-.7-2.1-.4-3.9-1-5.4-1.6-1.5-.7-2.8-1.3-3.9-1.9s-2-1.1-2.5-1.6l-1-1z"/></svg>