<svg xmlns="http://www.w3.org/2000/svg" viewBox="0 0 360 360">
  <g fill="#005a9c">
    <path d="M267.1 217.5a10.6 10.6 0 0 0-14.9 1.7 34.2 34.2 0 0 1-13.3 11.1c-8.6 3.7-15.8 2.1-22.9-4.8a592.2 592.2 0 0 1-20.2-21.6l-9.6-10.6-16.6-17.9-.5-.5c-12.1-13-24.6-26.3-36.7-39.8A43.6 43.6 0 0 0 94 121.3a43.3 43.3 0 0 0-33.1 26.2 38.7 38.7 0 0 0 5.8 42 607 607 0 0 0 50.4 53.8c7.2 6.6 15.9 10 25.2 10.1 6 0 15-.6 24.3-6.9 4-2.7 7.8-5.5 9.5-9.8 1.7-4.4 0-9.4-3.9-12.2a10.1 10.1 0 0 0-12.5.4l-1.5 1.3c-5.8 5-12.9 11.4-27.5.9A199 199 0 0 1 95 190.3l-12.2-14.7a17.7 17.7 0 0 1-2.7-19.2c2.7-5.7 7.7-12.7 17-14.1 7-1 15 1.7 19.6 7a2655.4 2655.4 0 0 0 54 58.5l9.6 10.4a556 556 0 0 0 20.9 22.3 40 40 0 0 0 46.2 9.4c8-3.4 14.8-9 21.5-17.5a10.6 10.6 0 0 0-1.7-14.9Z"/>
    <path d="M283.7 158.6c6.9-3.3 12.2-9.4 12.8-16.8 1.3-13-9.3-25.3-25-27.2a32.4 32.4 0 0 0-24.7 6.9 8.4 8.4 0 0 0-1.4 11.6c3.2 3.8 6.9 4.5 13 1.2 2-1.2 5.3-2.3 8.9-2a9 9 0 0 1 8.5 9.3c0 .4 0 9.8-9.5 9.1l-3.6-.2c-4-.3-8 3.4-8.3 7.7-.3 4.5 3 8.5 7.2 8.8l4.4.3c12 .8 10.8 11.1 10.5 12.7-.2 4.8-7.8 12.8-21.3 3.7-4.6-3.1-37.3-44.2-37.3-44.2a44 44 0 0 0-62.6-8.4 10.6 10.6 0 0 0-2.3 14.8 10.5 10.5 0 0 0 14.8 2.3c14.2-10.3 26.8-4.2 33.3 4.2 0 0 35.2 45.2 44.2 50 5.9 3.1 12 5 18.2 5.4 19.1 1.3 30.8-9.2 33.9-23.7 2-9.4-4-21.3-13.7-25.5Z"/>
  </g>
  <path fill="#002a56" d="m334.2 146.5 14 1.6h1.2a12.2 12.2 0 0 0-1.1.6l-12.5 6.5.7 3.5 21 2.2-.6-3.1a1.4 1.4 0 0 0-1.1-1.1l-12-.8a19.9 19.9 0 0 0-2.2 0 36.3 36.3 0 0 0 2-1l10.8-5.6.5-.6c.1-.2.2-.5.1-.9l-.2-1.1c0-.4-.2-.6-.4-.8l-.7-.4-12.2-1.3h-1l-1.2-.1 2-.9 11-5 .5-.7a1 1 0 0 0 0-.9l-.5-3.3-18.8 9.7.7 3.5Zm20.8 21.8c-1-.8-2-1.4-3.3-1.9-1.3-.4-2.7-.6-4.2-.6-1.4 0-2.8.3-4 .8a9.2 9.2 0 0 0-5.3 5.3c-.6 1.2-.8 2.6-.7 4s.3 2.9.8 4a9 9 0 0 0 5.6 5 12 12 0 0 0 11.5-2.3 10 10 0 0 0 2.8-7.2 10 10 0 0 0-1-4 9.2 9.2 0 0 0-2.2-3Zm-.7 9.6a5 5 0 0 1-1.3 1.8c-.6.5-1.3 1-2.2 1.2a9.9 9.9 0 0 1-5.8.2c-.8-.3-1.6-.6-2.2-1.1a5.2 5.2 0 0 1-2-4.2c0-.8.2-1.7.5-2.4s.7-1.3 1.3-1.8c.6-.5 1.3-1 2.1-1.2a10 10 0 0 1 3-.5c1 0 2 .1 2.9.3.8.3 1.6.6 2.2 1.1a5.1 5.1 0 0 1 1.9 4.2c0 .9 0 1.7-.4 2.4Zm-17.1 15.4 7.7.8-.1 1.3-.2.8c-.2.2-.3.4-.6.5l-6.7 3a2 2 0 0 0-1 1.4l-.3 3.6 7.8-3.8a3.8 3.8 0 0 0 1.4-1.2 6.4 6.4 0 0 0 1.9 3.3 5.8 5.8 0 0 0 3.4 1.4c.8.1 1.6 0 2.4-.2.7-.2 1.4-.5 2-1.1a9.3 9.3 0 0 0 2.2-5.7l.6-6-20.1-2.1-.4 4Zm10.6 1 6.5.8-.3 2c0 1.3-.4 2.2-1 2.7-.6.6-1.4.8-2.4.7-.5 0-1-.2-1.3-.4a2.8 2.8 0 0 1-1.7-2v-1.7l.2-2ZM333 218.5l3.3.7 1.4-6.9 16.6 3.5.8-3.9-19.8-4.2-2.3 10.8zm-3 10.5a9.3 9.3 0 0 0-.6 4 9 9 0 0 0 3.4 6.5 11.8 11.8 0 0 0 7.7 2.6c1.4-.1 2.6-.4 3.7-1a9 9 0 0 0 3-2.2c.8-1 1.5-2.2 2-3.6l2.3-7-19.2-6.4-2.4 7Zm3 1 1-3.3 13.2 4.4-1 3.2c-.3.8-.8 1.6-1.3 2.1a5 5 0 0 1-1.9 1.3 6 6 0 0 1-2.4.4 9.9 9.9 0 0 1-5.5-1.8 5.8 5.8 0 0 1-1.7-1.8 5.3 5.3 0 0 1-.4-4.6Zm-14.8 26.1 9.5 10.3.5.5.4.5-.6-.2-.6-.2-13.6-3.3-1.9 3 14.4 15.5 1.6-2.7c.2-.3.3-.5.2-.8l-.3-.8-8.5-8.5a29.3 29.3 0 0 0-1.6-1.4 42 42 0 0 0 2 .6l12 2.9.7-.1.7-.6.6-1 .2-1-.3-.6-8.3-9-.7-.8-.9-.7 2 .6 11.7 3.4.8-.1.6-.7 1.7-2.9-20.5-5-1.8 3.1ZM304 277.6l2.4-3.2 16.1 12.3-2.4 3.2zm-8.2 9.4c-1 1.2-1.7 2.3-2.2 3.6a9 9 0 0 0 .5 7.3 9.6 9.6 0 0 0 2.5 3.3c1 1 2.2 1.8 3.4 2.3a9 9 0 0 0 7.3-.1c1.3-.6 2.4-1.4 3.4-2.5l5-5.4-14.8-13.8-5 5.4Zm12.5 11.7c-.6.7-1.2 1.2-2 1.5a5 5 0 0 1-2.2.4c-.8 0-1.6-.3-2.4-.7-.8-.4-1.6-1-2.4-1.7a10 10 0 0 1-1.8-2.3c-.5-.7-.7-1.5-.9-2.3 0-.8 0-1.5.3-2.2s.7-1.5 1.3-2.1l2.3-2.5 10.1 9.5-2.3 2.4Zm-31.3 5.9 2 2.5 6.4-5.4 3.5 4.2-4.9 4.1 2 2.4 4.9-4.2 3.5 4.1-6.4 5.4 2.1 2.4 9.4-8-13.1-15.4-9.4 7.9zM260.2 316l3 13.8v.6l.2.6a22.6 22.6 0 0 0-.9-1l-10-9.8-3.2 1.8 4.6 20.6 2.7-1.5a1.4 1.4 0 0 0 .7-1.4l-3-11.7a17.7 17.7 0 0 0-.6-2 24 24 0 0 0 1.5 1.5l8.7 8.6c.2.2.5.3.7.3.3 0 .6 0 .9-.2l1-.6c.3-.1.5-.3.6-.6.1-.3.2-.5.1-.8l-2.5-12-.2-1-.4-1 1.5 1.6 8.2 8.8c.2.2.5.3.8.3.2 0 .5 0 .8-.2l3-1.6-15-14.8-3.2 1.7Zm-30.6 13.9 1.1 3 7.8-2.9 2 5.1-6.1 2.3 1.1 2.8 6.1-2.2 1.8 5-7.8 2.9 1.2 3 11.5-4.4-7.1-18.9-11.6 4.3zm-11.1 3.1c-1.1.3-2 .7-2.9 1.2-.8.5-1.4 1.1-1.8 1.8-.5.7-.8 1.4-.9 2.2a6 6 0 0 0 .1 2.4c.6 2.3 2.3 3.4 5 3.4a4.7 4.7 0 0 0-2 2.4 4.2 4.2 0 0 0-.3 2.7 6 6 0 0 0 1 2c.4.6 1 1 1.6 1.4.7.3 1.5.5 2.5.5s2-.2 3.3-.5l6.7-1.7-5-19.6-7.3 1.8Zm-.4 8.5a2 2 0 0 1-.8-.7l-.4-1a4 4 0 0 1-.2-1.2c0-.4.1-.7.3-1l.8-1 1.5-.6 3.3-.8 1.5 5.5-3.3.8c-.6.2-1.2.3-1.6.2-.4 0-.8 0-1.1-.2Zm5.3 8c-1.1.3-2 .3-2.6 0s-1-.9-1.3-1.9c-.3-1-.2-1.7.3-2.3.5-.6 1.3-1 2.4-1.3l2.5-.6 1.4 5.4-2.7.7Zm-23-6.8a9.8 9.8 0 0 0-2-3.1 8 8 0 0 0-6.8-2.4c-1.5.1-2.8.5-3.8 1.1a8 8 0 0 0-2.6 2.6l1.8 1.6a.7.7 0 0 0 .9 0s.2 0 .3-.2l.7-.7a3.8 3.8 0 0 1 1.6-.8l1.2-.2c.7 0 1.3 0 2 .3s1.2.7 1.7 1.2a7 7 0 0 1 1.2 2.1 10.9 10.9 0 0 1 .5 5.9c-.1.9-.4 1.6-.8 2.2s-.9 1.2-1.4 1.5a4.9 4.9 0 0 1-5.6-.4 1 1 0 0 0-.6-.1l-.5.1-.3.4-1.2 2a8.5 8.5 0 0 0 6.4 2.1c1.4-.2 2.6-.5 3.6-1.1 1.1-.6 2-1.4 2.7-2.4.8-1 1.3-2.1 1.6-3.4.4-1.3.5-2.7.3-4.2 0-1.5-.4-2.9-1-4.1Zm-20.1-2a9 9 0 0 0-3-2.2 10 10 0 0 0-4-1 10 10 0 0 0-4 .6 9.1 9.1 0 0 0-5.4 5.2 11.6 11.6 0 0 0-.3 8.3 9.2 9.2 0 0 0 4.9 5.7c1.1.5 2.4.8 3.9.9a9.3 9.3 0 0 0 9.4-5.8 11.8 11.8 0 0 0 .3-8.2c-.4-1.4-1-2.5-1.8-3.5ZM178 351c-.3.8-.7 1.5-1.3 2.1a5 5 0 0 1-1.8 1.3c-.8.3-1.6.4-2.5.4-.9 0-1.6-.2-2.3-.6-.7-.3-1.3-.8-1.8-1.4-.4-.7-.8-1.4-1-2.3a10 10 0 0 1 .2-5.8c.3-.8.7-1.5 1.3-2.1.5-.6 1-1 1.8-1.3a6 6 0 0 1 2.4-.4c1 0 1.7.2 2.4.6.7.3 1.3.8 1.8 1.4a7 7 0 0 1 1 2.3 9.9 9.9 0 0 1-.2 5.8Zm-23.7-3-.3 1.7-7.4-14.6a2 2 0 0 0-.5-.7l-.7-.3-2-.3-3.7 19.9 3.4.6 2.2-11.6.2-2 7.5 14.8.2.4a1 1 0 0 0 .5.4h.5l2 .4 3.7-19.9-3.5-.6-2.1 11.8ZM137 332.5a9.4 9.4 0 0 0-3.2-1.8c-1-.3-2-.4-2.9-.4s-1.7.4-2.5.8a6 6 0 0 0-1.8 1.6c-.6.7-1 1.4-1.2 2.3-.3.8-.4 1.5-.3 2.2 0 .6.2 1.2.5 1.7l1 1.4 1.4 1.1a59 59 0 0 0 2.5 2l.7 1c.2.4.2.8 0 1.2-.2.7-.6 1.2-1.1 1.5-.6.3-1.3.3-2.2 0-.5-.1-1-.3-1.3-.6l-.8-.7-.6-.7-.6-.4a1 1 0 0 0-.5 0 1 1 0 0 0-.5.3l-1.5 1.5c.5.9 1.1 1.6 2 2.3a9 9 0 0 0 5.6 1.8c.9 0 1.7-.3 2.4-.7a5.8 5.8 0 0 0 2.8-3.4l.3-2.3a4.8 4.8 0 0 0-1.5-3.2 57.5 57.5 0 0 0-3.9-3 3 3 0 0 1-.7-1.1 2 2 0 0 1 0-1.3 3 3 0 0 1 1.4-1.8 3 3 0 0 1 2.2 0c.6.2 1.1.4 1.5.7l1 1 .7.9.6.5a1 1 0 0 0 1-.3l1.7-1.4a7 7 0 0 0-1-1.5 10 10 0 0 0-1.2-1.2Zm-18-6.3c-.8-1-2-1.7-3.3-2.3a10 10 0 0 0-4-1 9 9 0 0 0-6.9 3 11.7 11.7 0 0 0-3.4 7.5c0 1.3.1 2.6.5 3.8a9 9 0 0 0 2 3.2 10 10 0 0 0 7.3 3.3 9.3 9.3 0 0 0 7-2.9 11.7 11.7 0 0 0 3.4-7.5 12 12 0 0 0-.6-3.8c-.4-1.2-1-2.3-2-3.3Zm-1.5 6.7c0 .9-.3 1.8-.8 2.8-.4 1-1 1.8-1.5 2.5a7 7 0 0 1-2 1.5 5.4 5.4 0 0 1-4.6 0c-.8-.4-1.5-.9-2-1.4a5 5 0 0 1-1-2c-.2-.8-.3-1.6-.2-2.5.1-.9.4-1.8.8-2.8.5-1 1-1.8 1.6-2.5.6-.7 1.2-1.2 2-1.5.6-.4 1.3-.5 2.1-.5s1.6.1 2.4.5a6 6 0 0 1 2 1.4c.5.6.9 1.3 1 2 .3.8.3 1.6.2 2.5Zm-17.3-16.7-4.1 6.6-1.2-.7-.6-.6-.1-.7.1-7.3c0-.6-.3-1.1-.8-1.4l-3.1-2v8.7a3.7 3.7 0 0 0 .5 1.8 6.4 6.4 0 0 0-3.7.3 5.8 5.8 0 0 0-2.8 2.5c-.4.7-.7 1.4-.9 2.2a6 6 0 0 0 .2 2.3c.3.8.7 1.5 1.4 2.3a16 16 0 0 0 2.7 2.2l5.2 3.1 10.6-17.2-3.4-2.1Zm-9 14.6-1.8-1c-1-.7-1.7-1.4-2-2.2a3 3 0 0 1 .5-2.4c.2-.5.5-.8.9-1.1a2.9 2.9 0 0 1 2.5-.6c.5.1 1 .3 1.6.7l1.7 1-3.4 5.6ZM85 306l-3.2-2.5L71.4 317l-4.3-3.4-2 2.6 11.8 9.2 2-2.6-4.3-3.4L85 306zm-26.8 3.9 13.7-15 3 2.7-13.7 15zm5.8-15.6a7.7 7.7 0 0 0 .4-6.2c-.4-1-1-2-1.9-3-.8-1-1.8-1.8-2.8-2.3a7.6 7.6 0 0 0-6.2-.3c-1 .4-2 1-2.9 1.8l-9 8.1 2.7 3 9-8c.5-.6 1.1-1 1.7-1.2a4 4 0 0 1 1.8-.4c.5 0 1 .1 1.6.4.6.2 1 .6 1.6 1.2.4.5.8 1 1 1.6a3.9 3.9 0 0 1-.4 3.4c-.3.6-.8 1.1-1.3 1.6l-9 8 2.6 3 9-8a8 8 0 0 0 2.2-2.7Zm-12.2-22L41 279.2a23.2 23.2 0 0 0-1.5 1.2l6-11.7c.3-.5.3-1.1 0-1.6l-.3-.5c-.3-.5-.8-.7-1.5-.7l-13 .8a27.8 27.8 0 0 0 1.6-1l10.7-6.8-2-3-17 11 1.7 2.5.3.4.2.3.3.1h.5l12.5-.7 1.1-.1 1.1-.2-1.2 1.8-5.8 11.3-.1.4v.6l.3.4 1.7 2.6 17-11-2-3Zm-26.9-63.2-14-1.9h-.5l-.7-.1a12.5 12.5 0 0 0 1.2-.5l12.6-6.1-.6-3.6-21-2.7.6 3c0 .4.2.7.4.9.2.2.4.3.7.3l12 1.1a16 16 0 0 0 2.1.1 36.2 36.2 0 0 0-2 .9l-11 5.4c-.2 0-.4.3-.5.5-.1.3-.2.6-.1.9l.2 1.2c0 .3.2.5.4.7l.7.4 12 1.7h1l1.2.2-2 .8-11 4.8a1 1 0 0 0-.6.5c-.1.3-.2.6-.1 1l.5 3.3 19-9.2-.5-3.6ZM4.7 186.8a8 8 0 0 0 3.3 2 11.7 11.7 0 0 0 8.2 0 9.1 9.1 0 0 0 5.5-5.1c.5-1.2.7-2.5.7-4s-.2-2.8-.7-4a9 9 0 0 0-5.5-5.1 11 11 0 0 0-4.1-.7c-1.5 0-2.9.2-4.1.7a9.2 9.2 0 0 0-5.5 5 11 11 0 0 0 0 8.1 9.2 9.2 0 0 0 2.2 3.1Zm1-9.5c.2-.7.7-1.3 1.3-1.8a5 5 0 0 1 2.2-1.1c.8-.3 1.8-.4 2.9-.4 1 0 2 .1 2.9.4a5 5 0 0 1 2.2 1.1c.6.5 1 1.1 1.3 1.8.4.7.5 1.5.5 2.4s-.1 1.7-.5 2.4a5 5 0 0 1-1.3 1.8c-.6.5-1.4.9-2.2 1.2s-1.8.4-3 .4c-1 0-2-.2-2.8-.4-.9-.3-1.6-.7-2.2-1.2a5 5 0 0 1-1.4-1.8 6 6 0 0 1 0-4.8Zm17.5-14.9-7.8-1 .2-1.4c0-.3.2-.6.3-.8l.6-.4 6.7-2.8c.6-.3 1-.8 1-1.4l.5-3.6-8 3.5a3.8 3.8 0 0 0-1.3 1.2l-.7-1.9a6 6 0 0 0-2.7-2.4c-.5-.3-1.1-.4-1.8-.5H7.8c-.8.3-1.4.6-2 1.2-.6.5-1.1 1.3-1.5 2.2-.5.9-.8 2-1 3.4l-.7 6 20 2.7.6-4ZM12.6 161l-6.5-.9.3-2c.2-1.3.6-2.2 1.2-2.7s1.4-.7 2.4-.6c.5 0 .9.2 1.3.4a2.9 2.9 0 0 1 1.5 2c.2.5.2 1.1 0 1.7l-.2 2ZM28 137.2l-3.2-.8-1.6 6.8-16.5-3.9-1 3.9 19.7 4.7 2.6-10.7zm3.4-10.2c.5-1.4.7-2.8.7-4a9 9 0 0 0-3.3-6.7c-1-.8-2.2-1.5-3.6-2s-2.7-.8-4-.8a9 9 0 0 0-6.7 3c-1 1-1.6 2.2-2.1 3.6L9.9 127l19 6.9 2.5-7Zm-3-1.1-1.1 3.1-13-4.7 1-3.2c.4-.8.8-1.5 1.3-2a5 5 0 0 1 2-1.3c.7-.3 1.5-.4 2.4-.3.9 0 1.8.2 2.8.6 1 .4 2 .8 2.6 1.4.8.5 1.3 1.1 1.7 1.8.4.6.6 1.4.7 2.1 0 .8 0 1.6-.4 2.5Zm15.5-25.8-9.3-10.6-.4-.4-.5-.5a15 15 0 0 0 1.3.3l13.5 3.8 2-3.1-14-15.8-1.7 2.6-.3.9c0 .3.2.5.3.7l8.4 8.8a17.9 17.9 0 0 0 1.5 1.4 23.6 23.6 0 0 0-2-.6l-11.9-3.2h-.7c-.3.1-.5.4-.7.6l-.6 1c-.2.3-.3.6-.2.9 0 .3 0 .5.2.7l8 9.2.8.8.8.8-2-.7L24.7 94H24l-.6.7-1.8 2.9 20.4 5.6 1.9-3ZM58.7 79 43 66.3l-2.6 3.1 15.8 12.7 2.5-3.1zm8.3-9.3c1.1-1 1.9-2.2 2.4-3.4a9 9 0 0 0-.2-7.3c-.6-1.2-1.4-2.4-2.5-3.4-1-1-2.1-1.8-3.4-2.4a9 9 0 0 0-7.3 0 12 12 0 0 0-3.4 2.3l-5.1 5.3L61.9 75l5.2-5.3Zm-12-12c.5-.6 1.2-1 2-1.3a5 5 0 0 1 2.2-.4c.8.1 1.5.3 2.3.8s1.6 1 2.4 1.7a9 9 0 0 1 1.8 2.3c.4.8.7 1.6.8 2.4 0 .8 0 1.5-.3 2.2a6 6 0 0 1-1.4 2L62.5 70l-10-9.8 2.4-2.4Zm31.4-5-2-2.5-6.5 5.2-3.4-4.2 5-4.1-1.9-2.4-5 4.1-3.4-4.2 6.5-5.2-2-2.5-9.6 7.7 12.7 15.8 9.6-7.7zm17.1-10.9L100.9 28v-.6l-.2-.7.4.6.4.4 9.8 10.1 3.2-1.7-4-20.7-2.8 1.4c-.2.2-.5.4-.6.7-.1.2-.2.5-.1.7l2.7 11.8a19 19 0 0 0 .5 2 26 26 0 0 0-1.4-1.6l-8.5-8.7c-.2-.2-.4-.4-.7-.4-.3 0-.6 0-.9.2l-1 .5c-.3.2-.5.4-.6.7-.2.2-.2.5-.2.7l2.2 12 .2 1 .3 1.2-1.4-1.7-8-9-.7-.4c-.3 0-.6 0-.9.2l-3 1.6 14.7 15.2 3.2-1.7Zm30.9-13.1-1-3-7.9 2.7-1.8-5.1 6.2-2.1-1-2.9-6.2 2.1-1.7-5.1 7.9-2.7-1.1-3-11.7 4 6.7 19.2 11.6-4.1zm11.2-2.7c1.2-.3 2.1-.7 3-1.2.7-.5 1.4-1 1.8-1.7.5-.7.8-1.4 1-2.2s0-1.6-.1-2.4c-.5-2.3-2.1-3.5-4.8-3.5a6 6 0 0 0 1.3-1.1c.4-.4.6-.8.8-1.2l.3-1.4V10c-.3-.8-.6-1.5-1-2.1-.4-.6-1-1-1.6-1.4-.7-.3-1.5-.5-2.4-.6-1 0-2.1.1-3.4.4l-6.7 1.5 4.5 19.8 7.3-1.7Zm.7-8.5.7.7.4 1 .1 1.2c0 .4 0 .7-.3 1-.2.4-.4.7-.8 1l-1.5.5-3.4.8-1.2-5.6 3.3-.7c.6-.2 1.1-.2 1.6-.2.4 0 .8.1 1 .3Zm-5-8.2c1-.2 1.9-.2 2.5 0 .6.4 1 1 1.2 2 .3 1 .1 1.8-.4 2.3a4 4 0 0 1-2.4 1.2l-2.5.6-1.3-5.4 2.8-.7ZM166 20a8 8 0 0 0 3 2c1 .4 2.3.6 3.7.5a7.4 7.4 0 0 0 6.4-3.5l-1.6-1.7a.7.7 0 0 0-.9-.1l-.3.3-.8.7a4 4 0 0 1-1.7.8l-1 .1c-.8 0-1.5 0-2-.4s-1.3-.6-1.7-1.2a7 7 0 0 1-1.2-2.1 11 11 0 0 1-.4-5.9c.2-.9.5-1.6.9-2.3a4.4 4.4 0 0 1 3.5-2 4.9 4.9 0 0 1 3.5 1.1c.2.2.5.3.7.2l.5-.1.3-.3 1.2-2a7.8 7.8 0 0 0-2.7-1.8 8.8 8.8 0 0 0-3.7-.5c-1.3 0-2.5.4-3.6 1S166 4 165.3 5c-.7 1-1.3 2-1.7 3.3s-.5 2.7-.4 4.2c0 1.6.4 3 .9 4.2a9.7 9.7 0 0 0 1.9 3.1Zm33.3-14.5c-.7-1-1.7-1.8-2.9-2.4a10 10 0 0 0-4-1 10 10 0 0 0-4 .5 9.2 9.2 0 0 0-5.5 5 11.7 11.7 0 0 0-.6 8.2 9.1 9.1 0 0 0 4.7 5.8c1.2.7 2.5 1 4 1.1 1.5.1 2.8 0 4-.5a9 9 0 0 0 5.5-5c.6-1.3 1-2.7 1-4.1a10 10 0 0 0-2.2-7.6Zm-1.9 7.3c0 1-.2 2-.6 2.9-.3.8-.7 1.5-1.2 2a5 5 0 0 1-2 1.3c-.7.3-1.5.4-2.4.3a6 6 0 0 1-2.3-.6 5 5 0 0 1-1.7-1.5 6 6 0 0 1-1-2.3 10 10 0 0 1-.2-3c0-1 .3-2 .6-2.8.3-.8.7-1.5 1.3-2a5 5 0 0 1 1.9-1.3c.7-.3 1.5-.4 2.4-.3a5 5 0 0 1 4 2.2c.5.5.8 1.3 1 2.2.3.8.3 1.8.2 2.9ZM218 26.5c.2.2.4.3.8.3l2 .5L225 7.5l-3.5-.8-2.4 11.6a6 6 0 0 0-.3 2l-7-15-.3-.4-.2-.2-.3-.2-.5-.1-2-.4-4.2 19.8 3.4.7 2.5-11.7.3-1.8 7 14.9.5.6Zm9.1 2.3a9.5 9.5 0 0 0 3.1 1.8c1 .3 2 .5 3 .4a5 5 0 0 0 2.4-.6c.7-.4 1.4-1 2-1.6s.9-1.4 1.2-2.3c.3-.8.4-1.5.3-2.1 0-.7-.2-1.2-.4-1.8l-1-1.4a60.5 60.5 0 0 0-3.8-3.2l-.7-1v-1.3c.2-.6.7-1.1 1.2-1.4.6-.3 1.3-.3 2.2 0 .5.2 1 .4 1.2.7l.9.8.6.6c.1.3.3.4.5.4h.5c.1 0 .3 0 .5-.2l1.6-1.5a9 9 0 0 0-7.5-4.3 6 6 0 0 0-2.4.6 5.6 5.6 0 0 0-2.9 3.3 8 8 0 0 0-.4 2.4 4.8 4.8 0 0 0 1.4 3.2l1.3 1.2 1.4 1 1.1 1c.3.3.6.6.7 1v1.4c-.4.8-.8 1.4-1.4 1.7a3 3 0 0 1-2.3 0l-1.4-.8-1-1c-.2-.4-.5-.6-.6-1s-.4-.3-.7-.4a1 1 0 0 0-1 .2L225 26l.9 1.5 1.2 1.3Zm17.7 6.6c.9 1 2 1.8 3.3 2.5 1.3.6 2.7 1 4 1a9 9 0 0 0 7-2.7c.9-1 1.7-2 2.3-3.4.7-1.3 1-2.7 1.2-4 .1-1.4 0-2.6-.4-3.8a10 10 0 0 0-5.1-5.8 10 10 0 0 0-4-1 9.2 9.2 0 0 0-7 2.7 12 12 0 0 0-3.2 11.2c.4 1.2 1 2.3 2 3.3Zm1.7-6.5c.1-1 .4-1.9.9-2.9s1-1.7 1.6-2.4c.6-.6 1.3-1.1 2-1.5.7-.3 1.4-.4 2.2-.4.8 0 1.6.2 2.4.6.8.4 1.4.9 2 1.5.4.6.8 1.2 1 2 .1.7.2 1.6 0 2.4 0 1-.4 1.9-.9 2.8-.4 1-1 1.8-1.6 2.5s-1.2 1.1-2 1.5a5 5 0 0 1-2.2.4c-.7 0-1.5-.2-2.3-.6-.8-.4-1.5-.9-2-1.5s-.8-1.2-1-2c-.2-.7-.2-1.6-.1-2.4Zm17 17.1 4.3-6.5 1 .8c.4.2.6.4.7.6l.1.7-.3 7.3c0 .6.2 1.1.8 1.5l3 2 .2-8.7a3.9 3.9 0 0 0-.4-1.8 6.4 6.4 0 0 0 3.7-.2 4 4 0 0 0 1.6-1c.5-.3 1-.8 1.3-1.4l1-2.2c0-.8 0-1.5-.2-2.3-.2-.8-.7-1.5-1.3-2.3-.7-.8-1.6-1.5-2.7-2.3l-5.1-3.3-11 17 3.3 2.2Zm9.4-14.3 1.7 1.1c1 .7 1.7 1.4 2 2.2.1.8 0 1.6-.6 2.4a4 4 0 0 1-.9 1c-.3.3-.7.5-1.2.6h-1.3a5 5 0 0 1-1.6-.7l-1.7-1.1 3.6-5.5Zm5.5 24.9 3.1 2.6L292.2 46l4.3 3.5 2-2.6-11.5-9.4-2.1 2.5 4.3 3.5-10.8 13.1zm9.9 8.7 14.2-14.6 2.8 2.8-14 14.6zm10.7 3.6a7.7 7.7 0 0 0-.6 6.2c.4 1 1 2 1.8 3 .9 1 1.8 1.8 2.8 2.4a7.5 7.5 0 0 0 6.2.4c1-.3 2-1 3-1.7l9.1-7.8-2.6-3-9.2 7.8c-.5.4-1.1.8-1.7 1a4 4 0 0 1-1.8.4 4 4 0 0 1-1.6-.5c-.6-.2-1-.6-1.5-1.2-.5-.5-.8-1-1-1.7-.2-.5-.2-1-.2-1.7s.3-1 .7-1.6c.3-.6.8-1.1 1.3-1.6l9.2-7.8-2.5-3-9.3 7.7c-.9.8-1.6 1.7-2.2 2.7Zm11.7 22.3 10.8-6.5a12.9 12.9 0 0 0 1.6-1.2L316.7 95c-.3.6-.3 1.1 0 1.6l.3.5c.3.5.8.8 1.5.8l13-.4a18.7 18.7 0 0 0-1.7.8L319 105l1.8 3 17.3-10.5-1.6-2.6a6 6 0 0 0-.4-.6l-.3-.1h-.5l-12.6.3h-1l-1.2.2c.5-.5.9-1.1 1.3-1.8l6-11 .3-.4V81l-.1-.3-.3-.4-1.5-2.6-17.4 10.5 1.9 3Zm-284 149.6c0-2.5-2-4.5-4.5-4.5s-4.5 2-4.5 4.5c0 2.4 2 4.5 4.5 4.5s4.5-2 4.5-4.5Zm306.5-120c0 2.5 2 4.6 4.5 4.6s4.5-2.1 4.5-4.6c0-2.5-2-4.5-4.5-4.5s-4.5 2-4.5 4.5Z" aria-label="WORLD WIDE WEB CONSORTIUM"/>
</svg>
