<svg xmlns="http://www.w3.org/2000/svg" width="1920" height="1080" viewBox="0 0 1920 1080" preserveAspectRatio="xMidYMid slice">
	<defs>
		<style>@import url('https://fonts.googleapis.com/css2?family=Zilla+Slab:ital,wght@0,700;1,400');</style>
		<pattern id="bordure" width="10" height="20" patternUnits="userSpaceOnUse" patternTransform="rotate(-45)">
			<path d="M0,5H10" stroke-width="10" stroke="#e11a81" />
		</pattern>
	</defs>
	<!-- Décor -->
	<g>
		<rect fill="#b40b57" width="100%" height="100%"></rect>
		<rect fill="none" width="100%" height="100%" stroke="url(#bordure)" stroke-width="24"></rect>
		<g fill="#e11a81" transform="translate(1448, 88) rotate(6)">
			<path id="vague" d="M5.02.2C.33.64-1.8 7.03 2.04 10c0 0 3.4 2.55 8.08 5.53 4.69 2.98 10.22 6.39 16.6 6.39 6.4 0 10.65-3.83 14.06-6.81 2.98-2.56 5.53-3.83 7.23-3.83 1.28 0 3.84 1.27 7.24 3.83 3.4 2.98 7.66 6.81 14.05 6.81 6.39 0 10.64-3.83 14.05-6.81 2.98-2.56 5.53-3.83 7.24-3.83 1.27 0 3.83 1.27 7.23 3.83 3.4 2.98 7.67 6.81 14.05 6.81 6.39 0 10.65-3.83 13.63-6.81 3.4-2.56 5.96-3.83 7.66-3.83 1.28 0 3.83 1.27 7.24 3.83 3.4 2.98 7.66 6.81 14.04 6.81 6.39 0 10.65-3.83 13.63-6.81 3.4-2.56 5.96-3.83 7.66-3.83 1.28 0 3.83 1.27 7.24 3.83 3.4 2.98 7.66 6.81 14.05 6.81 6.38 0 11.5-3.4 16.17-6.39 4.69-2.98 8.52-5.53 8.52-5.53 5.96-4.26-1.28-13.62-6.81-8.51 0 0-2.98 2.55-7.24 5.1-3.83 2.56-9.37 4.69-10.64 4.69-1.7 0-4.26-1.7-7.24-4.26-3.4-2.55-7.66-6.39-14.05-6.39-6.39 0-10.64 3.84-14.05 6.39-3.4 2.55-5.96 4.26-7.24 4.26-1.7 0-4.25-1.7-7.66-4.26-2.98-2.55-7.24-6.39-13.62-6.39-6.39 0-10.64 3.84-14.05 6.39-3.4 2.55-5.96 4.26-7.24 4.26-1.7 0-4.25-1.7-7.66-4.26C101.23 4.47 96.97.63 90.59.63c-6.39 0-10.65 3.84-14.05 6.39-3.4 2.55-5.96 4.26-7.24 4.26-1.7 0-4.26-1.7-7.24-4.26C58.66 4.47 54.4.63 48.01.63c-6.38 0-10.64 3.84-14.04 6.39-3.41 2.55-5.96 4.26-7.24 4.26-1.7 0-6.81-2.13-11.07-4.69a183.4 183.4 0 0 1-7.24-5.1A4.84 4.84 0 0 0 5.02.2z"/>
			<use href="#vague" x="0" y="24"></use>
			<use href="#vague" x="0" y="48"></use>
			<use href="#vague" x="0" y="72"></use>
			<use href="#vague" x="0" y="96"></use>
		</g>
		<path fill="#fff" transform="translate(1648, 72)" d="M96 0A96 96 0 0 0 0 96a96 96 0 0 0 96 96 96 96 0 0 0 96-96A96 96 0 0 0 96 0Zm44.44 42.86c2.37 0 4.4.53 6.1 1.59a9.15 9.15 0 0 1 3.18 3.45c.81 1.48.51 4.15.51 4.15l-5.42 2.12a7.68 7.68 0 0 0-1.55-4.23 3.26 3.26 0 0 0-2.64-1.1c-1.23 0-2.15.55-2.79 1.63a6.25 6.25 0 0 0-.77 3.24c0 2.02.87 4.08 2.6 6.17.66.8 1.65 1.73 2.96 2.82a49.14 49.14 0 0 1 3.07 2.7 22.74 22.74 0 0 1 3.8 4.87c.43.75.77 1.44 1.03 2.08.63 1.57.96 2.98.98 4.23.05 3.07-.75 5.7-2.4 7.89a8.65 8.65 0 0 1-4.57 3.13c-1.06.33-2.3.5-3.7.5-2.61 0-4.77-.65-6.48-1.94a10.82 10.82 0 0 1-3.4-4.32c-.84-1.82-.51-5.3-.51-5.3l5.39-1.4c.28 2.57.96 4.43 2.04 5.59a3.4 3.4 0 0 0 2.75 1.24c1.45-.05 2.61-.77 3.49-2.15.44-.69.66-1.66.66-2.93 0-1.83-.83-3.66-2.5-5.47l-5.92-5.6a25.26 25.26 0 0 1-4.68-5.75 13.3 13.3 0 0 1-1.48-6.2c0-4.03 1.35-7.07 4.05-9.14a10.07 10.07 0 0 1 6.2-1.87zm-98.1.56h10.5c3.23 0 5.82 1.02 7.75 3.07 1.78 1.95 2.67 4.44 2.67 7.47v6.4c0 2.92-1.01 5.41-3.05 7.48a9.96 9.96 0 0 1-7.38 3.1H49v16.63h-6.66zm50.69 0h10.5c3.7 0 6.43 1.02 8.17 3.07 1.53 1.78 2.3 4.27 2.3 7.47v6.4a10.3 10.3 0 0 1-3.57 7.94l4.93 19.27h-7.2l-4.03-16.63h-4.44v16.63h-6.66zm-21.98 0H82.1l7.4 44.15h-7.53l-3.74-12.08 5.6.52-9.54-14.75-3.67 17.18 5.06-2.48.74 11.6H63.54Zm48.11 0h6.66v44.15h-6.66V43.42ZM49 50.22v14.13h4.02c1.06 0 1.95-.37 2.7-1.13a3.73 3.73 0 0 0 1.1-2.7v-6.46a3.8 3.8 0 0 0-1.03-2.78A3.7 3.7 0 0 0 53 50.22h-4.02Zm50.7 0v14.13h4.01c1.06 0 1.96-.37 2.7-1.13a3.73 3.73 0 0 0 1.1-2.7v-6.46c0-2.56-1.26-3.84-3.8-3.84H99.7zm-8.66 46.25h24.9v8.8H99.78v15.81h11.8v8.8h-11.8v15.82h16.15v8.79h-24.9V96.47Zm30.9 0h13.1c3.46 0 6.57.91 9.35 2.73 2.38 1.54 4.07 3.93 5.09 7.17.55 1.73.84 3.78.84 6.16 0 3.88-1.04 7-3.11 9.34a8.75 8.75 0 0 1-3.05 2.27c1.94.74 3.59 2.2 4.95 4.39.9 1.49 1.55 3.4 1.99 5.74.21 1.2.32 2.54.32 4.03 0 3.66-.7 6.78-2.08 9.34a12.52 12.52 0 0 1-4.58 4.81 12.63 12.63 0 0 1-6.61 2.04h-16.2V96.47Zm-79.6.05h9.16l4.58 31.04 4.21-31.04h9.16l4.58 31.02 4.24-31.02h9.18l-9.07 57.97h-8.32l-4.99-31.9-4.66 31.9h-8.36l-9.7-57.97zm89.05 8.84v14.8h3.66c2.71 0 4.53-1.33 5.45-3.98.34-.98.51-2.2.51-3.65 0-2.41-.58-4.23-1.75-5.46a5.54 5.54 0 0 0-4.21-1.71zm0 23.17v17.3h3.66c2.96 0 5-1.52 6.15-4.57.4-1.05.6-2.25.6-3.61 0-3.24-.61-5.6-1.85-7.08-1.1-1.36-2.74-2.04-4.9-2.04h-3.66z"/>
	</g>
	<!-- Contenu -->
	<g font-family="Zilla Slab" fill="#fff" width="1680">
		<!-- @todo Gérer l’alignement par le bas et wrap -->
		<text font-size="88"><tspan x="120" y="314">Du CSS aux shaders WebGL :</tspan><tspan x="120" y="400">panorama des techniques d’animation</tspan><tspan x="120" y="486">en 2023</tspan></text>
		<text x="120" y="600" font-size="48" font-style="italic">--</text>
		<g id="orateurices">
				
				
				
				<image href="https://www.paris-web.fr/assets_c/2023/05/julien-sulpis-paris-web-thumb-200x200-1808.jpg" width="64" height="64" x="120" y="624" style="clip-path: circle();"/>
				<text x="200" y="672" font-size="48" font-style="italic">Julien Sulpis</text></g>
		<text id="edition" x="1280" y="660" font-size="48">
			Paris Web — <tspan font-size="48" font-style="italic">18<sup>e</sup> édition</tspan>
		</text>
		<text id="date" x="1280" y="700" font-style="italic" font-size="40">
			29 septembre 2023 à 17h00
		</text>
	</g>
</svg>
